<svg id="Layer_1" data-name="Layer 1" xmlns="http://www.w3.org/2000/svg" viewBox="0 0 350 238"><defs><style>.cls-1{fill:#2121e8;}</style></defs><path class="cls-1" d="M343.39,219.26h0a2.42,2.42,0,0,0-.06-2.71l-.74-1.28c-.71-1.25-1.45-2.54-2.26-3.77a14.7,14.7,0,0,0-2.2-2.48,25.55,25.55,0,0,1-5.85-7.46l-.52-1.12a37.75,37.75,0,0,0-3-5.69l-.39-.57-.05-.09c-1.25-1.89-2.54-3.83-5.4-4.45-2.29-.49-4.6-.92-6.84-1.59-1.55-.45-3.1-.93-4.66-1.37l-.59-.15a7.61,7.61,0,0,1-1.65-.55,2.79,2.79,0,0,1,.74-.27l.24-.07c1.75-.5,2-.85,1.83-2.69,0,0,0-.09,0-.13.5-1.16.07-2.1-1.27-2.79-.74-.39-1.47-.73-2.35-1.14l-2.29-1.08c-1.87-.89-3.8-1.81-5.75-2.63s-3.81-1.5-5.68-2.18l-1.38-.5c-1-.37-2.73-.94-3.57-1.22a72.84,72.84,0,0,1-8.47-3.62l-2-1a7.42,7.42,0,0,0-6.86.05c-.79.41-1.6.8-2.41,1.19-1,.45-2,1-3.07,1.52a.94.94,0,0,1-1.21-.09l-.14-.1c-.82-.58-1.66-1.18-2.54-1.71l-1.29-.82a27,27,0,0,0-3.57-2c-2-.87-4-1.67-6-2.44l-.07,0-2.39-.93c-.75-.3-1.94-.83-2.67-1.17l-.69-.33-.75-.37-.08-.05a16.38,16.38,0,0,0-1.69-.78,83.77,83.77,0,0,1-16.13-8.47c-1.78-1.15-2.42-2.58-1.94-4.38a3.56,3.56,0,0,0-.66-2.63c-.77-1.15-1.6-2.27-2.4-3.35-.51-.69-1-1.37-1.5-2.06a52.49,52.49,0,0,0-6.22-7,6.6,6.6,0,0,0-1.78-1.2,21.89,21.89,0,0,1-7.06-5.41,42.27,42.27,0,0,0-8.13-6.77c-.8-.55-1.59-1.11-2.38-1.68l-1.21-.88c-1.45-1.06-2.95-2.16-4.4-3.27l-1.14-.89c-2.31-1.8-4.71-3.66-7.14-5.39-1.06-.75-2.18-1.4-3.28-2-.69-.39-1.48-.84-2.22-1.32l-1-.62a25.51,25.51,0,0,1-4.92-3.67,14.89,14.89,0,0,0-2.66-2l-.75-.51c-.93-.63-1.86-1.26-2.8-1.88l-.12-.08c-1.55-1-3.16-2.13-4.7-3.24-1.29-.93-2.54-2-3.76-3a56.13,56.13,0,0,0-4.8-3.72c-3.78-2.53-7.48-5.32-11.05-8l-1.31-1a29.66,29.66,0,0,0-7.13-4c-1.76-.69-4.06-1.62-6.28-2.73l-.51-.26a45,45,0,0,0-9.26-3.79,6.47,6.47,0,0,1-1-.34,6.52,6.52,0,0,0-1.57-.47c-1.91-.25-3.84-.44-5.71-.62l-4.45-.45c-1.75-.17-3.51-.35-5.27-.55a2.66,2.66,0,0,1-.64-.17A11.64,11.64,0,0,0,100.14,55c.82-2.75,1.43-5.6,2-8.36l.18-.84c.09-.41.16-.82.23-1.23a8.55,8.55,0,0,1,1.32-3.82,4.89,4.89,0,0,0,.85-2.22c.71-4.09,1.39-8.21,2-12.24a8.17,8.17,0,0,0-.72-4.71,12.29,12.29,0,0,0-.68-1.24,9.88,9.88,0,0,1-.66-1.23,5.73,5.73,0,0,0-4.59-3.68,1.49,1.49,0,0,1-1.26-1.3,4.49,4.49,0,0,0-.46-1.27L98,12.16a27.08,27.08,0,0,0-1.84-3,3.38,3.38,0,0,0-2.46-1.27,3.32,3.32,0,0,1-2.2-.7,4.84,4.84,0,0,0-3-1.17h0a10.57,10.57,0,0,1-4-.71,8.92,8.92,0,0,0-6.68,0c-1.44.59-3,1.08-4.51,1.58a10.41,10.41,0,0,0-6.18,4.85A3.8,3.8,0,0,1,64.32,14a6.28,6.28,0,0,0-1.09.33l-.4.15a5.08,5.08,0,0,0-3.46,4.32c-.21,1.05.46,3.47-.6,4.44a3,3,0,0,0-.66,3.39,3.36,3.36,0,0,0-1.17-.87,1.78,1.78,0,0,0-1.35.74,14.49,14.49,0,0,0-2.31,8.39c0,1.86.24,3.73.45,5.53L53.91,42l.05.46a37.56,37.56,0,0,0,.62,4.27,31.68,31.68,0,0,0,2.8,7.37c.29.59.29.59-.09.92-1.15,1-2.39,1.94-3.68,2.89l-1.22.93c-.31.25-.63.48-1,.71l-.9.62c-2,1.35-4,2.75-6,4.09-.65.43-1.32.84-2,1.25s-1.47.9-2.19,1.39c-.93.62-1.85,1.29-2.75,1.93-1.44,1-2.93,2.1-4.46,3a45,45,0,0,0-9.45,7.35,11.59,11.59,0,0,1-1.6,1.32l-.4.3-2,1.44c-1.05.76-2.13,1.54-3.18,2.36l-.3.24A27.86,27.86,0,0,0,12.65,88,25.21,25.21,0,0,0,8,95,31.53,31.53,0,0,0,6.6,98.69c-1.3,4.78-.33,8.59-.07,11a4,4,0,0,0,1.35,1.42,15.74,15.74,0,0,0,5.45,2.16c3.48.65,7,1.28,10.83,1.94a5.5,5.5,0,0,0,1.81,0l1-.16c2.23-.33,4.53-.68,6.78-1.12,3.14-.61,7.27-1.42,11.4-2.38,5.2-1.19,9.89.14,14.32,4.08,1.39,1.24,2.7,2.61,4,3.94.49.52,1,1,1.48,1.54.73.75,1.45,1.51,2.17,2.27,1.47,1.56,3,3.17,4.6,4.64a54.28,54.28,0,0,0,4.92,3.84l1.33,1A7.51,7.51,0,0,0,80.2,134,14.47,14.47,0,0,1,87,138.31a45.91,45.91,0,0,0,5.67,5l.88.69a23.29,23.29,0,0,0,6.58,4,3,3,0,0,1,1,.87l.46.54c.86,1,2.21,2.79,3,3.9a44.41,44.41,0,0,0,8.19,8.44c.41.34.83.66,1.25,1a29.52,29.52,0,0,1,2.27,1.89l.4.39a11.25,11.25,0,0,0,3.09,2.38,5,5,0,0,1,1.29,1l.4.36c.46.41.91.85,1.35,1.28a17.89,17.89,0,0,0,3,2.58c.62.38,1.23.79,1.85,1.2a25,25,0,0,0,6.42,3.41,1.44,1.44,0,0,1,.38.24l.22.16,1.85,1.31c1.32.94,2.68,1.91,4.06,2.82a23.31,23.31,0,0,0,3.18,1.72c.73.34,1.46.66,2.24,1a63.52,63.52,0,0,1,7.06,3.51,8.48,8.48,0,0,0,1.8.75l.13,0c.35.11.7.2,1.06.29a10.32,10.32,0,0,1,1.36.41c1.64.69,3.32,1.36,4.95,2l.08,0,2.84,1.13a5.36,5.36,0,0,1,1.87.65c5.6,3.23,11.45,4.33,17.34,6.72q2.21.9,4.3,2H189a40.62,40.62,0,0,0,9.18,1.46,48.24,48.24,0,0,0,6.17-.36l.83-.08a23.26,23.26,0,0,0,2.75-.48l1.12-.23c.39-.08.79-.14,1.18-.2a17.24,17.24,0,0,0,2.71-.58c1.65-.55,3.36-1,5-1.49a62.61,62.61,0,0,0,8.86-3,4.23,4.23,0,0,1,.71-.23c.2-.06.41-.11.61-.18l.21-.07c3.07-1.07,6.15-2.13,9.22-3.21.93-.32,1.85-.65,2.78-1l.11,0c1.92-.69,3.91-1.4,5.89-2l.35-.11a3.87,3.87,0,0,0,2.48-1.59l3.38.42c3.84.49,8.2,1,12.41,1.6,1.93.26,5.06.78,6.86,1.11a54.1,54.1,0,0,0,10.45,1,16.31,16.31,0,0,1,3.66.42c1.67.35,3.37.74,5,1.11,2.12.48,4.31,1,6.49,1.41a21.3,21.3,0,0,1,7.45,2.54c.86.54,1.68,1.15,2.29,1.62l2.25,1.7.07,0c2.08,1.57,4.23,3.18,6.27,4.84,1.63,1.33,3.24,2.73,4.84,4.13,1.12,1,2.24,2,3.38,2.92.72.61,1.47,1.19,2.21,1.75s1.63,1.26,2.4,1.92c.57.5,1.14,1,1.64,1.5a26,26,0,0,0,4.19,3.39,4.33,4.33,0,0,1,.72.61c.17.16.33.31.5.45l.42.36a14.08,14.08,0,0,0,1.4,1.09,2.11,2.11,0,0,0,1.13.39,1.73,1.73,0,0,0,.32,0,2.15,2.15,0,0,0,1.27-1.11,1.89,1.89,0,0,1,.53-.59l.53-.34.06,0c1.08-.68,2.55-1.6,2.08-3.69ZM271,170.67a27.35,27.35,0,0,1,3.53-1.64,4.21,4.21,0,0,1,3.34.12l1.85.92c1,.53,2.12,1.07,3.22,1.54,1.44.61,2.92,1.15,4.41,1.7l1.92.7,2.06.78,4.38,1.66,1.35.5.12.05c1.33.49,2.71,1,4,1.61q2.63,1.21,4.37,2.09c-1.8,0-2.67.09-3,.74a1.08,1.08,0,0,0,.2,1.21l1.12,1.15a.38.38,0,0,1,.12.35.41.41,0,0,1-.21.3,1.84,1.84,0,0,1-1.58,0c-1.89-.7-3.88-1.31-5.84-1.91-1-.3-2-.58-3-.86-1.56-.44-3.17-.9-4.72-1.43a108.64,108.64,0,0,1-17.75-7.89,4.61,4.61,0,0,1-1-.87A6.22,6.22,0,0,1,271,170.67ZM69.49,28.64a6.91,6.91,0,0,1,1.2-1.27c.4-1.07,8.61.1,11-4.31.36-.67,2.16-.78,2.59-.59s4.08,1,5.71,1.47a13,13,0,0,0,2.81.62,5.43,5.43,0,0,1,4.78,5.26,4.27,4.27,0,0,0,.49,1.7l1,1.87a6.51,6.51,0,0,1,1,2.58c0,.41.11.83.17,1.24a8.52,8.52,0,0,1-.19,4.68,1.84,1.84,0,0,0-.17.68A37.06,37.06,0,0,1,98.52,50l-.1.39c-.23.93-.67,2.43-1,3.34l-.21.63a9.19,9.19,0,0,1-4.38,5.15A7.14,7.14,0,0,0,90,62.48a3.52,3.52,0,0,1-2.91,2,8.06,8.06,0,0,1-5.95-1.43,5.55,5.55,0,0,0-1.83-.88,22.22,22.22,0,0,1-5.39-2.26c-.76-.4-1.55-.82-2.36-1.19a3.07,3.07,0,0,1-1.92-3c0-1.46-.16-2.92-.3-4.33-.06-.51-.11-1-.15-1.51s-.84-4.4-1-5.23a22.73,22.73,0,0,1-.48-5,11.38,11.38,0,0,0-.12-2.79C66.59,33.93,67.75,31.07,69.49,28.64Zm50.8,135.15a2.08,2.08,0,0,1-1.2-.37,48.51,48.51,0,0,1-9.77-8,44.34,44.34,0,0,1-4.59-6,13.27,13.27,0,0,0-5.24-4.63,29.15,29.15,0,0,1-10.91-8.82,11.74,11.74,0,0,0-5-3.93,31.63,31.63,0,0,1-10-6.54,20.94,20.94,0,0,1-1.84-2.1c-.25-.32-.5-.63-.76-.94-.85-1-1.71-2-2.62-3.05l-.42-.47c.55,0,1.11,0,1.65.07l2.68.13c1.52.08,3.24.17,4.9.18a4.53,4.53,0,0,0,2.2-.67,8.58,8.58,0,0,1,3.47-1.24,4.77,4.77,0,0,0,1.1-.32l.45-.16a.73.73,0,0,0,.44-.4.71.71,0,0,0,0-.59,1.84,1.84,0,0,0-2.48-1.29c-.43.15-.89.26-1.35.39a10.82,10.82,0,0,0-3.2,1.22,2.74,2.74,0,0,1-1.42.31c-2.77-.1-5.47-.21-8.18-.46a8.54,8.54,0,0,1-1.84-.49c-.39-.14-.84-.29-1.29-.41a12.51,12.51,0,0,1-5.11-2.73,18.17,18.17,0,0,0-13.14-4.06,21.4,21.4,0,0,0-3.9.7l-1.13.27c-.82.19-1.64.4-2.45.61-1,.25-2,.51-3,.72A64.52,64.52,0,0,1,24,111.94a16.88,16.88,0,0,1-2.65-.26l-.43-.06c-1.84-.27-3.81-.57-5.71-.93a36.79,36.79,0,0,1-3.82-.9,2.5,2.5,0,0,1-1.67-1.35,1,1,0,0,0-.09-.15,5.61,5.61,0,0,1-1-2.16,1.32,1.32,0,0,0,0-.18c-.5-1.19-.14-2.52.34-4l.11-.35a32.07,32.07,0,0,1,3.51-8.27,24.29,24.29,0,0,1,5.8-6.3c.47-.34,1.19-.93,1.55-1.23l.78-.65,2.41-2,1.76-1.53.05,0c1.17-1,2.38-2.07,3.62-3,1.52-1.22,3.19-2.34,4.76-3.4.82-.55,1.69-1.08,2.52-1.59a40.47,40.47,0,0,0,4.75-3.22,51,51,0,0,1,4.95-3.51l.05,0c.67-.44,1.35-.88,2-1.34l1.94-1.31c2.49-1.69,5.07-3.44,7.57-5.21A16.29,16.29,0,0,0,59,57.16l.12-.08.83.62a.81.81,0,0,0,.75.11,1.67,1.67,0,0,0,1.11-1.05,1.78,1.78,0,0,0-.48-1.55,20.31,20.31,0,0,1-3.71-7.77,56.55,56.55,0,0,1-1-6.57c-.14-1.19-.21-2.41-.26-3.6,0-.61.58,1.7.61,1.78.18.57.19.94.68,1s1.19-.5,1.12-4c.18.68.47,4.41.77,4.69,2,1.86.93-4.55,1.25-4.69,0,0,.85,5.43.87,5.69s.34,1.54.8,1.43a.73.73,0,0,0,.58-.67l.19-2.87a17.28,17.28,0,0,1,1.22,3.6l.51,1.72c.51,1.74,1,3.54,1.48,5.32a8,8,0,0,1,.14,1.87c0,.37,0,.75,0,1.12l.21,3,.14,1.83A3.89,3.89,0,0,1,65.77,61l-.64.74c-1.8,2.07-3.6,4.14-5.38,6.23-1.58,1.85-3.16,3.72-4.73,5.58q-1.83,2.17-3.68,4.34l-2.88,3.39-.13.14c-1.64,1.92-3.28,3.84-4.9,5.77a14.42,14.42,0,0,0-1.66,2.47A42.88,42.88,0,0,1,33.18,101,6.39,6.39,0,0,0,31,105.07a.76.76,0,0,0,.21.59.78.78,0,0,0,.58.23,5.16,5.16,0,0,0,3.67-2,55,55,0,0,0,3.47-4.34c.82-1.15,1.56-2.35,2.28-3.52.38-.61.75-1.21,1.14-1.81s.73-1.18,1.12-1.82a41.16,41.16,0,0,1,2.86-4.06c1.41-1.69,2.87-3.35,4.29-5,.91-1,1.81-2,2.71-3.09s1.89-2.26,3-3.68l2.27-3c1.25-1.63,2.53-3.32,3.84-4.93.74-.92,1.57-1.8,2.38-2.66.55-.59,1.11-1.19,1.65-1.8.79-.89,1.55-1.82,2.37-2.8l.75-.91a10.42,10.42,0,0,1,1,.53c.64.41,1.26.83,1.91,1.27,1.22.81,2.47,1.66,3.79,2.38a24.63,24.63,0,0,0,3.41,1.43l.06,0c.46.17.92.33,1.37.51a2.42,2.42,0,0,0,.36.1l.12,0a7.78,7.78,0,0,0,6.3.79,6.62,6.62,0,0,0,4.3-2.9c.46-.69.9-1.3,1.35-1.85a.86.86,0,0,1,.19-.11,7.75,7.75,0,0,0,4.21,1.3h.14c1.65.18,3.33.29,5,.4l2,.14,1.19.08c2.94.19,5.72.37,8.27,1.72a3.47,3.47,0,0,0,1,.29l.37.07.74.2a16.36,16.36,0,0,1,1.94.62c1.4.59,2.82,1.21,4.23,1.84l3.28,1.43c1.14.49,2.3.94,3.42,1.37l.79.3a30.92,30.92,0,0,1,6.94,4.23l.51.37c2.12,1.56,4.23,3.2,6.27,4.78L148,85a14.8,14.8,0,0,0,1.44.94c.44.27.85.52,1.24.8,1,.75,2,1.5,3,2.29l.06,0c1.57,1.2,3.2,2.45,4.85,3.61.86.61,1.68,1.28,2.47,1.94a25.38,25.38,0,0,0,4.71,3.29,3.4,3.4,0,0,1,.76.52,53.37,53.37,0,0,0,7.83,5.57c1.27.8,2.58,1.62,3.83,2.47l2.37,1.61a93.87,93.87,0,0,1,11.63,8.79,29.36,29.36,0,0,0,4.9,3.44l.21.12a32.79,32.79,0,0,1,7.45,5.87A18.81,18.81,0,0,0,209,130a4.63,4.63,0,0,1,.87.77,8.36,8.36,0,0,0,.81.75h0c.39.31.81.58,1.21.85a13.13,13.13,0,0,1,1.36,1,17.69,17.69,0,0,1,2.38,2.35c1.12,1.38,2.21,2.84,3.26,4.25l.94,1.25a.44.44,0,0,1,.08.11,1.73,1.73,0,0,0-1.12.2,1.3,1.3,0,0,0-.62.9,1.37,1.37,0,0,0,.12.78l-.62-.42a1.71,1.71,0,0,0-1.6.09,1,1,0,0,0-.4.54,1.7,1.7,0,0,0,.24,1.23c.34.49.7,1,1.07,1.46l.76,1a5.27,5.27,0,0,0-1.1-.69,1.66,1.66,0,0,0-1.69.21,1.49,1.49,0,0,0-.18,1.57,2,2,0,0,0-2.56-.74.73.73,0,0,0-.44.64,4.47,4.47,0,0,0,.13,1.17,70.9,70.9,0,0,1-4.2-7.11.91.91,0,0,0-.08-.13.52.52,0,0,0-.1-.11,7.57,7.57,0,0,1-1.86-4.09c-.06-.26-.12-.52-.19-.78a15.4,15.4,0,0,0-1.37-3.26l-.25-.49a5.3,5.3,0,0,0-2.42-2.18c-1.83-1-3.66-2-5.43-3.06l-2.49-1.42-3.32-1.88-3-1.71a2.39,2.39,0,0,1-.44-.29c-3.15-2.81-6.93-4.37-11.18-6l-1.61-.61-.13,0c-1.06-.39-2.15-.8-3.22-1.23l-1.94-.77c-2.34-.94-4.75-1.9-7.08-3a36.32,36.32,0,0,1-3.36-1.82l-1.24-.75-1.05-.63c-2.29-1.36-4.76-2.84-7.22-4.41-1.68-1.07-3.4-2.24-5.12-3.49-3.65-2.67-7.54-5.52-11.41-8.47-1.51-1.14-3-2.4-4.38-3.61l-1.13-1a7.65,7.65,0,0,0-.94-.67L123.42,85l-.37-.21a1,1,0,0,0-.27-.09l-.26,0-.37-.08a.71.71,0,0,0-.34,0h-.09a.73.73,0,0,0-.36.15l-.29.23a1.26,1.26,0,0,0-.44.8c0,.42.18.61.58,1a8.54,8.54,0,0,1,2.21,2.54l-.56,1.36a40,40,0,0,1-1.82,4,16.28,16.28,0,0,1-5,5.62,15.24,15.24,0,0,0-4.82,5.43.73.73,0,0,0,.13.84,1.78,1.78,0,0,0,1.42.69,1.72,1.72,0,0,0,1.25-.85,9.39,9.39,0,0,1,1.18-1.38l.24-.25a22,22,0,0,1,3.5-3.07,11.26,11.26,0,0,0,4.2-4.78c.59-1.29,1.27-2.52,2-3.83l.06-.1.5-.91a20.22,20.22,0,0,1,2.22,2.35l1.58,1.89c1.81,2.19,3.69,4.45,5.69,6.55a46.61,46.61,0,0,0,4.05,3.66c.66.54,1.31,1.09,1.95,1.66a60.09,60.09,0,0,0,9.15,6.38l.38.24a5.46,5.46,0,0,0,1.32.67,21.91,21.91,0,0,1,4.33,2l.14.07a12.54,12.54,0,0,1,2.64,2l.36.38a1.48,1.48,0,0,1,0,.69c-.11.66-.25,1.32-.39,2-.19.85-.38,1.74-.5,2.63-.24,1.8-.43,3.67-.59,5.31-.08.78-.16,1.56-.25,2.34V133c-.08.77-.17,1.54-.27,2.32a2.92,2.92,0,0,1-1.88,2.25A4.27,4.27,0,0,0,153,141.8a7,7,0,0,1-.83,3c-.11.25-.22.5-.32.76a2.75,2.75,0,0,1-.8.82c-.2.17-.39.33-.57.5a44.39,44.39,0,0,1-6.4,4.86l-1.43,1a14.44,14.44,0,0,1-3.75,1.76,30.61,30.61,0,0,0-9,5,15.34,15.34,0,0,1-2.51,1.37c-.44.2-.87.41-1.3.63-.62.33-1.15.57-1.64.78l-.87.37A31.5,31.5,0,0,1,120.29,163.79Zm82.65-26a3,3,0,0,1-.62-.34l-.35-.22c-1.51-.86-3-1.75-4.5-2.63l-2.25-1.33-1.78-1-.1-.06c-1.29-.74-2.63-1.5-3.89-2.31a17.9,17.9,0,0,1-1.72-1.34c-.48-.4-1-.81-1.5-1.18-1.46-1-3-1.94-4.22-2.69-1-.6-2-1.17-3-1.75-1.44-.83-3.06-1.76-4.58-2.71a24.66,24.66,0,0,0-5.76-2.46c-1.87-.6-4.85-1.5-6.68-2a49.81,49.81,0,0,1-9.43-3.71l-1.33-.64a38.86,38.86,0,0,1-4.67-2.52c-1.4-.94-2.75-2-3.77-2.82-.79-.64-1.58-1.35-2.37-2-.32-.29-.64-.58-1-.86A79,79,0,0,1,131,94l-.39-.5.81.57L136.73,98c2.92,2.18,6,4.43,9,6.63,1.52,1.09,3.13,2.08,4.69,3l.08,0c.62.39,1.25.77,1.87,1.17l1.36.86c1.28.83,2.61,1.68,4,2.46a59.53,59.53,0,0,0,8.64,4.07c1.39.54,2.81,1,4.2,1.53a64.71,64.71,0,0,1,10.59,4.49c1.18.67,2.36,1.4,3.51,2.12s2.2,1.36,3.34,2c1.89,1.09,3.82,2.16,5.7,3.19l.28.16,2.71,1.5.92.51c1,.54,2,1.09,2.93,1.7a3.33,3.33,0,0,1,1.1,1.21c.45.9.82,1.82,1.21,2.8Zm-61.12,40.63a1.88,1.88,0,0,1-.53-.07l-.14,0-.12-.1a33.55,33.55,0,0,0-7.77-4.75c-1.42-.69-2.88-1.41-4.24-2.22a20.91,20.91,0,0,1-5.71-4.85,1.69,1.69,0,0,1-.24-.39,1,1,0,0,1,.38-.25c.79-.39,1.64-.75,2.44-1.08s1.6-.68,2.38-1.06l.58-.27a12.57,12.57,0,0,0,3.19-1.91,10.6,10.6,0,0,1,4-2c.41-.13.81-.26,1.21-.41a17.41,17.41,0,0,0,3.16-1.43c2.23-1.38,4.52-2.89,6.83-4.49,1-.69,1.93-1.47,2.84-2.22l.83-.68c.38-.32.75-.65,1.12-1l.57-.51a11.56,11.56,0,0,0,3.18-5.86c.33-1.15.67-2.34,1.67-2.83,3-1.49,3.59-4.21,3.92-6.87.16-1.29.24-2.64.31-3.83h-.25l.25,0c.08-1.24.16-2.53.32-3.78a29.75,29.75,0,0,1,1.05-4.44l.1-.32c.21-.74.47-.87.92-.87a3.05,3.05,0,0,1,.55.06,30.09,30.09,0,0,1,9.76,3.77c1.86,1.1,3.68,2.18,5.47,3.29a14.1,14.1,0,0,1,1.31,1l.55.43a1,1,0,0,1,.42,1.19.68.68,0,0,0,0,.2c0,.67.06,1.35.1,2,.08,1.63.16,3.31.19,5a19,19,0,0,1-.19,2.59l-.07.58c-.1.9-.22,1.81-.34,2.71a49.47,49.47,0,0,0-.6,9.62,21.85,21.85,0,0,0,.34,2.43l.08.45c.09.48.18,1,.25,1.46.1.67.24,1.35.38,2a14.05,14.05,0,0,1,.46,4c-.15,1.7-2.61,4-3,4.06l-.77.1a28.46,28.46,0,0,1-3.31.3,26.11,26.11,0,0,0-5.79.89c-.65.15-1.31.3-2,.43s-1.21.31-1.78.49c-.4.12-.8.24-1.2.34a37.79,37.79,0,0,0-6.2,2.28l-1.69.72-2.48,1c-1.45.6-2.91,1.2-4.35,1.82-.75.32-1.49.66-2.23,1l-.07,0c-.92.42-1.87.86-2.81,1.25A28.53,28.53,0,0,1,141.82,178.45ZM243,188.37l-3.58,1.37-.06,0c-2.84,1.08-5.78,2.21-8.7,3.22-3.55,1.23-7.16,2.37-10.66,3.47l-.28.09-3.22,1a46.83,46.83,0,0,1-4.55,1.17l-2.06.41a59.58,59.58,0,0,1-8.6,1.33A39.72,39.72,0,0,1,182.75,197c-1.09-.49-2.23-.92-3.35-1.34a35.19,35.19,0,0,1-4.75-2,107.12,107.12,0,0,0-13.93-5.94l-1.58-.58a88.14,88.14,0,0,1-9.72-4.56l-.23-.12-2.54-1.31a2.91,2.91,0,0,1-.67-.48c2-.92,4-1.82,6.06-2.75l.68-.31c1.81-.81,3.61-1.63,5.42-2.43a67.23,67.23,0,0,1,15.63-4.73,6.2,6.2,0,0,1,1.61,0,9.5,9.5,0,0,0,2.73-.08h.1l.58-.07a9,9,0,0,0,4.51-1.69.94.94,0,0,1,1.09-.13c2.62.94,5.42,1.93,8.81,3.09l6.94,2.37.3.1,7.85,2.68c.78.27,1.55.57,2.3.86s1.66.63,2.53.93l1.73.59c2.63.89,5.35,1.82,8.07,2.62,3.24.94,6.56,1.85,9.76,2.72l.09,0,5.52,1.51c1.82.51,3.64,1,5.46,1.58l.91.27Zm96.15,27.42a13,13,0,0,1-1.41.67c-.13.06-.27,0-.6-.13a1.73,1.73,0,0,0-2.18.32h0a.76.76,0,0,0-.19.5,4.38,4.38,0,0,0,.77,2.29,10.64,10.64,0,0,1-2-1.52,65.12,65.12,0,0,0-8.14-6.88,38.78,38.78,0,0,1-5.56-4.74,61.67,61.67,0,0,0-8.24-6.73c-1-.72-2-1.46-3-2.21a24.58,24.58,0,0,0-11-4.65c-2.47-.43-5-1-7.41-1.61-1.35-.32-2.69-.64-4.05-.94a11.7,11.7,0,0,0-2.46-.33h-.46a35.88,35.88,0,0,1-11.63-1,53.45,53.45,0,0,0-7.19-1.15h-.09l-2.38-.28-2.72-.35c-3.82-.49-7.77-1-11.62-1.71a54.8,54.8,0,0,1-6.36-1.71l-2.88-.87-1.65-.47c-1.39-.4-2.83-.82-4.25-1.18-1.25-.33-2.52-.62-3.74-.9-2.22-.52-4.52-1.05-6.7-1.74-3.84-1.22-7.71-2.57-11.46-3.88-2-.69-3.93-1.38-5.9-2.05-1.22-.42-2.44-.81-3.68-1.21-1.8-.58-3.67-1.19-5.48-1.85-2-.73-4-1.55-6-2.34l-.17-.07c-1.08-.44-2.17-.88-3.26-1.3-.38-.15-.36-.19-.29-.4a9.45,9.45,0,0,0,.19-4.65l-.05-.33c-.15-1.19-.37-2.39-.56-3.45a35.22,35.22,0,0,1-.76-6.08,53.88,53.88,0,0,1,.81-9.53,29.87,29.87,0,0,0,.1-9c0-.14,0-.28-.07-.42a2.69,2.69,0,0,1,0-1,10.4,10.4,0,0,1,1.06.51l1.41.78c2,1.09,4,2.22,6,3.38,1.4.82,2.78,1.69,4.12,2.52l.07,0,2.9,1.79c.42.26.87.49,1.31.71s.81.41,1.19.65a2.45,2.45,0,0,1,.8.71c.94,1.4,2,3.06,3.05,4.75a49.63,49.63,0,0,0,6.52,9.13c.51.53,1.08,1,1.63,1.49l.75.65a.74.74,0,0,0,1.1-.13,2.4,2.4,0,0,0,.59-2c.28.32.64.76,1.14,1.39a18.61,18.61,0,0,0,1.85,1.91l.32.3a2.7,2.7,0,0,0,1.16.62,1.55,1.55,0,0,0,1.6-.36,1.45,1.45,0,0,0,.22-1.54l0,0a7.46,7.46,0,0,0,1.77,1.17.71.71,0,0,0,.76-.12c1.56-1.46.81-2.85.32-3.78a2.76,2.76,0,0,1-.43-1.14,5.92,5.92,0,0,1-.07-.7l.92.52a4.52,4.52,0,0,0,.9.49,8.92,8.92,0,0,1,1.21.53l.2.1c1,.5,2.07,1,3.11,1.56,2.28,1.16,4.63,2.37,7.07,3.32,1.42.55,2.82,1.19,4.19,1.82a53.78,53.78,0,0,0,6.85,2.75,36.5,36.5,0,0,1,6.75,3,41.62,41.62,0,0,1,3.78,2.41c.64.44,1.27.88,1.92,1.31a68.84,68.84,0,0,0,13.17,6.94c1.2.46,2.42,1,3.61,1.55.8.36,1.6.72,2.42,1.06a78.2,78.2,0,0,0,11.87,3.92c1.12.28,2.24.68,3.33,1.06.8.29,1.71.61,2.61.88,3.67,1.07,7.33,2.06,10.73,3,1.46.39,2.92.76,4.39,1.14l.08,0c1.63.42,3.26.84,4.89,1.28a24.91,24.91,0,0,1,3.21,1.17,2,2,0,0,1,.56.51l.12.14a23,23,0,0,1,4.28,6.67,30.64,30.64,0,0,0,7.9,10.94,16.06,16.06,0,0,1,2.38,3.08l.58.89Z"/><path class="cls-1" d="M144.85,144.88h0l.17,0a1.76,1.76,0,0,0,.95-.36l.09,0a.75.75,0,0,0,.42-.69,3.67,3.67,0,0,0-1.69-2.46,2.67,2.67,0,0,0-2.09-.64,1.51,1.51,0,0,0-1.06.92,1.28,1.28,0,0,0,.2,1.17A4.61,4.61,0,0,0,144.85,144.88Z"/><path class="cls-1" d="M72.73,112.32h.55a.72.72,0,0,0,.55-.2.75.75,0,0,0,.24-.54,2.43,2.43,0,0,0-.72-2,1.25,1.25,0,0,0-1.11-.21h0a1.68,1.68,0,0,0-1.2,1.5A1.48,1.48,0,0,0,72.73,112.32Z"/><path class="cls-1" d="M114.54,96.08a5.34,5.34,0,0,0,.77.56.72.72,0,0,0,.37.11.94.94,0,0,0,.61-.27c.17-.14.68-.58.45-1.15a2,2,0,0,0-.83-1,1.15,1.15,0,0,0-1.13.12l-.35.16a.74.74,0,0,0-.18,1.27Z"/><path class="cls-1" d="M82.73,32.5a.6.6,0,0,0,.57-.6c0-1-.43-.42-1.54-.7A14.35,14.35,0,0,0,76.37,31a15.43,15.43,0,0,0-2.48.57l-.29.08c-1.49.43-2.06.29-1.85,1.81a.75.75,0,0,0,.36.54.66.66,0,0,0,.65,0C74.59,33,80.86,32.58,82.73,32.5Z"/><path class="cls-1" d="M82.81,33.24a.52.52,0,0,1,.6.6c0,.16-.06.32-.08.48l-.09.53a.76.76,0,0,1-.58.61l-.3.07c-.29.07-1.5.23-1.79.24-.62,0-.07,0-.09.68a3.18,3.18,0,0,1-1.67,2.29,2.26,2.26,0,0,1-.9.18,3.33,3.33,0,0,1-1.33-.3A1.93,1.93,0,0,1,75.31,37a2.25,2.25,0,0,1,.27-.87c-.16,0-1.26.15-1.37.14a.73.73,0,0,1-.57-.33.7.7,0,0,1-.08-.65C73.74,34.69,80.57,33.58,82.81,33.24Z"/><path class="cls-1" d="M85.6,48.27l0,.18a2.1,2.1,0,0,0,.46,1,.73.73,0,0,0,.58.23h.11a1.24,1.24,0,0,0,.9-.47l.15-.22c.83-1.17,1.77-2.49,1.45-4.42L87.46,33.76a.67.67,0,0,0-.57-.58l-.38,0a.6.6,0,0,0-.46.18.84.84,0,0,0-.21.51c0,.21,0,.43,0,.65a8.84,8.84,0,0,0,0,1.63c.1.94.22,1.89.35,2.82s.25,1.81.34,2.72c0,.21,0,.43.07.64v.08c.21,1.81.41,3.51-.7,4.94A1,1,0,0,0,85.6,48.27Z"/><path class="cls-1" d="M82.92,46.3v.25l0-.25h0a.43.43,0,0,1-.16,0,.68.68,0,0,0-.54.21.72.72,0,0,0-.23.52s0,.07,0,.14a1.34,1.34,0,0,0,.16,1,6.13,6.13,0,0,0,.78.85c.12.11.26.24.4.39a.75.75,0,0,0,.53.22l.14,0a.73.73,0,0,0,.54-.44c.53-1.24.34-2.15-.54-2.71A1.59,1.59,0,0,0,82.92,46.3Z"/><path class="cls-1" d="M96.42,31.08c.88-.57-5.44-1.87-7.44-.77-.44.24-1,.2-.69.85C88.42,31.48,96.09,31.3,96.42,31.08Z"/><path class="cls-1" d="M95.76,32a1.29,1.29,0,0,1,1.14.76c.27.58.34.91.15,1.18a.88.88,0,0,1-.45.34,3.77,3.77,0,0,1-2.11.09,1.82,1.82,0,0,1,.09,2,1.8,1.8,0,0,1-2.15.79,1.88,1.88,0,0,1-1.51-1.73c0-.46,0-.67.69-1.09,0,0-1.37,0-1.74-.08s-1.22-.49-1.25-1.11C88.54,31.83,93.75,31.92,95.76,32Z"/><path class="cls-1" d="M81.6,56.46a3.9,3.9,0,0,1-1-1.21c-.11-.21,1.45-1.45,2.06-1.72,2.34-1.05,2.84.26,4.26-.4a4.11,4.11,0,0,1,4.89.64,5,5,0,0,1-4.24,3.43C85.79,57.43,82.61,57.25,81.6,56.46Zm9.25-1.73"/></svg>