<svg id="Layer_1" data-name="Layer 1" xmlns="http://www.w3.org/2000/svg" viewBox="0 0 31 35"><defs><style>.cls-1{fill:#293b5c;}</style></defs><path class="cls-1" d="M5.72,24.18A2.52,2.52,0,0,1,4.89,24c-.07,0,.05-.43.11-.84-.38-.4-.91-1-1.44-1.54a1,1,0,0,1-.2-.33c-.77-2.2-1.59-4.39-1.41-6.79a27.21,27.21,0,0,1,.34-4.05,9,9,0,0,1,1.86-4c.25-.3.46-.63.72-.93A9.52,9.52,0,0,1,9.19,3a23.62,23.62,0,0,1,4.35-1.14A15.17,15.17,0,0,1,16.68,2a1.76,1.76,0,0,0,.51,0c.3-.06.46.05.58.4,0,.07.13.14.21.18,1.1.6,2.2,1.21,3.31,1.79a11.35,11.35,0,0,1,3.49,3.41,17.93,17.93,0,0,0,1.66,2.18,3.29,3.29,0,0,1,.62,1.93,7.82,7.82,0,0,0,1,2.94c.41.76,0,1.46,0,2.19s0,1.34,0,2c0,.12.16.23.23.35a1.77,1.77,0,0,1,.36,1.32,7.22,7.22,0,0,0,.08,1.66c0,1.12.05,2.25.08,3.37a1.82,1.82,0,0,0,.11.82c.66,1.12.06,2.14-.32,3.11-.17.41-.82.68-1.3.89a30.08,30.08,0,0,1-3.93,1.57,12.72,12.72,0,0,1-3.32.38,18.74,18.74,0,0,1-2.88-.29,2.09,2.09,0,0,1-.76-.38,21.59,21.59,0,0,0-2-1.36,11.24,11.24,0,0,1-2.52-2.34,17.4,17.4,0,0,0-2.09-1.85,6.42,6.42,0,0,0-1.76-.67A3.59,3.59,0,0,1,5.84,24ZM26.51,13.75l-.5.93c-.17.32-.34.63-.5,1-.57,1.18-.58,1.2-1.84.92a3.24,3.24,0,0,1-2.67-2,10.11,10.11,0,0,1-.4-5.17A1.06,1.06,0,0,1,22,8.49c.64.18,1.27.4,2.08.66a15,15,0,0,0-.84-1.7,10,10,0,0,0-4.06-3.28,10.69,10.69,0,0,0-8.49-.59A23,23,0,0,0,6.28,5.72a3.27,3.27,0,0,0-1.7,2.67c-.15.1-.28.15-.34.24a6.64,6.64,0,0,0-1,3c0,.23.2.5.25.62-.14.28-.38.54-.38.81,0,1.09,0,2.19.09,3.29.09,1.48.41,3,1.69,3.83a18.43,18.43,0,0,0,3.76,1.58,25.17,25.17,0,0,0,2.45.64,18.17,18.17,0,0,0,3.27.75,2.2,2.2,0,0,1,2.19,1.39,2.11,2.11,0,0,0,1.88,1.4c1,.07,2,.29,3,.44a2.12,2.12,0,0,0,.71,0,1.6,1.6,0,0,0,.53-.31c.45-.31.66-.88,1.37-.89.48,0,1.2-.12,1.14-1a.45.45,0,0,1,.24-.34,2.65,2.65,0,0,0,1.58-2.47c.06-.62-.19-1.26-.16-1.88,0-.91.2-1.81.28-2.72A5.63,5.63,0,0,0,26.51,13.75Zm-1.84-1.34a3.13,3.13,0,0,0,0-1,2.51,2.51,0,0,0-1.8-1.63c-.21-.05-.58-.13-.65,0a1,1,0,0,0-.18.78,9.38,9.38,0,0,1,.43,2.78c.11.78.9,1.55,1.57,1.43a1.75,1.75,0,0,0,1.09-2.43Zm-3.4,18.7c.37,0,.58-.07.79-.08,1.58,0,2.91-.87,4.35-1.36.74-.25,1.4-.68,1.27-1.66,0-.17.09-.35.07-.52a3.25,3.25,0,0,0-.17-.61l-.24-.05-1.25,1.82-1.41-.89-.55,2.46a3.25,3.25,0,0,1-.65-.47.82.82,0,0,0-1.32,0C21.88,30.15,21.64,30.56,21.27,31.11ZM13.4,27.17c-.23-.79-.39-1.56-.67-2.28A1.56,1.56,0,0,0,12,24.2,3.92,3.92,0,0,0,10.83,24c-.7-.08-1.4-.13-2.1-.19L8.64,24c.8.53,1.59,1.08,2.4,1.6S12.46,27,13.4,27.17Zm6.39,2.62c-.77.2-1.87-.25-1.77,1.37L16,29a1.12,1.12,0,0,0,.53,1.42,2.5,2.5,0,0,1,.47.39c.15.15.24.41.41.47a3.83,3.83,0,0,0,1.21.24c.68,0,1.36-.12,2-.19l0-.24Zm-4.39-4c.31-1.15,0-1.55-.9-1.35C14.82,25.71,14.82,25.71,15.4,25.81Zm5.52,3.88c.66-.7.66-.86.1-1.44C20.37,29.11,20.36,29.24,20.92,29.69ZM17,28l-.78.27,1.25,1,.16-.14Zm-2.71-.37.23,1.28.6-.89Z"/><path class="cls-1" d="M19.93,32.83a16.28,16.28,0,0,1-2.33-.23l-.48-.08a2.27,2.27,0,0,1-.9-.42c-.25-.17-.48-.35-.72-.52a8.57,8.57,0,0,0-1.23-.83,6.72,6.72,0,0,1-1.91-1.66c-.23-.25-.45-.5-.69-.73l-.15-.16a15.69,15.69,0,0,0-1.9-1.66,4.1,4.1,0,0,0-1.22-.49L8,25.92a4.26,4.26,0,0,1-2.19-1.39H5.66l-.23,0a2,2,0,0,1-.71-.2c-.27-.15-.21-.44-.14-.81,0-.07,0-.15,0-.22l-.11-.12L3.3,21.85A1.23,1.23,0,0,1,3,21.4l-.09-.25A16.29,16.29,0,0,1,1.6,14.46c0-.4,0-.81.06-1.22a15.42,15.42,0,0,1,.28-2.87A9.34,9.34,0,0,1,3.88,6.24l.35-.45c.12-.16.24-.33.37-.48A9.87,9.87,0,0,1,9.08,2.64a24.38,24.38,0,0,1,4.41-1.16,8.32,8.32,0,0,1,2.23.07l1,.11a2.69,2.69,0,0,0,.4,0,.78.78,0,0,1,1,.57l.07,0,.78.43c.84.46,1.68.92,2.52,1.36a11.12,11.12,0,0,1,3.48,3.34l.12.16c.2.26.39.53.57.79a8.33,8.33,0,0,0,1.07,1.36,3.55,3.55,0,0,1,.73,2.15,7.08,7.08,0,0,0,.95,2.8,2.4,2.4,0,0,1,.13,1.71,3.79,3.79,0,0,0-.07.65c0,.26,0,.52,0,.78,0,.41,0,.81,0,1.21,0,0,0,0,0,0a.8.8,0,0,1,.15.2l.1.18a1.83,1.83,0,0,1,.3,1.38,2.72,2.72,0,0,0,0,.94q0,.31.06.63c0,.59,0,1.18,0,1.77s0,1.07,0,1.6v.17a1.39,1.39,0,0,0,0,.49,3.11,3.11,0,0,1-.14,3l-.16.37c-.2.53-.88.82-1.42,1.06l-.64.28a24.84,24.84,0,0,1-3.39,1.33,13.68,13.68,0,0,1-3.42.4ZM5.84,23.63h0a.35.35,0,0,1,.3.18,3.21,3.21,0,0,0,2,1.43l.41.13A4.66,4.66,0,0,1,10,26a16.44,16.44,0,0,1,2,1.74l.16.15c.25.25.48.51.71.77a6,6,0,0,0,1.72,1.5,10.27,10.27,0,0,1,1.33.89l.68.5a1.75,1.75,0,0,0,.62.32l.47.07a14.35,14.35,0,0,0,2.34.22,12.55,12.55,0,0,0,3.24-.37,24.93,24.93,0,0,0,3.29-1.29l.58-.26c.44-.19,1-.44,1.12-.7s.1-.26.16-.38a2.55,2.55,0,0,0,.19-2.42,1.53,1.53,0,0,1-.16-.83v-.16c0-.53,0-1.07,0-1.6s0-1.18-.05-1.77a5.29,5.29,0,0,0-.05-.56,3.34,3.34,0,0,1,0-1.18,1.17,1.17,0,0,0-.23-.89L28,19.52s0-.06-.06-.08a.75.75,0,0,1-.2-.43c0-.42,0-.83,0-1.25,0-.26,0-.51,0-.77a4.64,4.64,0,0,1,.09-.77A1.81,1.81,0,0,0,27.74,15a8.05,8.05,0,0,1-1-3.07,3.21,3.21,0,0,0-.52-1.7A9.76,9.76,0,0,1,25,8.72c-.18-.25-.35-.51-.54-.76l-.13-.16a10.35,10.35,0,0,0-3.25-3.14c-.85-.45-1.69-.91-2.53-1.37l-.78-.43a.77.77,0,0,1-.38-.38c0-.14-.08-.17-.08-.17h0a.16.16,0,0,0-.09,0,2.43,2.43,0,0,1-.6,0c-.34,0-.68-.07-1-.11a7.44,7.44,0,0,0-2-.07A23.21,23.21,0,0,0,9.31,3.31,9.16,9.16,0,0,0,5.14,5.77c-.12.14-.23.29-.34.44l-.38.49a8.65,8.65,0,0,0-1.79,3.82,15.63,15.63,0,0,0-.27,2.75c0,.41,0,.83-.06,1.24a15.84,15.84,0,0,0,1.3,6.41l.09.25a.8.8,0,0,0,.13.21L5,22.67l.23.24a.38.38,0,0,1,.09.29c0,.15,0,.3-.08.43l0,.12.28.05h0A.38.38,0,0,1,5.84,23.63ZM18.1,2.26Zm.51,29.58a3.78,3.78,0,0,1-1.29-.26.82.82,0,0,1-.43-.41c0-.05-.07-.11-.11-.15a2.47,2.47,0,0,0-.41-.33,1.49,1.49,0,0,1-.68-1.83.37.37,0,0,1,.26-.24.4.4,0,0,1,.22,0L16,28.54a.36.36,0,0,1-.13-.33.35.35,0,0,1,.23-.28l.77-.27a.35.35,0,0,1,.42.15L18,28.9a.37.37,0,0,1-.07.44l-.16.14a.35.35,0,0,1-.46,0l-1-.75,1.44,1.59a1.06,1.06,0,0,1,.23-.42,1.55,1.55,0,0,1,1.2-.41,2.66,2.66,0,0,0,.52-.06.34.34,0,0,1,.37.13L21,30.85h0l.29-.44c.2-.32.38-.59.57-.85a1.15,1.15,0,0,1,.85-.48,1.31,1.31,0,0,1,1,.43l.16.14.45-2a.35.35,0,0,1,.53-.22l1.12.7,1.06-1.54a.36.36,0,0,1,.37-.15l.24.06a.37.37,0,0,1,.26.24L28,27a1.93,1.93,0,0,1,.13.5,1.17,1.17,0,0,1,0,.39A.35.35,0,0,0,28,28a1.86,1.86,0,0,1-1.51,2c-.43.15-.85.32-1.26.5a8.74,8.74,0,0,1-3.19.88l-.42,0-.34,0a.33.33,0,0,1-.27-.09.37.37,0,0,1-.31.28l-.61.07c-.48.05-1,.11-1.47.12Zm-.24-.72h.27A13.2,13.2,0,0,0,20,31l.21,0-.61-.81-.42,0c-.3,0-.59,0-.72.18A1.12,1.12,0,0,0,18.37,31.12Zm4.43-1.34h0a.45.45,0,0,0-.32.2c-.16.22-.31.44-.48.7h.08a5.68,5.68,0,0,0,1.64-.32,3,3,0,0,1-.47-.36A.6.6,0,0,0,22.8,29.78Zm2.12-1.45L24.53,30l.45-.19c.44-.18.87-.36,1.31-.51.83-.29,1.12-.65,1-1.29a1,1,0,0,1,0-.4.35.35,0,0,0,0-.13.5.5,0,0,0,0-.12l-1,1.45a.34.34,0,0,1-.47.1Zm-4,1.71A.33.33,0,0,1,20.7,30c-.81-.64-.63-1,0-1.93a.38.38,0,0,1,.26-.14.39.39,0,0,1,.27.11c.75.78.63,1.16-.09,1.93A.36.36,0,0,1,20.92,30ZM21,28.82a.72.72,0,0,0-.17.33l0,0C21,29,21.09,28.93,21,28.82Zm-6.49.43h-.07A.37.37,0,0,1,14.2,29L14,27.68a.33.33,0,0,1,.13-.34.36.36,0,0,1,.36,0l.83.39a.35.35,0,0,1,.19.22.37.37,0,0,1-.05.29l-.6.89A.34.34,0,0,1,14.55,29.25ZM13.4,27.52h-.07a3.83,3.83,0,0,1-1.71-1,7,7,0,0,0-.77-.6c-.57-.37-1.13-.75-1.69-1.13l-.72-.48a.36.36,0,0,1-.13-.43l.1-.22a.36.36,0,0,1,.35-.21l.63.06c.49,0,1,.08,1.48.14H11a3.7,3.7,0,0,1,1.13.25,1.81,1.81,0,0,1,.93.88,14.2,14.2,0,0,1,.5,1.64c.06.22.12.45.19.67a.35.35,0,0,1-.34.45ZM9.59,24.2c.55.37,1.09.74,1.64,1.09a7.17,7.17,0,0,1,.85.67,7.13,7.13,0,0,0,.79.62A13.58,13.58,0,0,0,12.4,25a1.25,1.25,0,0,0-.57-.5,3.57,3.57,0,0,0-.92-.19h-.12C10.39,24.27,10,24.24,9.59,24.2ZM22,26.77a3.73,3.73,0,0,1-.48,0l-1.08-.18c-.65-.11-1.32-.22-2-.27a2.44,2.44,0,0,1-2.18-1.61,1.85,1.85,0,0,0-1.88-1.18A10.38,10.38,0,0,1,12,23l-.94-.26-.67-.15a17.6,17.6,0,0,1-1.82-.5l-.77-.27a13.93,13.93,0,0,1-3.06-1.34c-1.48-1-1.77-2.71-1.85-4.11-.07-1.21-.1-2.29-.09-3.32a1.38,1.38,0,0,1,.28-.72l.05-.07a1,1,0,0,1-.2-.67,6.93,6.93,0,0,1,1-3.14.81.81,0,0,1,.3-.26A3.63,3.63,0,0,1,6.11,5.42a23.52,23.52,0,0,1,4.5-2.18,11,11,0,0,1,8.76.62,10.46,10.46,0,0,1,4.2,3.4,8.38,8.38,0,0,1,.57,1.12l.29.62a.37.37,0,0,1-.05.39.36.36,0,0,1-.37.1l-.73-.24c-.48-.16-.91-.3-1.34-.42a.84.84,0,0,0-.69.07.75.75,0,0,0-.31.54,9.68,9.68,0,0,0,.39,5,2.83,2.83,0,0,0,2.42,1.77c1,.22,1,.22,1.44-.71q.21-.42.42-.81l.59-1.1a.35.35,0,0,1,.63,0,6,6,0,0,1,.69,3.27c0,.36-.08.73-.12,1.09-.07.53-.14,1.07-.16,1.6a4,4,0,0,0,.08.82,4.3,4.3,0,0,1,.09,1.08,3,3,0,0,1-1.8,2.76l0,.05a1.09,1.09,0,0,1-.28.85,1.61,1.61,0,0,1-1.2.43c-.32,0-.48.16-.74.43a2.44,2.44,0,0,1-.44.4l-.11.08a1.52,1.52,0,0,1-.55.29A1.27,1.27,0,0,1,22,26.77ZM14.36,3.33a11.21,11.21,0,0,0-3.53.59A22.72,22.72,0,0,0,6.46,6,2.93,2.93,0,0,0,4.93,8.41a.35.35,0,0,1-.15.26l-.16.11-.1.06a6.14,6.14,0,0,0-.9,2.82,1.14,1.14,0,0,0,.13.28l.1.16a.39.39,0,0,1,0,.3,2.75,2.75,0,0,1-.17.29,1.08,1.08,0,0,0-.18.36c0,1,0,2.08.09,3.26s.32,2.77,1.53,3.57A13.33,13.33,0,0,0,8,21.14l.78.28a17.16,17.16,0,0,0,1.74.47l.68.16c.32.08.65.17,1,.27a10.21,10.21,0,0,0,2.23.47,2.53,2.53,0,0,1,2.49,1.6,1.75,1.75,0,0,0,1.58,1.19,19.81,19.81,0,0,1,2.05.28l1,.16a1.85,1.85,0,0,0,.59,0,1.07,1.07,0,0,0,.27-.17l.13-.09a2.3,2.3,0,0,0,.33-.3,1.65,1.65,0,0,1,1.23-.66,1,1,0,0,0,.7-.19.48.48,0,0,0,.1-.39.8.8,0,0,1,.46-.69,2.3,2.3,0,0,0,1.36-2.18,3.44,3.44,0,0,0-.07-.89,4.43,4.43,0,0,1-.09-1c0-.56.09-1.12.16-1.66,0-.35.09-.71.12-1.07a4.84,4.84,0,0,0-.34-2.25l-.25.47-.4.77c-.65,1.35-.82,1.43-2.24,1.11a3.58,3.58,0,0,1-2.93-2.22,10.59,10.59,0,0,1-.41-5.35,1.39,1.39,0,0,1,.62-1,1.52,1.52,0,0,1,1.25-.16c.43.12.86.26,1.33.42A5.64,5.64,0,0,0,23,7.65a9.7,9.7,0,0,0-3.93-3.16A10.16,10.16,0,0,0,14.36,3.33Zm1,22.83h-.06c-.8-.15-.85-.34-1.19-1.61a.39.39,0,0,1,0-.28.36.36,0,0,1,.22-.16,1.33,1.33,0,0,1,1.21.22c.37.39.25,1,.11,1.57A.34.34,0,0,1,15.4,26.16Zm-.46-1.4a1.9,1.9,0,0,0,.21.56c0-.38,0-.49,0-.51A.28.28,0,0,0,14.94,24.76Zm8.94-9.68a1.54,1.54,0,0,1-.89-.32,2.25,2.25,0,0,1-.89-1.43c-.05-.31-.06-.63-.08-.94a4.38,4.38,0,0,0-.32-1.74,1.3,1.3,0,0,1,.21-1.14c.16-.22.46-.25,1-.1a2.85,2.85,0,0,1,2,1.84,1.6,1.6,0,0,1,.07.69.34.34,0,0,1,.37.17,2,2,0,0,1,0,1.85,1.94,1.94,0,0,1-1.34,1.1ZM22.43,10a.65.65,0,0,0-.09.33,5,5,0,0,1,.38,2,8.52,8.52,0,0,0,.08.87,1.52,1.52,0,0,0,.61,1,.75.75,0,0,0,.55.18,1.22,1.22,0,0,0,.82-.72,1.43,1.43,0,0,0,.12-.94l-.14,0a.39.39,0,0,1-.3-.06.35.35,0,0,1-.14-.28c0-.15,0-.29,0-.42a1.48,1.48,0,0,0,0-.49,2.16,2.16,0,0,0-1.56-1.41A2.38,2.38,0,0,0,22.43,10Z"/><path class="cls-1" d="M14.3,17.76c-.72.1-1.19-.4-1.61-.89a11.78,11.78,0,0,1-1.42-1.94,3.58,3.58,0,0,1-.54-1.73c0-1.2,1.19-1.46,2-2a6.21,6.21,0,0,1,.7-.31c.37-.18.73-.59,1.11,0,0,.06.2,0,.3.06a2.83,2.83,0,0,1,2.38,3.09A5.41,5.41,0,0,1,15.86,17,1.53,1.53,0,0,1,14.3,17.76Zm-.94-4.25c-1,.26-1.08.45-.7,1.3.22.49.55.92.82,1.4a.9.9,0,0,0,1.63.13,12.41,12.41,0,0,0,1.22-2.23,1.59,1.59,0,0,0-.46-1.8c-.41-.35-.87-.69-1.43-.39S13.19,12.59,13.36,13.51Z"/><path class="cls-1" d="M14.54,18.13H14.3a2.19,2.19,0,0,1-1.88-1,12.92,12.92,0,0,1-1.46-2,3.82,3.82,0,0,1-.58-1.91c0-1.15.91-1.6,1.62-2l.54-.3a2.3,2.3,0,0,1,.48-.22l.26-.11.18-.1a.88.88,0,0,1,1.3.12h.14a3.21,3.21,0,0,1,2.67,3.46A5.31,5.31,0,0,1,16.28,17l-.14.19A1.89,1.89,0,0,1,14.54,18.13Zm-.24-.72h0c.53.07.81-.09,1.23-.67l.14-.18A4.71,4.71,0,0,0,16.87,14a2.48,2.48,0,0,0-2.08-2.71.67.67,0,0,1-.55-.22c-.12-.19-.12-.19-.41,0a1.41,1.41,0,0,1-.24.13l-.32.14a2.17,2.17,0,0,0-.35.15,5.76,5.76,0,0,1-.6.33c-.75.39-1.21.66-1.24,1.36a3.28,3.28,0,0,0,.5,1.55A11.72,11.72,0,0,0,13,16.64c.41.48.77.85,1.29.77Zm0-.26h0a1.37,1.37,0,0,1-1.13-.77c-.1-.18-.21-.35-.32-.52a6.67,6.67,0,0,1-.51-.91,1.44,1.44,0,0,1-.17-1.14,1.24,1.24,0,0,1,.81-.56,1.89,1.89,0,0,1,1.3-1.64A1.57,1.57,0,0,1,16.1,12a1.94,1.94,0,0,1,.56,2.19,11.9,11.9,0,0,1-1.26,2.3A1.28,1.28,0,0,1,14.34,17.15Zm.53-5a.51.51,0,0,0-.26.07c-.64.34-1,.58-.91,1.21a.35.35,0,0,1-.25.41c-.53.14-.62.23-.64.26s0,.12.17.55a6.87,6.87,0,0,0,.47.82c.11.18.23.37.33.55a.69.69,0,0,0,.55.41.54.54,0,0,0,.48-.3A11,11,0,0,0,16,14a1.21,1.21,0,0,0-.36-1.4C15.3,12.29,15.08,12.16,14.87,12.16Z"/><path class="cls-1" d="M21.82,19.07c0,.35,0,.7,0,1.05s-.11.88-.77.73c-.11,0-.31.22-.42.36s-.26.52-.31.51c-.28-.08-.65-.17-.76-.39a7.9,7.9,0,0,1-.82-2,15.31,15.31,0,0,1-.7-5.07,1,1,0,0,1,1.29-1,1.16,1.16,0,0,1,.51.43c.1.13.08.38.2.47,1.15,1,1.13,2.45,1.72,3.66a3.16,3.16,0,0,1,0,1.23Zm-2.1.06,1.11-.69c-.17-.85-.35-1.73-.51-2.62A.92.92,0,0,0,19.08,15,18.73,18.73,0,0,0,19.72,19.13Z"/><path class="cls-1" d="M20.32,22.07h-.1a1.48,1.48,0,0,1-1-.56,8.68,8.68,0,0,1-.85-2.06l-.17-.69a13.5,13.5,0,0,1-.55-4.5,1.54,1.54,0,0,1,.63-1.13,1.31,1.31,0,0,1,1.11-.18,1.44,1.44,0,0,1,.69.55.91.91,0,0,1,.16.37s0,.07,0,.09a4.55,4.55,0,0,1,1.33,2.48,8.87,8.87,0,0,0,.44,1.26,1.85,1.85,0,0,1,.09,1,1.8,1.8,0,0,0,0,.22.28.28,0,0,1,0,.15v.32q0,.38,0,.75a1.21,1.21,0,0,1-.36.94,1,1,0,0,1-.73.14l-.19.21a2.5,2.5,0,0,0-.14.25C20.67,21.85,20.55,22.07,20.32,22.07ZM19,13.59a.6.6,0,0,0-.34.11.81.81,0,0,0-.32.62,12.54,12.54,0,0,0,.53,4.26l.16.7a8.41,8.41,0,0,0,.79,1.89,1,1,0,0,0,.29.14,2.46,2.46,0,0,1,.19-.32c.2-.25.45-.56.78-.48a.45.45,0,0,0,.26,0s.07-.08.08-.41,0-.47,0-.7v-.15a.35.35,0,0,1,0-.18,3.37,3.37,0,0,1,0-.44,1.42,1.42,0,0,0,0-.63A8.93,8.93,0,0,1,21,16.63c-.09-.3-.18-.6-.29-.89v0q.16.95.36,1.86l.15.76a.36.36,0,0,1-.16.36l-1.11.69a.36.36,0,0,1-.32,0,.34.34,0,0,1-.21-.24A19.07,19.07,0,0,1,18.72,15a.35.35,0,0,1,.29-.35,1.44,1.44,0,0,1,1.11.15h0a2.5,2.5,0,0,0-.33-.32.74.74,0,0,1-.22-.43,1,1,0,0,1,0-.11c-.05-.06-.22-.27-.32-.3Zm.4,1.69a18.67,18.67,0,0,0,.51,3.3l.49-.31-.11-.51L20,15.89a.77.77,0,0,0-.25-.53A.47.47,0,0,0,19.44,15.28Z"/></svg>