<svg id="Layer_1" data-name="Layer 1" xmlns="http://www.w3.org/2000/svg" viewBox="0 0 58 14"><defs><style>.cls-1{fill:#293b5c;}</style></defs><path class="cls-1" d="M5.88,9.83A1.47,1.47,0,0,0,5.73,9,3.3,3.3,0,0,1,3.4,10.25C1.51,10.25.34,8.11.79,5.5S3.19.74,5.08.74A2.16,2.16,0,0,1,7,2a2.33,2.33,0,0,0,.46-.86h.3l-.58,3.3H6.82C6.9,2.51,6.22,1.33,5,1.33,3.39,1.33,2.28,3.64,2,5.5s0,4.15,1.59,4.15c1.23,0,2.31-1.2,2.92-3.12h.32l-.59,3.3Z"/><path class="cls-1" d="M12.15,10.25c-1.26,0-2.06-1.24-1.8-2.76a3.19,3.19,0,0,1,2.77-2.74c1.25,0,2,1.23,1.77,2.74A3.18,3.18,0,0,1,12.15,10.25Zm.9-5c-.9,0-1.5,1-1.73,2.28s0,2.3.9,2.3,1.49-1,1.71-2.3S13.93,5.21,13.05,5.21Z"/><path class="cls-1" d="M18.46,10l.72-4c.06-.36,0-.63-.16-.63a1.14,1.14,0,0,0-.6.35V5.32a1.54,1.54,0,0,1,1-.51c.53,0,.75.43.65,1L20,6a2.22,2.22,0,0,1,1.74-1.23c1,0,1.29,1,1.06,2.23L22.47,9c-.06.34,0,.61.16.61a1.32,1.32,0,0,0,.6-.33v.35a1.68,1.68,0,0,1-1,.52c-.52,0-.73-.45-.64-1L22,7.06c.18-1,.09-1.61-.63-1.61-.5,0-1.35.75-1.62,2.31L19.3,10Z"/><path class="cls-1" d="M27.67,8.56c-.12.72,0,1.09.33,1.09.2,0,.53-.15.95-.67v.4a1.94,1.94,0,0,1-1.33.87c-.68,0-1-.52-.78-1.69l.52-3h-1L26.5,5h1l.42-2.4h.82L28.32,5h1.2l-.11.53h-1.2Z"/><path class="cls-1" d="M33.78,10.25C32.52,10.25,32,9,32.22,7.49A3.19,3.19,0,0,1,35,4.75,1.79,1.79,0,0,1,36,5h.82l-.7,4c-.06.34-.05.61.16.61a1.32,1.32,0,0,0,.6-.33v.35a1.68,1.68,0,0,1-1,.52c-.42,0-.63-.27-.66-.69A2.07,2.07,0,0,1,33.78,10.25ZM35.85,5.6a1.28,1.28,0,0,0-.93-.37c-.89,0-1.52,1.06-1.73,2.26s0,2.16.86,2.16a1.58,1.58,0,0,0,1.33-1.39Z"/><path class="cls-1" d="M41.67,10.25c-1.23,0-1.79-1.12-1.52-2.62.32-1.77,1.59-2.88,2.49-2.88s1.25.63,1.19,1-.18.49-.5.49c-.61,0-.16-1-.76-1S41.31,6,41,7.63c-.21,1.21.12,2,1,2A2,2,0,0,0,43.39,9l.15.3A2.61,2.61,0,0,1,41.67,10.25Z"/><path class="cls-1" d="M47.92,8.56c-.12.72,0,1.09.33,1.09.2,0,.53-.15,1-.67v.4a1.94,1.94,0,0,1-1.33.87c-.68,0-1-.52-.78-1.69l.52-3h-1l.1-.53h1l.42-2.4H49L48.57,5h1.2l-.11.53h-1.2Z"/><path class="cls-1" d="M54.27,10.25c-1.26,0-2.06-1.24-1.8-2.76a3.19,3.19,0,0,1,2.77-2.74c1.25,0,2,1.23,1.77,2.74A3.18,3.18,0,0,1,54.27,10.25Zm.9-5c-.9,0-1.5,1-1.73,2.28s0,2.3.9,2.3,1.49-1,1.71-2.3S56.05,5.21,55.17,5.21Z"/></svg>