<svg id="Layer_1" data-name="Layer 1" xmlns="http://www.w3.org/2000/svg" viewBox="0 0 79 12"><defs><style>.cls-1{fill:#293b5c;}</style></defs><path class="cls-1" d="M5.91,10.82A1.52,1.52,0,0,0,5.76,10a3.28,3.28,0,0,1-2.33,1.28C1.54,11.24.38,9.09.83,6.48S3.22,1.73,5.11,1.73A2.15,2.15,0,0,1,7,3a2.51,2.51,0,0,0,.47-.85h.29l-.58,3.3H6.85C6.93,3.5,6.25,2.31,5,2.31,3.42,2.31,2.31,4.62,2,6.48s0,4.16,1.59,4.16c1.23,0,2.31-1.2,2.93-3.12h.31l-.59,3.3Z"/><path class="cls-1" d="M14.08,11.24c-2.05,0-3.36-2.15-2.91-4.76s2.52-4.75,4.59-4.75,3.38,2.14,2.91,4.75S16.15,11.24,14.08,11.24Zm1.58-8.93c-1.85,0-3,2.31-3.33,4.17s0,4.16,1.87,4.16,3-2.3,3.3-4.16S17.52,2.31,15.66,2.31Z"/><path class="cls-1" d="M30.79,1.73a.8.8,0,0,1,.86.9c0,.24-.18.43-.45.43-.54,0-.12-.73-.68-.73s-.82,1.17-1,2.23l-1.18,6.68h-.27L24.82,3.63,24,8.37c-.42,2.34-1,2.87-1.88,2.87a.79.79,0,0,1-.84-.9c0-.24.18-.44.45-.44.54,0,.12.74.69.74s.83-1.17,1-2.24L24.21,4c.25-1.5.15-1.74-.8-1.74L23.47,2h1.79l2.94,6.9L29,4.59C29.35,2.24,30,1.73,30.79,1.73Z"/><path class="cls-1" d="M34.23,3.69H33.9L34.5,2h4.55c1.38,0,1.6-.33,1.93-1.14h.35l-.6,1.71H38L36.89,8.91c-.27,1.5-.17,1.76.76,1.76l0,.31H34.46l0-.31c1,0,1.16-.26,1.43-1.76l1.12-6.36h-.88C34.8,2.55,34.58,2.88,34.23,3.69Z"/><path class="cls-1" d="M43,9.53c-.4.82-.25,1.14.69,1.14l0,.31H40.87l.06-.31c.81,0,1-.21,1.58-1.31l3.81-7.63h.28l1.14,7.63c.17,1.07.26,1.31,1.1,1.31l-.05.31H45.6l.06-.31c.93,0,1.21-.33,1.08-1.14L46.5,7.86H43.84Zm2.9-5.76L44.13,7.31h2.29Z"/><path class="cls-1" d="M57.15,10.82A1.52,1.52,0,0,0,57,10a3.28,3.28,0,0,1-2.33,1.28c-1.89,0-3.06-2.15-2.61-4.76s2.4-4.75,4.29-4.75A2.15,2.15,0,0,1,58.23,3a2.35,2.35,0,0,0,.46-.85H59l-.58,3.3h-.32c.08-1.95-.6-3.14-1.81-3.14-1.62,0-2.73,2.31-3.06,4.17s0,4.16,1.59,4.16c1.23,0,2.31-1.2,2.92-3.12h.32l-.59,3.3Z"/><path class="cls-1" d="M62.25,3.69h-.33L62.52,2h4.54C68.44,2,68.67,1.65,69,.84h.34l-.6,1.71H66L64.9,8.91c-.27,1.5-.16,1.76.77,1.76l0,.31H62.47l.05-.31c.94,0,1.15-.26,1.42-1.76l1.13-6.36h-.89C62.82,2.55,62.59,2.88,62.25,3.69Z"/><path class="cls-1" d="M73.83,11.24c-2.06,0-3.36-2.15-2.91-4.76s2.52-4.75,4.59-4.75,3.37,2.14,2.91,4.75S75.9,11.24,73.83,11.24ZM75.4,2.31c-1.84,0-3,2.31-3.33,4.17s0,4.16,1.88,4.16,3-2.3,3.3-4.16S77.26,2.31,75.4,2.31Z"/></svg>