<svg id="Layer_1" data-name="Layer 1" xmlns="http://www.w3.org/2000/svg" viewBox="0 0 43 16"><defs><style>.cls-1{fill:#293b5c;}</style></defs><path class="cls-1" d="M15.4,2.76c.37,0,.85.2,1.09,0,.78-.53,1,0,1.24.53a4.15,4.15,0,0,1,.31.83c.08.41.28.52.67.43,1.55-.34,3.11-.63,4.65-1C24.6,3.32,25.81,3,27,2.68c.85-.2,1.71-.33,2.56-.51s1.89-.36,2.81-.64,2.27-.1,3.26-.76c0,0,.14,0,.21,0a11.67,11.67,0,0,1,1.46.1c1,.18,1.94.41,2.9.65a5.19,5.19,0,0,1,1.17.39,3.78,3.78,0,0,1,.65.62,3.07,3.07,0,0,1-.7.61,6.51,6.51,0,0,1-1,.15c-1.42.38-2.83.8-4.25,1.18-1.61.43-3.24.79-4.84,1.26-1.77.52-3.52,1.15-5.28,1.7-.68.2-1.39.29-2.06.47-1.34.38-2.66.79-4,1.17-.42.12-.71.29-.61.82a11,11,0,0,1,.29,1.88c0,.52,0,1.41-.21,1.51a6.87,6.87,0,0,1-2.15.22c-.11,0-.29-.2-.32-.33-.17-.63-.29-1.27-.44-1.91-.09-.38-.19-.72-.73-.54-1,.32-2,.58-2.94.91-2.31.78-4.6,1.57-6.89,2.38a3.78,3.78,0,0,1-3.66-.47,1.47,1.47,0,0,1-.15-2.39,13.67,13.67,0,0,1,4.2-2.3c1.55-.64,3.17-1.1,4.74-1.65l4.2-1.52a3.68,3.68,0,0,0-.2-.62c-.45-.86-1-1.71.26-2.39a.1.1,0,0,1,.07,0Zm16.87-.23.74.22L33.1,3c-.37.19-.75.57-1.1.54-1.07-.09-1.95.54-3,.66a26,26,0,0,0-2.83.71L22.05,5.94c0-.9,0-.88-1-.56-.56.17-1.16.22-1.72.37s-.79.41-.46,1a2.21,2.21,0,0,1,.2.63c.23,1,.51,1.06,1.5.73,1.28-.43,2.61-.72,3.9-1.1,1.07-.31,2.12-.67,3.18-1l4.44-1.44c1.35-.43,2.69-.89,4.05-1.29.79-.23,1.6-.36,2.4-.54a1.23,1.23,0,0,0,.31-.14l0-.22A13.1,13.1,0,0,0,36.45,2a33.49,33.49,0,0,0-3.59.33,2.17,2.17,0,0,0-.59.26c-.57.13-1.15.24-1.73.39a4,4,0,0,0-.7.33c-1.38.27-2.77.52-4.15.82A5.69,5.69,0,0,0,24,4.78l1.22-.19c1.33-.25,2.66-.48,4-.76.24-.05.42-.34.64-.51C30.69,3.19,31.68,3.45,32.27,2.53ZM8.29,9.4c-.21.32,0,.92,0,1.39l-.2.1L7,9.82,6.53,10,7,11.19l-.16.2L5,10.53l-.5,1.25-.72-.69a1.3,1.3,0,0,1-.24.16c-.39.21-.69.49-.49.95a1.11,1.11,0,0,0,1.1.7,12.58,12.58,0,0,0,4.79-1.12c1.52-.58,3.06-1.12,4.6-1.64.5-.17,1-.18,1.56-.3s1-.4.76-1.14a16.64,16.64,0,0,1-.36-1.88c-.52.22-1.2.3-1.42.66s0,1,0,1.54l-.23.12c-.14-.26-.28-.52-.41-.78s-.2-.4-.29-.61c-.13.2-.35.39-.38.61a5.86,5.86,0,0,0,0,1.18c-.65-.23-.68-.26-.85-1.39-1,.13-1,.19-.95,1a1.58,1.58,0,0,1-.17.52,1.51,1.51,0,0,1-.48-.22,9.1,9.1,0,0,1-.67-.84C9.16,8.9,8.55,9,8.29,9.4Zm9.64,3.17c.53,0,.76-.22.68-.74a28.75,28.75,0,0,1-.43-2.91,13.4,13.4,0,0,0-1.12-3.73c-.19-.51-.43-1-.65-1.49l-.21.09Z"/><path class="cls-1" d="M4.49,14.58a4,4,0,0,1-2.37-.79A1.76,1.76,0,0,1,1.94,11a13,13,0,0,1,4-2.2l.34-.15c1-.42,2.08-.77,3.11-1.1L11,7c.95-.33,1.89-.68,2.85-1l1.11-.4a1.83,1.83,0,0,0-.11-.33l-.05-.08c-.41-.79-1-1.89.41-2.67l.13,0a.29.29,0,0,1,.24.06l0,0,.21,0a1.25,1.25,0,0,0,.53,0,1.09,1.09,0,0,1,.89-.24c.37.11.55.48.71.81l0,.07a3.89,3.89,0,0,1,.34.9c0,.16.07.21.09.22s.08,0,.26,0l2-.41c.89-.19,1.79-.37,2.68-.57.64-.15,1.28-.32,1.92-.49L27,2.41c.49-.12,1-.21,1.49-.3s.72-.13,1.07-.21l.61-.12c.73-.15,1.47-.3,2.18-.51a6.62,6.62,0,0,1,1.32-.22A4,4,0,0,0,35.52.54a.42.42,0,0,1,.34,0l.5,0a9.32,9.32,0,0,1,1,.09c1,.19,2,.43,2.91.65a5.34,5.34,0,0,1,1.22.42,1.91,1.91,0,0,1,.54.47l.18.2a.22.22,0,0,1,.08.2.25.25,0,0,1-.09.19l-.19.2a2,2,0,0,1-.58.46,2.18,2.18,0,0,1-.65.12,1.67,1.67,0,0,0-.39,0l-2.14.59-2.11.58-1.84.47c-1,.25-2,.51-3,.8s-2,.62-3,.94c-.77.26-1.53.51-2.3.75-.38.11-.77.19-1.14.27s-.63.12-.93.21c-.8.22-1.59.46-2.39.69L20,9.36c-.42.13-.47.23-.42.5l0,.2a10.93,10.93,0,0,1,.25,1.73c.06,1.33-.1,1.66-.37,1.77a4.85,4.85,0,0,1-1.78.23h-.48c-.27,0-.53-.32-.59-.53-.1-.39-.19-.79-.27-1.18s-.11-.49-.16-.73-.08-.33-.15-.37-.08,0-.24,0c-.45.15-.91.28-1.36.42s-1.06.31-1.58.49C10.14,12.86,8,13.59,6,14.3A4.53,4.53,0,0,1,4.49,14.58ZM15.33,3c-.74.48-.52,1-.06,1.86l0,.08a2.41,2.41,0,0,1,.18.51c0,.06,0,.11,0,.16a.28.28,0,0,1-.17.34L14,6.46l-2.86,1L9.51,8c-1,.33-2.07.67-3.07,1.09l-.34.14a12.61,12.61,0,0,0-3.79,2.11,1.27,1.27,0,0,0-.45,1,1.31,1.31,0,0,0,.58,1,3.5,3.5,0,0,0,3.4.44c2-.71,4.12-1.45,6.9-2.39.53-.18,1.06-.34,1.59-.5l1.35-.41a.77.77,0,0,1,.67,0,1,1,0,0,1,.42.72c.06.25.11.49.16.74s.17.78.27,1.16a.37.37,0,0,0,.12.13l.41,0a4.27,4.27,0,0,0,1.58-.19,5.51,5.51,0,0,0,0-1.24,11.61,11.61,0,0,0-.25-1.64l0-.2a.92.92,0,0,1,.81-1.13l1.58-.47c.8-.24,1.6-.48,2.4-.7.32-.09.64-.15,1-.22s.73-.15,1.08-.26c.77-.23,1.54-.49,2.3-.74,1-.32,2-.65,3-1s2-.55,3-.8L36,4.23l2.1-.58,2.15-.59A2.14,2.14,0,0,1,40.78,3a1.32,1.32,0,0,0,.47-.08,1.32,1.32,0,0,0,.41-.33l0,0h0a1.51,1.51,0,0,0-.38-.35,4.62,4.62,0,0,0-1.1-.38c-.93-.22-1.91-.45-2.89-.64a5.8,5.8,0,0,0-.95-.08l-.48,0-.12,0a4.57,4.57,0,0,1-2,.54,7.64,7.64,0,0,0-1.21.2c-.73.22-1.49.38-2.23.53l-.6.12-1.09.21c-.49.09-1,.18-1.47.29l-1.74.44c-.64.17-1.29.34-1.94.49l-2.69.58-2,.41a.85.85,0,0,1-.67-.07.82.82,0,0,1-.33-.58,3.58,3.58,0,0,0-.29-.76l0-.07c-.11-.24-.22-.48-.36-.52a.75.75,0,0,0-.44.16,1.2,1.2,0,0,1-.92.06L15.38,3Zm-11,10.15H4.12a1.39,1.39,0,0,1-1.34-.86c-.22-.53,0-1,.61-1.3a.87.87,0,0,0,.19-.13.3.3,0,0,1,.37,0l.43.41.35-.87a.28.28,0,0,1,.15-.15.28.28,0,0,1,.22,0l1.54.7-.36-.85a.28.28,0,0,1,.15-.36l.48-.2a.27.27,0,0,1,.31.06l.75.75H8a1.65,1.65,0,0,1,.1-1.13,2.15,2.15,0,0,1,1-.64l.46-.19a.27.27,0,0,1,.34.07c.09.11.16.22.23.31a4,4,0,0,0,.41.51l.14.07a.54.54,0,0,0,.05-.16c-.09-1,.07-1.18,1.19-1.33a.28.28,0,0,1,.31.23c.09.63.13.86.27,1a4.07,4.07,0,0,1,0-.78,1.23,1.23,0,0,1,.31-.56l.12-.16a.27.27,0,0,1,.25-.12.28.28,0,0,1,.23.16l.08.17c.06.14.13.29.2.43l0,.07a1.44,1.44,0,0,1,.11-1,1.78,1.78,0,0,1,1.06-.6,4,4,0,0,0,.49-.17.27.27,0,0,1,.23,0,.25.25,0,0,1,.14.19c0,.24.09.47.12.68a8.29,8.29,0,0,0,.24,1.17,1.15,1.15,0,0,1,0,.92,1.32,1.32,0,0,1-.92.56c-.22.06-.45.09-.68.13a4.41,4.41,0,0,0-.85.17C11.94,11,10.44,11.49,9,12A13.24,13.24,0,0,1,4.33,13.17Zm-.59-1.73-.09.06c-.47.24-.44.42-.36.59a.83.83,0,0,0,.85.53,12.17,12.17,0,0,0,4.69-1.1c1.42-.54,2.93-1.08,4.6-1.64a5.55,5.55,0,0,1,1-.2c.21,0,.42-.06.63-.11s.5-.17.57-.3a.62.62,0,0,0,0-.49,7.77,7.77,0,0,1-.26-1.24l-.06-.35L15,7.26a1.54,1.54,0,0,0-.75.37,1.69,1.69,0,0,0,0,.85,3.31,3.31,0,0,1,.06.53.25.25,0,0,1-.14.25L14,9.38a.28.28,0,0,1-.37-.11l-.11-.21c-.11-.19-.21-.38-.31-.57l-.1-.21a.21.21,0,0,0-.05.11,3.22,3.22,0,0,0,0,.76c0,.13,0,.25,0,.38a.28.28,0,0,1-.11.23.28.28,0,0,1-.25,0c-.73-.25-.84-.41-1-1.34-.51.08-.51.15-.46.7a1,1,0,0,1-.12.49l-.06.15a.26.26,0,0,1-.15.16.28.28,0,0,1-.22,0l-.13-.05a1,1,0,0,1-.44-.22,7.12,7.12,0,0,1-.46-.57L9.58,9a1.88,1.88,0,0,1-.3.12,1.86,1.86,0,0,0-.76.44h0a1.42,1.42,0,0,0,0,.75,4.19,4.19,0,0,1,.06.48.3.3,0,0,1-.15.26l-.2.1a.29.29,0,0,1-.32-.05L7,10.15l-.07,0,.39.91a.28.28,0,0,1,0,.28l-.16.2a.28.28,0,0,1-.33.08L5.13,10.9l-.4,1a.27.27,0,0,1-.44.09Zm4.55-2h0Zm9.64,3.45a.29.29,0,0,1-.27-.23L15.93,3.84a.27.27,0,0,1,.17-.31l.21-.08a.26.26,0,0,1,.35.14l.21.45c.15.35.31.7.44,1l.3.77a9.85,9.85,0,0,1,.84,3c.05.71.18,1.43.3,2.13,0,.26.09.51.13.76a.94.94,0,0,1-.15.76,1,1,0,0,1-.79.3ZM16.75,5.14l1.4,7.13a.27.27,0,0,0,.16-.07.5.5,0,0,0,0-.32c0-.25-.09-.5-.13-.75a19.9,19.9,0,0,1-.31-2.19,9.24,9.24,0,0,0-.8-2.88l-.3-.78A.78.78,0,0,1,16.75,5.14Zm3,3.39a.84.84,0,0,1-.42-.1,1.47,1.47,0,0,1-.56-1l0-.12a1.52,1.52,0,0,0-.14-.44A.92.92,0,0,1,18.47,6a1,1,0,0,1,.75-.54,7.08,7.08,0,0,1,.8-.16,8.1,8.1,0,0,0,.91-.2l.09,0c.59-.18.86-.26,1.09-.1s.2.31.21.6L25,4.9,24.45,5,24,5.05a.28.28,0,0,1-.3-.17.28.28,0,0,1,.12-.33,5.83,5.83,0,0,1,1.77-.73c1-.22,2-.41,3-.59L29.75,3l.18-.09a2.42,2.42,0,0,1,.54-.25c.41-.11.83-.19,1.25-.28l.39-.08a.25.25,0,0,1,.15-.05l.06,0a1.27,1.27,0,0,1,.51-.2l.77-.1a26.71,26.71,0,0,1,2.85-.24h0a7.73,7.73,0,0,1,1.66.24c.24.06.48.11.73.15a.27.27,0,0,1,.22.29v.22a.28.28,0,0,1-.16.23l-.08,0a.79.79,0,0,1-.28.12c-.28.07-.56.12-.85.18-.51.1-1,.21-1.54.35-1,.29-2,.61-2.9.92L26.84,6.51c-.78.26-1.55.51-2.33.74L23,7.67c-.77.2-1.57.41-2.34.67A3.12,3.12,0,0,1,19.74,8.53Zm2-3.07a3.36,3.36,0,0,0-.59.16l-.09,0a8.46,8.46,0,0,1-1,.22c-.26,0-.51.09-.76.15s-.35.13-.38.22,0,.19.09.35a2,2,0,0,1,.2.6l0,.11c.09.39.18.6.29.66a1.53,1.53,0,0,0,.85-.13c.78-.27,1.59-.48,2.38-.68.51-.14,1-.27,1.54-.42.77-.22,1.54-.48,2.3-.73L33.11,3.9C34.06,3.59,35,3.26,36,3a15.39,15.39,0,0,1,1.6-.37l.57-.12-.15,0a6.86,6.86,0,0,0-1.59-.23,25.85,25.85,0,0,0-2.78.24l-.49.06a.27.27,0,0,1,.09.12l.09.22a.27.27,0,0,1-.13.34,3,3,0,0,0-.33.21,1.46,1.46,0,0,1-.93.37,4,4,0,0,0-1.65.32,6.11,6.11,0,0,1-1.24.34,12.49,12.49,0,0,0-1.9.45l-.9.25-4.16,1a.24.24,0,0,1-.24,0,.28.28,0,0,1-.1-.21C21.78,5.74,21.78,5.55,21.77,5.46ZM30,3.58l-.12.12h0l.3-.11.12,0C30.16,3.56,30.06,3.56,30,3.58Zm2-.35H32A1.5,1.5,0,0,0,32.6,3l0,0-.27-.07A1.56,1.56,0,0,1,31.94,3.23Z"/></svg>