<svg id="Layer_1" data-name="Layer 1" xmlns="http://www.w3.org/2000/svg" viewBox="0 0 59 14"><defs><style>.cls-1{fill:#293b5c;}</style></defs><path class="cls-1" d="M3.46,5H4c1.12,0,1.35-.18,1.56-1.44h.24L5.22,7H5C5.2,5.69,5,5.51,3.91,5.51H3.36L2.94,7.93c-.26,1.5-.17,1.75.78,1.75L3.66,10H.51l.06-.32c.93,0,1.14-.25,1.41-1.75l.85-4.88c.27-1.5.15-1.74-.78-1.74L2.1,1H7.5L7.26,3H7v-.3c0-.78-.08-1.13-1.11-1.13H4.06Z"/><path class="cls-1" d="M10.32,10.25C9.06,10.25,8.51,9,8.76,7.49a3.21,3.21,0,0,1,2.78-2.74,1.78,1.78,0,0,1,1,.25h.83l-.71,4c-.06.34,0,.61.17.61a1.37,1.37,0,0,0,.6-.33v.35a1.68,1.68,0,0,1-1,.52c-.42,0-.63-.27-.66-.69A2.09,2.09,0,0,1,10.32,10.25ZM12.39,5.6a1.26,1.26,0,0,0-.93-.37c-.88,0-1.51,1.06-1.72,2.26s0,2.16.85,2.16a1.58,1.58,0,0,0,1.34-1.39Z"/><path class="cls-1" d="M18.21,10.25c-1.23,0-1.78-1.12-1.51-2.62.31-1.77,1.59-2.88,2.49-2.88s1.24.63,1.18,1a.51.51,0,0,1-.49.49c-.62,0-.17-1-.77-1s-1.26.79-1.54,2.4c-.21,1.21.12,2,1.05,2A2,2,0,0,0,19.94,9l.15.3A2.61,2.61,0,0,1,18.21,10.25Z"/><path class="cls-1" d="M25.34,9.65A2.36,2.36,0,0,0,26.7,9l.14.3a2.8,2.8,0,0,1-1.89,1c-1.25,0-1.86-1.24-1.61-2.76s1.53-2.74,2.58-2.74A1,1,0,0,1,27,6c-.14.78-1,1.72-2.87,2.11C24.14,9.07,24.51,9.65,25.34,9.65Zm.93-3.6c.06-.39-.08-.7-.45-.7-.69,0-1.35.81-1.59,2.16,0,.09,0,.16-.05.24A2.57,2.57,0,0,0,26.27,6.05Z"/><path class="cls-1" d="M33.24,4.75c1.26,0,1.83,1.23,1.55,2.74A3.17,3.17,0,0,1,32,10.25,1.57,1.57,0,0,1,30.53,8.3l.9-5.11c.27-1.5.18-1.76-.57-1.76l0-.31L32.69.74l-.81,4.68A2.15,2.15,0,0,1,33.24,4.75Zm-.25.6a1.58,1.58,0,0,0-1.35,1.38l-.26,1.53c-.18,1,.3,1.44.78,1.44.87,0,1.46-1,1.67-2.21S33.83,5.35,33,5.35Z"/><path class="cls-1" d="M39.86,10.25c-1.26,0-2.06-1.24-1.8-2.76a3.19,3.19,0,0,1,2.77-2.74c1.25,0,2,1.23,1.77,2.74A3.18,3.18,0,0,1,39.86,10.25Zm.89-5c-.89,0-1.5,1-1.72,2.28s0,2.3.9,2.3,1.49-1,1.71-2.3S41.64,5.21,40.75,5.21Z"/><path class="cls-1" d="M47.79,10.25c-1.26,0-2-1.24-1.8-2.76a3.21,3.21,0,0,1,2.78-2.74c1.24,0,2,1.23,1.77,2.74A3.18,3.18,0,0,1,47.79,10.25Zm.9-5c-.9,0-1.5,1-1.72,2.28s0,2.3.9,2.3,1.48-1,1.71-2.3S49.58,5.21,48.69,5.21Z"/><path class="cls-1" d="M54.71,10h-.84l1.2-6.81c.26-1.5.18-1.76-.57-1.76l0-.31L56.33.74l-1,6c.9-1.2,1.53-2,2.37-2a.78.78,0,0,1,.85.91.45.45,0,0,1-.45.41c-.55,0-.18-.72-.75-.72-.36,0-.76.28-1.65,1.35A1.51,1.51,0,0,1,56,6.7c.62,0,.85.21.94.88L57.18,9c.06.46.15.61.35.61a1.15,1.15,0,0,0,.59-.33v.35a1.68,1.68,0,0,1-1,.52c-.52,0-.81-.4-.84-1L56.22,7.7c0-.4-.06-.63-.39-.63a1.22,1.22,0,0,0-.66.32Z"/></svg>