<svg id="Layer_1" data-name="Layer 1" xmlns="http://www.w3.org/2000/svg" viewBox="0 0 65 14"><defs><style>.cls-1{fill:#293b5c;}</style></defs><path class="cls-1" d="M.58,9.34.64,9c.93,0,1.14-.25,1.41-1.75L2.9,2.39C3.17.89,3.05.65,2.12.65l0-.31H5.32L5.27.65c-.94,0-1.14.24-1.39,1.74L3,7.27C2.75,8.77,2.84,9,3.79,9l-.06.32Z"/><path class="cls-1" d="M7.61,9.34l.72-4c.06-.36,0-.63-.16-.63a1.14,1.14,0,0,0-.6.35V4.66a1.54,1.54,0,0,1,1-.51c.53,0,.75.43.65,1l0,.14A2.22,2.22,0,0,1,10.9,4.09c1,0,1.29,1,1.06,2.23l-.34,2.06c-.06.34,0,.61.16.61a1.32,1.32,0,0,0,.6-.33V9a1.68,1.68,0,0,1-1,.52c-.52,0-.73-.45-.64-1l.36-2.08c.18-1,.09-1.61-.63-1.61-.5,0-1.35.75-1.62,2.31L8.45,9.34Z"/><path class="cls-1" d="M16.48,9.59c-.93,0-1.37-.61-1.29-1a.4.4,0,0,1,.42-.34c.55,0,0,.88,1.05.88a.88.88,0,0,0,.81-.72A1.35,1.35,0,0,0,17,7.34l-.54-.52A1.63,1.63,0,0,1,16,5.45a1.58,1.58,0,0,1,1.63-1.36c.81,0,1.07.54,1,.88a.33.33,0,0,1-.33.3c-.52,0-.07-.78-.85-.78a.79.79,0,0,0-.75.66c-.08.39.09.63.45,1l.54.51a1.61,1.61,0,0,1,.49,1.4A1.79,1.79,0,0,1,16.48,9.59Z"/><path class="cls-1" d="M22.7,7.9c-.12.72,0,1.09.33,1.09.2,0,.53-.15.95-.67v.4a1.94,1.94,0,0,1-1.33.87c-.68,0-1-.52-.78-1.69l.52-3h-1l.1-.53h1l.42-2.4h.82l-.4,2.4h1.2l-.11.53h-1.2Z"/><path class="cls-1" d="M28.81,9.59c-1.26,0-1.82-1.24-1.56-2.76A3.19,3.19,0,0,1,30,4.09a1.79,1.79,0,0,1,1,.25h.82l-.7,4c-.06.34-.05.61.16.61a1.32,1.32,0,0,0,.6-.33V9a1.68,1.68,0,0,1-1,.52c-.42,0-.63-.27-.66-.69A2.07,2.07,0,0,1,28.81,9.59Zm2.07-4.65A1.28,1.28,0,0,0,30,4.57c-.89,0-1.52,1.06-1.73,2.26s0,2.16.86,2.16A1.58,1.58,0,0,0,30.41,7.6Z"/><path class="cls-1" d="M39.2,4.09c.51,0,.72.37.66.67a.51.51,0,0,1-.45.45c-.58,0-.12-.6-.67-.6a.61.61,0,0,0-.33.12,2,2,0,0,1,.21,1.4,2.39,2.39,0,0,1-2,2c-.52,0-1.26.33-1.33.72s.7.57,1.18.6c1.89.16,2.4,1.06,2.25,1.92a2.69,2.69,0,0,1-2.85,1.92c-1.54,0-2.38-.72-2.23-1.52.07-.42.42-.85,1.15-1.2l.24.17a1.82,1.82,0,0,0-.69,1c-.12.72.81,1.08,1.62,1.08s1.83-.45,2-1.15-.54-1-1.71-1.19S34.25,10,34.4,9.11A1.83,1.83,0,0,1,35.8,7.9a1.79,1.79,0,0,1-.54-1.77,2.35,2.35,0,0,1,2-2,1.19,1.19,0,0,1,.91.4A1.89,1.89,0,0,1,39.2,4.09Zm-2,.48c-.6,0-1,.67-1.15,1.56s0,1.56.6,1.56,1-.69,1.14-1.56S37.81,4.57,37.22,4.57Z"/><path class="cls-1" d="M45.29,4.09A.73.73,0,0,1,46,5a.58.58,0,0,1-.6.51.39.39,0,0,1-.4-.48c0-.21,0-.31-.14-.31-.43,0-1.14,1-1.53,3.13l-.25,1.46h-.8l.72-4c.06-.36,0-.63-.16-.63a1.14,1.14,0,0,0-.6.35V4.66a1.54,1.54,0,0,1,1-.51c.53,0,.69.43.59,1l-.08.38C44.14,4.61,44.72,4.09,45.29,4.09Z"/><path class="cls-1" d="M50.23,9.59c-1.26,0-1.82-1.24-1.56-2.76a3.19,3.19,0,0,1,2.77-2.74,1.79,1.79,0,0,1,1,.25h.82l-.7,4c-.06.34,0,.61.16.61a1.32,1.32,0,0,0,.6-.33V9a1.68,1.68,0,0,1-1,.52c-.42,0-.63-.27-.66-.69A2.07,2.07,0,0,1,50.23,9.59ZM52.3,4.94a1.28,1.28,0,0,0-.93-.37c-.89,0-1.52,1.06-1.73,2.26S49.64,9,50.5,9A1.58,1.58,0,0,0,51.83,7.6Z"/><path class="cls-1" d="M62.84,4.09c1,0,1.17,1,.95,2.23l-.35,2.06c-.07.34,0,.61.15.61a1.18,1.18,0,0,0,.6-.33V9a1.64,1.64,0,0,1-1,.52c-.53,0-.75-.45-.65-1l.36-2.08c.21-1.11.14-1.61-.51-1.61-.48,0-1.3.69-1.57,2.31l-.41,2.24h-.82l.51-2.94c.19-1.11.13-1.61-.51-1.61S58.31,5.48,58,7.1l-.4,2.24H56.8l.72-4c.06-.36,0-.63-.17-.63a1.18,1.18,0,0,0-.6.35V4.66a1.57,1.57,0,0,1,1-.51c.52,0,.75.43.64,1l0,.14A2.13,2.13,0,0,1,60,4.09c.78,0,1.05.54,1,1.38A2.19,2.19,0,0,1,62.84,4.09Z"/></svg>