<svg id="Layer_1" data-name="Layer 1" xmlns="http://www.w3.org/2000/svg" viewBox="0 0 269 59"><defs><style>.cls-1{fill:#293b5c;}</style></defs><path class="cls-1" d="M2.85,57.79c.94.2,1.18-.1,1.59-2-.09.11.91-5.6,1-5.49.27-1.87.13-2.15-.88-2-.08-.19,0-.56.05-.35a27.52,27.52,0,0,1,5.88,0,6.24,6.24,0,0,1-.29,2.22c.15-.11-.13-.11-.27,0,.14-.11.14-.46,0-.33.12-1,0-1.45-1.25-1.27.09-.18-1.85-.18-1.85,0,0-.18-.7,3.81-.68,3.83a3.31,3.31,0,0,1,.63,0c1.32,0,1.58-.23,1.75-1.62.08-.09.36-.09.27,0a35.64,35.64,0,0,1-.67,3.87c.06.07-.22.07-.27,0,.31-1.41.12-1.62-1.2-1.62H6s-.46,2.57-.42,2.46c-.36,1.86-.24,2.14.86,2,0,.18,1.12.18,1.08,0C8.76,57.7,9,57.3,9.2,56.24c.11.13.23-.22.12-.34.11.12.39.12.27,0a6.23,6.23,0,0,1-.51,2.25,33.15,33.15,0,0,1-6.3,0C2.63,58.35,2.7,58,2.85,57.79Z"/><path class="cls-1" d="M17.48,57.79c.91.2,1.16-.1,1.59-2-.11.11.89-5.6,1-5.49.24-1.87.1-2.15-.88-2-.11-.19,0-.56.05-.35a10,10,0,0,1,3.53,0c3.12-.21,4,2.16,3.33,5.06C25.74,56,24,58.35,21,58.15a10.55,10.55,0,0,1-3.55,0C17.23,58.35,17.3,58,17.48,57.79Zm2.73-2.23c-.41,1.86-.3,2.14.81,2-.06.18,0,.18,0,0,2.57.18,3.49-2.38,3.75-4.44.46-2.06.46-4.62-2.18-4.44-.14-.18-1.25-.18-1.2,0C21.38,48.46,20.12,55.67,20.21,55.56Z"/><path class="cls-1" d="M33.86,58.15c-.11.2,0-.16.06-.36,1,.2,1.23-.1,1.59-2,0,.11,1-5.6,1-5.49.32-1.87.18-2.15-.87-2,0-.19,0-.56,0-.35a10,10,0,0,1,3.54,0c.11-.21.06.16,0,.35-1-.19-1.23.09-1.57,2,0-.11-1,5.6-1,5.49-.29,1.87-.19,2.17.88,2,0,.2,0,.56-.07.36A10.52,10.52,0,0,1,33.86,58.15Z"/><path class="cls-1" d="M52.7,58a1.17,1.17,0,0,0-.16-1c-.76,1.09-1.73,1.65-2.62,1.43-2.25.22-3.63-2.29-2.94-5.35.39-3.06,2.65-5.57,4.83-5.35.95-.22,1.73.32,2.11,1.43a1.67,1.67,0,0,0,.52-1c.15-.2.5-.2.34,0a18.88,18.88,0,0,1-.66,3.72c.14-.05-.23-.05-.35,0,.21-2.34-.58-3.72-2.05-3.53-1.86-.19-3.16,2.51-3.44,4.69-.49,2.18-.12,4.87,1.79,4.68,1.41.19,2.68-1.22,3.29-3.51.11,0,.48,0,.36,0A19,19,0,0,1,53.06,58C53.15,58.16,52.78,58.16,52.7,58Z"/><path class="cls-1" d="M61.73,58.15c-.11.2,0-.16.06-.36,1,.2,1.23-.1,1.59-2,0,.11,1-5.6,1-5.49.31-1.87.17-2.15-.88-2,0-.19,0-.56.05-.35a10,10,0,0,1,3.54,0c.11-.21.06.16,0,.35-1-.19-1.23.09-1.57,2,0-.11-1,5.6-1,5.49-.29,1.87-.19,2.17.88,2,0,.2,0,.56-.07.36A10.52,10.52,0,0,1,61.73,58.15Z"/><path class="cls-1" d="M78.13,58.43c-2.44.22-4-2.29-3.27-5.35.37-3.06,2.78-5.57,5.17-5.35,2.44-.22,4,2.29,3.27,5.35C83,56.14,80.52,58.65,78.13,58.43Zm1.78-10c-2.13-.19-3.47,2.51-3.75,4.69-.49,2.18-.1,4.87,2.11,4.68,2.15.19,3.46-2.5,3.72-4.68C82.51,50.9,82.12,48.2,79.91,48.39Z"/><path class="cls-1" d="M101.53,47.73c1-.22,1.28.38,1,1,.18.11,0,.33-.51.49-.41-.16.08-1-.76-.83-.48-.19-.78,1.18-1.15,2.52.14-.09-1.25,7.73-1.33,7.51.08.22-.23.22-.3,0,.07.22-3.71-8.69-3.64-8.56a50.48,50.48,0,0,0-.92,5.34c-.61,2.83-1.33,3.44-2.12,3.22-1,.22-1.27-.39-.94-1-.19-.1,0-.33.51-.49.41.16-.08,1,.77.83.47.19.78-1.18,1.13-2.52a34.64,34.64,0,0,1,.88-4.91c.2-1.87.07-2.15-.89-2-.14-.19-.07-.56.06-.35-.13-.21,2-.21,2,0-.05-.21,3.39,7.87,3.31,7.76A41.72,41.72,0,0,0,99.45,51C100,48.11,100.74,47.51,101.53,47.73Z"/><path class="cls-1" d="M108.65,57.79c.94.2,1.18-.1,1.59-2-.09.11.91-5.6,1-5.49.27-1.87.13-2.15-.88-2-.08-.19,0-.56.05-.35a27.52,27.52,0,0,1,5.88,0,6.24,6.24,0,0,1-.29,2.22c.15-.11-.13-.11-.27,0,.14-.11.14-.46,0-.33.12-1,0-1.45-1.25-1.27.09-.18-1.85-.18-1.85,0,0-.18-.7,3.81-.68,3.83a3.31,3.31,0,0,1,.63,0c1.32,0,1.58-.23,1.75-1.62.08-.09.36-.09.27,0a35.64,35.64,0,0,1-.67,3.87c.06.07-.23.07-.27,0,.31-1.41.12-1.62-1.2-1.62h-.63s-.46,2.57-.42,2.46c-.36,1.86-.24,2.14.86,2,0,.18,1.12.18,1.08,0,1.25.18,1.46-.22,1.69-1.28.11.13.23-.22.12-.34.11.12.39.12.27,0a6.23,6.23,0,0,1-.51,2.25,33.15,33.15,0,0,1-6.3,0C108.43,58.35,108.5,58,108.65,57.79Z"/><path class="cls-1" d="M123.79,58.43c-.13.22-.48.22-.34,0a24.16,24.16,0,0,1,.66-3.71c-.11.07.26.07.35,0-.29,1.77.31,3.23,2.1,3,.74.19,1.69-.42,1.85-1.76.21-.74-.12-1.41-1.36-2.36,0,0-1-.72-1-.71a2.43,2.43,0,0,1-1-2.67,2.56,2.56,0,0,1,2.69-2.53,1.14,1.14,0,0,1,1.53.69,2.45,2.45,0,0,0,.53-.78c.12-.22.47-.22.33,0a24.27,24.27,0,0,1-.66,3.72c.11-.07-.25-.07-.35,0,.25-1.48.15-3.15-1.42-3a1.54,1.54,0,0,0-1.7,1.51c-.19.82.32,1.43,1.06,2a6.65,6.65,0,0,1,1,.75,2.53,2.53,0,0,1,1.25,2.82c-.23,2-1.67,3.15-3.09,2.93a1.64,1.64,0,0,1-1.9-.87A3,3,0,0,0,123.79,58.43Z"/><path class="cls-1" d="M.82,20.42a1.08,1.08,0,0,0,1.28-.27c.25,0,.38-.38.4-1.07,0,.15,0-15.29,0-15.14,0-.69-.15-1.06-.4-1.07A1.08,1.08,0,0,0,.82,2.6c0-.18,0-1,0-.79,0-.2,1.91-.2,1.92,0a6.65,6.65,0,0,1,2.81,0c0-.2,0,19.6,0,19.4a6.65,6.65,0,0,1-2.81,0c0,.2-2,.2-1.92,0C.78,21.41.78,20.6.82,20.42ZM12.58,10a1.19,1.19,0,0,0,.28-1.08,2.56,2.56,0,0,1,.79,0,4.89,4.89,0,0,1,0,1.62,2.88,2.88,0,0,1,0,1.24,4.89,4.89,0,0,1,0,1.62,2.56,2.56,0,0,1-.79,0,1.19,1.19,0,0,0-.28-1.08c-.12-.2-.48-.3-1.06-.32,0,0-6.52,0-6.43,0a5.26,5.26,0,0,1,0-1.68c-.09,0,6.47,0,6.43,0C12.1,10.29,12.46,10.18,12.58,10Zm3.64-3.77c.11,0-.69.2-.79.15a4.71,4.71,0,0,0-.7-2.22,1.12,1.12,0,0,0-1.19-.7H5.19a4.47,4.47,0,0,1,0-1.71c-.11,0,10.24,0,10.15,0A2.89,2.89,0,0,1,15.58,3,17.61,17.61,0,0,1,16.22,6.21ZM15.13,18.87a5.17,5.17,0,0,0,.94-2.21c.1-.05.88.2.77.24A17.81,17.81,0,0,1,15.89,20a3.18,3.18,0,0,1-.4,1.31c.09,0-10.32,0-10.2,0a4.1,4.1,0,0,1,0-1.71c-.12,0,8.65,0,8.59,0A1.29,1.29,0,0,0,15.13,18.87Z"/><path class="cls-1" d="M34.23,14.83A3.3,3.3,0,0,1,35,17.37c.11,1.66-.42,2.75-1.56,3.22a5.41,5.41,0,0,1-3.77.86,4.75,4.75,0,0,1-3.3-.65,3.36,3.36,0,0,1-2-1.54,22,22,0,0,1,0-3.81c-.11,0,.42,0,.52,0a4.93,4.93,0,0,0,1.66,3.41A3.45,3.45,0,0,0,29.54,20a2.23,2.23,0,0,0,2.06-.61,1.7,1.7,0,0,0,.75-1.73,1.7,1.7,0,0,0-.49-1.36,3.12,3.12,0,0,0-1.46-.78s-2.76-.69-2.72-.7a4.08,4.08,0,0,1-2.3-1.25,2.45,2.45,0,0,1-.77-2.16,3.1,3.1,0,0,1,1.4-3A4.55,4.55,0,0,1,29.88,7.2a3.74,3.74,0,0,1,2.45.38,2.85,2.85,0,0,1,2,1.08,20.34,20.34,0,0,1,.31,3.59c.1,0-.43,0-.52.06a4.93,4.93,0,0,0-1.66-2.74,2.76,2.76,0,0,0-2.54-.91A2.06,2.06,0,0,0,28,9.24a1.43,1.43,0,0,0-.76,1.49,1.35,1.35,0,0,0,.41,1.14,4.59,4.59,0,0,0,1.63.75s2.38.62,2.34.64A3.94,3.94,0,0,1,34.23,14.83Z"/><path class="cls-1" d="M42.27,27.18c0,.2,0-.61,0-.79a.82.82,0,0,0,1.08-.27c.2,0,.31-.38.32-1.07,0,.15,0-15.57,0-15.42,0-.69-.12-1.05-.32-1.06a.81.81,0,0,0-1.08-.28c0-.18,0-1,0-.79,0-.2,1.61-.2,1.62,0a6.19,6.19,0,0,1,2.71,0c0-.2,0,19.88,0,19.68a6.19,6.19,0,0,1-2.71,0C43.88,27.38,42.23,27.38,42.27,27.18Zm4.3-16.69a3,3,0,0,1,1.51-2.3,3.45,3.45,0,0,1,3-1,4.35,4.35,0,0,1,4,1.61c1.11,1,1.62,2.86,1.51,5.52.11,2.65-.4,4.52-1.51,5.51a4.35,4.35,0,0,1-4,1.61,3.34,3.34,0,0,1-3-1.05A3.29,3.29,0,0,1,46.57,18c-.09.07-1.18.07-1.06,0-.12.07-.12-7.54,0-7.46C45.39,10.41,46.48,10.41,46.57,10.49Zm6.3,8a8.3,8.3,0,0,0,.67-4.2,8.07,8.07,0,0,0-.7-4.18,2.2,2.2,0,0,0-2.5-1.49,2.07,2.07,0,0,0-1.78.52A2.67,2.67,0,0,0,47.19,11a6.65,6.65,0,0,0-.54,3.37,6.61,6.61,0,0,0,.54,3.36,2.64,2.64,0,0,0,1.37,1.78,2.07,2.07,0,0,0,1.78.52A2.2,2.2,0,0,0,52.87,18.53Z"/><path class="cls-1" d="M68.68,20.15a.83.83,0,0,0,1.08.27c.06.18.06,1,0,.79.06.2-1.59.2-1.61,0a5.28,5.28,0,0,1-2.5,0c0,.2-1.67.2-1.61,0-.06.2-.06-.61,0-.79a.83.83,0,0,0,1.08-.27c.18,0,.29-.38.32-1.07,0,.15,0-15.29,0-15.14,0-.69-.14-1.06-.32-1.07A.83.83,0,0,0,64,2.6c-.06-.18-.06-1,0-.79-.06-.2,1.59-.2,1.61,0a6.2,6.2,0,0,1,2.71,0c0-.2,0,17.42,0,17.27C68.39,19.77,68.5,20.13,68.68,20.15Z"/><path class="cls-1" d="M82.53,20.18a1,1,0,0,0,1.08.27c.06.12.06.93,0,.79a3.13,3.13,0,0,1-1.61,0,7.49,7.49,0,0,1-2.5,0,3.17,3.17,0,0,1-1.62,0c0,.14,0-.67,0-.79A1,1,0,0,0,79,20.18c.18-.07.29-.44.31-1.07,0,.09,0-9.6,0-9.51,0-.63-.13-1-.31-1.06a1,1,0,0,0-1.09-.28c0-.12,0-.93,0-.79a3.17,3.17,0,0,1,1.62,0,8.8,8.8,0,0,1,2.71,0c0-.14,0,11.73,0,11.64C82.24,19.74,82.35,20.11,82.53,20.18ZM81.48.9a15,15,0,0,1-1.42,2.55,8.9,8.9,0,0,1-2.15,2s.1.36.15.31A7.19,7.19,0,0,0,80.9,4.71a8.15,8.15,0,0,0,2.22-1.86A23.49,23.49,0,0,0,81.48.9Z"/><path class="cls-1" d="M96.44,20.18a1,1,0,0,0,1.08.27c.06.12.06.93,0,.79a3.13,3.13,0,0,1-1.61,0,7.49,7.49,0,0,1-2.5,0,3.17,3.17,0,0,1-1.62,0c-.06.14-.06-.67,0-.79a1,1,0,0,0,1.08-.27c.19-.07.29-.44.32-1.07,0,.09,0-9.6,0-9.51,0-.63-.13-1-.32-1.06a1,1,0,0,0-1.08-.28c-.06-.12-.06-.93,0-.79a3.17,3.17,0,0,1,1.62,0,8.8,8.8,0,0,1,2.71,0c0-.14,0,11.73,0,11.64C96.15,19.74,96.26,20.11,96.44,20.18Zm-1-9c-.11-.07.76-.07.85,0a3.71,3.71,0,0,1,1.28-2.82,3,3,0,0,1,3-1.14,3.13,3.13,0,0,1,3.18,1.29,4.86,4.86,0,0,1,1,3.76c.08,0,.08,7,0,6.86.08.64.19,1,.32,1.06a1,1,0,0,0,1.08.28c.11.12.11.93,0,.79.11.14-1.54.14-1.61,0a7.49,7.49,0,0,1-2.5,0,3.18,3.18,0,0,1-1.62,0v-.79a.94.94,0,0,0,1.09-.28c.23-.06.34-.42.32-1.06,0,.1,0-6.34,0-6.31a6.36,6.36,0,0,0-.46-3,1.49,1.49,0,0,0-1.74-.91,2.4,2.4,0,0,0-2.45,1.59c-.73,1-1,2.8-1,5.3a3.35,3.35,0,0,1-.79,0A32.1,32.1,0,0,1,95.39,11.16Z"/><path class="cls-1" d="M127.44,1.65l1.31.08c-.12,0,11.42,0,11.3,0l1.3-.08a2.34,2.34,0,0,0,.92-.32c.16-.05.32,1.66.16,1.68a10.79,10.79,0,0,1,.27,3.23c.17,0-.64.11-.79.06a3.15,3.15,0,0,0-.46-2.18c-.08-.46-.47-.69-1.13-.68H128.44c-.66,0-1,.22-1.12.67a3.39,3.39,0,0,0-.52,2.22c-.16,0-.93,0-.76-.09a10.82,10.82,0,0,1,.3-3.23,3.07,3.07,0,0,1,.18-1.68A2.22,2.22,0,0,0,127.44,1.65Zm8.95,18.5a1.64,1.64,0,0,0,1.62.27c.07.18.07,1,0,.79a4.91,4.91,0,0,1-2.41,0,4.88,4.88,0,0,1-2.4,0,5,5,0,0,1-2.44,0c-.07.2-.07-.61,0-.79a1.61,1.61,0,0,0,1.61-.27c.29,0,.46-.38.49-1.07,0,.15,0-17.47,0-17.27a7.83,7.83,0,0,1,3,0c0-.2,0,17.42,0,17.27C135.94,19.77,136.1,20.13,136.39,20.15Z"/><path class="cls-1" d="M152.69,20.18a1,1,0,0,0,1.08.27c.06.12.06.93,0,.79a3.13,3.13,0,0,1-1.61,0,7.49,7.49,0,0,1-2.5,0c0,.14-1.67.14-1.61,0-.06.14-.06-.67,0-.79a1,1,0,0,0,1.08-.27c.18-.07.29-.44.32-1.07,0,.09,0-9.6,0-9.51,0-.63-.14-1-.32-1.06a1,1,0,0,0-1.08-.28c-.06-.12-.06-.93,0-.79-.06-.14,1.58-.14,1.61,0a8.8,8.8,0,0,1,2.71,0c0-.14,0,11.73,0,11.64C152.4,19.74,152.51,20.11,152.69,20.18Zm1.09-11.45a2.72,2.72,0,0,1,2.75-1.46,2,2,0,0,1,1.57.32,1.4,1.4,0,0,1,1.08.9c.08-.08-1,2.78-1,2.8s-.28-.11-.33-.09a1.2,1.2,0,0,0-.49-1.19,1.5,1.5,0,0,0-1.4-.52,2.74,2.74,0,0,0-2.55,1.75c-.7,1.17-1,3.18-1,5.9a3.29,3.29,0,0,1-1.4,0c-.08.1-.08-4.81,0-4.82h1.46A8.06,8.06,0,0,1,153.78,8.73Z"/><path class="cls-1" d="M175.88,8.06a4.07,4.07,0,0,1,2.25,2.49,5.94,5.94,0,0,1,.78,3.78,5.92,5.92,0,0,1-.78,3.77,4.07,4.07,0,0,1-2.25,2.49,4.86,4.86,0,0,1-3.55.86,5.28,5.28,0,0,1-4.85-1.91,6.29,6.29,0,0,1-1.73-5.21,5.94,5.94,0,0,1,.77-3.78,4.08,4.08,0,0,1,2.26-2.49,7.76,7.76,0,0,1,7.1,0ZM175,18.45a7,7,0,0,0,.84-4.12A7.06,7.06,0,0,0,175,10.2a3,3,0,0,0-5.27,0,7.13,7.13,0,0,0-.84,4.13,7.12,7.12,0,0,0,.84,4.12,3,3,0,0,0,5.27,0Z"/><path class="cls-1" d="M186.35,27.18c0,.2,0-.61,0-.79a.82.82,0,0,0,1.08-.27c.2,0,.31-.38.32-1.07,0,.15,0-15.57,0-15.42,0-.69-.12-1.05-.32-1.06a.81.81,0,0,0-1.08-.28c0-.18,0-1,0-.79,0-.2,1.6-.2,1.62,0a6.19,6.19,0,0,1,2.71,0c0-.2,0,19.88,0,19.68a6.19,6.19,0,0,1-2.71,0C188,27.38,186.31,27.38,186.35,27.18Zm4.3-16.69a3,3,0,0,1,1.51-2.3,3.45,3.45,0,0,1,3-1,4.36,4.36,0,0,1,4,1.61c1.11,1,1.62,2.86,1.51,5.52.11,2.65-.4,4.52-1.51,5.51a4.36,4.36,0,0,1-4,1.61,3.34,3.34,0,0,1-3-1.05A3.29,3.29,0,0,1,190.65,18c-.09.07-1.18.07-1.06,0-.12.07-.12-7.54,0-7.46C189.47,10.41,190.56,10.41,190.65,10.49Zm6.3,8a8.3,8.3,0,0,0,.67-4.2,8.07,8.07,0,0,0-.7-4.18,2.2,2.2,0,0,0-2.5-1.49,2.07,2.07,0,0,0-1.78.52A2.67,2.67,0,0,0,191.27,11a6.54,6.54,0,0,0-.54,3.37,6.5,6.5,0,0,0,.54,3.36,2.64,2.64,0,0,0,1.37,1.78,2.07,2.07,0,0,0,1.78.52A2.2,2.2,0,0,0,197,18.53Z"/><path class="cls-1" d="M213.31,20.18a1,1,0,0,0,1.09.27c0,.12,0,.93,0,.79a3.17,3.17,0,0,1-1.62,0,7.49,7.49,0,0,1-2.5,0,3.13,3.13,0,0,1-1.61,0c-.06.14-.06-.67,0-.79a1,1,0,0,0,1.08-.27c.18-.07.29-.44.32-1.07,0,.09,0-9.6,0-9.51,0-.63-.14-1-.32-1.06a1,1,0,0,0-1.08-.28c-.06-.12-.06-.93,0-.79a3.13,3.13,0,0,1,1.61,0,8.8,8.8,0,0,1,2.71,0c0-.14,0,11.73,0,11.64C213,19.74,213.13,20.11,213.31,20.18ZM211.47.81c0-.05,2.24,2.16,2.19,2.16s-2.19,2.24-2.19,2.19S209.26,3,209.31,3,211.47.76,211.47.81Z"/><path class="cls-1" d="M231.07,11.31a2.16,2.16,0,0,0-.65-2,1.86,1.86,0,0,0-1.91-.68,2.65,2.65,0,0,0-2.71,1.43,6.2,6.2,0,0,0-1,4.11A5.6,5.6,0,0,0,226,18.36a3.52,3.52,0,0,0,3.35,1.45A3,3,0,0,0,232,19a3.15,3.15,0,0,0,1.49-1.87c.11.05.73.3.61.24a4.7,4.7,0,0,1-1.8,2.82,3.89,3.89,0,0,1-3.62,1.26,5.42,5.42,0,0,1-4.86-1.85A6.25,6.25,0,0,1,222,14.36c-.12-2.34.5-4.15,1.82-5.3a5.38,5.38,0,0,1,4.8-1.86,4.39,4.39,0,0,1,3.94,1.25A3.81,3.81,0,0,1,233.91,12a2,2,0,0,1-.1,1.28c.12,0-2.86-.27-2.92-.24A4.73,4.73,0,0,0,231.07,11.31Z"/><path class="cls-1" d="M250.53,17.37a5.15,5.15,0,0,1-1.36,2.93,2.89,2.89,0,0,1-2.87,1.15,3,3,0,0,1-3.05-1.15c-.81-.67-1.16-1.87-1-3.54a3.91,3.91,0,0,1,.46-2.53c-.12,0,9.12-1,9.05-1s.07.75,0,.76l-6.43,1.31a3.2,3.2,0,0,0-.27,1.8,2.42,2.42,0,0,0,.5,1.95,1.27,1.27,0,0,0,1.48.73,1.84,1.84,0,0,0,1.73-.76A4.24,4.24,0,0,0,250,16.7a11.07,11.07,0,0,0,.47-3.84,5.08,5.08,0,0,0-.67-3.12,1.89,1.89,0,0,0-2.07-1.08,1.7,1.7,0,0,0-1.77.62,1.7,1.7,0,0,0-.61,1.63.62.62,0,0,0,.05.52.78.78,0,0,0,.1.49c-.06-.05-.06,0,0,.09a22.46,22.46,0,0,0-2.65.24c-.11,0-.14-.1,0-.06-.26-.56-.33-.94-.21-1.12a2.71,2.71,0,0,1,1.45-2.78,4.67,4.67,0,0,1,3.82-1.09,4.1,4.1,0,0,1,3.52,1,3.1,3.1,0,0,1,1.48,2.35,8.21,8.21,0,0,1,.3,3.23,47.92,47.92,0,0,1,0,5.36c.1.63.21,1,.32,1.06a1,1,0,0,0,1.08.28c.13.12.13.93,0,.79.13.14-1.52.14-1.61,0a6.61,6.61,0,0,1-2.35,0c0,.14,0-3.81,0-3.87S250.57,17.43,250.53,17.37Z"/><path class="cls-1" d="M266.89,20.15a.83.83,0,0,0,1.08.27c.06.18.06,1,0,.79.06.2-1.59.2-1.61,0a5.28,5.28,0,0,1-2.5,0c0,.2-1.67.2-1.62,0-.05.2-.05-.61,0-.79a.83.83,0,0,0,1.08-.27c.19,0,.3-.38.32-1.07,0,.15,0-15.29,0-15.14,0-.69-.13-1.06-.32-1.07a.83.83,0,0,0-1.08-.27c-.05-.18-.05-1,0-.79-.05-.2,1.59-.2,1.62,0a6.2,6.2,0,0,1,2.71,0c0-.2,0,17.42,0,17.27C266.6,19.77,266.71,20.13,266.89,20.15Z"/></svg>