<svg id="Layer_1" data-name="Layer 1" xmlns="http://www.w3.org/2000/svg" viewBox="0 0 269 30"><defs><style>.cls-1{fill:#293b5c;}</style></defs><path class="cls-1" d="M.8,20.51a2.29,2.29,0,0,0,1.29-.28,1.2,1.2,0,0,0,.4-1.07V3.86a1.2,1.2,0,0,0-.4-1.07A2.29,2.29,0,0,0,.8,2.51v-.8H5.57v19.6H.8ZM12.62,10a1.7,1.7,0,0,0,.27-1.09h.8V13.4h-.8a1.72,1.72,0,0,0-.27-1.09A1.39,1.39,0,0,0,11.54,12H5.05v-1.7h6.49A1.39,1.39,0,0,0,12.62,10Zm3.66-3.74-.8.16a8,8,0,0,0-.71-2.25,1.31,1.31,0,0,0-1.2-.71H5.14V1.71H15.39L15.63,3ZM15.17,18.86a8.19,8.19,0,0,0,1-2.23l.77.25-1,3.11-.4,1.32H5.23V19.59h8.68A1.47,1.47,0,0,0,15.17,18.86Z"/><path class="cls-1" d="M34.28,14.83A4.42,4.42,0,0,1,35,17.4a3.39,3.39,0,0,1-1.59,3.25,7.76,7.76,0,0,1-3.8.88,7.42,7.42,0,0,1-3.34-.67,5.78,5.78,0,0,1-2-1.55V15.46h.52a6.3,6.3,0,0,0,1.68,3.45,4.34,4.34,0,0,0,3.09,1.14,3.2,3.2,0,0,0,2.08-.62,2.13,2.13,0,0,0,.75-1.75,2,2,0,0,0-.49-1.37,2.86,2.86,0,0,0-1.48-.78l-2.74-.71a4.69,4.69,0,0,1-2.32-1.26,3.16,3.16,0,0,1-.78-2.19,3.83,3.83,0,0,1,1.41-3,5.86,5.86,0,0,1,3.91-1.2,7.9,7.9,0,0,1,2.48.39,5.55,5.55,0,0,1,2,1.09l.31,3.63-.52.06a7.09,7.09,0,0,0-1.68-2.77,3.66,3.66,0,0,0-2.57-.92A3.06,3.06,0,0,0,28,9.19a1.81,1.81,0,0,0-.77,1.5,1.56,1.56,0,0,0,.42,1.16,3.85,3.85,0,0,0,1.64.75l2.37.65A4.57,4.57,0,0,1,34.28,14.83Z"/><path class="cls-1" d="M42.25,27.28v-.8a1.64,1.64,0,0,0,1.09-.28,1.35,1.35,0,0,0,.33-1.07V9.56a1.36,1.36,0,0,0-.33-1.08,1.64,1.64,0,0,0-1.09-.28V7.4h4.37V27.28H42.25Zm4.28-16.83a4,4,0,0,1,1.52-2.33,4.77,4.77,0,0,1,3.06-1,5.31,5.31,0,0,1,4.08,1.64c1,1.08,1.52,2.94,1.52,5.57s-.5,4.48-1.52,5.57a5.34,5.34,0,0,1-4.08,1.63,4.51,4.51,0,0,1-3-1.07A4.41,4.41,0,0,1,46.53,18H45.45V10.45Zm6.37,8.12a10.53,10.53,0,0,0,.67-4.24,10.18,10.18,0,0,0-.7-4.22A2.56,2.56,0,0,0,50.34,8.6a3.47,3.47,0,0,0-1.8.52,3.74,3.74,0,0,0-1.38,1.81,8.86,8.86,0,0,0-.54,3.4,8.93,8.93,0,0,0,.54,3.4,3.76,3.76,0,0,0,1.38,1.8,3.47,3.47,0,0,0,1.8.52A2.55,2.55,0,0,0,52.9,18.57Z"/><path class="cls-1" d="M68.7,20.23a1.66,1.66,0,0,0,1.09.28v.8H64v-.8a1.66,1.66,0,0,0,1.09-.28,1.39,1.39,0,0,0,.32-1.07V3.86a1.39,1.39,0,0,0-.32-1.07A1.66,1.66,0,0,0,64,2.51v-.8h4.37V19.16A1.35,1.35,0,0,0,68.7,20.23Z"/><path class="cls-1" d="M82.55,20.23a1.64,1.64,0,0,0,1.09.28v.8H77.85v-.8a1.67,1.67,0,0,0,1.1-.28,1.39,1.39,0,0,0,.32-1.07V9.56A1.4,1.4,0,0,0,79,8.48a1.67,1.67,0,0,0-1.1-.28V7.4h4.37V19.16A1.35,1.35,0,0,0,82.55,20.23ZM81.49.88a14.41,14.41,0,0,1-1.43,2.57,8.74,8.74,0,0,1-2.17,2L78,5.8A8.25,8.25,0,0,0,80.9,4.72a9.83,9.83,0,0,0,2.25-1.87Z"/><path class="cls-1" d="M96.46,20.23a1.64,1.64,0,0,0,1.09.28v.8H91.76v-.8a1.67,1.67,0,0,0,1.1-.28,1.39,1.39,0,0,0,.32-1.07V9.56a1.4,1.4,0,0,0-.32-1.08,1.67,1.67,0,0,0-1.1-.28V7.4h4.37V19.16A1.35,1.35,0,0,0,96.46,20.23Zm-1.13-9.11h.87a4.94,4.94,0,0,1,1.29-2.84,4.51,4.51,0,0,1,6.2.15,5.89,5.89,0,0,1,1.06,3.8v6.93a1.39,1.39,0,0,0,.32,1.07,1.67,1.67,0,0,0,1.1.28v.8h-5.79v-.8a1.64,1.64,0,0,0,1.09-.28,1.35,1.35,0,0,0,.33-1.07V12.79a7.26,7.26,0,0,0-.47-3,1.75,1.75,0,0,0-1.75-.92,2.85,2.85,0,0,0-2.48,1.6,10.93,10.93,0,0,0-1,5.35h-.8Z"/><path class="cls-1" d="M127.37,1.63a9.09,9.09,0,0,0,1.32.08h11.42a8.84,8.84,0,0,0,1.31-.08,3,3,0,0,0,.93-.32L142.51,3l.28,3.26-.81.06a6.47,6.47,0,0,0-.46-2.2,1.16,1.16,0,0,0-1.14-.69h-12a1.19,1.19,0,0,0-1.14.68,7.43,7.43,0,0,0-.52,2.24L126,6.26,126.26,3l.18-1.69A2.78,2.78,0,0,0,127.37,1.63Zm9,18.6a3.49,3.49,0,0,0,1.64.28v.8h-7.33v-.8a3.45,3.45,0,0,0,1.63-.28,1.11,1.11,0,0,0,.5-1.07V1.71h3.07V19.16A1.13,1.13,0,0,0,136.41,20.23Z"/><path class="cls-1" d="M152.71,20.23a1.66,1.66,0,0,0,1.09.28v.8H148v-.8a1.66,1.66,0,0,0,1.09-.28,1.39,1.39,0,0,0,.32-1.07V9.56a1.4,1.4,0,0,0-.32-1.08A1.66,1.66,0,0,0,148,8.2V7.4h4.37V19.16A1.35,1.35,0,0,0,152.71,20.23Zm1.06-11.54a3.11,3.11,0,0,1,2.77-1.47,3.83,3.83,0,0,1,1.59.32,2.47,2.47,0,0,1,1.09.91l-1,2.83-.34-.09a1.54,1.54,0,0,0-.49-1.2A1.91,1.91,0,0,0,156,9.46a2.93,2.93,0,0,0-2.57,1.77q-1,1.77-1,6H151V12.33h1.48A9.51,9.51,0,0,1,153.77,8.69Z"/><path class="cls-1" d="M175.91,8a5.67,5.67,0,0,1,2.28,2.51,8.77,8.77,0,0,1,.78,3.82,8.76,8.76,0,0,1-.78,3.81,5.67,5.67,0,0,1-2.28,2.51,7,7,0,0,1-3.58.88,6.28,6.28,0,0,1-4.9-1.94,7.59,7.59,0,0,1-1.75-5.26,8.63,8.63,0,0,1,.79-3.82A5.71,5.71,0,0,1,168.74,8a7.74,7.74,0,0,1,7.17,0ZM175,18.5a8.81,8.81,0,0,0,.85-4.17,8.75,8.75,0,0,0-.85-4.17,3,3,0,0,0-5.32,0,8.64,8.64,0,0,0-.85,4.17,8.69,8.69,0,0,0,.85,4.17,3.06,3.06,0,0,0,5.32,0Z"/><path class="cls-1" d="M186.33,27.28v-.8a1.64,1.64,0,0,0,1.09-.28,1.35,1.35,0,0,0,.32-1.07V9.56a1.37,1.37,0,0,0-.32-1.08,1.64,1.64,0,0,0-1.09-.28V7.4h4.37V27.28h-4.37Zm4.28-16.83a4,4,0,0,1,1.52-2.33,4.77,4.77,0,0,1,3.06-1,5.33,5.33,0,0,1,4.08,1.64q1.51,1.62,1.52,5.57t-1.52,5.57a5.35,5.35,0,0,1-4.08,1.63,4.51,4.51,0,0,1-3-1.07A4.41,4.41,0,0,1,190.61,18h-1.08V10.45ZM197,18.57a10.53,10.53,0,0,0,.67-4.24,10.18,10.18,0,0,0-.7-4.22,2.56,2.56,0,0,0-2.53-1.51,3.47,3.47,0,0,0-1.8.52,3.74,3.74,0,0,0-1.38,1.81,8.86,8.86,0,0,0-.54,3.4,8.93,8.93,0,0,0,.54,3.4,3.76,3.76,0,0,0,1.38,1.8,3.47,3.47,0,0,0,1.8.52A2.56,2.56,0,0,0,197,18.57Z"/><path class="cls-1" d="M213.33,20.23a1.66,1.66,0,0,0,1.09.28v.8h-5.78v-.8a1.64,1.64,0,0,0,1.09-.28,1.35,1.35,0,0,0,.32-1.07V9.56a1.37,1.37,0,0,0-.32-1.08,1.64,1.64,0,0,0-1.09-.28V7.4H213V19.16A1.39,1.39,0,0,0,213.33,20.23ZM211.47.79,213.69,3l-2.22,2.22L209.29,3Z"/><path class="cls-1" d="M231.1,11.28a2.8,2.8,0,0,0-.66-2,2.53,2.53,0,0,0-1.92-.69,3.13,3.13,0,0,0-2.74,1.45,7.31,7.31,0,0,0-1,4.15,6.45,6.45,0,0,0,1.2,4.2,4.7,4.7,0,0,0,6,.65,5.18,5.18,0,0,0,1.5-1.89l.62.24a7.08,7.08,0,0,1-1.82,2.85,5,5,0,0,1-3.66,1.28,6.49,6.49,0,0,1-4.91-1.88,7.34,7.34,0,0,1-1.8-5.29A7.36,7.36,0,0,1,223.79,9a6.48,6.48,0,0,1,4.85-1.88,5.64,5.64,0,0,1,4,1.27A4.71,4.71,0,0,1,234,12a10.25,10.25,0,0,1-.09,1.29l-3-.25A9.8,9.8,0,0,0,231.1,11.28Z"/><path class="cls-1" d="M250.55,17.4a6.5,6.5,0,0,1-1.37,3,3.6,3.6,0,0,1-2.91,1.17,3.89,3.89,0,0,1-3.07-1.17,5.21,5.21,0,0,1-1-3.57,6.43,6.43,0,0,1,.46-2.56l9.14-1V14l-6.49,1.32a4.79,4.79,0,0,0-.28,1.82,3.43,3.43,0,0,0,.51,2,1.69,1.69,0,0,0,1.49.73,2.47,2.47,0,0,0,1.76-.77A5.39,5.39,0,0,0,250,16.73a13.46,13.46,0,0,0,.48-3.88,6.06,6.06,0,0,0-.68-3.16,2.3,2.3,0,0,0-2.09-1.09,2.37,2.37,0,0,0-1.78.63,2.22,2.22,0,0,0-.62,1.65,2.87,2.87,0,0,0,.05.52c0,.17.06.33.1.49V12l-2.67.24,0-.06a4.45,4.45,0,0,1-.22-1.14A3.39,3.39,0,0,1,244,8.23a6.23,6.23,0,0,1,3.86-1.11,5.46,5.46,0,0,1,3.56,1,4.21,4.21,0,0,1,1.49,2.37,14.85,14.85,0,0,1,.31,3.26v5.42a1.39,1.39,0,0,0,.32,1.07,1.66,1.66,0,0,0,1.09.28v.8h-4V17.4Z"/><path class="cls-1" d="M266.91,20.23a1.64,1.64,0,0,0,1.09.28v.8h-5.79v-.8a1.67,1.67,0,0,0,1.1-.28,1.39,1.39,0,0,0,.32-1.07V3.86a1.39,1.39,0,0,0-.32-1.07,1.67,1.67,0,0,0-1.1-.28v-.8h4.37V19.16A1.35,1.35,0,0,0,266.91,20.23Z"/></svg>