<svg id="Layer_1" data-name="Layer 1" xmlns="http://www.w3.org/2000/svg" viewBox="0 0 39 44"><defs><style>.cls-1{fill:#2121e8;}</style></defs><path class="cls-1" d="M18.67,14.78l.49-4.3a2.44,2.44,0,0,0-.46.15,2.59,2.59,0,0,1-1.9.51c-.21,0-.37,0-.47.25-.17.41-.55.42-.94.35a.94.94,0,0,1-.72-1.54,4.26,4.26,0,0,1,1.77-1.75,3.64,3.64,0,0,1,2.35-.15,11.35,11.35,0,0,0,1.3.21.47.47,0,0,0,.35-.22c.4-.72.75-1.46,1.16-2.18a9.82,9.82,0,0,1,.64-.84,7.21,7.21,0,0,0,.46-.71c.11-.2.18-.45.49-.37s.27.37.18.62c-.3.91-.62,1.82-.93,2.73,0,0,0,.1,0,.22a6,6,0,0,1,2.08-1.7,2.48,2.48,0,0,1,2.92.78.45.45,0,0,1,0,.41c-.39.39-.81.74-1.23,1.09-.24.21-.5.38-.74.58a4.19,4.19,0,0,1-3.23.89,1.74,1.74,0,0,1-.32-.11c-.18.28-.53.51-.23.94.12.17-.1.42-.31.33s-.38,0-.45.24c-.28.86-.57,1.71-.82,2.58a3.26,3.26,0,0,0,0,.83,28.65,28.65,0,0,1,4.83-2,12,12,0,0,1,2.21-.44,3.21,3.21,0,0,1,1.34.19,8.41,8.41,0,0,1,2.11,1.21,6,6,0,0,1,1.88,3.34c.28,1,.55,2,.75,3a12,12,0,0,1,.18,2.4,12.56,12.56,0,0,1-.54,3.46c-.2.75-.58,1.45-.79,2.2a11.75,11.75,0,0,1-.38,1.32c-.36.92-.72,1.85-1,2.79a9.63,9.63,0,0,1-1.46,3.19c-.51.65-.93,1.36-1.46,2a7.41,7.41,0,0,1-1.11.88,9.13,9.13,0,0,1-1.08.8,4.1,4.1,0,0,1-1.83.74,2.39,2.39,0,0,0-.93.34,7,7,0,0,1-2.47.77,4.46,4.46,0,0,0-.84.25,8.76,8.76,0,0,1-2.8.11c-.6,0-1.21,0-1.8-.09a8.89,8.89,0,0,1-1.94-.38,17.28,17.28,0,0,1-2-1,4.26,4.26,0,0,0-.88-.38,3.51,3.51,0,0,1-1.55-1.1.62.62,0,0,1-.14-.82c.37-.49.08-.87-.21-1.16a3.34,3.34,0,0,1-.93-1.6,9.13,9.13,0,0,1-.62-2.36.19.19,0,0,0,0-.07c-.62-.79-.52-1.8-.86-2.66a9.08,9.08,0,0,1-.44-2.3,16.46,16.46,0,0,1,0-2.81,19.92,19.92,0,0,0-.18-2.77,10.14,10.14,0,0,1,.24-2.8,5.46,5.46,0,0,1,0-.57,3,3,0,0,1,.36-.87c.56-.79,1.11-1.58,1.74-2.32a4.8,4.8,0,0,1,1.92-1.45,11.07,11.07,0,0,1,3.48-.75,5.54,5.54,0,0,1,3.14.72c.8.46,1.66.8,2.5,1.19A.18.18,0,0,0,18.67,14.78Zm-5.05-1.3-1.26.14a11.46,11.46,0,0,0-3,.74l-.14.08a17,17,0,0,0-1.46,1.35,23.36,23.36,0,0,0-1.45,2,.42.42,0,0,0,.28.64A1.9,1.9,0,0,1,7,18.5l2.18,1.42c.15.1.35.25.5.23a8.49,8.49,0,0,0,1.49-.35,2,2,0,0,1,2.66,1.39.66.66,0,0,0,.24.45,9.84,9.84,0,0,0,1.78.67c1.38.28,1.56,1,1.2,2.07a2.17,2.17,0,0,0-.07.91,7.11,7.11,0,0,1-.09,1.53c-.05.41-.35.79-.12,1.22a9.93,9.93,0,0,0,.52,1,.58.58,0,0,1,.06.68,5.53,5.53,0,0,1-.69.83c-.61.55-1.25,1.05-1.87,1.58-.17.14-.41.28-.16.56,0,.05,0,.16,0,.24.07.5-.33.81-.51,1.21s-.68.56-1.16.59c-.11,0-.28,0-.31.1a6.11,6.11,0,0,1-.94,1.36,1.09,1.09,0,0,1-1.27.44.72.72,0,0,0-.82.12,2.46,2.46,0,0,0-.52.75.53.53,0,0,0,.1.48,3.42,3.42,0,0,0,.79.56c.83.43,1.69.81,2.52,1.24a6.54,6.54,0,0,0,3.15.76c.8,0,1.59,0,2.38,0a3.55,3.55,0,0,0,1.55-.23,3.65,3.65,0,0,1,.87-.19,11.56,11.56,0,0,0,1.2-.22c.75-.25,1.48-.55,2.22-.85a7.62,7.62,0,0,0,1.39-.64,9.79,9.79,0,0,0,2.83-2.76,11.06,11.06,0,0,0,1.67-3.26,14.9,14.9,0,0,1,.48-1.61c.11-.32.23-.64.35-1,.35-1,.71-1.92,1-2.88s.5-1.73.75-2.6a8.7,8.7,0,0,0,.21-3.25,6.91,6.91,0,0,0-.19-1c-.09-.32-.19-.64-.27-1-.25-1-.45-2.07-.77-3.07a4,4,0,0,0-.89-1.64,11.05,11.05,0,0,0-1.93-1.26,2.07,2.07,0,0,0-1.42-.23,12.2,12.2,0,0,0-1.49.26,11.48,11.48,0,0,0-3,1c-.35.18-.67.43-1,.58a17.21,17.21,0,0,1-1.86.68,1.53,1.53,0,0,1-.91.09,33.66,33.66,0,0,1-3.19-1.42A5.6,5.6,0,0,0,13.62,13.48Zm-7.1,5.57c-.22.09-.51.15-.52.24a17.76,17.76,0,0,0-.23,2.29c0,.43.13.86.15,1.29a6.6,6.6,0,0,1,0,1.88,10.09,10.09,0,0,0,.12,3.47,15.56,15.56,0,0,0,.66,2.65,2,2,0,0,0,.32.75,3.45,3.45,0,0,1,.66,2.11,3.62,3.62,0,0,0,.65,1.85.66.66,0,0,0,.79.31,1.21,1.21,0,0,1,1.12.14c.4.27.68.17,1-.21a12.79,12.79,0,0,1,.8-1.13c.18-.2.46-.46.69-.45.66,0,.9-.38,1.15-.85a.56.56,0,0,0,0-.65.46.46,0,0,1,.09-.71c.28-.22.59-.42.86-.67.54-.52,1-1.08,1.59-1.58a.47.47,0,0,0,.05-.78,1.72,1.72,0,0,1-.52-1.46,7.08,7.08,0,0,0,.26-2.71,3.88,3.88,0,0,1,.24-1.22.56.56,0,0,0-.43-.69c-.48-.15-1-.24-1.46-.38-.69-.21-1.31-.51-1.46-1.33a1.24,1.24,0,0,0-1.71-.81,3.51,3.51,0,0,1-1.67.34,1.24,1.24,0,0,1-.74-.16c-.53-.35-1-.77-1.54-1.13A7,7,0,0,0,6.52,19.05Zm9.19-7.92c0-.62.19-.72.79-.66a3.66,3.66,0,0,0,1.28-.1c.52-.16.93-.6,1.53-.56.07,0,.15-.07.21-.12.26-.23.28-.69,0-.73a8.31,8.31,0,0,0-2-.25,2.7,2.7,0,0,0-2.33,1.79C15,11,15.11,11.11,15.71,11.13ZM26.4,6.67c-.07,0-.17-.19-.28-.21a2.66,2.66,0,0,0-2.34.71c-.39.39-.74.82-1.11,1.23C23.91,7.79,25.32,7.64,26.4,6.67ZM25.5,8,23,9.11l.05.11A4.12,4.12,0,0,0,25.5,8Zm-3.85-.29c-.15,0-.26,0-.29.07-.19.31-.36.62-.53.93.16.28.3.21.4,0S21.49,8.13,21.65,7.75ZM19.84,11.6H20c.48-1,.48-1,0-1.16Zm1.59-3.94c.32-.07.57-.62.54-1.21Z"/><path class="cls-1" d="M17.92,42.18c-.45,0-.9,0-1.35-.06-.23,0-.47,0-.71,0A10.55,10.55,0,0,1,14.73,42a9.29,9.29,0,0,1-2.16-.43,9.1,9.1,0,0,1-1.47-.71c-.2-.11-.4-.22-.61-.32l-.16-.08a2.4,2.4,0,0,0-.51-.23A4.14,4.14,0,0,1,7.88,39l-.08-.08a1.61,1.61,0,0,1-.33-2h0a4.39,4.39,0,0,1-1.2-2.07A6.51,6.51,0,0,0,6,34.14a5.82,5.82,0,0,1-.41-1.62A4.7,4.7,0,0,1,5,30.73a5.56,5.56,0,0,0-.21-.85,7.65,7.65,0,0,1-.45-2.16l0-.39a13.15,13.15,0,0,1,0-2.51l0-.47a12,12,0,0,0-.11-1.86c0-.26,0-.51-.08-.77a11.07,11.07,0,0,1,.26-3.08A1.8,1.8,0,0,1,4.46,18,3.76,3.76,0,0,1,5,16.82c.57-.81,1.14-1.63,1.8-2.4a5.86,5.86,0,0,1,2.31-1.73,11.94,11.94,0,0,1,3.8-.82,6.72,6.72,0,0,1,.9,0,2.15,2.15,0,0,1-.14-.26,2,2,0,0,1,.18-1.94A5.27,5.27,0,0,1,16,7.55a4.62,4.62,0,0,1,3-.23l.77.14.33-.63c.21-.41.42-.81.65-1.21A4.15,4.15,0,0,1,21.22,5l.21-.26c.14-.2.28-.41.4-.62a1.34,1.34,0,0,1,1.62-.84,1.31,1.31,0,0,1,.86.66,1.4,1.4,0,0,1,0,1.15,3.49,3.49,0,0,1,3.9,1.26A1.39,1.39,0,0,1,28.09,8c-.4.4-.83.76-1.27,1.13a4.82,4.82,0,0,1-.44.35l-.32.24a5.07,5.07,0,0,1-3.31,1.15h-.07a1.2,1.2,0,0,1-.28.68,1.25,1.25,0,0,1-.71.44l-.06.19-.24.74a18.52,18.52,0,0,1,3.24-1.23l.24-.06A11.42,11.42,0,0,1,27,11.18a4.19,4.19,0,0,1,1.77.26,9.27,9.27,0,0,1,2.36,1.36,6.93,6.93,0,0,1,2.22,3.85c.28,1,.56,2,.77,3a12.72,12.72,0,0,1,.2,2.6A13.32,13.32,0,0,1,33.78,26a10.1,10.1,0,0,1-.42,1.21,9.35,9.35,0,0,0-.36,1l-.08.28a9.15,9.15,0,0,1-.34,1.13l-.09.24c-.32.82-.64,1.66-.9,2.49A10.75,10.75,0,0,1,30,35.85c-.21.27-.4.54-.59.82s-.56.81-.9,1.2a4.66,4.66,0,0,1-.95.81l-.31.22-.29.23a5.18,5.18,0,0,1-.92.66l-.31.18a4.07,4.07,0,0,1-2,.68,2.72,2.72,0,0,0-.43.19,7.65,7.65,0,0,1-2.9.91l-.25.09a3.52,3.52,0,0,1-.43.13A6.82,6.82,0,0,1,17.92,42.18ZM10.47,37.7l1.14.56c.45.22.91.43,1.35.67a5.59,5.59,0,0,0,2.63.64h.05l.9,0c.51,0,1,0,1.51,0a2.73,2.73,0,0,0,1.13-.14,3.48,3.48,0,0,1,.88-.23l.2,0,.47-.08a4.21,4.21,0,0,0,.61-.11c.72-.24,1.45-.54,2.15-.82l.29-.12a4.38,4.38,0,0,0,.92-.43,8.88,8.88,0,0,0,2.55-2.47l.15-.23a9.33,9.33,0,0,0,1.39-2.74,17.23,17.23,0,0,1,.51-1.69c.11-.33.23-.65.35-1l.23-.63c.28-.74.55-1.48.81-2.24.18-.53.32-1.07.47-1.61.09-.31.17-.63.26-.94a7.79,7.79,0,0,0,.17-2.88,4.25,4.25,0,0,0-.16-.82l-.1-.36c-.06-.21-.12-.42-.17-.63L31,18.45c-.17-.73-.33-1.42-.55-2.1a3.08,3.08,0,0,0-.62-1.22,5.38,5.38,0,0,0-1.14-.76c-.21-.12-.43-.24-.63-.37a1.2,1.2,0,0,0-.79-.09,12.72,12.72,0,0,0-1.38.24,11.2,11.2,0,0,0-2.74.93l-.36.22a5.44,5.44,0,0,1-.73.4,19.77,19.77,0,0,1-2,.72,2.32,2.32,0,0,1-1.58.06A33.08,33.08,0,0,1,15.18,15a4.78,4.78,0,0,0-1.56-.52l-.32,0-.86.09a10.07,10.07,0,0,0-2.65.66l-.37.32a9.3,9.3,0,0,0-.9.85,15.63,15.63,0,0,0-1,1.27c.39.24.76.49,1.14.74l1,.63.06,0a6.85,6.85,0,0,0,1.06-.26,3.34,3.34,0,0,1,2.72.3,2.61,2.61,0,0,1,1.22,1.7,6.93,6.93,0,0,0,1.28.47,2.63,2.63,0,0,1,1.88,1.17A2.69,2.69,0,0,1,18,24.7a1.29,1.29,0,0,0,0,.52A7.7,7.7,0,0,1,17.83,27a2.7,2.7,0,0,1-.14.56.88.88,0,0,1-.05.15,2.3,2.3,0,0,1,.15.32,5.61,5.61,0,0,0,.29.54,1.54,1.54,0,0,1,0,1.8,6,6,0,0,1-.84,1c-.39.34-.78.67-1.18,1l-.5.42a.38.38,0,0,1,0,.1,2.12,2.12,0,0,1-.46,1.53,1.2,1.2,0,0,0-.13.21,2,2,0,0,1-1.71,1.15,10.63,10.63,0,0,1-.82,1.11A2.15,2.15,0,0,1,10.47,37.7Zm-.88-2.89a2.14,2.14,0,0,1,.95.23l.08-.13a9.92,9.92,0,0,1,.65-.88,1.94,1.94,0,0,1,1.49-.79s.07-.07.11-.14a1.44,1.44,0,0,1,.43-1.86l.32-.24a5.45,5.45,0,0,0,.47-.37c.22-.21.44-.44.66-.66l.65-.66a2.42,2.42,0,0,1-.47-2A6,6,0,0,0,15.17,25a2.62,2.62,0,0,1,.15-1.19L15,23.7c-.26-.07-.52-.13-.78-.21a2.76,2.76,0,0,1-2.16-2.1.35.35,0,0,0-.25-.12,4.16,4.16,0,0,1-2,.47,2.53,2.53,0,0,1-1.42-.32c-.3-.2-.59-.42-.88-.65s-.41-.32-.63-.46a13.12,13.12,0,0,0-.1,1.31,2.25,2.25,0,0,0,.06.53,4.62,4.62,0,0,1,.09.65c0,.15,0,.3,0,.44a5.38,5.38,0,0,1,0,1.74,6.21,6.21,0,0,0,0,2.31c0,.28.07.56.1.83a8.69,8.69,0,0,0,.42,1.75l.21.73a2.08,2.08,0,0,0,.14.4,4.34,4.34,0,0,1,.88,2.7,2.51,2.51,0,0,0,.38,1.17A2.2,2.2,0,0,1,9.59,34.81Zm-.74.12Zm6-2.36.41.44.09-.11-.45-.37Zm2.74-5Zm-3.18-6.87ZM9.48,19.16ZM9.7,15.3ZM19,13.87h0Zm-2.57-1.23.14.08c.41.23.83.43,1.28.63L18,12.06a3.27,3.27,0,0,1-.94.1A1.47,1.47,0,0,1,16.41,12.64Zm5.32-2.59Z"/></svg>