<svg id="Layer_1" data-name="Layer 1" xmlns="http://www.w3.org/2000/svg" viewBox="0 0 20 25"><defs><style>.cls-1{fill:#293b5c;}</style></defs><path class="cls-1" d="M9.54,7.71l.29-2.56a1.19,1.19,0,0,0-.27.09,1.57,1.57,0,0,1-1.13.3c-.12,0-.22,0-.28.15s-.32.25-.56.21A.56.56,0,0,1,7.17,5a2.51,2.51,0,0,1,1.05-1,2.2,2.2,0,0,1,1.39-.09c.26,0,.52.1.78.13a.3.3,0,0,0,.2-.13c.24-.43.45-.87.69-1.3a4.57,4.57,0,0,1,.38-.49c.1-.14.19-.28.28-.43s.1-.26.29-.22.16.22.11.37L11.78,3.4s0,.06,0,.13a3.49,3.49,0,0,1,1.23-1A1.46,1.46,0,0,1,14.73,3a.25.25,0,0,1,0,.24c-.24.23-.48.44-.73.65s-.3.22-.44.34a2.5,2.5,0,0,1-1.92.53.56.56,0,0,1-.19-.07c-.11.17-.32.31-.14.56.07.1-.06.25-.18.2s-.23,0-.27.14c-.16.51-.34,1-.48,1.54a1.58,1.58,0,0,0,0,.49,17.24,17.24,0,0,1,2.87-1.19,7.41,7.41,0,0,1,1.31-.26,2,2,0,0,1,.8.11A5.07,5.07,0,0,1,16.6,7a3.6,3.6,0,0,1,1.12,2c.16.58.33,1.16.44,1.75a6.84,6.84,0,0,1,.11,1.43A7.44,7.44,0,0,1,18,14.21c-.12.45-.35.87-.47,1.31a6.41,6.41,0,0,1-.23.78c-.21.55-.42,1.1-.6,1.66a5.85,5.85,0,0,1-.87,1.9c-.3.38-.55.81-.87,1.18a3.78,3.78,0,0,1-.66.52,5.93,5.93,0,0,1-.64.48,2.45,2.45,0,0,1-1.08.44,1.35,1.35,0,0,0-.56.2,3.93,3.93,0,0,1-1.47.45c-.16,0-.32.11-.49.15a5.2,5.2,0,0,1-1.67.07c-.35,0-.71,0-1.07-.05a5.45,5.45,0,0,1-1.15-.23A9.16,9.16,0,0,1,5,22.48a3.43,3.43,0,0,0-.52-.23,2,2,0,0,1-.92-.65.35.35,0,0,1-.09-.48c.23-.29.05-.52-.12-.69a2,2,0,0,1-.55-.95,5.27,5.27,0,0,1-.37-1.4.43.43,0,0,0,0,0C2,17.57,2.06,17,1.85,16.45a5.34,5.34,0,0,1-.25-1.37,9.2,9.2,0,0,1,0-1.66,13,13,0,0,0-.1-1.65,5.8,5.8,0,0,1,.14-1.66c0-.11,0-.23,0-.34a1.6,1.6,0,0,1,.22-.52c.33-.47.66-.94,1-1.38A2.79,2.79,0,0,1,4.06,7a6.46,6.46,0,0,1,2.07-.45A3.24,3.24,0,0,1,8,7c.48.27,1,.47,1.49.7A.07.07,0,0,0,9.54,7.71Zm-3-.78L5.79,7A7.25,7.25,0,0,0,4,7.45l-.08,0c-.29.27-.61.51-.87.8A14.22,14.22,0,0,0,2.2,9.48a.25.25,0,0,0,.17.38,1.29,1.29,0,0,1,.21.05l1.29.84c.1.06.21.16.3.14a4,4,0,0,0,.89-.21,1.2,1.2,0,0,1,1.58.83.39.39,0,0,0,.14.27,5.2,5.2,0,0,0,1.06.39c.82.18.93.6.71,1.24a1.24,1.24,0,0,0,0,.54,4.63,4.63,0,0,1,0,.91c0,.24-.21.46-.08.72s.19.42.31.61a.34.34,0,0,1,0,.4,2.49,2.49,0,0,1-.41.5c-.36.32-.74.62-1.11.94-.1.08-.24.17-.1.33s0,.09,0,.14c0,.3-.19.48-.3.72s-.4.33-.68.35c-.07,0-.17,0-.19.06a3.54,3.54,0,0,1-.56.81.64.64,0,0,1-.75.26.44.44,0,0,0-.49.07,1.94,1.94,0,0,0-.31.44.33.33,0,0,0,.06.29,1.9,1.9,0,0,0,.47.33c.49.26,1,.49,1.5.74A3.83,3.83,0,0,0,7.75,23c.47,0,.94,0,1.41,0a2,2,0,0,0,.93-.14,2.1,2.1,0,0,1,.51-.11c.24-.05.49-.06.71-.13.45-.15.88-.33,1.32-.5a4.84,4.84,0,0,0,.83-.39,5.83,5.83,0,0,0,1.68-1.64,6.42,6.42,0,0,0,1-1.93,9.72,9.72,0,0,1,.29-1c.06-.19.13-.38.2-.57.21-.57.43-1.14.62-1.71s.3-1,.45-1.54a5.29,5.29,0,0,0,.12-1.94,4,4,0,0,0-.11-.58l-.16-.58c-.15-.61-.27-1.23-.46-1.82a2.34,2.34,0,0,0-.53-1,7.12,7.12,0,0,0-1.15-.75,1.23,1.23,0,0,0-.84-.13,8.5,8.5,0,0,0-.88.15,6.94,6.94,0,0,0-1.78.61c-.21.1-.4.25-.61.35s-.73.28-1.1.4a1,1,0,0,1-.55.05,16.8,16.8,0,0,1-1.89-.85A3.47,3.47,0,0,0,6.54,6.93ZM2.32,10.24c-.12.06-.3.09-.31.14a12.51,12.51,0,0,0-.13,1.36c0,.26.08.51.09.77a3.83,3.83,0,0,1,0,1.12,5.93,5.93,0,0,0,.07,2.06,9.74,9.74,0,0,0,.39,1.57,1.09,1.09,0,0,0,.19.44A2.17,2.17,0,0,1,3,19a2.05,2.05,0,0,0,.38,1.1.4.4,0,0,0,.47.18.74.74,0,0,1,.66.09.37.37,0,0,0,.57-.13c.15-.22.3-.46.47-.67s.28-.27.41-.27c.39,0,.54-.23.69-.5a.35.35,0,0,0,0-.39.27.27,0,0,1,0-.42,6.4,6.4,0,0,0,.51-.4c.32-.31.62-.64.94-.94s.18-.28,0-.46a1,1,0,0,1-.3-.87,4.35,4.35,0,0,0,.15-1.61A2.7,2.7,0,0,1,8.19,13a.33.33,0,0,0-.25-.41c-.29-.09-.58-.14-.87-.23a1,1,0,0,1-.87-.79.74.74,0,0,0-1-.48,2.18,2.18,0,0,1-1,.21.92.92,0,0,1-.44-.1c-.32-.21-.61-.46-.92-.67A2.75,2.75,0,0,0,2.32,10.24Zm5.46-4.7c0-.37.12-.43.47-.4A2,2,0,0,0,9,5.08c.31-.09.56-.35.91-.33,0,0,.09,0,.13-.07s.16-.41,0-.44a5.21,5.21,0,0,0-1.17-.15A1.64,1.64,0,0,0,7.5,5.16C7.37,5.45,7.43,5.52,7.78,5.54Zm6.35-2.65S14,2.77,14,2.76a1.57,1.57,0,0,0-1.39.42c-.23.23-.44.49-.66.73A8.53,8.53,0,0,0,14.13,2.89Zm-.53.81-1.49.64,0,.06A2.44,2.44,0,0,0,13.6,3.7Zm-2.29-.17c-.08,0-.15,0-.17,0l-.32.55c.1.17.18.12.25,0S11.22,3.75,11.31,3.53ZM10.24,5.81h.08c.28-.58.28-.61,0-.69Zm.94-2.34c.19,0,.34-.37.32-.72Z"/><path class="cls-1" d="M9.09,24.17c-.27,0-.53,0-.81,0l-.41,0q-.35,0-.69,0a6.68,6.68,0,0,1-1.33-.27,6.83,6.83,0,0,1-.9-.43l-.35-.2-.1,0A1.55,1.55,0,0,0,4.24,23,2.56,2.56,0,0,1,3,22.2a1.2,1.2,0,0,1-.34-1.31A2.73,2.73,0,0,1,2,19.67a2.67,2.67,0,0,0-.13-.4,3.7,3.7,0,0,1-.26-1,3.31,3.31,0,0,1-.36-1.09,2.68,2.68,0,0,0-.12-.47,5.47,5.47,0,0,1-.28-1.33l0-.23a7.11,7.11,0,0,1,0-1.53v-.28a6.58,6.58,0,0,0-.06-1.06c0-.16,0-.32-.05-.47A6.94,6.94,0,0,1,.88,10a1,1,0,0,1,0-.42,2.62,2.62,0,0,1,.32-.73c.34-.48.68-1,1.08-1.44A3.52,3.52,0,0,1,3.77,6.29a7.12,7.12,0,0,1,2.31-.5h.25a1.44,1.44,0,0,1,.16-1.2A3.24,3.24,0,0,1,7.88,3.24a3,3,0,0,1,1.89-.16l.31.07c0-.09.09-.17.13-.26.13-.24.25-.48.39-.72a2.61,2.61,0,0,1,.31-.43L11,1.6c.08-.11.15-.23.22-.35A1,1,0,0,1,12.43.66a1,1,0,0,1,.63.48.85.85,0,0,1,.1.52,2.23,2.23,0,0,1,2.23.9,1,1,0,0,1-.12,1.23c-.24.24-.5.46-.76.69l-.28.21-.17.14a3.16,3.16,0,0,1-2,.72.87.87,0,0,1-.17.33.82.82,0,0,1-.42.3h0l0,0A11.24,11.24,0,0,1,13,5.66l.13,0a7.83,7.83,0,0,1,1.33-.26,2.82,2.82,0,0,1,1.13.17,5.51,5.51,0,0,1,1.46.84,4.31,4.31,0,0,1,1.38,2.38c.17.58.34,1.2.46,1.82a7.81,7.81,0,0,1,.12,1.58,8.06,8.06,0,0,1-.35,2.26,4.89,4.89,0,0,1-.26.73,5.66,5.66,0,0,0-.2.58l0,.16c-.07.23-.13.47-.22.7l-.06.15c-.18.48-.37,1-.52,1.46a6.63,6.63,0,0,1-1,2.14c-.12.15-.23.31-.34.47s-.35.5-.55.73a2.72,2.72,0,0,1-.6.51l-.18.13-.17.14a4.68,4.68,0,0,1-.57.41l-.18.1a2.48,2.48,0,0,1-1.27.43l-.17.09a4.85,4.85,0,0,1-1.8.57l-.09,0a1.52,1.52,0,0,1-.28.09A4.21,4.21,0,0,1,9.09,24.17ZM5.34,21.44l.1,0c.27.13.54.26.8.4a3.28,3.28,0,0,0,1.5.36h.53c.3,0,.6,0,.91,0a1.64,1.64,0,0,0,.59-.07,1.79,1.79,0,0,1,.57-.15l.12,0,.28-.05a1.28,1.28,0,0,0,.33-.06c.42-.14.83-.31,1.25-.47l.19-.08a3.08,3.08,0,0,0,.51-.23,5.09,5.09,0,0,0,1.46-1.42l.09-.14a5.51,5.51,0,0,0,.8-1.56,8.76,8.76,0,0,1,.31-1L16,16q.26-.66.48-1.32c.11-.32.19-.63.28-.95s.1-.38.16-.56A4.69,4.69,0,0,0,17,11.51a2.39,2.39,0,0,0-.09-.45l-.06-.21c0-.13-.07-.26-.1-.38s-.09-.37-.13-.55c-.1-.43-.19-.83-.32-1.22A1.62,1.62,0,0,0,16,8.05a3.13,3.13,0,0,0-.63-.42L15,7.4s-.11-.05-.35,0a7.32,7.32,0,0,0-.79.15,6.15,6.15,0,0,0-1.59.53l-.2.12a4.17,4.17,0,0,1-.46.26c-.38.16-.77.3-1.18.43a1.6,1.6,0,0,1-1.06,0c-.56-.22-1.28-.52-2-.88a2.48,2.48,0,0,0-.84-.29l-.14,0-.54,0a6,6,0,0,0-1.49.37l-.19.16a5,5,0,0,0-.52.49c-.16.18-.3.38-.45.58l.51.33.56.36A4.37,4.37,0,0,0,4.8,10a2.19,2.19,0,0,1,1.78.19,1.82,1.82,0,0,1,.79,1,3,3,0,0,0,.63.23,1.75,1.75,0,0,1,1.25.79,1.8,1.8,0,0,1,.05,1.46s0,.08,0,.23A4.77,4.77,0,0,1,9.23,15a1.81,1.81,0,0,1-.09.37h0l.06.13a2.1,2.1,0,0,0,.15.3,1.07,1.07,0,0,1,0,1.27,3.41,3.41,0,0,1-.53.63c-.23.21-.46.4-.7.6l-.22.18a1.47,1.47,0,0,1-.31,1,.86.86,0,0,0-.07.1,1.31,1.31,0,0,1-1.07.77,6.45,6.45,0,0,1-.45.61A1.72,1.72,0,0,1,5.34,21.44ZM6.67,20h0Zm-2.52-.55a1.37,1.37,0,0,1,.49.09c.12-.17.23-.33.36-.48a1.46,1.46,0,0,1,.86-.53,1.05,1.05,0,0,1,.38-1.16l.19-.14A2.65,2.65,0,0,0,6.69,17l.39-.39c.09-.09.18-.19.28-.28a1.57,1.57,0,0,1-.22-1.22,3.59,3.59,0,0,0,.13-1.31,1.47,1.47,0,0,1,.05-.6l-.48-.12a1.83,1.83,0,0,1-1.38-1.28A2.91,2.91,0,0,1,4.28,12a1.68,1.68,0,0,1-1-.23c-.19-.12-.36-.25-.54-.39l-.1-.08c0,.16,0,.3,0,.44a1.76,1.76,0,0,0,0,.27,3,3,0,0,1,0,.42l0,.25a3.43,3.43,0,0,1,0,1.1,3.59,3.59,0,0,0,0,1.3l.06.5a5.92,5.92,0,0,0,.23,1c.05.15.09.3.13.44s0,.15.07.19a2.84,2.84,0,0,1,.55,1.69,1.08,1.08,0,0,0,.14.5Zm-.5.08Zm3.87-1,.13.15.06-.07-.2-.18A.31.31,0,0,1,7.52,18.53ZM6,18.39ZM7.1,11.06Zm-3-.94h0Zm.22-1.93Zm.18-.12v0ZM8.57,6.42l.31.15,0-.25-.26,0A.6.6,0,0,1,8.57,6.42Z"/></svg>