<svg id="Layer_1" data-name="Layer 1" xmlns="http://www.w3.org/2000/svg" viewBox="0 0 25 31"><defs><style>.cls-1{fill:#fcf2eb;stroke:#fcf2eb;stroke-linecap:round;stroke-linejoin:round;}</style></defs><path class="cls-1" d="M12.38,10l.36-3.11a1.23,1.23,0,0,0-.33.11A1.9,1.9,0,0,1,11,7.33a.27.27,0,0,0-.34.18c-.12.29-.39.3-.68.25a.68.68,0,0,1-.52-1.11,3.07,3.07,0,0,1,1.28-1.27,2.67,2.67,0,0,1,1.7-.1c.31.06.62.12.94.15a.32.32,0,0,0,.25-.16c.29-.52.55-1.06.84-1.58.12-.21.31-.39.46-.6a4.59,4.59,0,0,0,.33-.52c.09-.14.14-.32.36-.26s.19.27.13.45c-.22.65-.45,1.31-.67,2a1.09,1.09,0,0,0,0,.15,4.37,4.37,0,0,1,1.5-1.22,1.78,1.78,0,0,1,2.11.56.32.32,0,0,1,0,.3c-.28.28-.58.53-.89.79l-.53.41a3,3,0,0,1-2.33.65,1.35,1.35,0,0,1-.24-.08c-.13.2-.38.36-.16.68.08.12-.08.3-.23.24s-.27,0-.32.17c-.2.62-.41,1.24-.59,1.87a2.29,2.29,0,0,0,0,.59A22.05,22.05,0,0,1,16.87,8.4a8.2,8.2,0,0,1,1.61-.32,2.22,2.22,0,0,1,1,.14A5.7,5.7,0,0,1,21,9.09a4.43,4.43,0,0,1,1.36,2.42c.2.7.4,1.41.54,2.13A9.15,9.15,0,0,1,23,15.38a9.59,9.59,0,0,1-.39,2.5c-.15.54-.42,1.05-.57,1.59-.09.32-.16.64-.28,1-.26.67-.52,1.34-.73,2A7.29,7.29,0,0,1,20,24.74c-.36.47-.67,1-1.06,1.44a4.54,4.54,0,0,1-.8.63,5.44,5.44,0,0,1-.78.58,2.81,2.81,0,0,1-1.32.54,1.55,1.55,0,0,0-.67.24,4.92,4.92,0,0,1-1.79.56,3.42,3.42,0,0,0-.6.18,6.29,6.29,0,0,1-2,.08c-.43,0-.87,0-1.3-.06a6.56,6.56,0,0,1-1.4-.28,12.54,12.54,0,0,1-1.42-.71,2.7,2.7,0,0,0-.63-.28A2.61,2.61,0,0,1,5,26.87a.47.47,0,0,1-.1-.6c.27-.35.06-.63-.15-.83a2.45,2.45,0,0,1-.67-1.16,6.67,6.67,0,0,1-.45-1.7s0,0,0-.06C3.21,22,3.28,21.22,3,20.6a6.75,6.75,0,0,1-.31-1.66,11.46,11.46,0,0,1,0-2,13.52,13.52,0,0,0-.13-2,7.18,7.18,0,0,1,.17-2c0-.14,0-.29,0-.42a2,2,0,0,1,.26-.62c.4-.58.81-1.15,1.26-1.68A3.44,3.44,0,0,1,5.71,9.12a8.18,8.18,0,0,1,2.52-.54,4,4,0,0,1,2.27.52c.57.33,1.2.58,1.81.86ZM8.74,9l-.92.1a8.05,8.05,0,0,0-2.16.54l-.11.05a12.17,12.17,0,0,0-1,1c-.38.45-.71.94-1,1.43a.31.31,0,0,0,.21.46,1.25,1.25,0,0,1,.26.07l1.57,1c.11.07.25.18.36.17a5.67,5.67,0,0,0,1.08-.26,1.47,1.47,0,0,1,1.92,1,.43.43,0,0,0,.18.32,6.88,6.88,0,0,0,1.28.49c1,.2,1.13.72.87,1.5a1.44,1.44,0,0,0,0,.65,5.92,5.92,0,0,1-.07,1.11c0,.29-.25.57-.09.88s.23.51.38.74a.41.41,0,0,1,0,.49,3.25,3.25,0,0,1-.5.61c-.43.39-.9.75-1.35,1.13-.12.11-.29.21-.11.41,0,0,0,.11,0,.17,0,.37-.24.59-.37.87s-.49.41-.84.43c-.08,0-.2,0-.22.08a4.76,4.76,0,0,1-.68,1,.79.79,0,0,1-.92.32.52.52,0,0,0-.59.08,2,2,0,0,0-.38.54.4.4,0,0,0,.07.35,2.84,2.84,0,0,0,.57.41c.6.31,1.22.58,1.83.89a4.62,4.62,0,0,0,2.27.55c.58,0,1.15,0,1.72,0A2.66,2.66,0,0,0,13,28.4a2.73,2.73,0,0,1,.63-.14,8.34,8.34,0,0,0,.87-.16c.54-.18,1.07-.4,1.6-.61a5.45,5.45,0,0,0,1-.47,7.16,7.16,0,0,0,2-2,7.86,7.86,0,0,0,1.2-2.36c.1-.39.22-.78.35-1.16s.17-.46.25-.69c.26-.7.52-1.39.76-2.09s.36-1.25.54-1.87a6.22,6.22,0,0,0,.15-2.35,4.25,4.25,0,0,0-.14-.71c-.06-.24-.13-.47-.19-.71-.18-.74-.33-1.49-.56-2.21a2.92,2.92,0,0,0-.64-1.19,8,8,0,0,0-1.4-.91,1.52,1.52,0,0,0-1-.17,9.75,9.75,0,0,0-1.08.19,8.62,8.62,0,0,0-2.16.74c-.25.13-.48.31-.74.42a13.47,13.47,0,0,1-1.34.49,1.1,1.1,0,0,1-.66.07,25,25,0,0,1-2.31-1A3.84,3.84,0,0,0,8.74,9ZM3.6,13c-.15.07-.36.11-.37.18a15.38,15.38,0,0,0-.17,1.65c0,.31.1.62.12.93a5.18,5.18,0,0,1,0,1.36,7.28,7.28,0,0,0,.08,2.51,10.68,10.68,0,0,0,.48,1.91,1.45,1.45,0,0,0,.23.54,2.61,2.61,0,0,1,.48,1.53A2.63,2.63,0,0,0,4.93,25a.49.49,0,0,0,.58.22.9.9,0,0,1,.81.1A.43.43,0,0,0,7,25.16a9.34,9.34,0,0,1,.58-.82c.13-.14.33-.33.5-.32.47,0,.65-.28.83-.62a.38.38,0,0,0,0-.46A.34.34,0,0,1,9,22.42a7.31,7.31,0,0,0,.62-.48c.39-.38.75-.78,1.15-1.14.22-.21.22-.35,0-.57a1.22,1.22,0,0,1-.38-1.05,5,5,0,0,0,.19-2,2.8,2.8,0,0,1,.17-.88.4.4,0,0,0-.3-.5c-.35-.11-.71-.17-1.06-.28-.5-.15-1-.36-1.06-1A.89.89,0,0,0,7.09,14a2.58,2.58,0,0,1-1.21.25.94.94,0,0,1-.53-.12c-.39-.25-.74-.56-1.12-.82A4.6,4.6,0,0,0,3.6,13Zm6.64-5.72c0-.44.15-.52.58-.48a2.59,2.59,0,0,0,.92-.07c.37-.11.68-.43,1.11-.4.05,0,.1,0,.15-.09s.2-.5,0-.53a6.44,6.44,0,0,0-1.43-.18,1.94,1.94,0,0,0-1.68,1.3C9.74,7.22,9.81,7.31,10.24,7.32ZM18,4.1S17.85,4,17.77,4a1.9,1.9,0,0,0-1.69.51c-.29.28-.54.59-.81.89A10.36,10.36,0,0,0,18,4.1Zm-.65,1-1.81.77,0,.08A3,3,0,0,0,17.32,5.09Zm-2.78-.21c-.11,0-.19,0-.21,0-.14.22-.26.45-.39.67.12.2.22.15.3,0S14.42,5.16,14.54,4.88ZM13.23,7.66h.1c.34-.71.34-.75,0-.84Zm1.15-2.84c.23-.06.41-.45.39-.88Z"/></svg>