<svg id="Layer_1" data-name="Layer 1" xmlns="http://www.w3.org/2000/svg" viewBox="0 0 81 48"><defs><style>.cls-1{fill:#2121e8;}</style></defs><path class="cls-1" d="M16.84,21.36l1.58.72c.75,1.34,1.44,2.65,2.23,3.89.13.21.69.18,1.06.2.54,0,1.09,0,1.71,0a12,12,0,0,0-2.51-5.07,11.13,11.13,0,0,1-1-1.55c-.49-1-.17-1.42.66-1.43a10.63,10.63,0,0,1,1.19,1.35c.43.69.76,1.45,1.15,2.18.69,1.31,1.37,2.63,2.13,3.9a1.24,1.24,0,0,0,1,.5c1-.15,1.91-.45,2.88-.7-1.16-2.36-3.11-3.81-4.84-5.48a4.84,4.84,0,0,1-1-1.11c-.16-.28-.21-.9-.05-1a1.53,1.53,0,0,1,1.14-.15c.27.06.49.41.7.65,1.71,2,3.39,4,5.12,6a1,1,0,0,0,.92.23c.94-.36,1.84-.83,2.74-1.26-1-2.11-1.85-4.14-2.9-6.06a9.24,9.24,0,0,0-2-2c-.41-.38-.91-.67-1.28-1.08-.12-.14,0-.52.06-.79a5.53,5.53,0,0,1,.83.12,7.07,7.07,0,0,1,.76.41l.21-.24,5.67,8.67.35-.13a3.45,3.45,0,0,0-.24-1.32c-1-1.45-2-2.85-3-4.26a9.34,9.34,0,0,1-.84-1.09,3.12,3.12,0,0,1-.27-1.25c0-.11.41-.39.49-.34a2.65,2.65,0,0,1,.91.74C33.94,16.77,35.11,19.11,37,21l1.2-.8a33.23,33.23,0,0,0-3.46-8,1.43,1.43,0,0,1-.06-1.06c.06-.18.6-.43.69-.36A3.35,3.35,0,0,1,36.48,12a14.72,14.72,0,0,0,2,4.35,6.34,6.34,0,0,1,.71,1.51c.19.44.35.89.52,1.34h.4c.06-.33.26-.71.16-1-.8-2-1.21-4.27-3-5.84-.28-.25-.77-.68-.12-1.14a.88.88,0,0,1,1.43.29c.73,1.5,1.36,3,2.08,4.55.3.64.71,1.24,1.14,2l1.45-.84c-.63-2-1.16-3.92-1.87-5.79a12.6,12.6,0,0,0-1.64-2.68c-.37-.52-.47-.95,0-1.41s.92-.14,1.27.23.54.64.71.85c.36-.24.74-.68,1.1-.67s.77.43,1,.77c.89,1.22,1.73,2.48,2.56,3.75a11.53,11.53,0,0,1,.93,1.64c.52,1.12.5,1.12,1.79.53A16,16,0,0,0,48.35,11c-.72-1.56-1.78-3-2.62-4.48a1.51,1.51,0,0,1,0-1.31c.27-.36.66,0,1.1.23.9.53.87,1.29,1.09,2.09A15.68,15.68,0,0,0,49.05,10c.28.59,1,1,.71,1.86-.09.32.39.8.59,1.21s.31.64.5,1.05c1.3-.14,2.65-.26,4-.46a.84.84,0,0,0,.54-.64c-.17-2-.35-3.95-2.05-5.36A1.42,1.42,0,0,1,52.85,7a5.61,5.61,0,0,1,0-1.16c.32.13.73.16.94.39a12.06,12.06,0,0,1,2.9,6.93,4.63,4.63,0,0,0,.12.5c.23-.14.53-.23.54-.34a5.88,5.88,0,0,0-.53-3.75c-.42-.7-.67-1.5-1.08-2.2s0-.88.47-1c.13,0,.5.38.6.65.28.73.43,1.51.71,2.24.08.22.41.36.63.54,1.62-2.33,3.88-3.24,7-2.35a13.11,13.11,0,0,1,2.57,1.44,14.93,14.93,0,0,1,5.57,5.28A3,3,0,0,1,74,16.45a5.9,5.9,0,0,1-.82,1.43c.34.24.95.51.93.72,0,.52-.16,1.19-1,1.22-.23,0-.57,0-.66.09-.24.35-.62.87-.51,1.14a2.81,2.81,0,0,1-1.34,3.84c-2,.84-4,1.73-6.39,1.44a4.75,4.75,0,0,1-3.55-2.92c-.59-1.61-1.24-3.19-1.88-4.77,0-.14-.19-.24-.37-.46a5.25,5.25,0,0,0-.25.72,13.18,13.18,0,0,0,0,6.15c.12.43.33,1.08-.45,1.17s-1-.28-1-1c0-.19-.19-.38-.31-.61l-.45.7c-.85-.5-1.42-.9-.6-2,.36-.48.08-1.47,0-2.22-.1-1.78-.24-3.56-.37-5.45l-1.43.12c.91,1.56.29,3.11.36,4.62.06,1.27,0,2.53.13,3.8.06.92-.18,1.14-1.05,1.13-.29,0-.59.47-1.06.87-.62-.05-.67-.69-.54-1.33a12.94,12.94,0,0,0-.67-6.64c-.58-1.79-1.29-2.11-3.05-1.37-.76.32-1.49.7-2.06,1,.51,3.08,1,6,1.48,8.88l-.82,1.34a1.31,1.31,0,0,1-.78-1.67,10.55,10.55,0,0,0-.23-5c-.25-.92-.63-1.8-1-2.78l-1.25.69c.07,1.28.09,2.41.22,3.54.18,1.59.5,3.17.62,4.77,0,.46-.41.95-.65,1.48-.78-.13-.86-.66-.9-1.3-.16-2.18-.35-4.36-.54-6.53a1.87,1.87,0,0,0-.39-.91,36.31,36.31,0,0,0-.18,9.83l-.87,1.27c-.64-.15-.8-.65-.68-1.36a29.22,29.22,0,0,0,.23-7.87,2,2,0,0,0-.1-.48,1.77,1.77,0,0,0-.24-.34c-.44.23-.87.44-1.29.68a1.82,1.82,0,0,0-.8,1.23,8.18,8.18,0,0,0,0,3.81,23.56,23.56,0,0,1,0,3.66,7.12,7.12,0,0,0,.12,1c0,.3.27.73.15.87s-.79.57-1,.46a1.49,1.49,0,0,1-.67-1.07c0-1.11.18-2.23.18-3.35,0-1.64-.13-3.27-.2-4.91l-.36-.07c-.26.38-.67.74-.76,1.16A16.27,16.27,0,0,0,34.88,30c.13,1.24.46,2.46.48,3.7,0,.45-.57,1.26-.93,1.29-.56,0-.81-.6-.75-1.27.22-2.18.4-4.36.56-6.54,0-.66,0-1.32,0-2a8.67,8.67,0,0,0-2.44,1.19,3.89,3.89,0,0,0-1,3c0,1.31,0,2.63,0,3.95a5.86,5.86,0,0,0,.54,1.5,9.46,9.46,0,0,0-.61.85c-.28.47-.6.53-.87,0a2,2,0,0,1-.3-1c.11-2.07.3-4.14.41-6.2A6.26,6.26,0,0,0,29.82,27L26.37,28c0,.46,0,1,0,1.46.05,1.35.11,2.7.19,4.05a1.25,1.25,0,0,0,.24.61c.45.65.51,1-.55.85l.1.88c-1.06-.09-1.23-.39-1.15-1.41a21.76,21.76,0,0,0,.09-4c-.22-2.19-.68-2.55-3.31-2.26a2.19,2.19,0,0,1,.6,2.55,4.51,4.51,0,0,0,.77,4l-.64.52c-.19.15-.37.32-.55.49-.23-.3-.66-.61-.65-.91,0-2.14.14-4.27-.79-6.28a4.46,4.46,0,0,1-.15-.54l-3,.74c-.45.95.17,2.27-1.07,2.87-.14-.15-.22-.2-.22-.24.39-2.11-1.58-2.3-2.66-3.11-1.91-1.43-6-2.34-8.64-2.12a2.67,2.67,0,0,0,.38.67,19.12,19.12,0,0,0,5.26,4.16c.54.25,1.06.54,1.57.84a.86.86,0,0,1,.36.44,11.31,11.31,0,0,1-.82,6.88c-.39,1-.74,1.92-1.15,3,1.66-.39,2.45-1.65,3.34-2.7A48.94,48.94,0,0,0,17.1,35a5.84,5.84,0,0,0,.64-3.79,2,2,0,0,1,.34-.94,8.89,8.89,0,0,1,.7-1c.1-.15.27-.37.37-.36s.31.22.44.36.38.4.57.61c-.24,1.17-1.07,2.36-.15,3.69-1.37,2.12-2.63,4.35-4.15,6.38s-3.08,3.81-5.6,4.49c-.29.08-.61.27-.86.2a2.35,2.35,0,0,1-1.11-.67c-.16-.18-.09-.65,0-.94.94-2.45,2-4.87,2.84-7.34.55-1.58,0-2.51-1.5-3.32a12.7,12.7,0,0,1-4.29-3.73C4.88,28,4.14,27.5,3.63,26.86c-1-1.22-.63-2,.89-2.23A13.61,13.61,0,0,1,14.57,27a1.23,1.23,0,0,0,.72.28,30,30,0,0,0,3.26-.55c1-.23,1.06-.54.49-1.41s-1.3-1.78-1.94-2.69a7.73,7.73,0,0,1-.49-1ZM71,22.52l-.23-.37c-.36,0-.81.13-1,0a5.33,5.33,0,0,1-1.36-1.32,1,1,0,0,1,.22-.95c1-1,2-1.81,3-2.75.38-.36,1-.8.55-1.4-1.31-1.53-1.94-3.64-3.91-4.61-.92-.46-1.84-.9-2.75-1.37a4.28,4.28,0,0,0-4.93.42c-1.69,1.29-.86,3.26-1.27,4.89a.72.72,0,0,0,0,.35c.83,1.43,1,3.16,2,4.53a6.16,6.16,0,0,1,.73,2.37,3.5,3.5,0,0,0,2.74,2.47c1.93.28,3.58-.51,5.25-1.22C70.33,23.35,70.62,22.86,71,22.52ZM44.78,16.36c2-.93,2-.94,1-2.66a32.64,32.64,0,0,0-1.93-3.22A13,13,0,0,0,42.06,8.8c-.2.5-.41.77-.34.92C42.71,11.92,43.74,14.11,44.78,16.36ZM53,24c.11-2.05.24-4,.31-6,0-1.32-1.08-2.2-1.91-1.74ZM56.5,15.5v4.31c1-.9-.39-2.71,1.6-3l-.32-1.29Z"/><path class="cls-1" d="M9.52,45a.91.91,0,0,1-.23,0A2.8,2.8,0,0,1,8,44.2c-.38-.45-.05-1.31,0-1.34.35-.91.71-1.81,1.07-2.71.6-1.51,1.22-3.07,1.76-4.63.46-1.3.1-2.07-1.31-2.83A13.07,13.07,0,0,1,5,28.85,5.78,5.78,0,0,0,4.18,28a7.94,7.94,0,0,1-.87-.87,1.93,1.93,0,0,1-.55-1.86c.2-.53.77-.87,1.69-1a14.12,14.12,0,0,1,10.34,2.4c.31.21.42.25.45.23a29.44,29.44,0,0,0,3.22-.55c.45-.11.52-.2.53-.21s0-.13-.28-.59-.74-1.06-1.13-1.57-.54-.73-.81-1.11a4.44,4.44,0,0,1-.38-.71l-.14-.29a.38.38,0,0,1,.05-.42l.23-.29A.38.38,0,0,1,17,21l1.58.71a.52.52,0,0,1,.19.17l.56,1c.55,1,1.07,1.94,1.66,2.87a5,5,0,0,1,.52,0h.22c.37,0,.74,0,1.13,0h.07a12.17,12.17,0,0,0-2.35-4.45l-.09-.13a9.73,9.73,0,0,1-.95-1.47,1.58,1.58,0,0,1-.13-1.51,1.3,1.3,0,0,1,1.15-.5.49.49,0,0,1,.3.13c.16.19.32.35.46.49a5.65,5.65,0,0,1,.77.91c.29.47.53,1,.77,1.44l.39.77.43.81c.54,1,1.09,2.07,1.69,3.07a.86.86,0,0,0,.6.31,17,17,0,0,0,2-.47l.34-.09a16.59,16.59,0,0,0-3.46-3.93c-.36-.33-.73-.66-1.08-1l-.08-.08a4.57,4.57,0,0,1-1-1.13c-.18-.32-.36-1.22.07-1.53a1.93,1.93,0,0,1,1.46-.21,1.54,1.54,0,0,1,.8.64l.12.14,1.59,1.88C28,21.27,29.13,22.65,30.32,24a.73.73,0,0,0,.48.13c.67-.26,1.33-.58,2-.9l.37-.18-.67-1.45c-.67-1.48-1.31-2.88-2-4.23A5.43,5.43,0,0,0,29.14,16c-.2-.17-.41-.34-.6-.52s-.34-.29-.51-.42a6.4,6.4,0,0,1-.79-.69,1,1,0,0,1-.09-.87,2.23,2.23,0,0,0,0-.23.4.4,0,0,1,.46-.36l.23,0a2.55,2.55,0,0,1,.66.12,2,2,0,0,1,.55.27.44.44,0,0,1,.33-.13.39.39,0,0,1,.3.18l1,1.56a5,5,0,0,1-.08-.7c0-.22.14-.43.45-.62a.63.63,0,0,1,.64-.09,3.26,3.26,0,0,1,1,.86c.46.65.88,1.33,1.31,2a24.34,24.34,0,0,0,2.95,4l.68-.46a32.38,32.38,0,0,0-3.35-7.64A1.8,1.8,0,0,1,34.29,11c.13-.41.75-.6.78-.61a.57.57,0,0,1,.54.06l.1.08a5.94,5.94,0,0,1,.82.77,1.36,1.36,0,0,1,.39-.41,1.45,1.45,0,0,1,1.19-.28,1.25,1.25,0,0,1,.82.73c.42.84.8,1.7,1.19,2.56.29.66.59,1.33.9,2,.2.42.45.84.71,1.27l.21.34.83-.48c-.15-.48-.29-1-.44-1.43-.42-1.4-.83-2.73-1.33-4a10.66,10.66,0,0,0-1.4-2.34l-.19-.26a1.38,1.38,0,0,1,0-1.92,1.32,1.32,0,0,1,.8-.36,1.48,1.48,0,0,1,1,.59c.18.19.35.39.49.57h0a1.7,1.7,0,0,1,1-.5c.6,0,1.13.66,1.32.93C45.07,9.51,46,10.84,46.71,12a13.51,13.51,0,0,1,.95,1.69,3.17,3.17,0,0,0,.37.7,2.07,2.07,0,0,0,.61-.23c0-.25-.09-.5-.12-.76A8.11,8.11,0,0,0,48,11.17a24.06,24.06,0,0,0-1.51-2.65c-.37-.59-.75-1.19-1.09-1.8a1.87,1.87,0,0,1,0-1.75c.46-.6,1.08-.21,1.46,0l.17.1A2.49,2.49,0,0,1,48.15,7c0,.15.06.3.1.45A8.14,8.14,0,0,0,49,9.05c.14.26.29.53.42.8a2.79,2.79,0,0,0,.28.42A1.84,1.84,0,0,1,50.15,12a2.88,2.88,0,0,0,.27.46,2.92,2.92,0,0,1,.29.46c.11.21.21.43.33.68l.05.12.7-.07c1-.1,2-.21,3-.35A.9.9,0,0,0,55,13c-.17-1.9-.33-3.74-1.9-5a1.91,1.91,0,0,1-.62-1,3.57,3.57,0,0,1,0-.92c0-.11,0-.22,0-.33a.41.41,0,0,1,.18-.33.41.41,0,0,1,.37,0,2.29,2.29,0,0,0,.28.09,1.59,1.59,0,0,1,.81.4A12.22,12.22,0,0,1,57,12.47a4.61,4.61,0,0,0-.53-2.74,9.78,9.78,0,0,1-.58-1.17,9,9,0,0,0-.5-1,1.08,1.08,0,0,1-.15-1,1.2,1.2,0,0,1,.84-.65c.51-.16,1,.66,1.1.89s.25.76.36,1.14.21.74.34,1.1a.71.71,0,0,0,.17.13c1.76-2.31,4.18-3,7.21-2.19a6.67,6.67,0,0,1,1.81,1c.27.18.55.37.84.53a15.37,15.37,0,0,1,5.72,5.41,3.38,3.38,0,0,1,.76,2.67,4,4,0,0,1-.64,1.2h0c.4.24.79.46.75.86s-.13,1.54-1.34,1.59h-.41a2.29,2.29,0,0,0-.4.71,3.2,3.2,0,0,1-1.56,4.32l-.21.09c-2,.82-4,1.67-6.39,1.37a5,5,0,0,1-3.87-3.18c-.48-1.27-1-2.54-1.5-3.81l-.26-.64a12.69,12.69,0,0,0,0,5.85,1.52,1.52,0,0,1,0,1.27,1,1,0,0,1-.78.4,1.25,1.25,0,0,1-1-.28,1.28,1.28,0,0,1-.4-.82l0,.06a.4.4,0,0,1-.54.13c-.5-.3-1.06-.63-1.18-1.22A1.73,1.73,0,0,1,55,23.12c.17-.22.09-.82,0-1.3,0-.22-.06-.45-.07-.66-.07-1.25-.16-2.5-.25-3.78l-.09-1.26-.45,0a5.91,5.91,0,0,1,.22,2.9,9,9,0,0,0-.07,1.35c0,.55,0,1.09,0,1.64,0,.72,0,1.44.08,2.15a1.6,1.6,0,0,1-.28,1.22,1.53,1.53,0,0,1-1.18.34s-.2.2-.33.33-.28.29-.45.44a.45.45,0,0,1-.29.1,1,1,0,0,1-.74-.38,1.73,1.73,0,0,1-.17-1.43,12.53,12.53,0,0,0-.67-6.44c-.26-.81-.52-1.24-.85-1.39a2.23,2.23,0,0,0-1.65.27c-.53.22-1.05.48-1.5.7l-.28.13,1.44,8.59a.43.43,0,0,1-.06.27l-.78,1.27a.48.48,0,0,1-.56.22,1.7,1.7,0,0,1-1-2.11,10.09,10.09,0,0,0-.23-4.81,19.12,19.12,0,0,0-.63-1.84c-.06-.15-.12-.31-.17-.46l-.63.34c0,.32,0,.63,0,.94,0,.81.07,1.57.16,2.33s.17,1.32.27,2c.13.92.28,1.86.35,2.81a2.19,2.19,0,0,1-.44,1.22,4.09,4.09,0,0,0-.25.46.4.4,0,0,1-.43.22C42.07,29.33,42,28.4,42,27.85c-.12-1.68-.26-3.37-.41-5.05a34.61,34.61,0,0,0,.1,7.36.4.4,0,0,1-.07.28l-.87,1.27a.4.4,0,0,1-.43.16c-.56-.13-1.18-.56-1-1.81a28.88,28.88,0,0,0,.23-7.77,1.08,1.08,0,0,0-.07-.35l-.11.06-.85.46c-.34.19-.45.46-.62,1a7.08,7.08,0,0,0,0,3.3l0,.33a13.18,13.18,0,0,1,0,2.51c0,.4,0,.81,0,1.21a4.61,4.61,0,0,0,.08.8l0,.14a1.74,1.74,0,0,0,.07.29c.1.31.21.66,0,.91s-1,.84-1.48.54a1.89,1.89,0,0,1-.86-1.4,17.19,17.19,0,0,1,.09-1.77c0-.52.09-1.06.09-1.59,0-1.14-.07-2.31-.13-3.44,0-.29,0-.58,0-.87a1.53,1.53,0,0,0-.36.57,16,16,0,0,0-.12,5c.06.47.14.94.22,1.41a17.51,17.51,0,0,1,.27,2.32c0,.62-.69,1.65-1.3,1.7a1,1,0,0,1-.79-.29,1.83,1.83,0,0,1-.39-1.42c.19-1.87.36-3.89.56-6.53,0-.44,0-.87,0-1.32v-.07l-.32.12a4.21,4.21,0,0,0-1.45.75,3.6,3.6,0,0,0-.85,2.68c0,.58,0,1.15,0,1.72,0,.73,0,1.49,0,2.22a2.73,2.73,0,0,0,.31.91c.07.16.14.32.2.48a.4.4,0,0,1-.05.38l-.17.22a6.79,6.79,0,0,0-.41.59,1,1,0,0,1-.82.58.89.89,0,0,1-.75-.54,2.28,2.28,0,0,1-.35-1.23c.05-1,.13-2.08.21-3.11s.14-2.06.2-3.1a2.79,2.79,0,0,0-.12-.81s0-.05,0-.07l-2.75.75v.14c0,.33,0,.66,0,1,0,1.35.11,2.7.19,4a1,1,0,0,0,.17.41c.28.39.52.84.28,1.21a.76.76,0,0,1-.7.31h0l0,.39a.37.37,0,0,1-.11.32.38.38,0,0,1-.32.12c-1.39-.12-1.61-.74-1.52-1.84l0-.15a21.13,21.13,0,0,0,.08-3.81c-.11-1-.26-1.51-.55-1.74a2.27,2.27,0,0,0-1.54-.23A2.9,2.9,0,0,1,23,30.78a4.11,4.11,0,0,0,.7,3.65.4.4,0,0,1-.07.55l-.2.16c-.15.11-.29.23-.43.35s-.26.23-.39.34l-.15.15a.45.45,0,0,1-.31.1.39.39,0,0,1-.28-.16,2.73,2.73,0,0,0-.23-.25,1.37,1.37,0,0,1-.5-.91v-.33a12.57,12.57,0,0,0-.75-5.77,1.77,1.77,0,0,1-.08-.22l-.76.18a3.32,3.32,0,0,1,.27.25l.07.09c.15.14.28.29.42.43l.16.18a.39.39,0,0,1,.1.35,8.08,8.08,0,0,1-.26.93,2.48,2.48,0,0,0,.05,2.46.39.39,0,0,1,0,.44l-1.22,2c-.92,1.49-1.87,3-2.94,4.46-1.39,1.86-3.1,3.9-5.81,4.64l-.23.08A1.81,1.81,0,0,1,9.52,45ZM6.75,24.84A13.51,13.51,0,0,0,4.58,25c-.59.1-1,.28-1.08.52s.07.61.44,1.07a6.32,6.32,0,0,0,.78.77,7,7,0,0,1,1,1A12.43,12.43,0,0,0,9.84,32c1.75.94,2.27,2.12,1.69,3.8s-1.17,3.14-1.78,4.66c-.36.9-.72,1.79-1.06,2.69a1.1,1.1,0,0,0-.08.57,2,2,0,0,0,.9.51,1.2,1.2,0,0,0,.35-.09l.3-.11c2.46-.66,4.07-2.59,5.38-4.34,1.05-1.4,2-2.93,2.9-4.4l1.09-1.74a3.36,3.36,0,0,1,0-2.94c.07-.21.14-.43.19-.64l0,0-.39-.41-.1-.1,0,0-.06.08-.08.11a9.27,9.27,0,0,0-.6.89,1.92,1.92,0,0,0-.29.73,6.28,6.28,0,0,1-.71,4,48.41,48.41,0,0,1-3.23,4.4c-.12.15-.25.3-.37.46a5.78,5.78,0,0,1-3.17,2.37.4.4,0,0,1-.4-.12.43.43,0,0,1-.07-.41l.36-1c.27-.71.52-1.38.78-2a10.72,10.72,0,0,0,.81-6.63.43.43,0,0,0-.18-.18,14.14,14.14,0,0,0-1.53-.82,18.52,18.52,0,0,1-5.12-4L5.06,27a1.82,1.82,0,0,1-.34-.54l-.11-.21a.4.4,0,0,1,.31-.6c2.55-.21,6.83.64,8.92,2.2a5.63,5.63,0,0,0,.88.5c.91.46,2,1,2,2.47a2,2,0,0,0,.23-1.06,3.24,3.24,0,0,1,.25-1.28.37.37,0,0,1,.26-.21l3-.74a.39.39,0,0,1,.48.28l.08.28a1.24,1.24,0,0,0,.05.19,13.26,13.26,0,0,1,.83,6.13v.33a2,2,0,0,0,.28.33l.26-.23.36-.29a4.82,4.82,0,0,1-.61-4,1.82,1.82,0,0,0-.47-2.14.38.38,0,0,1-.13-.42.4.4,0,0,1,.34-.29c1.39-.15,2.32-.14,2.92.34a3.2,3.2,0,0,1,.83,2.27,21,21,0,0,1-.08,4v.14c-.05.62,0,.82.3.92l0-.38a.39.39,0,0,1,.12-.34.42.42,0,0,1,.35-.1l.31.05a1.83,1.83,0,0,0-.16-.27,1.65,1.65,0,0,1-.32-.81c-.08-1.36-.14-2.71-.19-4.07,0-.35,0-.7,0-1V28a.41.41,0,0,1,.3-.39l3.44-.95a.39.39,0,0,1,.32.05.36.36,0,0,1,.18.27c0,.16.07.31.1.46a3.58,3.58,0,0,1,.14,1c-.06,1-.13,2.07-.21,3.1s-.15,2.07-.2,3.1a1.53,1.53,0,0,0,.24.79l.08.12a1.73,1.73,0,0,0,.11-.17,5.55,5.55,0,0,1,.47-.66l0,0c0-.07-.06-.15-.1-.23a3.54,3.54,0,0,1-.38-1.19c0-.76,0-1.53,0-2.27,0-.57,0-1.13,0-1.69A4.3,4.3,0,0,1,31.53,26a4.88,4.88,0,0,1,1.73-.93c.27-.1.55-.21.82-.33a.39.39,0,0,1,.38,0,.4.4,0,0,1,.13.13s0-.07,0-.1a2.35,2.35,0,0,1,.57-1,3.59,3.59,0,0,0,.25-.33.4.4,0,0,1,.42-.16l.35.07a.41.41,0,0,1,.32.38c0,.48,0,1,.07,1.44.06,1.14.12,2.32.13,3.48,0,.56,0,1.12-.1,1.66a16.19,16.19,0,0,0-.08,1.69,1.11,1.11,0,0,0,.41.68,1.43,1.43,0,0,0,.45-.26,1.41,1.41,0,0,0-.06-.22,4.1,4.1,0,0,1-.11-.4l0-.14a5.64,5.64,0,0,1-.1-.94c0-.41,0-.83,0-1.24a11.49,11.49,0,0,0,0-2.35l0-.33a7.69,7.69,0,0,1,0-3.66,2.15,2.15,0,0,1,1-1.46l.87-.47.42-.22a.4.4,0,0,1,.51.12l.08.1a1.17,1.17,0,0,1,.21.33,2.88,2.88,0,0,1,.13.59,29.62,29.62,0,0,1-.24,8c-.08.49,0,.7.14.8l.61-.88A37.21,37.21,0,0,1,41,20.32a.42.42,0,0,1,.3-.33.41.41,0,0,1,.43.15,2.29,2.29,0,0,1,.45,1.11c.2,2.18.39,4.36.55,6.55,0,.5.08.73.29.84l.14-.22a1.87,1.87,0,0,0,.32-.75c-.07-.92-.21-1.85-.34-2.75-.1-.67-.2-1.33-.28-2s-.12-1.55-.16-2.38c0-.38,0-.77-.06-1.18a.39.39,0,0,1,.21-.37l1.25-.69a.38.38,0,0,1,.33,0,.41.41,0,0,1,.24.24l.33.89c.25.65.48,1.27.66,1.91a11.14,11.14,0,0,1,.23,5.19c-.12.54,0,.82.26,1l.53-.87-1.46-8.73a.42.42,0,0,1,.23-.43l.53-.26c.47-.23,1-.49,1.55-.72a2.75,2.75,0,0,1,2.29-.25c.56.25,1,.81,1.29,1.87A13.22,13.22,0,0,1,51.83,25a1.08,1.08,0,0,0,0,.78l0,0,.24-.25c.3-.31.55-.58.91-.58h.07c.38,0,.49-.06.53-.09s.09-.17.06-.62c0-.72-.06-1.45-.08-2.18,0-.54,0-1.08,0-1.62v-.26c0,.64-.07,1.28-.11,1.92L53.35,24a.4.4,0,0,1-.37.38.39.39,0,0,1-.42-.32L51,16.27a.4.4,0,0,1,.2-.43,1.44,1.44,0,0,1,1.48.06,2.27,2.27,0,0,1,1,2c0,.48,0,.95,0,1.42l0-.37a4.6,4.6,0,0,0-.38-3,.4.4,0,0,1,.32-.6L55,15.29a.43.43,0,0,1,.29.1.35.35,0,0,1,.14.27l.12,1.66c.09,1.29.18,2.54.25,3.8,0,.19,0,.39.06.6a2.57,2.57,0,0,1-.18,1.88c-.24.32-.35.57-.31.73s.21.31.47.48l.24-.38a.37.37,0,0,1,.35-.18.43.43,0,0,1,.34.21,1.18,1.18,0,0,0,.11.19,1.11,1.11,0,0,1,.24.61.67.67,0,0,0,.14.48.59.59,0,0,0,.41.08.41.41,0,0,0,.19-.06c.06-.09,0-.42-.07-.56a13.43,13.43,0,0,1,0-6.37,3.05,3.05,0,0,1,.15-.5l.11-.28a.4.4,0,0,1,.68-.13,1.72,1.72,0,0,0,.17.19,1.05,1.05,0,0,1,.27.38l.38.94c.52,1.28,1,2.55,1.51,3.84a4.3,4.3,0,0,0,3.21,2.66c2.17.26,4-.5,6-1.32l.2-.09a2.41,2.41,0,0,0,1.12-3.31c-.19-.47.2-1,.52-1.48a.9.9,0,0,1,.85-.31h.16c.31,0,.49-.13.56-.74a2.33,2.33,0,0,0-.35-.22l-.41-.26a.4.4,0,0,1-.1-.53c.07-.12.16-.25.25-.39a2.87,2.87,0,0,0,.52-.93c.18-.7-.19-1.29-.66-2a14.46,14.46,0,0,0-5.42-5.15c-.31-.17-.61-.37-.91-.57A5.91,5.91,0,0,0,65,7.76c-2.84-.8-5-.08-6.57,2.19a.38.38,0,0,1-.27.17.39.39,0,0,1-.31-.08L57.7,9.9a2.07,2.07,0,0,1-.38-.28,6.68,6.68,0,0,1,.42,3.68c0,.31-.3.44-.53.54L57,14a.38.38,0,0,1-.36,0,.39.39,0,0,1-.23-.27l-.06-.22a3.34,3.34,0,0,1-.07-.33,11.59,11.59,0,0,0-2.8-6.7.57.57,0,0,0-.26-.12,1.9,1.9,0,0,0,0,.54,1,1,0,0,0,.34.5c1.83,1.52,2,3.61,2.19,5.64a1.21,1.21,0,0,1-.88,1.07c-1,.15-2,.25-3,.35l-1,.1a.39.39,0,0,1-.4-.22l-.18-.38L50,13.27a2.58,2.58,0,0,0-.24-.37c-.24-.36-.5-.73-.38-1.13s0-.63-.33-1a2.8,2.8,0,0,1-.36-.56c-.13-.25-.26-.51-.4-.76a8.76,8.76,0,0,1-.81-1.79l-.12-.5a1.67,1.67,0,0,0-.78-1.36l-.18-.11A1.45,1.45,0,0,0,46,5.45a1.47,1.47,0,0,0,.11.88c.34.6.7,1.18,1.07,1.77a23.67,23.67,0,0,1,1.56,2.74,9,9,0,0,1,.6,2.44c0,.35.1.69.17,1a.4.4,0,0,1-.23.45c-1.4.64-1.67.65-2.29-.68A12.3,12.3,0,0,0,46,12.43c-.75-1.14-1.63-2.47-2.55-3.74a1.42,1.42,0,0,0-.7-.6h0c-.11,0-.34.19-.5.32l0,0,.09.06c.21.19.42.36.63.53a6.42,6.42,0,0,1,1.23,1.21,26.7,26.7,0,0,1,1.72,2.83l.24.42c.52.92.8,1.42.64,1.92s-.73.78-1.84,1.3a.39.39,0,0,1-.3,0,.39.39,0,0,1-.23-.21l-.56-1.2c-.86-1.83-1.69-3.63-2.51-5.44-.12-.26,0-.5.14-.78l.16-.35a.4.4,0,0,1-.26-.14l-.16-.21c-.15-.18-.32-.41-.52-.61s-.34-.35-.48-.35h0a.38.38,0,0,0-.22.13c-.21.2-.31.37.06.89l.18.26a11.2,11.2,0,0,1,1.5,2.51c.51,1.33.92,2.67,1.35,4.08.17.58.35,1.15.53,1.73a.39.39,0,0,1-.18.47L42,18.35a.42.42,0,0,1-.55-.15l-.4-.66c-.28-.46-.54-.89-.76-1.34-.31-.66-.61-1.34-.91-2-.37-.85-.75-1.7-1.16-2.53a.54.54,0,0,0-.31-.3.67.67,0,0,0-.53.16c-.14.09-.15.15-.15.15s.1.18.3.36a10.09,10.09,0,0,1,2.59,4.62c.16.46.31.92.49,1.37a1.38,1.38,0,0,1-.06.92,1.64,1.64,0,0,0-.07.28.4.4,0,0,1-.39.33h-.41a.49.49,0,0,1-.38-.26l-.16-.44c-.11-.29-.22-.59-.35-.88l-.17-.44a3.58,3.58,0,0,0-.48-1,10.64,10.64,0,0,1-1.67-3.44c-.12-.34-.23-.68-.36-1a2.78,2.78,0,0,0-.88-.95.58.58,0,0,0-.21.13,1.09,1.09,0,0,0,0,.67,33.15,33.15,0,0,1,3.51,8.1.4.4,0,0,1-.16.44l-1.2.81a.42.42,0,0,1-.51-.05,23.87,23.87,0,0,1-3.29-4.41c-.42-.66-.84-1.32-1.28-2a2.09,2.09,0,0,0-.64-.53l0,0a2.53,2.53,0,0,0,.22,1,2.82,2.82,0,0,0,.44.59c.13.14.25.29.37.44l.58.81c.81,1.12,1.65,2.28,2.43,3.47a2.16,2.16,0,0,1,.26,1.08c0,.14,0,.27,0,.4a.4.4,0,0,1-.27.44l-.35.12a.4.4,0,0,1-.47-.16l-3.5-5.35c.72,1.33,1.34,2.68,2,4.12.27.59.54,1.19.83,1.8a.41.41,0,0,1-.19.54l-.72.34c-.66.32-1.34.65-2.05.93a1.43,1.43,0,0,1-1.36-.35c-1.19-1.37-2.36-2.75-3.53-4.14l-1.72-2c-.1-.12-.28-.34-.36-.36a1.29,1.29,0,0,0-.74,0,1.12,1.12,0,0,0,.09.54,4.36,4.36,0,0,0,.81.94l.09.07c.34.34.7.67,1.06,1a15.85,15.85,0,0,1,3.86,4.6.39.39,0,0,1,0,.35.4.4,0,0,1-.27.22l-.81.21a19,19,0,0,1-2.11.49,1.61,1.61,0,0,1-1.41-.69c-.62-1-1.18-2.08-1.72-3.11l-.42-.8-.41-.79a13.8,13.8,0,0,0-.73-1.37,4.35,4.35,0,0,0-.66-.78l-.36-.37a.45.45,0,0,0-.3.11c-.05.08,0,.32.17.74a8.92,8.92,0,0,0,.88,1.35l.09.13a12.27,12.27,0,0,1,2.58,5.25.38.38,0,0,1-.09.32.39.39,0,0,1-.3.14h-.55c-.41,0-.8,0-1.19,0h-.2c-.44,0-.95,0-1.17-.38-.6-1-1.12-1.9-1.68-2.92l-.5-.88L17.2,22a2.3,2.3,0,0,0,.23.41c.26.37.52.73.79,1.09.4.53.79,1.06,1.16,1.61a1.52,1.52,0,0,1,.35,1.32,1.41,1.41,0,0,1-1.08.7,31.39,31.39,0,0,1-3.31.56,1.49,1.49,0,0,1-1-.35A13.46,13.46,0,0,0,6.75,24.84ZM5.61,26.46v0l.25.24a17.49,17.49,0,0,0,4.9,3.84,16.38,16.38,0,0,1,1.6.86,1.18,1.18,0,0,1,.55.69,11.59,11.59,0,0,1-.84,7.12c-.27.65-.52,1.31-.78,2l-.06.17a6.36,6.36,0,0,0,2-1.83c.12-.16.25-.32.38-.47a47.86,47.86,0,0,0,3.18-4.33,5.45,5.45,0,0,0,.58-3.43,1.86,1.86,0,0,1-.7.57.41.41,0,0,1-.47-.09.56.56,0,0,0-.11-.11.48.48,0,0,1-.2-.47c.22-1.21-.43-1.6-1.5-2.14a6.3,6.3,0,0,1-1-.58C11.63,27.23,8,26.41,5.61,26.46Zm28.83,3.22c-.12,1.51-.24,2.82-.36,4.06a1.05,1.05,0,0,0,.16.78.24.24,0,0,0,.16,0,1.55,1.55,0,0,0,.56-.89,15.36,15.36,0,0,0-.26-2.19c-.09-.49-.17-1-.22-1.47C34.47,29.91,34.45,29.8,34.44,29.68ZM17.84,29a4,4,0,0,0-.1.82,1.94,1.94,0,0,1,0,.24,9,9,0,0,1,.66-1l.07-.1.11-.14ZM33,18.41l1.95,3a.75.75,0,0,0-.1-.31C34.25,20.17,33.62,19.28,33,18.41Zm18.83-1.95.9,4.39c.05-1,.1-2,.14-2.93a1.5,1.5,0,0,0-.64-1.34.82.82,0,0,0-.39-.12Zm-14.6-3.63v0a9.86,9.86,0,0,0,1.53,3.2,4.39,4.39,0,0,1,.61,1.2c.05.14.1.27.16.4s.22.54.32.82a.34.34,0,0,0,0-.17c-.18-.46-.34-.93-.5-1.4A9.88,9.88,0,0,0,37.22,12.83Zm-9.33,1.09a6.67,6.67,0,0,0,.62.54,5,5,0,0,1,.57.46c.18.17.38.33.58.5a8.31,8.31,0,0,1,1.1,1l-1.45-2.22a.42.42,0,0,1-.33,0l-.24-.14a2.5,2.5,0,0,0-.45-.24l-.37-.07A.49.49,0,0,0,27.89,13.92ZM42.12,9.64c.8,1.77,1.62,3.54,2.46,5.34l.4.84c.57-.27,1-.49,1-.64s-.23-.69-.56-1.28l-.25-.44a27.45,27.45,0,0,0-1.67-2.74,6.12,6.12,0,0,0-1.09-1.06,2.43,2.43,0,0,0-.25-.2ZM56.17,6.73c-.16.07-.18.13-.18.13s0,.1.09.26a10.44,10.44,0,0,1,.54,1.12c.15.33.29.65.46.95-.12-.33-.21-.68-.31-1s-.21-.73-.34-1.08A1.27,1.27,0,0,0,56.17,6.73Zm9.3,18.48a5.27,5.27,0,0,1-.87-.07,3.88,3.88,0,0,1-3.07-2.77c0-.18-.07-.36-.11-.54a3.88,3.88,0,0,0-.55-1.67,8.77,8.77,0,0,1-1.26-2.69,11,11,0,0,0-.77-1.89.8.8,0,0,1,0-.62,6.53,6.53,0,0,0,.13-1.61c0-1.19,0-2.54,1.29-3.53a4.69,4.69,0,0,1,5.36-.46c.68.35,1.37.69,2.06,1l.68.34a7.39,7.39,0,0,1,2.9,3.08,12.35,12.35,0,0,0,1.13,1.63c.69.81-.06,1.48-.42,1.81l-.15.14c-.44.42-.9.83-1.35,1.24s-1.1,1-1.62,1.51a.83.83,0,0,0-.15.48,5.31,5.31,0,0,0,1.23,1.17,1.32,1.32,0,0,0,.43,0c.29,0,.6-.06.74.16l.23.38a.38.38,0,0,1-.06.49c-.1.1-.19.22-.29.33a2.62,2.62,0,0,1-.88.77l-.35.14A10.6,10.6,0,0,1,65.47,25.21Zm-5.9-10a11.9,11.9,0,0,1,.8,2,7.78,7.78,0,0,0,1.13,2.44,4.57,4.57,0,0,1,.71,2c0,.17.06.34.1.51a3.09,3.09,0,0,0,2.41,2.15,8.6,8.6,0,0,0,4.68-1l.35-.15a2,2,0,0,0,.59-.55l0,0a1.4,1.4,0,0,1-.92-.13A5.8,5.8,0,0,1,68,21a1.36,1.36,0,0,1,.26-1.46c.54-.53,1.1-1,1.65-1.53s.9-.81,1.34-1.23l.17-.16c.53-.47.47-.54.34-.69a15.18,15.18,0,0,1-1.2-1.72A6.74,6.74,0,0,0,68,11.45l-.68-.34c-.7-.34-1.39-.68-2.08-1a3.9,3.9,0,0,0-4.51.39c-1,.74-1,1.74-1,2.89a7.14,7.14,0,0,1-.15,1.78A.52.52,0,0,0,59.57,15.24Zm0-.06Zm-3,5a.29.29,0,0,1-.16,0,.38.38,0,0,1-.24-.36V15.5a.4.4,0,0,1,.4-.4h1.28a.4.4,0,0,1,.39.31l.31,1.29a.4.4,0,0,1,0,.32.41.41,0,0,1-.27.17c-.82.13-.83.49-.83,1.2a2.09,2.09,0,0,1-.57,1.72A.4.4,0,0,1,56.5,20.21Zm.4-4.31v1a1.48,1.48,0,0,1,.71-.45l-.14-.6Z"/><path class="cls-1" d="M49.48,28.57a4.63,4.63,0,0,1-.64-1.1c-.42-2.1-.79-4.2-1.17-6.3-.15-.84-.33-1.68-.4-2.52,0-.25.28-.52.44-.77.22.15.59.27.64.47.19.85.24,1.73.42,2.58.33,1.56.67,3.12,1.08,4.67C50.21,27,50.25,27,49.48,28.57Z"/><path class="cls-1" d="M49.48,29a.39.39,0,0,1-.34-.19l-.28-.43a2.14,2.14,0,0,1-.41-.81c-.35-1.73-.66-3.47-1-5.21l-.3-1.62c-.12-.66-.25-1.34-.31-2a1.17,1.17,0,0,1,.34-.8,1.37,1.37,0,0,0,.15-.21.45.45,0,0,1,.26-.19.41.41,0,0,1,.32.07,1,1,0,0,0,.2.11c.23.13.53.29.6.6s.16.92.23,1.38.11.81.19,1.21c.27,1.28.64,3,1.08,4.64l0,.14c.36,1.37.35,1.52-.43,3.12a.38.38,0,0,1-.34.22ZM47.82,18.4a1,1,0,0,0-.15.24c0,.62.18,1.28.3,1.93l.29,1.62c.32,1.73.63,3.47,1,5.2a1.44,1.44,0,0,0,.19.37,2.08,2.08,0,0,0,.08-1.92l0-.14C49,24,48.65,22.31,48.38,21c-.09-.42-.15-.84-.21-1.26s-.12-.88-.21-1.31C48,18.47,47.89,18.44,47.82,18.4Z"/><path class="cls-1" d="M66.62,17.22c-1.75,0-2.48-.76-2.2-2.25a11,11,0,0,1,.87-2.69,1.8,1.8,0,0,1,2.28-.93,2.21,2.21,0,0,1,1.45,2c.13.75.54,1.5,0,2.31A3.86,3.86,0,0,1,66.62,17.22Zm-.7-2,.43.26c.65-.43,1.45-.75,1.46-1.72,0-.27-.32-.54-.54-.88Z"/><path class="cls-1" d="M66.55,17.62a2.7,2.7,0,0,1-2.16-.77,2.24,2.24,0,0,1-.36-2,11.28,11.28,0,0,1,.9-2.79A2.19,2.19,0,0,1,67.68,11a2.59,2.59,0,0,1,1.74,2.29,3.94,3.94,0,0,0,.1.47,2.35,2.35,0,0,1-.22,2.14,4.29,4.29,0,0,1-2.6,1.75Zm.07-.4Zm.27-5.58a1.33,1.33,0,0,0-1.24.82,10.09,10.09,0,0,0-.83,2.59A1.52,1.52,0,0,0,65,16.33a1.94,1.94,0,0,0,1.55.49h0a3.51,3.51,0,0,0,2.08-1.42,1.6,1.6,0,0,0,.1-1.49,4.54,4.54,0,0,1-.12-.53c-.16-.93-.53-1.46-1.18-1.65A1.87,1.87,0,0,0,66.89,11.64Zm-.54,4.26a.39.39,0,0,1-.21-.06l-.42-.25a.41.41,0,0,1-.14-.55l1.35-2.34a.4.4,0,0,1,.34-.2.43.43,0,0,1,.34.19l.21.28a1.37,1.37,0,0,1,.39.82,2.2,2.2,0,0,1-1.36,1.87l-.28.17A.38.38,0,0,1,66.35,15.9Zm1-2.27-.72,1.24c.5-.32.8-.57.81-1.09A1,1,0,0,0,67.32,13.63Z"/></svg>