<svg id="Layer_1" data-name="Layer 1" xmlns="http://www.w3.org/2000/svg" viewBox="0 0 46 11"><defs><style>.cls-1{fill:#293b5c;}</style></defs><path class="cls-1" d="M.78,3.05H.45l.6-1.71H5.59C7,1.34,7.2,1,7.53.2h.34l-.6,1.71H4.56L3.43,8.27C3.16,9.77,3.27,10,4.2,10l0,.32H1L1.05,10C2,10,2.2,9.77,2.47,8.27L3.6,1.91H2.71C1.35,1.91,1.12,2.24.78,3.05Z"/><path class="cls-1" d="M12.94,10c.57,0,1.23-.71,1.5-2.21.33-1.89-.5-1.87-.39-2.47a.34.34,0,0,1,.37-.29c.35,0,.81.78.47,2.76-.3,1.73-1.25,2.76-2.09,2.76a1.57,1.57,0,0,1-1.39-.84,2.19,2.19,0,0,1-1.49.84c-1,0-1.45-.69-1.24-1.87.16-1,1-2.18,1.08-2.75a2.13,2.13,0,0,0-1-.3A1.23,1.23,0,0,0,8.2,6V5.66a1.57,1.57,0,0,1,1-.51c.53,0,.63.21,1-.06h.27c-.15.84-.69,2.08-1,3.51-.16,1,.21,1.44.66,1.44a1.51,1.51,0,0,0,1.07-.62A4.83,4.83,0,0,1,11.17,7c.22-1.2.79-1.9,1.2-1.9s.64.63.45,1.75a6.51,6.51,0,0,1-.9,2.24C12.13,9.71,12.5,10,12.94,10Zm-.53-3.2c.14-.78.06-1.14-.07-1.14s-.32.38-.44,1.07a6,6,0,0,0-.07,1.8A6.08,6.08,0,0,0,12.41,6.84Z"/><path class="cls-1" d="M19.54,10a1.23,1.23,0,0,0,.6-.33V10a1.66,1.66,0,0,1-1,.52c-.52,0-.75-.45-.64-1l.57-3.18c.06-.36,0-.63-.17-.63a1.18,1.18,0,0,0-.6.35V5.66a1.57,1.57,0,0,1,1-.51c.52,0,.75.43.64,1l-.55,3.2C19.31,9.72,19.34,10,19.54,10ZM20,3.47a.44.44,0,0,1-.44-.53.69.69,0,0,1,.63-.52.44.44,0,0,1,.44.52A.65.65,0,0,1,20,3.47Z"/><path class="cls-1" d="M24.65,8.9c-.12.72,0,1.09.33,1.09.2,0,.53-.15.95-.67v.4a1.94,1.94,0,0,1-1.33.87c-.68,0-1-.52-.78-1.69l.52-3h-1l.1-.53h1l.42-2.4h.82l-.4,2.4h1.2l-.11.53h-1.2Z"/><path class="cls-1" d="M30.32,8.9c-.12.72,0,1.09.33,1.09.2,0,.53-.15,1-.67v.4a1.94,1.94,0,0,1-1.33.87c-.68,0-1-.52-.78-1.69l.52-3h-1l.1-.53h1l.42-2.4h.82L31,5.34h1.2l-.11.53h-1.2Z"/><path class="cls-1" d="M36.86,10a2.38,2.38,0,0,0,1.37-.69l.13.3a2.76,2.76,0,0,1-1.89,1c-1.24,0-1.86-1.24-1.6-2.76s1.53-2.74,2.58-2.74a1,1,0,0,1,1.09,1.29c-.13.78-1,1.72-2.86,2.11C35.66,9.41,36,10,36.86,10Zm.93-3.6c.06-.39-.07-.7-.45-.7-.69,0-1.35.81-1.59,2.16,0,.09,0,.16,0,.24A2.55,2.55,0,0,0,37.79,6.39Z"/><path class="cls-1" d="M45,5.09a.73.73,0,0,1,.75.94.58.58,0,0,1-.6.51.39.39,0,0,1-.4-.48c0-.21,0-.31-.14-.31-.43,0-1.14,1-1.53,3.13l-.25,1.46H42l.72-4c.06-.36,0-.63-.16-.63A1.14,1.14,0,0,0,42,6V5.66a1.54,1.54,0,0,1,1-.51c.53,0,.69.43.59,1l-.08.38C43.81,5.61,44.39,5.09,45,5.09Z"/></svg>