<svg id="Layer_1" data-name="Layer 1" xmlns="http://www.w3.org/2000/svg" viewBox="0 0 60 14"><defs><style>.cls-1{fill:#293b5c;}</style></defs><path class="cls-1" d="M.64,9.68c.93,0,1.14-.25,1.41-1.75l.86-4.88c.26-1.5.14-1.74-.79-1.74l0-.31H7.39L7.13,3H6.89v-.3c0-.78-.07-1.13-1.1-1.13H4.13L3.54,5h.55c1.12,0,1.35-.18,1.56-1.44h.24L5.29,7H5.05C5.27,5.69,5.11,5.51,4,5.51H3.43L3.05,7.7c-.26,1.5-.16,1.74.77,1.74h1c1,0,1.22-.34,1.5-1.14l.1-.3h.24l-.45,2H.58Z"/><path class="cls-1" d="M13.48,1.43l0-.31,1.8-.38L13.87,9c-.06.34,0,.61.16.61a1.32,1.32,0,0,0,.6-.33v.35a1.68,1.68,0,0,1-1,.52c-.42,0-.63-.27-.66-.69a2.07,2.07,0,0,1-1.42.75C10.3,10.25,9.75,9,10,7.49a3.19,3.19,0,0,1,2.77-2.74,1.79,1.79,0,0,1,1,.25l.3-1.81C14.32,1.69,14.23,1.43,13.48,1.43Zm.15,4.17a1.28,1.28,0,0,0-.93-.37c-.89,0-1.52,1.06-1.73,2.26s0,2.16.86,2.16a1.58,1.58,0,0,0,1.33-1.39Z"/><path class="cls-1" d="M19.3,9.65a1.23,1.23,0,0,0,.6-.33v.35a1.66,1.66,0,0,1-1,.52c-.52,0-.75-.45-.64-1L18.85,6c.06-.36,0-.63-.17-.63a1.18,1.18,0,0,0-.6.35V5.32a1.57,1.57,0,0,1,1-.51c.52,0,.75.43.65,1L19.15,9C19.08,9.38,19.1,9.65,19.3,9.65Zm.45-6.52a.44.44,0,0,1-.44-.53.7.7,0,0,1,.63-.52.44.44,0,0,1,.44.52A.65.65,0,0,1,19.75,3.13Z"/><path class="cls-1" d="M24.42,8.56c-.13.72,0,1.09.33,1.09.19,0,.52-.15.94-.67l0,.4a2,2,0,0,1-1.34.87c-.68,0-1-.52-.78-1.69l.52-3h-1L23.25,5h1l.42-2.4h.82L25.06,5h1.2l-.11.53H25Z"/><path class="cls-1" d="M30.76,10.25C29.5,10.25,28.71,9,29,7.49a3.19,3.19,0,0,1,2.77-2.74c1.25,0,2,1.23,1.77,2.74A3.18,3.18,0,0,1,30.76,10.25Zm.9-5c-.9,0-1.5,1-1.73,2.28s0,2.3.9,2.3,1.49-1,1.71-2.3S32.54,5.21,31.66,5.21Z"/><path class="cls-1" d="M40,4.75a.73.73,0,0,1,.75.94.58.58,0,0,1-.6.51.39.39,0,0,1-.4-.48c0-.21,0-.31-.14-.31-.43,0-1.14,1-1.53,3.13L37.87,10h-.8l.72-4c.06-.36,0-.63-.16-.63a1.14,1.14,0,0,0-.6.35V5.32a1.54,1.54,0,0,1,1-.51c.53,0,.69.43.59,1l-.08.38C38.89,5.27,39.47,4.75,40,4.75Z"/><path class="cls-1" d="M44.77,9.65a1.23,1.23,0,0,0,.6-.33v.35a1.66,1.66,0,0,1-1,.52c-.52,0-.75-.45-.64-1L44.32,6c.06-.36,0-.63-.17-.63a1.18,1.18,0,0,0-.6.35V5.32a1.57,1.57,0,0,1,1-.51c.52,0,.75.43.64,1L44.62,9C44.54,9.38,44.57,9.65,44.77,9.65Zm.45-6.52a.44.44,0,0,1-.44-.53.69.69,0,0,1,.63-.52.44.44,0,0,1,.44.52A.65.65,0,0,1,45.22,3.13Z"/><path class="cls-1" d="M50.32,10.25c-1.26,0-1.82-1.24-1.56-2.76a3.19,3.19,0,0,1,2.77-2.74,1.79,1.79,0,0,1,1,.25h.82l-.7,4c-.06.34-.05.61.16.61a1.32,1.32,0,0,0,.6-.33v.35a1.68,1.68,0,0,1-1,.52c-.42,0-.63-.27-.66-.69A2.07,2.07,0,0,1,50.32,10.25ZM52.39,5.6a1.28,1.28,0,0,0-.93-.37c-.89,0-1.52,1.06-1.73,2.26s0,2.16.86,2.16a1.58,1.58,0,0,0,1.33-1.39Z"/><path class="cls-1" d="M57.28,1.43l0-.31L59.11.74,57.67,9c-.06.34-.05.61.16.61a1.32,1.32,0,0,0,.6-.33v.35a1.68,1.68,0,0,1-1,.52c-.52,0-.73-.45-.64-1l1.05-6C58.12,1.69,58,1.43,57.28,1.43Z"/></svg>