<svg id="Layer_1" data-name="Layer 1" xmlns="http://www.w3.org/2000/svg" viewBox="0 0 59 58"><defs><style>.cls-1{fill:#2121e8;}</style></defs><path class="cls-1" d="M12.82,40.11a4.78,4.78,0,0,1-1.4-.32c-.12-.07.08-.73.18-1.42L9.18,35.78a1.74,1.74,0,0,1-.34-.55c-1.3-3.71-2.67-7.41-2.38-11.45A46.44,46.44,0,0,1,7,17a15.35,15.35,0,0,1,3.13-6.7c.43-.5.78-1.06,1.21-1.56C13.31,6.45,16,5.35,18.66,4.4A39.89,39.89,0,0,1,26,2.47c1.71-.25,3.52.19,5.29.3a3,3,0,0,0,.85-.06c.5-.1.78.09,1,.67,0,.13.23.23.36.31,1.86,1,3.7,2,5.57,3,2.53,1.33,4.18,3.54,5.87,5.73a33.4,33.4,0,0,0,2.8,3.68,5.53,5.53,0,0,1,1.06,3.24,12.9,12.9,0,0,0,1.66,4.95c.69,1.28,0,2.46,0,3.68s0,2.26,0,3.39c0,.2.26.38.37.6a3,3,0,0,1,.62,2.22A10.94,10.94,0,0,0,51.55,37c.06,1.89.08,3.79.14,5.68A3,3,0,0,0,51.87,44c1.1,1.89.1,3.6-.54,5.23-.28.69-1.38,1.15-2.19,1.51a50.53,50.53,0,0,1-6.61,2.63,21.84,21.84,0,0,1-5.6.65,30.32,30.32,0,0,1-4.83-.5,3.2,3.2,0,0,1-1.28-.63,36.48,36.48,0,0,0-3.33-2.29c-1.81-.94-2.86-2.59-4.24-3.94a28.8,28.8,0,0,0-3.52-3.11,10.75,10.75,0,0,0-3-1.13A6,6,0,0,1,13,39.77Zm35-17.56c-.31.57-.59,1.07-.85,1.57s-.57,1.06-.83,1.6c-1,2-1,2-3.11,1.55s-3.7-1.2-4.5-3.37a17.1,17.1,0,0,1-.67-8.71,1.78,1.78,0,0,1,2.41-1.5c1.08.29,2.14.68,3.51,1.12a27.46,27.46,0,0,0-1.42-2.87,16.8,16.8,0,0,0-6.84-5.52,18,18,0,0,0-14.29-1A39.31,39.31,0,0,0,13.76,9a5.51,5.51,0,0,0-2.87,4.48c-.25.18-.47.26-.58.42a11.22,11.22,0,0,0-1.62,5c0,.4.33.85.42,1.06-.23.46-.63.9-.64,1.35,0,1.84,0,3.69.15,5.54.15,2.5.69,5,2.85,6.45A30.12,30.12,0,0,0,17.8,36a41,41,0,0,0,4.13,1.08,30.77,30.77,0,0,0,5.5,1.26,3.69,3.69,0,0,1,3.68,2.34,3.53,3.53,0,0,0,3.16,2.36c1.7.12,3.38.49,5.07.73a3.49,3.49,0,0,0,1.2.06,2.7,2.7,0,0,0,.9-.53c.74-.51,1.1-1.47,2.3-1.5.8,0,2-.19,1.92-1.62a.78.78,0,0,1,.41-.57,4.5,4.5,0,0,0,2.66-4.16c.09-1-.32-2.11-.28-3.16,0-1.52.34-3,.48-4.57A9.54,9.54,0,0,0,47.82,22.55Zm-3.11-2.27a5.76,5.76,0,0,0,0-1.73,4.27,4.27,0,0,0-3-2.74c-.36-.09-1-.22-1.09-.05a1.62,1.62,0,0,0-.31,1.31c.71,1.5.5,3.12.72,4.67.2,1.32,1.52,2.62,2.65,2.43a3,3,0,0,0,1.84-4.1ZM39,51.77c.62-.07,1-.13,1.32-.14,2.66-.07,4.9-1.47,7.32-2.29,1.26-.43,2.36-1.14,2.14-2.8,0-.28.15-.58.12-.87a4.88,4.88,0,0,0-.29-1l-.4-.1-2.1,3.08-2.37-1.5c-.34,1.47-.62,2.7-.94,4.13a6.08,6.08,0,0,1-1.09-.78,1.38,1.38,0,0,0-2.21,0C40,50.15,39.61,50.83,39,51.77ZM25.74,45.13c-.38-1.33-.66-2.62-1.13-3.84a2.56,2.56,0,0,0-1.27-1.15,6.2,6.2,0,0,0-1.93-.39c-1.17-.14-2.35-.22-3.53-.33l-.15.35c1.34.91,2.68,1.83,4,2.7S24.16,44.8,25.74,45.13ZM36.5,49.54c-1.29.35-3.15-.42-3,2.32l-3.34-3.7a1.91,1.91,0,0,0,.9,2.4,4.36,4.36,0,0,1,.78.64c.25.26.4.7.69.8a6,6,0,0,0,2,.4c1.15,0,2.3-.2,3.45-.32l.08-.4Zm-7.39-6.7c.52-1.94.06-2.6-1.52-2.27C28.14,42.67,28.14,42.67,29.11,42.84Zm9.3,6.53c1.1-1.17,1.11-1.44.16-2.43C37.48,48.39,37.46,48.61,38.41,49.37Zm-6.56-2.85-1.3.45,2.09,1.62.28-.25ZM27.3,45.9,27.68,48l1-1.5Z"/><path class="cls-1" d="M36.73,54.52a25.53,25.53,0,0,1-3.91-.4L32,54a3.86,3.86,0,0,1-1.47-.7c-.4-.28-.8-.57-1.19-.87A14.12,14.12,0,0,0,27.28,51a11.46,11.46,0,0,1-3.19-2.77c-.37-.42-.75-.85-1.16-1.24l-.25-.25A25.92,25.92,0,0,0,19.47,44a7.29,7.29,0,0,0-2.11-.86l-.72-.21A6.87,6.87,0,0,1,13,40.53a.48.48,0,0,1-.24,0c-.12,0-.25,0-.38-.06a3.13,3.13,0,0,1-1.15-.31c-.37-.21-.29-.61-.16-1.21,0-.14.05-.3.08-.45l-.36-.39-1.91-2a2.11,2.11,0,0,1-.43-.71L8.27,35C7,31.4,5.73,27.73,6,23.75c0-.69.08-1.37.11-2.06a26,26,0,0,1,.48-4.81A15.55,15.55,0,0,1,9.83,10c.21-.25.4-.51.59-.77s.4-.54.62-.79c2-2.37,4.79-3.5,7.47-4.45A39.3,39.3,0,0,1,25.91,2a14,14,0,0,1,3.72.12c.56.07,1.12.14,1.67.18A2.88,2.88,0,0,0,32,2.27a1.21,1.21,0,0,1,1.5,1s0,0,.15.06L35,4c1.41.77,2.82,1.54,4.24,2.29C41.75,7.63,43.42,9.8,45,11.9l.21.26c.33.43.64.88,1,1.33A14.52,14.52,0,0,0,48,15.8a5.78,5.78,0,0,1,1.18,3.52,12.51,12.51,0,0,0,1.62,4.77A4,4,0,0,1,51,26.88,6.36,6.36,0,0,0,50.89,28c0,.44,0,.88,0,1.32,0,.69,0,1.37,0,2.06,0,0,.06,0,.09.08a1.31,1.31,0,0,1,.23.32l.17.3a2.92,2.92,0,0,1,.49,2.22,5.06,5.06,0,0,0,0,1.64c0,.34.09.69.11,1,0,1,0,2,.07,3s0,1.8.07,2.7v.28a2,2,0,0,0,.12.89c1.07,1.84.37,3.52-.26,5-.09.2-.17.41-.26.62-.33.83-1.43,1.32-2.32,1.71l-1.07.47a43.19,43.19,0,0,1-5.7,2.23,22.83,22.83,0,0,1-5.71.66ZM13,39.32h0a.44.44,0,0,1,.38.23A5.68,5.68,0,0,0,16.91,42l.7.21a8,8,0,0,1,2.37,1,25.79,25.79,0,0,1,3.33,2.92l.25.24c.42.41.81.85,1.2,1.29a10.71,10.71,0,0,0,2.93,2.57,15.31,15.31,0,0,1,2.22,1.48c.38.29.76.58,1.16.84a3,3,0,0,0,1.09.55l.8.12a24.25,24.25,0,0,0,4,.38A21.82,21.82,0,0,0,42.41,53,41.48,41.48,0,0,0,48,50.8l1.07-.47c.66-.29,1.66-.73,1.86-1.23.08-.21.17-.42.26-.63.6-1.41,1.16-2.75.31-4.2a2.58,2.58,0,0,1-.24-1.34v-.25c0-.91-.05-1.81-.07-2.71s0-2-.08-3c0-.31-.05-.63-.09-1a5.5,5.5,0,0,1,0-1.94,2.06,2.06,0,0,0-.4-1.59l-.18-.33L50.29,32a1,1,0,0,1-.31-.64c0-.7,0-1.4,0-2.09,0-.44,0-.87,0-1.31a7.48,7.48,0,0,1,.15-1.27,3.19,3.19,0,0,0-.12-2.2A13.34,13.34,0,0,1,48.3,19.4c0-.56-.21-2.26-.92-3A14.9,14.9,0,0,1,45.46,14c-.3-.43-.6-.87-.92-1.29l-.21-.26c-1.63-2.12-3.17-4.12-5.52-5.34-1.43-.75-2.84-1.53-4.25-2.3l-1.32-.72a1.09,1.09,0,0,1-.57-.57c-.15-.43-.25-.41-.46-.37a3.16,3.16,0,0,1-1,.07c-.57,0-1.15-.1-1.72-.18A13.26,13.26,0,0,0,26,2.92a38.5,38.5,0,0,0-7.23,1.91c-2.56.91-5.22,2-7.09,4.18q-.3.36-.57.75c-.21.28-.41.55-.64.81a14.87,14.87,0,0,0-3,6.51A26.44,26.44,0,0,0,7,21.72c0,.7-.06,1.4-.11,2.09-.27,3.8,1,7.38,2.21,10.84l.15.43a1.12,1.12,0,0,0,.24.4l1.91,2,.51.54a.46.46,0,0,1,.11.37c0,.25-.08.5-.12.72l-.07.33a3.79,3.79,0,0,0,.62.12h.12l.05-.07A.43.43,0,0,1,13,39.32ZM34.51,52.85a6.38,6.38,0,0,1-2.12-.42,1.41,1.41,0,0,1-.66-.64,1.71,1.71,0,0,0-.2-.27,3.77,3.77,0,0,0-.71-.58A2.35,2.35,0,0,1,29.74,48a.45.45,0,0,1,.77-.17l2.62,2.9a2,2,0,0,1,.43-.91,2.61,2.61,0,0,1,1.92-.64,4.76,4.76,0,0,0,.9-.1.45.45,0,0,1,.48.16l1.6,2.14a.45.45,0,0,1,.08.36l-.08.4a.45.45,0,0,1-.4.36l-1,.11a22,22,0,0,1-2.47.21ZM34,51.91a4.35,4.35,0,0,0,.61,0,23.87,23.87,0,0,0,2.38-.2l.59-.07L36.31,50a6.85,6.85,0,0,1-.78.07,1.93,1.93,0,0,0-1.3.34A1.94,1.94,0,0,0,34,51.83Zm-3.43-2.68a1.59,1.59,0,0,0,.78,1l.21.14Zm8.47,3a.45.45,0,0,1-.38-.7l.55-.84c.35-.54.64-1,1-1.43a1.74,1.74,0,0,1,1.32-.76,2.07,2.07,0,0,1,1.58.68,2.13,2.13,0,0,0,.46.37L44.3,46a.43.43,0,0,1,.26-.31.48.48,0,0,1,.42,0L47,47l1.86-2.71a.45.45,0,0,1,.48-.18l.4.09a.45.45,0,0,1,.32.31c0,.1.07.19.1.29a3.52,3.52,0,0,1,.21.82,1.56,1.56,0,0,1-.08.59,1.91,1.91,0,0,0-.05.26c.32,2.35-1.76,3.06-2.44,3.29s-1.44.54-2.13.84a14.82,14.82,0,0,1-5.31,1.47c-.22,0-.44,0-.72.07l-.57.07Zm2.56-2.83h-.05a.89.89,0,0,0-.65.39c-.31.42-.6.86-.93,1.39l0,0,.41,0a10.13,10.13,0,0,0,3.09-.64l-.17-.11a4.12,4.12,0,0,1-.85-.64A1.19,1.19,0,0,0,41.56,49.39ZM45,46.85l-.76,3.35,1-.42c.71-.3,1.44-.61,2.19-.86,1.46-.5,2-1.17,1.84-2.32a1.51,1.51,0,0,1,.08-.62,2.24,2.24,0,0,0,.05-.26,3.23,3.23,0,0,0-.14-.53l-1.84,2.69a.46.46,0,0,1-.61.13Zm-6.63,3a.46.46,0,0,1-.29-.1c-1.27-1-1-1.58.09-3a.43.43,0,0,1,.33-.17.45.45,0,0,1,.35.13c1.19,1.24,1,1.79-.16,3A.43.43,0,0,1,38.41,49.82Zm.19-2.17c-.47.64-.52.82-.23,1.1C38.87,48.21,38.93,48,38.6,47.65Zm-6,1.39a.46.46,0,0,1-.27-.09l-2.1-1.62a.47.47,0,0,1-.17-.43.45.45,0,0,1,.3-.35l1.3-.46a.44.44,0,0,1,.53.2l1.08,1.82a.44.44,0,0,1-.09.56l-.27.25A.47.47,0,0,1,32.64,49Zm-1.16-1.92.37.29-.21-.35Zm-3.8,1.37h-.09a.45.45,0,0,1-.35-.36L26.86,46a.43.43,0,0,1,.17-.43.45.45,0,0,1,.46,0l1.38.65a.42.42,0,0,1,.24.28.4.4,0,0,1-.06.37l-1,1.5A.43.43,0,0,1,27.68,48.49Zm.21-1.82,0,.19.08-.13Zm-2.15-1.09h-.09a6.24,6.24,0,0,1-2.81-1.69,11.62,11.62,0,0,0-1.31-1c-1-.61-1.89-1.24-2.83-1.88l-1.22-.82a.46.46,0,0,1-.17-.56l.16-.35a.47.47,0,0,1,.45-.27l1,.09c.83.07,1.67.14,2.5.24l.21,0a6,6,0,0,1,1.86.41,3,3,0,0,1,1.5,1.4,24.18,24.18,0,0,1,.83,2.74c.1.38.2.76.31,1.14a.48.48,0,0,1-.1.43A.47.47,0,0,1,25.74,45.58ZM18.79,40l.41.28c.94.63,1.87,1.26,2.82,1.86a13,13,0,0,1,1.41,1.11,8,8,0,0,0,1.65,1.22L25,44.1a22.62,22.62,0,0,0-.8-2.64,2.08,2.08,0,0,0-1-.91,5.22,5.22,0,0,0-1.58-.33l-.21,0c-.82-.09-1.65-.16-2.48-.23Zm21.4,4.37a5,5,0,0,1-.79-.08h-.13L37.58,44c-1.09-.18-2.23-.38-3.34-.46a3.93,3.93,0,0,1-3.54-2.62c-.62-1.41-1.51-2-3.3-2.07a18.17,18.17,0,0,1-4-.84c-.53-.15-1.06-.3-1.59-.43-.37-.1-.75-.18-1.13-.27a25.35,25.35,0,0,1-3-.83L16.34,36a22.73,22.73,0,0,1-5.12-2.24c-2.44-1.6-2.91-4.48-3.05-6.81-.12-2-.17-3.84-.15-5.57a2.26,2.26,0,0,1,.46-1.15L8.6,20a1.78,1.78,0,0,1-.36-1.11,11.46,11.46,0,0,1,1.7-5.22,1.39,1.39,0,0,1,.48-.4l0,0a6,6,0,0,1,3.08-4.61A39.8,39.8,0,0,1,21.09,5,18.43,18.43,0,0,1,35.72,6a17.33,17.33,0,0,1,7,5.67,14.33,14.33,0,0,1,1,1.88c.15.33.3.67.48,1a.44.44,0,0,1-.06.49.46.46,0,0,1-.48.14l-1.24-.41c-.82-.27-1.53-.51-2.25-.7a1.55,1.55,0,0,0-1.27.12,1.42,1.42,0,0,0-.58,1A16.56,16.56,0,0,0,39,23.75c.76,2.06,2.46,2.7,4.18,3.08s1.77.39,2.59-1.28c.23-.47.46-.91.69-1.35l.16-.3c.18-.34.37-.68.57-1l.28-.53a.47.47,0,0,1,.4-.23h0a.43.43,0,0,1,.39.25,9.84,9.84,0,0,1,1.16,5.42c-.06.62-.14,1.23-.22,1.84-.11.89-.23,1.81-.26,2.71A7.09,7.09,0,0,0,49,33.73a7.43,7.43,0,0,1,.14,1.77C49,37.81,48,39.3,46.24,40a.45.45,0,0,0-.13.17,1.83,1.83,0,0,1-.43,1.38,2.65,2.65,0,0,1-1.93.67A1.81,1.81,0,0,0,42.4,43a4.41,4.41,0,0,1-.71.64l-.19.14a2.21,2.21,0,0,1-.87.46A2.12,2.12,0,0,1,40.19,44.32ZM27.36,4.85a19.58,19.58,0,0,0-6,1A39.28,39.28,0,0,0,14,9.42a5.07,5.07,0,0,0-2.64,4.12.46.46,0,0,1-.19.34,2.92,2.92,0,0,1-.27.17,1.46,1.46,0,0,0-.19.13A10.51,10.51,0,0,0,9.14,19a1.22,1.22,0,0,0,.24.56c.06.11.12.2.15.27a.46.46,0,0,1,0,.38,4.48,4.48,0,0,1-.28.47,1.69,1.69,0,0,0-.32.68c0,1.71,0,3.51.15,5.51s.54,4.73,2.64,6.1a22.16,22.16,0,0,0,4.92,2.15l1.33.46a24.37,24.37,0,0,0,2.93.8l1.15.27q.81.21,1.62.45a17.68,17.68,0,0,0,3.79.8,4.15,4.15,0,0,1,4.07,2.61,3.1,3.1,0,0,0,2.79,2.09c1.15.08,2.31.28,3.43.47l1.66.27h.13a2.94,2.94,0,0,0,.92,0,1.64,1.64,0,0,0,.51-.3l.22-.16a3.89,3.89,0,0,0,.57-.52,2.69,2.69,0,0,1,2-1.06A1.75,1.75,0,0,0,45,41a1,1,0,0,0,.2-.76,1.18,1.18,0,0,1,.69-1c1.44-.61,2.2-1.81,2.38-3.79a6.49,6.49,0,0,0-.13-1.55A8.22,8.22,0,0,1,48,32.29c0-.94.15-1.89.27-2.8.08-.59.16-1.19.21-1.8a8.75,8.75,0,0,0-.69-4.14c-.15.27-.29.52-.42.78l-.16.3c-.23.42-.46.85-.67,1.28-1.07,2.2-1.3,2.31-3.61,1.8-1.87-.42-3.91-1.18-4.82-3.65a17.6,17.6,0,0,1-.7-8.93,2.32,2.32,0,0,1,1-1.63,2.45,2.45,0,0,1,2-.24c.75.2,1.47.44,2.3.71l.25.09,0-.12a11.86,11.86,0,0,0-.9-1.75,16.44,16.44,0,0,0-6.67-5.37A17.37,17.37,0,0,0,27.36,4.85Zm1.75,38.44H29c-1.25-.23-1.32-.5-1.88-2.61a.46.46,0,0,1,.35-.55,1.92,1.92,0,0,1,1.89.32c.44.47.49,1.25.15,2.51A.44.44,0,0,1,29.11,43.29Zm-1-2.35c.26,1,.36,1.24.63,1.36.17-.84,0-1.13-.05-1.23A.73.73,0,0,0,28.15,40.94ZM43.39,24.63a2.4,2.4,0,0,1-1.41-.5,3.61,3.61,0,0,1-1.45-2.32,14.24,14.24,0,0,1-.13-1.57,7.81,7.81,0,0,0-.55-3,2,2,0,0,1,.34-1.76c.22-.32.7-.35,1.58-.12a4.69,4.69,0,0,1,3.34,3,2.83,2.83,0,0,1,.08,1.27v0l.15,0a.44.44,0,0,1,.51.21,3.23,3.23,0,0,1,0,3,3.08,3.08,0,0,1-2.14,1.78A1.62,1.62,0,0,1,43.39,24.63Zm-2.54-8.5a1.32,1.32,0,0,0-.19.75,8.28,8.28,0,0,1,.63,3.31c0,.52.06,1,.13,1.49A2.74,2.74,0,0,0,42.5,23.4a1.4,1.4,0,0,0,1,.32A2.15,2.15,0,0,0,45,22.44a2.57,2.57,0,0,0,.18-1.83l-.38.1a.45.45,0,0,1-.39-.07.47.47,0,0,1-.18-.36c0-.24,0-.47,0-.69a2.23,2.23,0,0,0,0-.88,3.76,3.76,0,0,0-2.72-2.46A2.86,2.86,0,0,0,40.85,16.13Z"/><path class="cls-1" d="M27.26,29.3c-1.22.17-2-.67-2.71-1.5a20.6,20.6,0,0,1-2.39-3.27,6,6,0,0,1-.91-2.92c.06-2,2-2.45,3.37-3.32.36-.22.79-.33,1.18-.52.62-.3,1.22-1,1.86,0,.06.11.33.08.51.11a4.78,4.78,0,0,1,4,5.19c-.12,2-1.21,3.36-2.3,4.86A2.58,2.58,0,0,1,27.26,29.3Zm-1.59-7.17c-1.63.45-1.81.76-1.17,2.19.37.83.93,1.56,1.37,2.36a1.51,1.51,0,0,0,2.74.21,19.29,19.29,0,0,0,2.07-3.74,2.67,2.67,0,0,0-.78-3c-.69-.59-1.47-1.16-2.4-.66S25.39,20.59,25.67,22.13Z"/><path class="cls-1" d="M27.66,29.77a2.75,2.75,0,0,1-.4,0c-1.46.18-2.42-.92-3.05-1.66a21.05,21.05,0,0,1-2.44-3.34,6.2,6.2,0,0,1-1-3.15c.06-1.84,1.44-2.55,2.65-3.18.32-.16.64-.33.93-.51a4.2,4.2,0,0,1,.78-.36c.15-.06.3-.11.44-.18s.21-.12.32-.18a1.34,1.34,0,0,1,2,.22H28l.21,0a5.18,5.18,0,0,1,4.38,5.66,8.69,8.69,0,0,1-2.15,4.78l-.22.31A3.08,3.08,0,0,1,27.66,29.77Zm-.4-.92h.06c1,.13,1.55-.3,2.2-1.19l.22-.31a8.1,8.1,0,0,0,2-4.3,4.33,4.33,0,0,0-3.63-4.73H28a.79.79,0,0,1-.69-.3c-.27-.41-.37-.37-.9-.05l-.38.22c-.17.08-.35.15-.52.21a3.59,3.59,0,0,0-.62.28,10.66,10.66,0,0,1-1,.55c-1.14.59-2.12,1.09-2.16,2.41a5.39,5.39,0,0,0,.85,2.68,21,21,0,0,0,2.34,3.2c.73.84,1.35,1.48,2.31,1.34ZM28,17.53Zm-.7,10.59h-.06a2.17,2.17,0,0,1-1.79-1.22c-.17-.3-.35-.59-.54-.89a12.13,12.13,0,0,1-.85-1.5c-.35-.78-.51-1.33-.28-1.81s.64-.67,1.37-.89c-.09-1.58,1.17-2.25,2.11-2.75a2.5,2.5,0,0,1,2.9.72,3.11,3.11,0,0,1,.91,3.52A20.4,20.4,0,0,1,29,27.14,2,2,0,0,1,27.33,28.12Zm.89-8.4a1,1,0,0,0-.51.14c-1.13.6-1.81,1.05-1.6,2.19a.45.45,0,0,1-.32.51c-.29.08-1.06.3-1.17.52s.2.85.29,1.06a11.45,11.45,0,0,0,.79,1.39c.2.31.39.61.56.93a1.32,1.32,0,0,0,1,.76,1.12,1.12,0,0,0,.94-.57,19.79,19.79,0,0,0,2-3.66,2.2,2.2,0,0,0-.65-2.53A2.28,2.28,0,0,0,28.22,19.72Z"/><path class="cls-1" d="M39.91,31.5c0,.59,0,1.18,0,1.77,0,.8-.19,1.48-1.3,1.22-.19,0-.52.37-.72.62s-.43.87-.52.85c-.46-.13-1.09-.3-1.28-.65A14.31,14.31,0,0,1,34.71,32c-.64-2.81-1.48-5.61-1.18-8.55a1.74,1.74,0,0,1,2.18-1.69,2,2,0,0,1,.85.73c.18.22.14.63.34.79,1.93,1.6,1.9,4.12,2.89,6.16a5.09,5.09,0,0,1,.05,2.07Zm-3.52.1,1.86-1.16C38,29,37.66,27.52,37.39,26a1.55,1.55,0,0,0-2.09-1.45A32,32,0,0,0,36.39,31.6Z"/><path class="cls-1" d="M37.39,36.41a.36.36,0,0,1-.14,0,2.37,2.37,0,0,1-1.56-.87,14,14,0,0,1-1.41-3.43c-.09-.39-.19-.78-.28-1.16a22.55,22.55,0,0,1-.92-7.53,2.47,2.47,0,0,1,1-1.81,2.08,2.08,0,0,1,1.74-.27,2.31,2.31,0,0,1,1.1.88,1.39,1.39,0,0,1,.23.56,1.08,1.08,0,0,0,.06.19,7.74,7.74,0,0,1,2.24,4.15,13.7,13.7,0,0,0,.75,2.13,3.1,3.1,0,0,1,.13,1.63c0,.15,0,.29,0,.43a.31.31,0,0,1,.07.21V32c0,.42,0,.83,0,1.25a1.87,1.87,0,0,1-.55,1.47,1.47,1.47,0,0,1-1.18.2,2.61,2.61,0,0,0-.39.43c-.07.09-.17.29-.25.43S37.7,36.41,37.39,36.41ZM35.23,22.14a1.06,1.06,0,0,0-.64.2A1.54,1.54,0,0,0,34,23.49a21.57,21.57,0,0,0,.9,7.23l.27,1.16a13.54,13.54,0,0,0,1.34,3.22c.07.13.4.25.69.34v0a3.25,3.25,0,0,1,.35-.6c.38-.47.74-.86,1.17-.77a.7.7,0,0,0,.55,0c.17-.12.19-.61.2-.8,0-.39,0-.79,0-1.19v-.29a.57.57,0,0,1-.08-.26c0-.23,0-.48,0-.73a2.35,2.35,0,0,0,0-1.14,13.77,13.77,0,0,1-.81-2.28,6.85,6.85,0,0,0-2-3.73,1.1,1.1,0,0,1-.33-.65,1.27,1.27,0,0,0-.07-.21c-.12-.15-.41-.52-.62-.57A1.12,1.12,0,0,0,35.23,22.14Zm1.16,9.91a.47.47,0,0,1-.17,0,.42.42,0,0,1-.27-.31,31.78,31.78,0,0,1-1.1-7.12.45.45,0,0,1,.36-.45,2.28,2.28,0,0,1,1.76.24A2.24,2.24,0,0,1,37.83,26c.19,1.06.4,2.11.61,3.15l.25,1.26a.44.44,0,0,1-.2.47L36.62,32A.39.39,0,0,1,36.39,32.05ZM35.76,25a30.18,30.18,0,0,0,.92,5.91l1.07-.66-.19-.95c-.21-1.05-.42-2.1-.61-3.17a1.42,1.42,0,0,0-.49-1A1,1,0,0,0,35.76,25Z"/></svg>