<svg id="Layer_1" data-name="Layer 1" xmlns="http://www.w3.org/2000/svg" viewBox="0 0 80 75"><defs><style>.cls-1{fill:#2121e8;}.cls-2{fill:#ffe9d7;}</style></defs><path class="cls-1" d="M59.41,55q-1-2.45-2.16-4.85a24.73,24.73,0,0,0-2-3.77A31.87,31.87,0,0,1,51,37.58c-.47-1.45-1-2.89-1.45-4.34a65.31,65.31,0,0,0-2.08-6.39c-1-2.28-2.36-4.4-3.56-6.59a3.18,3.18,0,0,0,.29-.73,4.23,4.23,0,0,1-.24-.88c-1.78-1.13-1.89-3.21-2.73-4.87a.66.66,0,0,1,0-.35c0-.14-.1-.26-.13-.4-.26-.4-.49-.81-.71-1.23-.73-.21-1.17-1-1.62-1.59a28.83,28.83,0,0,0-4.54-5c-.6-.53-1.06-.64-1.66-.09a9.87,9.87,0,0,1-2,1.75,15.77,15.77,0,0,0-5.32,4.37c-.58.74-1,1.6-1.67,2.28-.9.94-2,1.7-2.88,2.64a28.78,28.78,0,0,1-5.84,4.65,30.76,30.76,0,0,0-5.38,3.71A67.65,67.65,0,0,0,4,31a1.33,1.33,0,0,0-.14,1.16c.68,1.43,1.47,2.81,2.19,4.21.21.41.28.89.5,1.29.88,1.63,1.86,3.21,2.7,4.85,1.16,2.3,2.22,4.65,3.35,7q3,6.07,6,12.13c.68,1.37,1.48,2.68,2.16,4,.56,1.12,1,2.3,1.51,3.45s.76,1.14,1.84.61c1.54-.76,3.14-1.39,4.73-2,3.58-1.47,7.22-2.82,10.74-4.4,2.63-1.18,9-3.41,12-3.73.24-.67-3.3-.53-2.8-1a19.56,19.56,0,0,1-3.14.65,12.63,12.63,0,0,0-4.15,1.71,70.48,70.48,0,0,1-12.13,5.26,36.67,36.67,0,0,0-4.4,1.7A1.22,1.22,0,0,1,23,67.21c-1.56-3-3.09-5.95-4.67-8.91A21.27,21.27,0,0,0,17,56.23s-.07,0-.08-.06A22.29,22.29,0,0,0,16,53.76c-.32-.68-.84-1.26-1.23-1.91-.68-1.13-1.36-2.26-2-3.43-1-1.83-1.92-3.67-2.81-5.54-1.29-2.72-2.53-5.46-3.8-8.18-.25-.55-.58-1.06-.79-1.62s0-.91.6-1.12c3-1,6.05-2,9-3.12,1.53-.57,2.95-1.43,4.46-2.09,3-1.34,6.09-2.63,9.13-3.94a9.49,9.49,0,0,0,1.18-.5c2.17-1.3,4.65-1.61,7-2.25,1.11-.3,2.2-.69,3.31-1,.34-.09.9-.09,1.07.11a25.44,25.44,0,0,1,3.22,4.14A58.56,58.56,0,0,1,47.34,30c.61,1.57,1,3.2,1.55,4.81l.28-.09c.85,2.66,1.56,5.39,2.59,8,.7,1.74,1.92,3.27,2.79,4.95,1.1,2.1,2.15,4.22,3.09,6.39.58,1.32.33,1.56-1,2.1l-.95.38,1.75,1,.54-.13C59.69,57,60.07,56.56,59.41,55ZM12.68,23.64a86.39,86.39,0,0,0,8.62-6.83c1.15-1,2-2.26,3.12-3.33,1.84-1.81,3.4-3.92,5.87-5a12.94,12.94,0,0,0,2.12-1.53A.87.87,0,0,1,33.73,7c.62.67,1.32,1.27,2.24,2.14-9.74,6.71-18.76,14-28.82,20.19A16.61,16.61,0,0,1,12.68,23.64Zm6.22,1a23.37,23.37,0,0,1-4.18,1.82c-.06-.11-.13-.22-.19-.34a20.1,20.1,0,0,1,5-3.92C21.32,21,23,19.47,24.74,18.12c.63-.48,1.39-.78,2-1.23C28,16,29.24,15.1,30.5,14.24c1.09-.75,2.21-1.44,3.34-2.14a.8.8,0,0,1,.6-.1c1.27.46,2-.28,2.73-1.32l1.33,2.08C36.38,14,34.37,15,32.42,16.19c-2.38,1.45-4.62,3.15-7.08,4.45A66.78,66.78,0,0,0,18.9,24.67Zm21-6.93c-1.61.44-3.24.84-4.84,1.33s-3.23,1.13-4.85,1.66-3.21,1-4.66,1.5c1.5-1.08,3.09-2.3,4.76-3.38a38.86,38.86,0,0,1,3.75-2c1.49-.76,3-1.47,4.5-2.22a1,1,0,0,1,1.6.63l.41,1.11A.92.92,0,0,1,39.89,17.74Z"/><path class="cls-1" d="M23.1,70.51a1.15,1.15,0,0,1-.37-.06c-.43-.16-.68-.57-.95-1.19l-.45-1.06c-.32-.78-.66-1.6-1-2.37s-.71-1.36-1.08-2-.74-1.33-1.08-2q-3-6.06-6-12.13c-.45-.93-.89-1.86-1.33-2.79-.66-1.39-1.32-2.79-2-4.16-.5-1-1.07-2-1.61-2.92q-.55-1-1.08-1.92a3.91,3.91,0,0,1-.3-.75,5.14,5.14,0,0,0-.2-.55c-.27-.52-.55-1-.83-1.56-.46-.86-.94-1.76-1.37-2.66a1.79,1.79,0,0,1,.2-1.69l1.21-1.53A45.68,45.68,0,0,1,9,24.21,25.64,25.64,0,0,1,13.6,21l.9-.54a27.84,27.84,0,0,0,5.73-4.56c.47-.49,1-.94,1.49-1.37a17.3,17.3,0,0,0,1.4-1.28,8.55,8.55,0,0,0,1-1.28c.22-.32.43-.65.67-1a16.16,16.16,0,0,1,5.5-4.5,5.88,5.88,0,0,0,1.37-1.14l.55-.54a1.55,1.55,0,0,1,2.33.08,29.57,29.57,0,0,1,4.62,5l.17.24c.35.5.71,1,1.17,1.15a.49.49,0,0,1,.31.25c.23.44.45.83.69,1.2a.36.36,0,0,1,.07.17,1.06,1.06,0,0,0,.06.19l.06.15a.65.65,0,0,1,0,.24c.25.58.44,1.14.63,1.69a5.22,5.22,0,0,0,1.9,3,.49.49,0,0,1,.22.34,4.32,4.32,0,0,0,.22.78.55.55,0,0,1,0,.31,4.89,4.89,0,0,1-.21.59l1,1.74a48.11,48.11,0,0,1,2.47,4.66A34.1,34.1,0,0,1,49.37,31c.2.7.4,1.4.63,2.09s.53,1.63.81,2.44c.21.63.43,1.26.64,1.9A30.91,30.91,0,0,0,55.64,46a20,20,0,0,1,1.78,3.23l.29.62c.82,1.71,1.53,3.31,2.17,4.87h0a2.52,2.52,0,0,1,.18,2c-.31.61-1,.88-2,1.1l-.52.14a.53.53,0,0,1-.37-.05l-1.76-1a.53.53,0,0,1-.25-.47.52.52,0,0,1,.32-.43l.94-.38c.31-.13.88-.36,1-.54s0-.43-.24-.91c-.83-1.91-1.81-3.93-3.07-6.35-.34-.65-.74-1.3-1.13-1.92a20.36,20.36,0,0,1-1.68-3.08c-.73-1.84-1.31-3.76-1.87-5.62l-.6-2a.3.3,0,0,1-.16-.05.48.48,0,0,1-.25-.29c-.16-.5-.31-1-.46-1.5-.33-1.09-.67-2.22-1.08-3.28l-.23-.57A51.07,51.07,0,0,0,44,23.58a19.57,19.57,0,0,0-2.43-3.22l-.73-.84h-.08a2.45,2.45,0,0,0-.49.05c-.6.15-1.19.34-1.78.52s-1,.31-1.52.45-1.22.31-1.83.45a17,17,0,0,0-5.07,1.75,4.53,4.53,0,0,1-.85.38l-.39.15-2.53,1.08c-2.2.95-4.41,1.89-6.6,2.86-.61.26-1.2.56-1.8.86a26.36,26.36,0,0,1-2.69,1.24C12.31,30.4,9.3,31.4,6.39,32.36l-.21.07a.61.61,0,0,0-.33.19s0,.09,0,.28a8.88,8.88,0,0,0,.45.94c.11.21.23.43.33.64.43.94.87,1.88,1.3,2.83.82,1.78,1.65,3.57,2.49,5.35s1.64,3.33,2.8,5.53c.6,1.13,1.26,2.24,1.91,3.32.2.33.37.57.54.81a9.35,9.35,0,0,1,.77,1.22,14.76,14.76,0,0,1,.63,1.71l.2.62a.27.27,0,0,1,.07.08l.44.62a12.71,12.71,0,0,1,1,1.49c1.11,2.07,2.19,4.14,3.27,6.22l1.4,2.7c.27.5.51.67,1.21.35a39.38,39.38,0,0,1,4.46-1.72,71.4,71.4,0,0,0,12.05-5.22l.52-.28a11.12,11.12,0,0,1,3.8-1.49A18.5,18.5,0,0,0,48.56,58a.49.49,0,0,1,.57.22l0,.07c.21,0,.54.1.78.13,1,.15,1.71.26,2,.68a.66.66,0,0,1,.06.58.49.49,0,0,1-.42.33c-2.94.32-9.31,2.57-11.79,3.69s-4.8,2-7.15,3c-1.21.47-2.41.95-3.61,1.44l-.73.3c-1.32.54-2.68,1.09-4,1.73A2.94,2.94,0,0,1,23.1,70.51ZM16.78,56.84c.74,1.5,1.49,3,2.23,4.49.34.67.7,1.32,1.06,2s.76,1.37,1.11,2.08.74,1.63,1.08,2.43c.14.35.29.7.44,1,.25.58.36.64.38.65s.22,0,.78-.29c1.32-.65,2.7-1.21,4-1.76l.73-.29c1.2-.5,2.41-1,3.62-1.45,2.34-.93,4.77-1.9,7.11-2.95a67.71,67.71,0,0,1,10.14-3.41,2.82,2.82,0,0,1-1.06-.3,17.94,17.94,0,0,1-2.81.55A10.31,10.31,0,0,0,42.18,61l-.54.28a70.74,70.74,0,0,1-12.21,5.29,38.45,38.45,0,0,0-4.35,1.69,1.72,1.72,0,0,1-2.51-.81l-1.4-2.7c-1.08-2.07-2.16-4.14-3.26-6.21a13.51,13.51,0,0,0-.9-1.38Zm40.07-.2.69.4.34-.09c.49-.11,1.14-.3,1.29-.58s0-.61-.22-1.23c-.63-1.54-1.33-3.12-2.15-4.82l-.29-.62a19.44,19.44,0,0,0-1.68-3.08A29.54,29.54,0,0,1,51.31,40c.28.86.59,1.72.92,2.55a18.57,18.57,0,0,0,1.59,2.92c.4.64.82,1.3,1.18,2,1.27,2.44,2.26,4.48,3.1,6.42a2.19,2.19,0,0,1,.25,1.67C58.13,56.08,57.59,56.34,56.85,56.64Zm-42.11-4c.47,1,.95,1.95,1.43,2.93a.06.06,0,0,0,0,0A12.44,12.44,0,0,0,15.57,54a7,7,0,0,0-.67-1.07Zm34.5-18.41.1,0-.3-.9q-.33-1.05-.63-2.13A34.14,34.14,0,0,0,47,27.05a49.71,49.71,0,0,0-2.42-4.56c-.38-.66-.77-1.32-1.13-2a.46.46,0,0,1,0-.49,3.24,3.24,0,0,0,.19-.47,5.69,5.69,0,0,1-.16-.59,6.29,6.29,0,0,1-2.13-3.42,10.93,10.93,0,0,0-.6-1.52,1.3,1.3,0,0,1-.09-.52v0a2.25,2.25,0,0,1-.08-.24,11.16,11.16,0,0,1-.6-1,3.71,3.71,0,0,1-1.52-1.47l-.15-.23a28.82,28.82,0,0,0-4.47-4.87c-.51-.45-.68-.38-1-.09s-.35.33-.52.51A6.7,6.7,0,0,1,30.7,7.37a15.14,15.14,0,0,0-5.16,4.22A14.89,14.89,0,0,1,30.08,8a6.23,6.23,0,0,0,1.34-.93l.7-.55a1.36,1.36,0,0,1,2,.15c.41.44.87.86,1.4,1.34l.82.77a.52.52,0,0,1,.16.41.49.49,0,0,1-.22.37c-2,1.39-4,2.82-6,4.25,1.09-.75,2.23-1.45,3.33-2.14a1.32,1.32,0,0,1,1-.14c.9.33,1.39-.09,2.16-1.15a.53.53,0,0,1,.42-.2.48.48,0,0,1,.4.23l1.33,2.08a.54.54,0,0,1,.06.39.47.47,0,0,1-.24.31c-.66.38-1.31.73-2,1.09-1.43.79-2.78,1.53-4.11,2.34-.92.55-1.83,1.16-2.72,1.75a48.74,48.74,0,0,1-4.39,2.71,65.44,65.44,0,0,0-6.39,4h0a13,13,0,0,1-2.95,1.37c-.45.16-.89.32-1.32.5a.49.49,0,0,1-.62-.21l-.2-.34a.5.5,0,0,1,.05-.56,10.7,10.7,0,0,1,1.36-1.41c-2.64,1.83-5.33,3.63-8.09,5.34a.5.5,0,0,1-.61-.07.49.49,0,0,1-.08-.61,16.9,16.9,0,0,1,5.69-5.87c1.1-.71,2.17-1.49,3.21-2.31l-.6.37-.9.55a24.74,24.74,0,0,0-4.39,3.1,45,45,0,0,0-4.13,4.8L4.38,31.27a1,1,0,0,0-.08.64c.2.42.41.83.62,1.25a1.33,1.33,0,0,1,0-1,1.44,1.44,0,0,1,.91-.71l.22-.07c2.9-1,5.89-1.95,8.79-3a23.24,23.24,0,0,0,2.59-1.19c.61-.31,1.22-.61,1.84-.89,2.2-1,4.41-1.91,6.62-2.86l2.53-1.08.43-.17a3.57,3.57,0,0,0,.68-.3A18.19,18.19,0,0,1,34.92,20c.61-.14,1.21-.28,1.8-.44l1.49-.44c.6-.19,1.21-.38,1.83-.54.38-.09,1.2-.16,1.57.28l.72.82a19.79,19.79,0,0,1,2.56,3.4,53.68,53.68,0,0,1,2.7,6.19l.22.57c.42,1.1.77,2.24,1.1,3.35ZM33.06,7.16a.68.68,0,0,0-.35.17c-.22.16-.44.34-.65.52a7.5,7.5,0,0,1-1.57,1.07A14.43,14.43,0,0,0,26,12.53c-.41.44-.83.88-1.26,1.31s-.86.92-1.27,1.39a16.54,16.54,0,0,1-1.88,2l-1.35,1.16A70.36,70.36,0,0,1,13,24.06h0a16.31,16.31,0,0,0-4,3.56c5.51-3.54,10.8-7.4,15.94-11.15,3.34-2.44,6.79-5,10.29-7.38l-.36-.34c-.54-.5-1-.93-1.45-1.39C33.25,7.23,33.16,7.16,33.06,7.16Zm1.21,5.31a.51.51,0,0,0-.17,0c-1.1.69-2.24,1.39-3.32,2.13-.63.43-1.25.88-1.86,1.33s-1.23.89-1.86,1.32c-.31.21-.64.4-1,.58a7.72,7.72,0,0,0-1.05.64c-.66.5-1.3,1-1.95,1.56a38.87,38.87,0,0,1-3.34,2.57l-.77.5a22.07,22.07,0,0,0-3.23,2.41l.13,0a12.29,12.29,0,0,0,2.74-1.25h0a66.52,66.52,0,0,1,6.49-4.07,48.65,48.65,0,0,0,4.3-2.65c.89-.59,1.82-1.21,2.75-1.78,1.35-.82,2.71-1.56,4.14-2.36l1.49-.82-.66-1A2.39,2.39,0,0,1,34.27,12.47ZM18.9,24.67h0Zm-6.22-1h0Zm7.58-2.58-.83.6C19.71,21.46,20,21.27,20.26,21.06Zm5.28,1.67a.51.51,0,0,1-.45-.28.5.5,0,0,1,.16-.63l1.33-1C27.69,20,28.83,19.2,30,18.43a32.45,32.45,0,0,1,3.15-1.74l.65-.33c.8-.41,1.61-.8,2.42-1.2s1.39-.67,2.08-1A1.65,1.65,0,0,1,39.68,14a1.7,1.7,0,0,1,.93,1c.09.2.16.41.24.62s.11.33.18.49a1.64,1.64,0,0,1,0,1.32,1.54,1.54,0,0,1-1,.75h0l-1.72.46c-1,.27-2.08.55-3.11.87s-1.9.63-2.85,1l-2,.69c-1.12.37-2.24.72-3.31,1.06l-1.36.43A.4.4,0,0,1,25.54,22.73ZM39.21,14.9a1.13,1.13,0,0,0-.43.13l-2.09,1c-.8.39-1.61.78-2.41,1.19l-.65.33a32.53,32.53,0,0,0-3.06,1.69c-.76.49-1.51,1-2.25,1.55L30,20.26l2-.69c1-.34,1.91-.67,2.88-1S37,18,38.06,17.71l1.7-.46h0c.12,0,.33-.1.39-.23a.74.74,0,0,0,0-.51c-.07-.17-.13-.34-.19-.51s-.15-.4-.23-.59a.85.85,0,0,0-.36-.49Zm.68,2.84h0Z"/><path class="cls-1" d="M29.77,51.5c-.53.4-1,.71-1.37,1a3.82,3.82,0,0,1-3.28.61c-.76-.14-.93-.76-.68-1.43.41-1.11.88-2.19,1.33-3.29l.42-1-3.45-.6c-.68-.13-1.38-.42-1.31-1.16,0-.42.58-.92,1-1.16.94-.49,1.95-.84,3.11-1.32-.86-.78-1.7-1.52-2.5-2.29-1.1-1.06-1-1.55.42-2.14a6.65,6.65,0,0,1,1.34-.38c.42-.08,2,.65,2.51.61,0-.7-1.13-2.11-1.15-2.78-.05-1,.53-1.42,1.32-1.72a2,2,0,0,1,2.19.38,8.35,8.35,0,0,1,2.22,4.51c.18.73.33,1.47.49,2.18,1.38-.9,2.72-1.82,4.1-2.68a2.73,2.73,0,0,1,3.56.54,1.91,1.91,0,0,1-.48,2.81c-1.4.78-2.84,1.48-4.26,2.22a7.27,7.27,0,0,0-.61.44c.85.41,1.55.81,2.29,1.09a5.21,5.21,0,0,1,3,3.84,1.4,1.4,0,0,1-2,1.53c-1.59-.6-3.11-1.39-4.88-2.21a8.2,8.2,0,0,1,.55,1.8,23.23,23.23,0,0,1,0,4,1.84,1.84,0,0,1-2,1.61c-1.05-.26-1.23-1.2-1.39-2.08-.11-.6-.07-1.21-.16-1.81A6.47,6.47,0,0,0,29.77,51.5Zm.9-10.45a8.62,8.62,0,0,0-.26-1.69,19.8,19.8,0,0,0-1.25-2.82c-.15-.28-.72-.32-1.1-.47a2.82,2.82,0,0,0-.18,1.08A5.63,5.63,0,0,0,30.67,41.05ZM26.37,51.4c1.27.17,3.14-1.39,3.43-2.82a4,4,0,0,0,0-.91,2.5,2.5,0,0,0-1,.09A5,5,0,0,0,26.37,51.4ZM39,40.57c-1.47-.89-4.08.48-5.46,2.74A16.9,16.9,0,0,0,39,40.57Zm-6,5.71a11,11,0,0,0,5,3.25C37.05,47.42,35.54,46.45,33,46.28Zm-1.63,4c-.46,1.8,0,4.34.86,4.68C33.16,52.94,32.8,51,31.37,50.28Zm-2.69-7.12c-.66-2.08-2.12-3.21-3.87-3C25.17,43.29,27.45,42.21,28.68,43.16Z"/><path class="cls-1" d="M31.92,57.06a1.5,1.5,0,0,1-.37,0c-1.38-.35-1.61-1.63-1.76-2.48a7.75,7.75,0,0,1-.1-1.06,6.83,6.83,0,0,0-.06-.78,2.24,2.24,0,0,0-.1-.39c-.3.22-.56.41-.82.62a4.31,4.31,0,0,1-3.68.71A1.42,1.42,0,0,1,24,53a1.68,1.68,0,0,1,0-1.41c.29-.8.62-1.58.94-2.36l.58-1.39L25,47.71l-2.37-.41c-1.6-.29-1.76-1.19-1.71-1.7a2.36,2.36,0,0,1,1.28-1.55,21.1,21.1,0,0,1,2.15-.94l.26-.1-.19-.17c-.59-.54-1.17-1.06-1.73-1.6s-1-1.06-.88-1.69.77-1,1.46-1.27a7.56,7.56,0,0,1,1.43-.41,3.91,3.91,0,0,1,1.52.32l.35.11c-.09-.19-.2-.38-.29-.54a4,4,0,0,1-.62-1.55A2.2,2.2,0,0,1,27.33,34a2.48,2.48,0,0,1,2.69.48,8.78,8.78,0,0,1,2.37,4.76c.12.5.23,1,.34,1.48l.61-.4c1-.64,1.92-1.28,2.9-1.89a3.22,3.22,0,0,1,4.25.7,2.76,2.76,0,0,1,.4,2.15,2.12,2.12,0,0,1-1.06,1.37c-.94.52-1.89,1-2.84,1.49l-1.3.66h0a15.54,15.54,0,0,0,1.46.68,5.69,5.69,0,0,1,3.29,4.29,2.06,2.06,0,0,1-.79,1.83,1.94,1.94,0,0,1-1.85.19c-1.12-.43-2.2-.94-3.34-1.48-.15-.08-.31-.16-.48-.23a2.72,2.72,0,0,1,.17.8,24.25,24.25,0,0,1,0,4.09,2.47,2.47,0,0,1-1.07,1.69A2,2,0,0,1,31.92,57.06ZM29.77,51l.16,0a.5.5,0,0,1,.32.33c.05.14.09.28.14.4a4.19,4.19,0,0,1,.23.82c0,.28.05.57.07.86a7,7,0,0,0,.08.93c.17.93.32,1.51,1,1.69a1,1,0,0,0,.72-.2,1.47,1.47,0,0,0,.63-1,14.56,14.56,0,0,0,.1-2.1,5.81,5.81,0,0,1-.56,2.4.49.49,0,0,1-.64.26c-1.2-.48-1.65-3.34-1.17-5.26a.49.49,0,0,1,.28-.33.47.47,0,0,1,.43,0,3.11,3.11,0,0,1,1.65,2.84c0-.56,0-1.13-.07-1.73a3.32,3.32,0,0,0-.29-1c-.08-.2-.16-.42-.23-.65a.5.5,0,0,1,.14-.53.49.49,0,0,1,.54-.08l1.58.74c1.13.54,2.19,1,3.27,1.45a.89.89,0,0,0,.9-.06,1.1,1.1,0,0,0,.38-1,4.78,4.78,0,0,0-2.64-3.41,15.49,15.49,0,0,1-1.56-.72l-.77-.38a.51.51,0,0,1-.08-.86l.29-.21a2.13,2.13,0,0,1,.39-.27l1.44-.74c.95-.47,1.89-1,2.81-1.46a1.13,1.13,0,0,0,.58-.74,1.76,1.76,0,0,0-.28-1.37,2.24,2.24,0,0,0-2.87-.39c-1,.6-1.92,1.24-2.88,1.87L32.67,42a.5.5,0,0,1-.46,0,.54.54,0,0,1-.3-.36L31.76,41c-.11-.5-.22-1-.34-1.49-.44-1.77-.87-3.2-2.06-4.27a1.52,1.52,0,0,0-1.68-.29c-.76.29-1,.63-1,1.24a4,4,0,0,0,.5,1.11,4,4,0,0,1,.65,1.7.51.51,0,0,1-.45.49,4.62,4.62,0,0,1-1.45-.33,5.7,5.7,0,0,0-1-.28,6.32,6.32,0,0,0-1.22.34c-.81.34-.85.52-.85.53s0,.19.58.79c.46.43.92.86,1.39,1.28a3.84,3.84,0,0,1-.47-1.59.5.5,0,0,1,.44-.55c2-.23,3.66,1.05,4.39,3.35a.49.49,0,0,1-.19.56.48.48,0,0,1-.59,0,3,3,0,0,0-1.22-.4,5.2,5.2,0,0,1-1.25-.34.5.5,0,0,1,.15.45.51.51,0,0,1-.3.38l-1,.4a20.47,20.47,0,0,0-2,.89,1.71,1.71,0,0,0-.76.76c0,.13,0,.46.9.62l2.36.42,1.09.19a.51.51,0,0,1,.35.25.52.52,0,0,1,0,.44l-.81,2c-.32.77-.64,1.55-.94,2.33a.71.71,0,0,0,0,.57.44.44,0,0,0,.33.19,3.32,3.32,0,0,0,2.88-.51c.28-.23.57-.44.89-.68l.49-.37A.57.57,0,0,1,29.77,51Zm1.95.19a6.58,6.58,0,0,0,.34,2.8A3,3,0,0,0,31.72,51.19ZM25.4,40.64c.29,1.23,1,1.36,1.93,1.53l.41.07A3,3,0,0,0,25.4,40.64Zm1.15,11.28-.25,0a.48.48,0,0,1-.34-.21.49.49,0,0,1-.08-.39,5.48,5.48,0,0,1,2.66-4,1.68,1.68,0,0,1,.92-.15h.29a.53.53,0,0,1,.37.13.46.46,0,0,1,.16.35,2.46,2.46,0,0,0,0,.26,2.5,2.5,0,0,1,0,.77A4.5,4.5,0,0,1,26.55,51.92Zm2.71-3.75a.76.76,0,0,0-.24,0,4.28,4.28,0,0,0-2,2.65,3.73,3.73,0,0,0,2.29-2.36,1.05,1.05,0,0,0,0-.31ZM38,50a.51.51,0,0,1-.17,0,11.5,11.5,0,0,1-5.23-3.4.5.5,0,0,1,0-.55.51.51,0,0,1,.47-.27,5.77,5.77,0,0,1,5.44,3.55A.5.5,0,0,1,38,50Zm-3.62-3a9.72,9.72,0,0,0,2.43,1.51A4.25,4.25,0,0,0,34.39,47Zm-.81-3.18a.5.5,0,0,1-.42-.76c1.57-2.58,4.44-3.94,6.14-2.91a.47.47,0,0,1,.24.38.51.51,0,0,1-.17.42,14.58,14.58,0,0,1-4.83,2.54l-.78.3A.52.52,0,0,1,33.58,43.81Zm4.36-3a4.54,4.54,0,0,0-2.82,1.4A13.48,13.48,0,0,0,37.94,40.79Zm-7.27.76a.55.55,0,0,1-.25-.07,6.14,6.14,0,0,1-3-4.22,2,2,0,0,1,.1-1c0-.1.06-.2.08-.3a.51.51,0,0,1,.25-.34.54.54,0,0,1,.43,0,2.75,2.75,0,0,0,.34.1,1.51,1.51,0,0,1,1,.59,20.86,20.86,0,0,1,1.28,2.89,4.6,4.6,0,0,1,.21,1.15c0,.2,0,.41.08.64a.53.53,0,0,1-.22.49A.47.47,0,0,1,30.67,41.55Zm-2.26-4.86a1.32,1.32,0,0,0-.05.35,5.25,5.25,0,0,0,1.69,3,2.71,2.71,0,0,0-.11-.47,18.94,18.94,0,0,0-1.21-2.75Z"/><path class="cls-1" d="M74.84,64.2a3.83,3.83,0,0,1-.73.22c-.91.11-1.83.17-2.74.28a3,3,0,0,1-2.55-.58A4.24,4.24,0,0,0,67,63.41c-1.13-.23-2.29-.31-3.41-.55-.85-.18-1.67-.53-2.5-.78-2.29-.69-4.6-1.33-6.87-2.07-1.94-.63-3.84-1.37-5.77-2a23.17,23.17,0,0,0-2.3-.66,10.2,10.2,0,0,0-1.24-.05,2.2,2.2,0,0,1-1.73-.7c-.11-.16-.32-.24-.47-.37a5.62,5.62,0,0,1-1-.92.89.89,0,0,1,.68-1.49,11.32,11.32,0,0,1,3,.2c1.43.35,2.79.93,4.2,1.37.88.27,1.79.45,2.68.71s2,.61,2.92.93c1.23.41,2.46.81,3.66,1.28.77.29,1.47.77,2.23,1.06a28,28,0,0,0,3.32,1.08c.83.2,1.71.16,2.56.3s1.69.39,2.53.58a3,3,0,0,0,.77.12,3.36,3.36,0,0,1,2.66,1.21,5.91,5.91,0,0,0,1,.72c.31.2.64.38,1,.57ZM42.27,54.68l.69.85c.84,1,2.15.92,3.23,1.33a15,15,0,0,0,2,.5c.32.06.64.14,1,.23,1.26.39,2.5.87,3.75,1.29l.69.23c2,.62,3.92,1.19,5.87,1.78,1.18.35,2.35.75,3.54,1,.82.21,1.68.27,2.51.44.35.07.61.13.69-.34s-.15-.6-.54-.62c-.22,0-.45,0-.67-.08a27,27,0,0,1-5.44-1.89c-1.4-.59-2.83-1.13-4.26-1.65-.93-.33-1.86-.64-2.79-.95l-1.43-.46L49.73,56c-1.24-.36-2.49-.7-3.74-1A6.9,6.9,0,0,0,42.27,54.68Zm30.61,9a5.86,5.86,0,0,0-4.06-1.55c1.36.55,2,.66,2,.82s-.28.23-.52.21c-.59,0-1.68-.12-1.68-.09l1.61.78Z"/><path class="cls-1" d="M70.61,65.25a3.05,3.05,0,0,1-2.11-.75,3.89,3.89,0,0,0-1.63-.6c-.55-.11-1.09-.19-1.64-.26s-1.19-.16-1.78-.29a12.48,12.48,0,0,1-1.64-.5l-.89-.29-2.4-.71c-1.5-.44-3-.88-4.49-1.36-1.17-.38-2.35-.81-3.49-1.23l-2.29-.82A20,20,0,0,0,46,57.8a2.3,2.3,0,0,0-.6,0,5.56,5.56,0,0,1-.58,0,2.65,2.65,0,0,1-2.07-.9l-.16-.11a2.27,2.27,0,0,1-.25-.18l-.29-.24a3.91,3.91,0,0,1-.81-.77A1.48,1.48,0,0,1,41.08,54a1.37,1.37,0,0,1,1.24-.75,11.87,11.87,0,0,1,3.11.21c.91.22,1.79.54,2.65.84.52.19,1.05.38,1.58.54s.94.26,1.42.38.84.21,1.25.33c1,.29,2,.61,2.94.94l.7.23c1,.33,2,.67,3,1a12.42,12.42,0,0,1,1.16.55,8.75,8.75,0,0,0,1.07.52,28.41,28.41,0,0,0,3.25,1.05,8.41,8.41,0,0,0,1.37.17,11.12,11.12,0,0,1,1.16.13c.58.09,1.15.24,1.71.38l.85.2.13,0a2.29,2.29,0,0,0,.51.09,3.79,3.79,0,0,1,3,1.35,3,3,0,0,0,.65.47l.29.18.66.39.29.17a.49.49,0,0,1,.24.42v.29a.5.5,0,0,1-.35.49l-.21.07a2.58,2.58,0,0,1-.61.17l-1.37.13-1.37.14A7.36,7.36,0,0,1,70.61,65.25Zm2.77-1.63a.6.6,0,0,1,0,.26.47.47,0,0,1-.07.12l.61-.06-.29-.18Zm-2.13-.43a.61.61,0,0,1,0,.12l.24,0Zm-4.91-.4.73.13a10.37,10.37,0,0,1,1,.26.37.37,0,0,1,0-.23c.06-.23.09-.34.47-.36a.5.5,0,0,1,.15-.93h0l-.35-.08c-.54-.14-1.08-.27-1.63-.37l-.36-.05a1.85,1.85,0,0,1,.14.14,1.06,1.06,0,0,1,.16.84,1,1,0,0,1-.38.66ZM71,62c.21.08.42.16.62.26A2.4,2.4,0,0,0,71,62ZM43.2,55l.15.18a3.12,3.12,0,0,0,1.88.87,8,8,0,0,1,1.14.31,9.36,9.36,0,0,0,1.58.4l.37.08c.34.07.68.14,1,.24.8.25,1.59.53,2.39.81l1.38.49.69.22c1.35.43,2.72.84,4.09,1.25l1.77.53,1,.32c.81.25,1.64.51,2.46.72a7.88,7.88,0,0,0,.87.18,29.83,29.83,0,0,1-4.28-1.57l-.36-.15c-1.29-.54-2.67-1.08-4.23-1.63-.92-.33-1.85-.65-2.78-1L51,56.87l-1.37-.4c-1.13-.33-2.27-.64-3.41-.95l-.32-.09A7.81,7.81,0,0,0,43.2,55Z"/><path class="cls-2" d="M22.19,45.33c.86,1,3.29,1,4.45.1a4.35,4.35,0,0,0,.57-.7c-.27-.21-.51-.53-.81-.59A5,5,0,0,0,22.19,45.33Z"/><path class="cls-1" d="M24.41,46.57a3.54,3.54,0,0,1-2.59-.91l-.36-.4.42-.33a5.53,5.53,0,0,1,4.62-1.28,1.72,1.72,0,0,1,.8.49,1.68,1.68,0,0,0,.21.18l.41.31L27.6,45l-.15.21a2.72,2.72,0,0,1-.51.58A4.25,4.25,0,0,1,24.41,46.57Zm-1.36-1.24A3.77,3.77,0,0,0,26.33,45a1.29,1.29,0,0,0,.21-.24.83.83,0,0,0-.24-.17A4.27,4.27,0,0,0,23.05,45.33Z"/></svg>