<svg id="Layer_1" data-name="Layer 1" xmlns="http://www.w3.org/2000/svg" viewBox="0 0 40 14"><defs><style>.cls-1{fill:#293b5c;}</style></defs><path class="cls-1" d="M.22,9c.93,0,1.14-.25,1.41-1.75l.86-4.88C2.76.89,2.64.65,1.71.65l0-.31H7l-.25,2H6.48V2C6.46,1.24,6.4.89,5.37.89H3.72L3.12,4.3h.55C4.8,4.3,5,4.12,5.23,2.86h.24l-.6,3.43H4.63C4.86,5,4.69,4.85,3.57,4.85H3L2.64,7c-.27,1.5-.17,1.74.76,1.74h1c1,0,1.22-.34,1.5-1.14L6,7.34h.24l-.45,2H.16Z"/><path class="cls-1" d="M10.36,9.59c-.93,0-1.36-.61-1.29-1a.41.41,0,0,1,.42-.34c.56,0,0,.88,1,.88a.86.86,0,0,0,.81-.72,1.31,1.31,0,0,0-.43-1.05l-.54-.52a1.57,1.57,0,0,1,1.14-2.73c.81,0,1.06.54,1,.88a.34.34,0,0,1-.33.3c-.53,0-.08-.78-.86-.78a.8.8,0,0,0-.75.66c-.07.39.09.63.45,1l.54.51a1.62,1.62,0,0,1,.5,1.4A1.8,1.8,0,0,1,10.36,9.59Z"/><path class="cls-1" d="M17,1.94h.83l-.41,2.4a2.13,2.13,0,0,1,1-.25c1.26,0,2.07,1.23,1.8,2.74S19,9.59,17.7,9.59a1.38,1.38,0,0,1-1.13-.69L16.2,11c-.27,1.5-.12,1.74.88,1.74l-.06.32H13.8l.07-.32c1,0,1.22-.24,1.49-1.74l1-5.41a8.4,8.4,0,0,1-1.13,1.72l-.25-.18a10.23,10.23,0,0,0,1.9-4.53Zm1.37,2.63a1.85,1.85,0,0,0-1.07.37L16.81,7.6c-.15.81.27,1.39.83,1.39.85,0,1.41-1,1.62-2.16S19.21,4.57,18.33,4.57Z"/><path class="cls-1" d="M24.06.77l0-.31L25.89.08l-1.44,8.3c-.06.34-.05.61.16.61a1.32,1.32,0,0,0,.6-.33V9a1.68,1.68,0,0,1-1,.52c-.52,0-.73-.45-.64-1l1.05-6C24.9,1,24.81.77,24.06.77Z"/><path class="cls-1" d="M30.12,9a1.23,1.23,0,0,0,.6-.33V9a1.66,1.66,0,0,1-1,.52c-.52,0-.75-.45-.64-1l.57-3.18c.06-.36,0-.63-.17-.63a1.18,1.18,0,0,0-.6.35V4.66a1.57,1.57,0,0,1,1-.51c.52,0,.75.43.64,1L30,8.38C29.89,8.72,29.92,9,30.12,9ZM32,2.33l-2.22.89-.05-.11,1.62-1.3a1.19,1.19,0,0,1,.72-.36.35.35,0,0,1,.36.43C32.4,2.11,32.14,2.27,32,2.33Z"/><path class="cls-1" d="M34.29,9.34l.72-4c.06-.36,0-.63-.17-.63a1.18,1.18,0,0,0-.6.35V4.66a1.57,1.57,0,0,1,1-.51c.52,0,.75.43.64,1l0,.14a2.24,2.24,0,0,1,1.74-1.23c1,0,1.29,1,1.07,2.23l-.35,2.06c-.06.34,0,.61.17.61a1.37,1.37,0,0,0,.6-.33V9a1.68,1.68,0,0,1-1,.52c-.53,0-.74-.45-.65-1l.36-2.08c.18-1,.09-1.61-.63-1.61-.49,0-1.35.75-1.62,2.31l-.4,2.24Z"/></svg>