<svg id="Layer_1" data-name="Layer 1" xmlns="http://www.w3.org/2000/svg" viewBox="0 0 59 10"><defs><style>.cls-1{fill:#293b5c;}</style></defs><path class="cls-1" d="M3.47,4.3H4c1.13,0,1.35-.18,1.56-1.44h.24l-.6,3.43H5C5.21,5,5,4.85,3.92,4.85H3.36L2.94,7.27C2.69,8.77,2.78,9,3.72,9l-.06.32H.51L.57,9C1.5,9,1.71,8.77,2,7.27l.86-4.88C3.11.89,3,.65,2.06.65l0-.31H7.5l-.24,2H7V2C7,1.24,7,.89,5.91.89H4.07Z"/><path class="cls-1" d="M10.33,9.59c-1.26,0-1.82-1.24-1.56-2.76a3.19,3.19,0,0,1,2.77-2.74,1.79,1.79,0,0,1,1,.25h.82l-.71,4c-.05.34,0,.61.17.61a1.37,1.37,0,0,0,.6-.33V9a1.68,1.68,0,0,1-1,.52c-.42,0-.63-.27-.66-.69A2.07,2.07,0,0,1,10.33,9.59ZM12.4,4.94a1.29,1.29,0,0,0-.94-.37c-.88,0-1.51,1.06-1.72,2.26S9.74,9,10.6,9A1.58,1.58,0,0,0,11.93,7.6Z"/><path class="cls-1" d="M18.21,9.59C17,9.59,16.43,8.47,16.7,7,17,5.2,18.29,4.09,19.19,4.09s1.24.63,1.18,1a.51.51,0,0,1-.49.49c-.62,0-.17-1-.77-1s-1.26.79-1.54,2.4c-.21,1.21.12,2,1.05,2a2,2,0,0,0,1.32-.69l.15.3A2.61,2.61,0,0,1,18.21,9.59Z"/><path class="cls-1" d="M25.34,9a2.41,2.41,0,0,0,1.37-.69l.13.3a2.76,2.76,0,0,1-1.89,1c-1.24,0-1.86-1.24-1.6-2.76s1.53-2.74,2.57-2.74A1,1,0,0,1,27,5.38c-.14.78-1,1.72-2.86,2.11C24.14,8.41,24.52,9,25.34,9Zm.93-3.6c.06-.39-.07-.7-.45-.7-.69,0-1.35.81-1.59,2.16a2.4,2.4,0,0,0,0,.24A2.57,2.57,0,0,0,26.27,5.39Z"/><path class="cls-1" d="M33.24,4.09c1.26,0,1.83,1.23,1.55,2.74A3.17,3.17,0,0,1,32,9.59a1.57,1.57,0,0,1-1.48-1.95l.9-5.11C31.7,1,31.61.77,30.86.77l0-.31L32.69.08l-.81,4.68A2.15,2.15,0,0,1,33.24,4.09Zm-.25.6a1.58,1.58,0,0,0-1.35,1.38L31.38,7.6c-.18,1,.3,1.44.78,1.44.87,0,1.46-1,1.67-2.21S33.83,4.69,33,4.69Z"/><path class="cls-1" d="M39.86,9.59c-1.26,0-2.06-1.24-1.8-2.76a3.19,3.19,0,0,1,2.77-2.74c1.25,0,2,1.23,1.77,2.74A3.18,3.18,0,0,1,39.86,9.59Zm.9-5c-.9,0-1.5,1-1.73,2.28s0,2.3.9,2.3,1.49-1,1.71-2.3S41.64,4.55,40.76,4.55Z"/><path class="cls-1" d="M47.79,9.59c-1.26,0-2-1.24-1.8-2.76a3.21,3.21,0,0,1,2.78-2.74c1.24,0,2,1.23,1.77,2.74A3.18,3.18,0,0,1,47.79,9.59Zm.9-5c-.9,0-1.5,1-1.72,2.28s0,2.3.9,2.3,1.48-1,1.71-2.3S49.58,4.55,48.69,4.55Z"/><path class="cls-1" d="M54.71,9.34h-.84l1.2-6.81C55.34,1,55.25.77,54.5.77l0-.31L56.33.08l-1,6c.9-1.2,1.53-2,2.37-2a.78.78,0,0,1,.85.91.45.45,0,0,1-.45.41c-.55,0-.18-.72-.75-.72-.36,0-.76.28-1.65,1.35A1.51,1.51,0,0,1,56,6c.63,0,.85.21.94.88l.24,1.46c.06.46.15.61.35.61a1.23,1.23,0,0,0,.6-.33V9a1.73,1.73,0,0,1-1,.52c-.52,0-.81-.4-.84-1L56.22,7c0-.4-.06-.63-.39-.63a1.22,1.22,0,0,0-.66.32Z"/></svg>