<svg id="Layer_1" data-name="Layer 1" xmlns="http://www.w3.org/2000/svg" viewBox="0 0 44 44"><defs><style>.cls-1{fill:#293b5c;}</style></defs><path class="cls-1" d="M2.6,41A6.2,6.2,0,0,1,6.6,39a10.57,10.57,0,0,0,4-.86,15.23,15.23,0,0,1,5.48-1.43L20,36.25c.63-.07.81-.26.73-.81-.14-.93-.28-1.86-.39-2.79a54.83,54.83,0,0,1-.68-6.41,31.16,31.16,0,0,0-.34-4.31c-.19-1.28-.31-2.57-.46-3.85l-.18-1.7a13.31,13.31,0,0,0-.93,1.9c-.29.67-.59,1.35-.93,2a1.24,1.24,0,0,1-1.56.47c-.38-.18-.73-.42-1.06-.61a5.63,5.63,0,0,1,1.35-3.53c1-1.31,2.1-2.49,3.13-3.76a4.85,4.85,0,0,0,.85-1.45c.35-1.1.6-2.24.86-3.37a12.12,12.12,0,0,0,.14-1.37c.09-.22.22-.57.37-.92a10.74,10.74,0,0,1,.59-1.39,9.16,9.16,0,0,1,2.33-2.56,1.8,1.8,0,0,1,1.74-.48,13.22,13.22,0,0,1,2.9,1.2A8.34,8.34,0,0,1,30.2,4.43a14.34,14.34,0,0,1,1.1,1.65c.41.7.77,1.44,1.17,2.16.11.2-.13.58.34.61.28,0,.55.18.84.2a11.1,11.1,0,0,1,1.92.07A9.1,9.1,0,0,1,39,10.39a19.06,19.06,0,0,0,2.77,1.43c.36.19.65.46.42.85a2.45,2.45,0,0,1-2.77,1,15.94,15.94,0,0,0-1.94-.75c.57,1,1.07,1.92,1.62,2.83.17.28.46.49.1.84s-.37.59-.63.73a2.69,2.69,0,0,1-2.68-.75c-.68-.87-1.44-1.67-2.17-2.51l-.15.11A32,32,0,0,0,34,17.41a5,5,0,0,1-.26,2.39,1.45,1.45,0,0,1-.91.75,1,1,0,0,1-1.17-.6c-.42-.82-.82-1.66-1.26-2.56a7,7,0,0,1-.6,1,5.88,5.88,0,0,1-1.15,1.08.84.84,0,0,1-.81-.11,3,3,0,0,1-.74-1.4,12.24,12.24,0,0,1,.13-2.33c0-.29,0-.58.08-1-.68.36-1.23.68-1.81.95-.2.09-.6.16-.67.07a1,1,0,0,1-.22-.81,9,9,0,0,1,1.15-2.22,8.93,8.93,0,0,1,4.76-2.86c.86-.23,1.18-.54.73-1.46s-1.07-2-1.63-2.93a6.4,6.4,0,0,0-3-2.63,2.14,2.14,0,0,0-2.82.38.72.72,0,0,1-.25.16,3.55,3.55,0,0,0-1.7,2.16c-.34,1.1-.57,2.23-.84,3.35-.21.87-.43,1.75-.6,2.63-.08.36,0,.77,0,1.13a13.92,13.92,0,0,0-.54,1.7c-.12,1.14-.12,2.29-.15,3.43a17.32,17.32,0,0,0,0,2c.1.91.31,1.81.42,2.72.07.56,0,1.13.05,1.69.07.74.19,1.47.27,2.22.1.92.13,1.86.27,2.78.23,1.62.53,3.22.79,4.84.12.73.2,1.47.29,2.12a22.37,22.37,0,0,1,3.4.62,7.51,7.51,0,0,0,4.86.12,3.44,3.44,0,0,1,3.72,1.39,9.42,9.42,0,0,0,1.54,1.48c.25.23.53.42.76.6A1.66,1.66,0,0,1,34,41.47a10.27,10.27,0,0,0-3.58.24c-1.64.33-3.29.67-4.94.95a6.51,6.51,0,0,1-1.65,0c-1.58-.17-3.14-.41-4.72-.57-1.21-.13-2.42-.2-3.64-.27s-2.48-.17-3.72-.19c-.7,0-1.39.13-2.09.17-.21,0-.43-.15-.64-.13-.74.07-1.47.21-2.2.27-1.35.11-2.69.19-4,.29-.55,0-.87-.18-.86-.74A6,6,0,0,0,2.6,41Zm3.92,0c1.8-.1,3.61-.29,5.41-.29,2.2,0,4.4.08,6.58.25,1.51.11,3,.53,4.5.59a31.63,31.63,0,0,0,4.56-.27,6.35,6.35,0,0,0,1.9-.54,9,9,0,0,1,3.26-.38L34,40.28c-.75-1.14-1.22-2.33-2.62-2.61a1.22,1.22,0,0,0-.63,0,9.47,9.47,0,0,1-6.45-.16,10,10,0,0,0-4.24-.22c-1.95.19-3.9.33-5.82.66a14.43,14.43,0,0,0-3.15,1.12,14.81,14.81,0,0,1-4.46,1A2.72,2.72,0,0,0,4.5,41.1ZM38,15.76a22.36,22.36,0,0,0-1.47-2.13,7.58,7.58,0,0,0-2.8-2.47,3.48,3.48,0,0,0-.47-.24,2.46,2.46,0,0,0-.54,0c0,.14.09.29.15.42.83,1.73,2.32,2.94,3.45,4.44a4.49,4.49,0,0,0,1.28.83C38.12,16.5,38.29,16.17,38,15.76ZM29.26,14c-.7,1.09-1.6,2.1-1.36,3.55,0,.06,0,.13,0,.17.13.27.28.53.43.79a3.22,3.22,0,0,0,.67-.59c.84-1.44.85-3.08,1.19-4.65L30,13.17A6.84,6.84,0,0,0,29.26,14Zm2.54-.08c-.05,1.36-.18,2.72-.1,4.07,0,.53.52,1,.85,1.65C33.4,18.67,32.93,15.18,31.8,13.91Zm5.61-2.19a15.25,15.25,0,0,0,2.38.93c.16,0,.39-.13.59-.21-.12-.13-.21-.31-.36-.39-.87-.48-1.74-1-2.64-1.4a6.46,6.46,0,0,0-1.33-.32l-.08.18A8.64,8.64,0,0,0,37.41,11.72Zm-22.18,7.7a.41.41,0,0,0,.17.34c.17,0,.44,0,.51-.11a16,16,0,0,0,.78-1.48,10.13,10.13,0,0,0,.46-1c.11-.3.17-.61.25-.91l-.21-.06A7.74,7.74,0,0,0,15.23,19.42Z"/><path class="cls-1" d="M24.59,43.21a6.78,6.78,0,0,1-.77-.05c-.79-.08-1.57-.18-2.36-.28l-2.35-.29c-1.05-.11-2.13-.17-3.17-.23l-1-.06c-1.05-.07-2.13-.14-3.19-.16a9.67,9.67,0,0,0-1.18.09l-.88.08a1.19,1.19,0,0,1-.49-.09l-.14,0c-.34,0-.68.08-1,.13s-.77.11-1.16.14l-2.6.19-1.44.1a1.28,1.28,0,0,1-1-.3,1.16,1.16,0,0,1-.34-.92.46.46,0,0,1,.17-.36L1.92,41a1.81,1.81,0,0,0,.33-.28h0a6.75,6.75,0,0,1,4.3-2.21l.52,0a8.63,8.63,0,0,0,3.32-.75A15.21,15.21,0,0,1,16,36.2c1-.12,2.07-.23,3.1-.33l.78-.09a.89.89,0,0,0,.33-.07,1.35,1.35,0,0,0,0-.2l-.08-.58c-.11-.74-.22-1.48-.31-2.22-.07-.56-.15-1.12-.22-1.69a35.51,35.51,0,0,1-.46-4.78A30.12,30.12,0,0,0,18.82,22c-.13-.91-.23-1.84-.33-2.73l-.13-1.13a.49.49,0,0,0,0-.12l-.05.12-.15.34c-.3.68-.6,1.37-.95,2a1.69,1.69,0,0,1-2.17.68,9,9,0,0,1-.81-.46l-.29-.18a.45.45,0,0,1-.23-.39,6.13,6.13,0,0,1,1.44-3.82c.59-.8,1.25-1.57,1.9-2.31.42-.48.84-1,1.24-1.47a4,4,0,0,0,.77-1.3c.32-1,.57-2.07.8-3.1l0-.22A4.65,4.65,0,0,0,20,7.12c0-.16,0-.33,0-.5l0-.13.08-.2.29-.73c.06-.13.11-.26.16-.39a6.6,6.6,0,0,1,.47-1.06,9.53,9.53,0,0,1,2.43-2.69A2.29,2.29,0,0,1,25.68.86L26,1a11.85,11.85,0,0,1,2.72,1.16,6.82,6.82,0,0,1,1.56,1.61l.32.41a13.54,13.54,0,0,1,1.13,1.7c.25.42.48.85.7,1.28l.48.89A.76.76,0,0,1,33,8.4a2.83,2.83,0,0,1,.4.11,1.41,1.41,0,0,0,.3.07,5.3,5.3,0,0,0,.69,0,5.36,5.36,0,0,1,1.32.08l.31.07A8.8,8.8,0,0,1,39.27,10a10.4,10.4,0,0,0,1.84,1l.87.41a1.31,1.31,0,0,1,.73.76.94.94,0,0,1-.11.75c-.46.79-2.11,1.84-3.39,1.17a7.56,7.56,0,0,0-.71-.3c.34.59.66,1.16,1,1.72l.08.13a.89.89,0,0,1,0,1.3,2.23,2.23,0,0,0-.19.24,1.47,1.47,0,0,1-.55.56,3.13,3.13,0,0,1-3.27-.87c-.42-.54-.89-1.07-1.35-1.59a14.58,14.58,0,0,0,.31,2,4.5,4.5,0,0,1-.17,2.25l-.09.36A1.88,1.88,0,0,1,33,21a1.42,1.42,0,0,1-1.71-.83c-.3-.58-.58-1.16-.88-1.77a1.94,1.94,0,0,1-.21.29,6.11,6.11,0,0,1-1.25,1.17,1.22,1.22,0,0,1-1.43-.21A3.26,3.26,0,0,1,26.65,18a7.85,7.85,0,0,1,.06-1.75c0-.22.05-.45.07-.68v-.13c-.37.2-.72.39-1.07.55,0,0-.89.41-1.24-.07a1.46,1.46,0,0,1-.29-1.28l.09-.2a8.25,8.25,0,0,1,1.14-2.13,9.27,9.27,0,0,1,5-3c.48-.13.56-.24.57-.27s.05-.13-.14-.53C30.47,7.74,30,7,29.58,6.21l-.35-.59a5.9,5.9,0,0,0-2.79-2.45c-1.06-.48-1.68-.41-2.26.27a1,1,0,0,1-.35.25A3.07,3.07,0,0,0,22.32,5.6c-.25.78-.44,1.62-.63,2.42-.07.3-.13.59-.21.89l-.09.4c-.18.72-.36,1.47-.5,2.21a1.51,1.51,0,0,0,0,.43,2.55,2.55,0,0,1,0,.72,6.09,6.09,0,0,1-.26.79,3.41,3.41,0,0,0-.26.85c-.1.93-.12,1.89-.14,2.82v.57a16.28,16.28,0,0,0,0,2c.05.47.13.93.21,1.4s.15.87.21,1.32a7.76,7.76,0,0,1,0,1c0,.25,0,.49,0,.74q.06.62.15,1.23l.12,1c0,.36.06.72.09,1.08.05.55.09,1.13.17,1.68q.22,1.48.48,3c.11.62.21,1.24.31,1.86s.15,1,.22,1.52l0,.27.77.11a11.45,11.45,0,0,1,2.37.48,6.91,6.91,0,0,0,4.55.11A3.89,3.89,0,0,1,34.19,38a5,5,0,0,0,1,1l.47.4a4.82,4.82,0,0,0,.51.41l.22.17a.47.47,0,0,1,.15.53A2.12,2.12,0,0,1,34,41.94a9.43,9.43,0,0,0-3.41.23l-.94.19c-1.32.26-2.67.53-4,.76A5.5,5.5,0,0,1,24.59,43.21Zm-12.87-2h.08c1.08,0,2.17.08,3.23.15l1,.06c1.05.06,2.13.13,3.2.24.8.08,1.59.18,2.38.29s1.56.2,2.34.28a5.45,5.45,0,0,0,1.52,0c1.33-.23,2.68-.5,4-.76l.95-.19A10.24,10.24,0,0,1,34.11,41c.72.12,1.14,0,1.42-.55-.16-.12-.33-.26-.49-.4l-.44-.38a6,6,0,0,1-1.18-1.19,3,3,0,0,0-.51-.56A7.15,7.15,0,0,1,34,39.43l.37.59a.44.44,0,0,1,0,.47.46.46,0,0,1-.39.26l-1.29.07c-.28,0-.56,0-.84,0a5.67,5.67,0,0,0-2.26.32,6.72,6.72,0,0,1-2,.58l-.3,0A29.7,29.7,0,0,1,23,42a18.12,18.12,0,0,1-2.47-.31,20.39,20.39,0,0,0-2-.28c-2.28-.17-4.48-.25-6.55-.25-.85,0-1.72,0-2.58.1l.19.06.14,0a7.4,7.4,0,0,0,.81-.08A12.27,12.27,0,0,1,11.72,41.2Zm-9.25.54h0s.12.06.31,0l1.45-.1,2.58-.19c.37,0,.74-.08,1.11-.13H8l-1.47.09h0l-1.46.08-.55,0a.49.49,0,0,1-.44-.24.5.5,0,0,1,0-.5A3.15,3.15,0,0,1,6.6,39.56a14.46,14.46,0,0,0,4.31-.93l.41-.17a12.87,12.87,0,0,1,2.84-1c1.49-.26,3-.4,4.47-.54L20,36.82a10.32,10.32,0,0,1,4.44.25,9,9,0,0,0,6.14.16,1.41,1.41,0,0,1,.22-.06,2.29,2.29,0,0,0-.58.11,7.79,7.79,0,0,1-5.17-.12,11,11,0,0,0-2.17-.43c-.38,0-.76-.1-1.15-.17a.46.46,0,0,1-.38-.4l-.08-.61c-.07-.49-.13-1-.22-1.5l-.3-1.85c-.08-.43-.15-.86-.22-1.29.08.56.16,1.12.23,1.68.09.74.19,1.47.3,2.2l.08.59a1.15,1.15,0,0,1-.17.91,1.34,1.34,0,0,1-1,.43l-.78.08-3.1.33a14.68,14.68,0,0,0-5.31,1.38,9.51,9.51,0,0,1-3.67.86l-.51.05a5.67,5.67,0,0,0-3.71,1.92h0a2.82,2.82,0,0,1-.46.38Zm9.61-1.51c2.05,0,4.22.08,6.47.25a20.8,20.8,0,0,1,2.12.29,18.14,18.14,0,0,0,2.36.3,29.35,29.35,0,0,0,4.19-.23l.3,0a6.24,6.24,0,0,0,1.76-.51,6.55,6.55,0,0,1,2.62-.4c.27,0,.54,0,.8,0l.49,0c-.53-.87-1-1.55-1.89-1.73a.82.82,0,0,0-.38,0A9.86,9.86,0,0,1,24.16,38a9.5,9.5,0,0,0-4.05-.21l-1.39.14c-1.45.13-2.95.27-4.39.52a12.52,12.52,0,0,0-2.64.91l-.41.18a15.11,15.11,0,0,1-4.59,1l-.33,0h.13l1.68-.11c1.23-.09,2.5-.18,3.76-.18Zm2.56-20.36.08.05a6.94,6.94,0,0,0,.71.41.78.78,0,0,0,.94-.27c.33-.63.63-1.3.91-1.95l.16-.36a11.65,11.65,0,0,1,.81-1.62.46.46,0,0,1,.5-.2.45.45,0,0,1,.36.4l.06.54c0,.2,0,.4.07.6v-.36c0-.95,0-1.93.14-2.9a4.5,4.5,0,0,1,.32-1.1,4.73,4.73,0,0,0,.23-.66,1.64,1.64,0,0,0,0-.45,3.08,3.08,0,0,1,0-.43A5.19,5.19,0,0,1,19,13.14c-.41.51-.84,1-1.26,1.5-.63.72-1.28,1.47-1.85,2.25A5.51,5.51,0,0,0,14.64,19.87Zm17.8.22a.36.36,0,0,0,.27,0,1.11,1.11,0,0,0,.59-.41l.1-.38a3.57,3.57,0,0,0,.16-1.8,18.23,18.23,0,0,1-.34-2.3c0-.33-.07-.65-.12-1a.46.46,0,0,1,.19-.43l.15-.12a.45.45,0,0,1,.39-.07,9.61,9.61,0,0,1-1.36-2,3.24,3.24,0,0,1-.13-.33l-.05-.13a.48.48,0,0,1,.05-.42.51.51,0,0,1,.37-.21h.14a1.23,1.23,0,0,1,1,.19l.13.07a7.87,7.87,0,0,1,3,2.62,19.61,19.61,0,0,1,1.37,1.95L37.54,14l-.47-.84a.47.47,0,0,1,0-.54.49.49,0,0,1,.52-.14l.62.23a9.44,9.44,0,0,1,1.38.55c.71.37,1.85-.31,2.15-.81,0,0,0-.09-.23-.19l-.84-.4-.55-.26.08.05a1.23,1.23,0,0,1,.4.38l.08.11a.49.49,0,0,1,.11.42.5.5,0,0,1-.29.33L40.4,13a1,1,0,0,1-.76.15l-.2-.07a14.82,14.82,0,0,1-2.25-.89h0a5.77,5.77,0,0,1-1.12-.89l-.41-.39a.46.46,0,0,1-.12-.55l.08-.18a.48.48,0,0,1,.53-.25l.4.07a4.36,4.36,0,0,1,1,.27l1.34.68-.2-.13a7.76,7.76,0,0,0-2.95-1.12l-.31-.07a4.09,4.09,0,0,0-1.07-.06,6.59,6.59,0,0,1-.77,0,2,2,0,0,1-.54-.12,1.7,1.7,0,0,0-.3-.08A.74.74,0,0,1,32,8.47c-.14-.3-.3-.61-.46-.91s-.44-.84-.68-1.25a13.22,13.22,0,0,0-1.05-1.59l-.33-.41a6,6,0,0,0-1.33-1.4,11.39,11.39,0,0,0-2.5-1.06l-.3-.1c-.39-.13-.78,0-1.3.4-.37.3-.7.59-1,.88l.28-.15.12-.07a2.59,2.59,0,0,1,3.35-.49A6.76,6.76,0,0,1,30,5.15l.35.59c.45.76.91,1.55,1.31,2.37a1.59,1.59,0,0,1,.15,1.33,1.67,1.67,0,0,1-1.19.79,8.32,8.32,0,0,0-4.51,2.69,7.8,7.8,0,0,0-1,1.9l-.09.21s0,.09.08.18l.18-.05c.4-.19.78-.39,1.21-.63l.58-.31a.48.48,0,0,1,.48,0,.49.49,0,0,1,.21.43l-.08.93a9.46,9.46,0,0,1,.83-1.39l.31-.47h0a4.29,4.29,0,0,1,.53-.64l.22-.24a.46.46,0,0,1,.55-.12l.21.09a.48.48,0,0,1,.27.53c-.09.43-.16.87-.23,1.31a9.46,9.46,0,0,1-1,3.47.43.43,0,0,1,0,.07.69.69,0,0,0,.11-.13,3.21,3.21,0,0,0,.37-.58l.19-.35a.48.48,0,0,1,.42-.23.46.46,0,0,1,.4.27l.38.78h0a28.31,28.31,0,0,1,.05-2.92c0-.39,0-.78,0-1.16a.47.47,0,0,1,.82-.3c1.21,1.36,1.82,5.13.75,6.34a.46.46,0,0,1-.41.16Zm-4.32-1.17.11.15s.08,0,.15,0h.07a3.74,3.74,0,0,0,.64-.57l-.26.21-.2.15a.51.51,0,0,1-.39.11A.34.34,0,0,1,28.12,18.92Zm4.07-3.21a21,21,0,0,0,0,2.24,1.66,1.66,0,0,0,.29.66A7.32,7.32,0,0,0,32.19,15.71Zm-3.83,1.9a1.62,1.62,0,0,1,.1.18.34.34,0,0,0,.12-.12,8.76,8.76,0,0,0,.9-3.15v0l-.16.24a3.76,3.76,0,0,0-1,2.72A.38.38,0,0,1,28.36,17.61Zm-.06-.12h0Zm10.23-1.77a.91.91,0,0,1,0,.72A1,1,0,0,1,38,17a.66.66,0,0,0,.32-.08,1,1,0,0,0,.22-.26,2.88,2.88,0,0,1,.3-.39l0-.07c0-.06-.09-.12-.13-.19S38.59,15.81,38.53,15.72Zm-5-4.15A13.81,13.81,0,0,0,35.39,14c.44.5.91,1,1.32,1.56a2.13,2.13,0,0,0,.69.47l.26.13h0s0,0,0-.09h0l-.05-.07a23.27,23.27,0,0,0-1.4-2,7.11,7.11,0,0,0-2.61-2.34Zm4.1-.26c.17.08.33.17.5.24l-.63-.32.13.08ZM21,6.77c0,.13,0,.24,0,.36.06-.26.12-.52.19-.78L21,6.63ZM15.52,20.24h-.18a.6.6,0,0,1-.43-.31.8.8,0,0,1-.12-.65h0a8.2,8.2,0,0,1,2.08-3.42.46.46,0,0,1,.46-.11l.21.06a.48.48,0,0,1,.32.57l-.07.27c-.06.23-.12.46-.2.68-.14.38-.31.73-.47,1.06l-.08.14a14.2,14.2,0,0,1-.74,1.38A.9.9,0,0,1,15.52,20.24Zm-.29-.82h0Z"/></svg>