<svg id="Layer_1" data-name="Layer 1" xmlns="http://www.w3.org/2000/svg" viewBox="0 0 77 80"><defs><style>.cls-1{fill:#2121e8;}</style></defs><path class="cls-1" d="M2.11,74a10.47,10.47,0,0,1,6.74-3.48c2.3-.24,4.67-.33,6.75-1.44a25.25,25.25,0,0,1,9.23-2.41L31.36,66c1.06-.11,1.36-.44,1.23-1.36-.23-1.57-.47-3.13-.66-4.7a92.8,92.8,0,0,1-1.14-10.8,52.23,52.23,0,0,0-.58-7.26c-.32-2.15-.52-4.31-.77-6.48-.11-1-.21-1.9-.31-2.85a23.37,23.37,0,0,0-1.55,3.19c-.5,1.14-1,2.28-1.58,3.37a2.07,2.07,0,0,1-2.62.8c-.64-.3-1.23-.71-1.79-1a9.52,9.52,0,0,1,2.27-5.93c1.63-2.21,3.54-4.2,5.27-6.34a7.83,7.83,0,0,0,1.43-2.44c.6-1.85,1-3.76,1.46-5.66a20.25,20.25,0,0,0,.23-2.31c.15-.38.38-1,.62-1.55a18.09,18.09,0,0,1,1-2.34,15.49,15.49,0,0,1,3.91-4.32,3,3,0,0,1,2.93-.8,21.55,21.55,0,0,1,4.89,2,14.13,14.13,0,0,1,3,3.22,21.54,21.54,0,0,1,1.85,2.77c.69,1.19,1.3,2.44,2,3.64.19.34-.22,1,.57,1,.48,0,.94.3,1.41.33a19.31,19.31,0,0,1,3.24.12,15.34,15.34,0,0,1,5.77,2.13,34.81,34.81,0,0,0,4.66,2.42c.61.3,1.1.77.72,1.43-.65,1.1-3,2.53-4.67,1.67a30,30,0,0,0-3.27-1.27c1,1.69,1.81,3.25,2.73,4.77.29.49.78.83.17,1.42-.38.38-.61,1-1.06,1.23-1.2.64-3.68-.21-4.51-1.26C57,31.36,55.73,30,54.5,28.59l-.25.19A54.34,54.34,0,0,0,55,34.22a8.3,8.3,0,0,1-.44,4A2.4,2.4,0,0,1,53,39.52a1.65,1.65,0,0,1-2-1c-.71-1.39-1.38-2.79-2.13-4.3a11.94,11.94,0,0,1-1,1.67A9.82,9.82,0,0,1,46,37.7a1.39,1.39,0,0,1-1.35-.19,5,5,0,0,1-1.26-2.35,21.82,21.82,0,0,1,.23-3.93c0-.48.07-1,.12-1.67-1.14.61-2.07,1.15-3,1.6-.34.16-1,.28-1.12.12a1.74,1.74,0,0,1-.38-1.37,15,15,0,0,1,1.94-3.73,14.94,14.94,0,0,1,8-4.8c1.44-.39,2-.93,1.24-2.46-.82-1.69-1.81-3.31-2.76-4.94a10.77,10.77,0,0,0-5-4.43c-1.79-.81-3.35-1-4.75.65a1.46,1.46,0,0,1-.41.27,5.9,5.9,0,0,0-2.87,3.64c-.58,1.84-1,3.74-1.42,5.63-.36,1.47-.73,2.94-1,4.42-.12.62.07,1.3-.07,1.91a24.19,24.19,0,0,0-.9,2.86c-.21,1.91-.21,3.85-.25,5.78A26,26,0,0,0,31,38.13c.16,1.54.51,3,.7,4.59.11.93,0,1.89.09,2.83.11,1.25.32,2.49.45,3.74.16,1.56.22,3.14.45,4.69.39,2.72.89,5.42,1.33,8.14.2,1.23.35,2.47.5,3.57a36.92,36.92,0,0,1,5.71,1,12.52,12.52,0,0,0,8.19.19,5.8,5.8,0,0,1,6.25,2.34,15.43,15.43,0,0,0,2.6,2.5c.42.39.9.71,1.28,1A2.8,2.8,0,0,1,55,74.74a17,17,0,0,0-6,.4c-2.77.55-5.54,1.12-8.32,1.6a10,10,0,0,1-2.78.06c-2.65-.28-5.28-.68-7.93-1-2-.21-4.09-.32-6.13-.45s-4.18-.28-6.27-.31c-1.17,0-2.35.22-3.52.28-.36,0-.73-.26-1.08-.22-1.24.11-2.47.35-3.71.45-2.25.2-4.52.32-6.78.48-.92.07-1.46-.29-1.45-1.24A10.56,10.56,0,0,0,2.11,74Zm6.6,0c3-.17,6.08-.49,9.12-.5,3.69,0,7.39.15,11.08.42,2.53.19,5,.91,7.57,1a53.35,53.35,0,0,0,7.67-.46,10.87,10.87,0,0,0,3.19-.91c1.79-.77,3.65-.54,5.49-.64L55,72.73c-1.28-1.91-2.06-3.93-4.41-4.4a2,2,0,0,0-1.07,0c-3.66,1.34-7.26.93-10.86-.27a16.86,16.86,0,0,0-7.14-.38c-3.27.33-6.56.56-9.8,1.12a24.83,24.83,0,0,0-5.3,1.88,25,25,0,0,1-7.5,1.61,4.57,4.57,0,0,0-3.6,1.81Zm53-42.48a42.21,42.21,0,0,0-2.48-3.58c-1.33-1.64-2.67-3.3-4.71-4.17a5.36,5.36,0,0,0-.8-.39,3.48,3.48,0,0,0-.91,0c.09.24.15.48.26.71C54.5,27,57,29,58.91,31.51a7.94,7.94,0,0,0,2.16,1.42C61.91,32.7,62.19,32.14,61.75,31.45ZM47,28.47c-1.17,1.83-2.69,3.54-2.29,6,0,.09-.05.22,0,.29.23.45.48.88.72,1.32a4.76,4.76,0,0,0,1.13-1c1.41-2.42,1.44-5.19,2-7.82l-.36-.16A12.89,12.89,0,0,0,47,28.47Zm4.28-.13c-.08,2.28-.29,4.57-.16,6.84,0,.91.87,1.77,1.42,2.79C54,36.35,53.17,30.48,51.27,28.34Zm9.45-3.68a25.84,25.84,0,0,0,4,1.56c.26.08.65-.23,1-.36-.2-.22-.36-.52-.6-.65-1.47-.82-2.93-1.65-4.45-2.36a10.87,10.87,0,0,0-2.25-.53l-.13.29A15.09,15.09,0,0,0,60.72,24.66Zm-37.34,13c-.05.16.16.56.29.58s.74,0,.85-.18c.49-.8.91-1.65,1.33-2.49a18.55,18.55,0,0,0,.76-1.71c.19-.5.29-1,.43-1.53l-.35-.11A13.12,13.12,0,0,0,23.38,37.61Z"/><path class="cls-1" d="M39.14,77.47c-.41,0-.84,0-1.28-.07-1.32-.14-2.64-.31-4-.48s-2.66-.34-4-.48c-1.76-.19-3.57-.3-5.32-.4L23,75.93c-1.77-.11-3.59-.22-5.38-.25a15.44,15.44,0,0,0-2,.14c-.49.06-1,.11-1.47.14a1.75,1.75,0,0,1-.76-.15,1.9,1.9,0,0,0-.29-.08c-.59.06-1.17.14-1.75.22s-1.31.19-2,.24c-1.46.13-2.94.22-4.41.32l-2.38.16A2,2,0,0,1,1,76.23a1.87,1.87,0,0,1-.51-1.4.59.59,0,0,1,.23-.46c.14-.12.28-.22.41-.32a6.66,6.66,0,0,0,.59-.49h0a11.11,11.11,0,0,1,7.11-3.67l.87-.08a14.85,14.85,0,0,0,5.66-1.29,25.72,25.72,0,0,1,9.44-2.47l5.08-.54,1.46-.16c.55-.06.66-.16.68-.18s.07-.11,0-.49l-.14-1c-.18-1.24-.36-2.47-.52-3.71-.11-1-.25-1.89-.38-2.84a58.72,58.72,0,0,1-.76-8,53,53,0,0,0-.57-7.17c-.23-1.53-.4-3.1-.56-4.61l-.21-1.89c0-.3-.07-.6-.1-.9-.13.28-.25.57-.38.86l-.24.56c-.51,1.15-1,2.3-1.6,3.4a2.67,2.67,0,0,1-3.4,1.06,11.42,11.42,0,0,1-1.34-.76l-.5-.3a.63.63,0,0,1-.3-.51,10.18,10.18,0,0,1,2.39-6.3c1-1.35,2.11-2.63,3.18-3.88.71-.81,1.42-1.63,2.1-2.48A7.1,7.1,0,0,0,30,23.93c.55-1.72,1-3.52,1.36-5.26l.08-.36a7.82,7.82,0,0,0,.16-1.38c0-.27,0-.55.07-.85a.32.32,0,0,1,0-.16l.13-.33c.13-.36.3-.8.48-1.23.1-.22.18-.45.27-.67a11.22,11.22,0,0,1,.77-1.75,16.08,16.08,0,0,1,4.06-4.48,3.67,3.67,0,0,1,3.5-.9l.5.17a20,20,0,0,1,4.52,1.92,11.14,11.14,0,0,1,2.59,2.67c.17.23.35.46.53.68a23,23,0,0,1,1.89,2.85c.42.71.81,1.44,1.19,2.16.26.5.52,1,.8,1.49a1.42,1.42,0,0,1,.13.72h0a4.29,4.29,0,0,1,.8.19,2.18,2.18,0,0,0,.56.14,9.29,9.29,0,0,0,1.18,0,8.29,8.29,0,0,1,2.16.13l.52.12a14.54,14.54,0,0,1,5.46,2.11,19,19,0,0,0,3.13,1.68c.49.23,1,.45,1.45.69a2.06,2.06,0,0,1,1.13,1.15,1.41,1.41,0,0,1-.16,1.12c-.73,1.25-3.42,3-5.46,1.9a14.24,14.24,0,0,0-1.69-.7h0c.65,1.16,1.28,2.27,1.93,3.35l.15.23a1.3,1.3,0,0,1-.07,1.93,3.68,3.68,0,0,0-.34.44,2.52,2.52,0,0,1-.86.89c-1.48.79-4.26-.14-5.26-1.42-.79-1-1.67-2-2.52-2.94L55,30.07l0,.3a30.59,30.59,0,0,0,.55,3.72,7.19,7.19,0,0,1-.28,3.69c-.05.21-.11.41-.16.62-.2.87-1.3,1.5-1.94,1.7a2.25,2.25,0,0,1-2.67-1.32c-.49-1-1-1.94-1.46-3l-.16-.32a5,5,0,0,1-.52.77,10.21,10.21,0,0,1-2.07,1.93,1.93,1.93,0,0,1-2.15-.31,5.52,5.52,0,0,1-1.39-2.66,12.77,12.77,0,0,1,.11-2.9q.08-.57.12-1.14l0-.58c-.72.4-1.41.77-2.1,1.09,0,0-1.37.6-1.86-.06a2.27,2.27,0,0,1-.45-2l.14-.34a14,14,0,0,1,1.89-3.54,15.38,15.38,0,0,1,8.31-5c.64-.17,1-.36,1.1-.56s0-.56-.24-1.06c-.65-1.33-1.42-2.64-2.16-3.91l-.58-1a10.18,10.18,0,0,0-4.77-4.19c-1.87-.84-3-.71-4,.5a1.82,1.82,0,0,1-.53.38,5.35,5.35,0,0,0-2.64,3.32c-.42,1.33-.74,2.74-1.06,4.1-.11.5-.23,1-.35,1.49l-.16.67c-.3,1.22-.6,2.48-.85,3.72a3.35,3.35,0,0,0,0,.78,4.1,4.1,0,0,1-.06,1.15,9.16,9.16,0,0,1-.44,1.31A6.2,6.2,0,0,0,31.75,29c-.16,1.57-.19,3.2-.22,4.76l0,1a26.55,26.55,0,0,0,.06,3.35c.09.79.23,1.59.36,2.37s.26,1.47.34,2.21a10.8,10.8,0,0,1,.06,1.6c0,.42,0,.84,0,1.25.06.7.15,1.39.24,2.08s.15,1.1.2,1.65.11,1.21.16,1.81c.08.94.15,1.91.29,2.85.24,1.67.53,3.33.81,5,.18,1,.35,2.09.52,3.14.14.87.25,1.73.36,2.55l.08.6,1.43.21a19.2,19.2,0,0,1,3.95.79,11.89,11.89,0,0,0,7.8.2,6.36,6.36,0,0,1,6.94,2.57,9.09,9.09,0,0,0,1.73,1.72c.26.22.52.44.77.67s.59.48.88.7l.37.28a.58.58,0,0,1,.19.68,3.39,3.39,0,0,1-4.15,2.34,16.33,16.33,0,0,0-5.8.4L47.56,76c-2.21.44-4.5.9-6.76,1.29A9.78,9.78,0,0,1,39.14,77.47Zm-21.67-3h.13c1.81,0,3.65.14,5.43.26l1.65.1c1.76.1,3.58.22,5.37.4,1.34.14,2.67.32,4,.49s2.61.33,3.92.47a9.85,9.85,0,0,0,2.62,0c2.24-.39,4.52-.84,6.73-1.28l1.57-.32a17.43,17.43,0,0,1,6.23-.41A2.18,2.18,0,0,0,57.8,73c-.31-.23-.64-.48-.95-.76s-.49-.43-.74-.64a9.84,9.84,0,0,1-2-2,5.23,5.23,0,0,0-5.58-2.11A13,13,0,0,1,40,67.31a19,19,0,0,0-3.71-.75c-.63-.08-1.27-.16-1.92-.27a.63.63,0,0,1-.49-.51l-.14-1c-.1-.81-.22-1.67-.35-2.52-.17-1-.35-2.09-.53-3.13-.28-1.67-.56-3.34-.81-5-.14-1-.22-2-.29-2.94-.05-.59-.1-1.19-.16-1.78s-.13-1.07-.2-1.61l-.09-.7q0,1,.06,2A58.58,58.58,0,0,0,32.14,57c.13,1,.27,1.91.39,2.87.15,1.22.33,2.45.5,3.68l.15,1a1.86,1.86,0,0,1-.26,1.41,2.1,2.1,0,0,1-1.49.64L30,66.7l-5.06.54a24.63,24.63,0,0,0-9,2.34A15.85,15.85,0,0,1,9.78,71l-.87.09a9.81,9.81,0,0,0-6.36,3.29h0a5.59,5.59,0,0,1-.74.63l-.14.1a.42.42,0,0,0,.12.24,1,1,0,0,0,.67.13l2.38-.17c1.47-.09,2.93-.19,4.39-.31.64-.06,1.27-.15,1.9-.24s1.2-.16,1.8-.22a1.79,1.79,0,0,1,.8.14,1.18,1.18,0,0,0,.31.08c.46,0,.93-.08,1.39-.13A19.38,19.38,0,0,1,17.47,74.48ZM2.11,74h0Zm27-42.07.13,0a.61.61,0,0,1,.47.52l.09.88c.07.66.14,1.31.22,2l.21,1.89c.16,1.5.33,3,.55,4.57.14.89.25,1.79.33,2.67v-.18a9.9,9.9,0,0,0-.05-1.45c-.08-.72-.21-1.43-.33-2.14s-.28-1.63-.37-2.45a26.87,26.87,0,0,1-.07-3.47l0-1c0-1.59.06-3.24.23-4.86a7.19,7.19,0,0,1,.52-1.8,7,7,0,0,0,.39-1.14,3.1,3.1,0,0,0,0-.82,4.24,4.24,0,0,1,0-1.06c.24-1.28.55-2.55.85-3.78l.17-.67c.11-.49.23-1,.34-1.48.32-1.38.65-2.81,1.09-4.2a6.42,6.42,0,0,1,3.16-4l.24-.14c1.8-2.08,3.86-1.52,5.44-.8a11.27,11.27,0,0,1,5.32,4.68l.57,1c.76,1.29,1.54,2.62,2.21,4a2.51,2.51,0,0,1,.25,2.09A2.65,2.65,0,0,1,49.31,22a14.24,14.24,0,0,0-7.7,4.6A13.14,13.14,0,0,0,39.9,29.8l-.15.35a1.43,1.43,0,0,0,.2.6,2.3,2.3,0,0,0,.5-.13c.67-.32,1.31-.66,2-1.07l1-.52a.6.6,0,0,1,.61,0,.58.58,0,0,1,.27.55l-.13,1.67c0,.39-.07.79-.12,1.19A11.76,11.76,0,0,0,44,35.1a4.47,4.47,0,0,0,1.13,2,1.34,1.34,0,0,0,.58,0,9.64,9.64,0,0,0,1.78-1.7,5.07,5.07,0,0,0,.64-1c.1-.19.21-.38.32-.57a.6.6,0,0,1,1.05,0l.66,1.36c.5,1,1,2,1.46,2.94.12.22.54.93,1.25.71A2,2,0,0,0,54,38.12c0-.21.1-.43.16-.64a6.38,6.38,0,0,0,.28-3.12,28.56,28.56,0,0,1-.58-3.86c-.06-.55-.12-1.09-.19-1.64a.61.61,0,0,1,.23-.56l.25-.19a.62.62,0,0,1,.82.09c.36.42.74.84,1.11,1.25.86,1,1.75,2,2.57,3,.66.85,2.82,1.59,3.75,1.1a1.53,1.53,0,0,0,.43-.51,4.53,4.53,0,0,1,.5-.62.63.63,0,0,0,.11-.13l-.18-.24L63,31.74c-.66-1.09-1.29-2.21-1.94-3.38L60.31,27A.6.6,0,0,1,61,26.1l1,.37a16.77,16.77,0,0,1,2.3.93c1.32.68,3.36-.56,3.87-1.45a.26.26,0,0,0,0-.17,1.1,1.1,0,0,0-.52-.41c-.46-.24-.94-.46-1.41-.68A19.16,19.16,0,0,1,63,22.89,13.35,13.35,0,0,0,58,21l-.52-.12a7.36,7.36,0,0,0-1.85-.1,11.1,11.1,0,0,1-1.29,0,3.54,3.54,0,0,1-.85-.19,2.4,2.4,0,0,0-.56-.14,1.05,1.05,0,0,1-1.07-1.25.75.75,0,0,0,0-.15c-.26-.45-.53-1-.79-1.46-.38-.71-.75-1.42-1.16-2.12a22.81,22.81,0,0,0-1.79-2.69c-.19-.23-.37-.47-.55-.7a10.12,10.12,0,0,0-2.29-2.4A19.19,19.19,0,0,0,41,7.86l-.51-.16a2.39,2.39,0,0,0-2.36.7,14.8,14.8,0,0,0-3.77,4.15,9.67,9.67,0,0,0-.69,1.56c-.09.24-.18.47-.28.71L32.94,16l-.1.26c0,.26,0,.5-.05.73a9.91,9.91,0,0,1-.19,1.57l-.08.36c-.4,1.76-.82,3.59-1.38,5.35a8.52,8.52,0,0,1-1.54,2.64c-.69.85-1.41,1.68-2.13,2.51-1.06,1.22-2.16,2.49-3.12,3.8a9.32,9.32,0,0,0-2.16,5.24l.23.14a10.44,10.44,0,0,0,1.21.69,1.49,1.49,0,0,0,1.84-.53C26,37.72,26.53,36.59,27,35.5l.26-.6a18.57,18.57,0,0,1,1.35-2.72A.62.62,0,0,1,29.13,31.9Zm8.41,43.58-1.08,0a33.38,33.38,0,0,1-4.15-.53c-1.13-.19-2.3-.39-3.45-.48C25,74.17,21.3,74,17.83,74c-2.07,0-4.18.16-6.23.31-.95.07-1.9.14-2.85.19h0l-2.3.13-1.09,0a.58.58,0,0,1-.56-.31.6.6,0,0,1,0-.63,5.12,5.12,0,0,1,4-2.07,24.47,24.47,0,0,0,7.32-1.56l.67-.29a21.77,21.77,0,0,1,4.76-1.63c2.49-.43,5.05-.67,7.52-.9l2.32-.23a17.49,17.49,0,0,1,7.39.41c4,1.34,7.34,1.42,10.47.28a2.54,2.54,0,0,1,1.39,0c2.18.44,3.18,2.07,4.15,3.65.21.33.41.67.64,1a.61.61,0,0,1,0,.6.58.58,0,0,1-.5.33l-2.16.12c-.47,0-.94,0-1.41,0a9.7,9.7,0,0,0-3.88.55,11.37,11.37,0,0,1-3.37,1l-.52,0A59.33,59.33,0,0,1,37.54,75.48ZM18.09,72.83c3.43,0,7.08.14,10.86.43a34.84,34.84,0,0,1,3.57.49,33.58,33.58,0,0,0,4,.51,50.71,50.71,0,0,0,7.07-.4l.52,0a10.76,10.76,0,0,0,3-.87,10.66,10.66,0,0,1,4.34-.65l1.35,0,1.14-.07-.1-.17c-.91-1.48-1.7-2.76-3.37-3.1a1.45,1.45,0,0,0-.74,0c-3.4,1.25-7,1.17-11.26-.26a16.28,16.28,0,0,0-6.89-.35l-2.33.22c-2.45.23-5,.47-7.42.89A21,21,0,0,0,17.34,71l-.68.29A25.78,25.78,0,0,1,9,72.9a5,5,0,0,0-2,.53l1.72-.1h0c.94,0,1.89-.12,2.83-.19,2.07-.15,4.2-.3,6.32-.31Zm-9.38,1.1h0ZM23.87,38.8h-.28a.86.86,0,0,1-.59-.44,1.18,1.18,0,0,1-.19-.93h0a13.82,13.82,0,0,1,3.46-5.68.59.59,0,0,1,.59-.14l.35.11a.6.6,0,0,1,.41.73l-.12.45A10.14,10.14,0,0,1,27.18,34a17.72,17.72,0,0,1-.8,1.76l-.12.25c-.38.76-.77,1.55-1.23,2.29A1.36,1.36,0,0,1,23.87,38.8Zm.09-1h0Zm.05-.1Zm-.63-.08h0ZM25.91,34A12.87,12.87,0,0,0,24,37.59h.05c.41-.67.77-1.4,1.12-2.1l.12-.24C25.51,34.84,25.73,34.4,25.91,34Zm26.62,4.61h-.07a.6.6,0,0,1-.46-.32c-.17-.31-.36-.61-.55-.9a4.45,4.45,0,0,1-.94-2.13,45.28,45.28,0,0,1,.07-4.95q.06-1,.09-1.95a.61.61,0,0,1,1-.38c2,2.25,3,8.44,1.26,10.43A.61.61,0,0,1,52.53,38.57Zm-.75-8.21a45,45,0,0,0-.07,4.79,3.73,3.73,0,0,0,.74,1.55l0,0A11.9,11.9,0,0,0,51.78,30.36Zm-6.36,6.3h-.11a.59.59,0,0,1-.42-.3l-.16-.29-.58-1a.82.82,0,0,1,0-.54c-.35-2.27.77-3.93,1.85-5.53.18-.26.37-.53.54-.8h0a6.84,6.84,0,0,1,.87-1l.37-.41a.6.6,0,0,1,.7-.15l.36.16a.61.61,0,0,1,.34.68c-.16.72-.27,1.46-.39,2.2a15.75,15.75,0,0,1-1.69,5.79,2.9,2.9,0,0,1-.9.88c-.12.09-.24.17-.34.26A.58.58,0,0,1,45.42,36.66Zm-.13-2,.31.56a1.81,1.81,0,0,0,.42-.4,14.86,14.86,0,0,0,1.54-5.37c0-.29.09-.58.14-.88a2.83,2.83,0,0,0-.2.28l-.55.83c-1,1.48-2,2.89-1.66,4.72A.75.75,0,0,1,45.29,34.61Zm-1.18-.06Zm17-1a.63.63,0,0,1-.32-.1c-.21-.13-.45-.25-.69-.38a4.33,4.33,0,0,1-1.63-1.18c-.66-.87-1.42-1.72-2.15-2.53a21.69,21.69,0,0,1-3.71-5,5.37,5.37,0,0,1-.21-.56l-.07-.21a.56.56,0,0,1,.06-.53.61.61,0,0,1,.47-.27l.25,0a2.21,2.21,0,0,1,.81,0,2.06,2.06,0,0,1,.67.29l.25.13c2.17.92,3.58,2.66,4.93,4.35A38.55,38.55,0,0,1,62.15,31l.1.15a1.51,1.51,0,0,1,.22,1.42,1.65,1.65,0,0,1-1.24,1A.45.45,0,0,1,61.07,33.53Zm-7.35-9.6a21.59,21.59,0,0,0,3.45,4.61c.75.83,1.53,1.69,2.22,2.61a3.54,3.54,0,0,0,1.22.84c.18.09.36.18.53.28.14-.07.2-.13.21-.17s0-.16-.11-.33h0l-.1-.15a37.46,37.46,0,0,0-2.34-3.37c-1.32-1.64-2.57-3.19-4.47-4l-.39-.21Zm11.11,2.9a.92.92,0,0,1-.29,0l-.35-.12a22.7,22.7,0,0,1-3.75-1.49h0a8.77,8.77,0,0,1-1.84-1.46c-.23-.22-.46-.45-.7-.65a.6.6,0,0,1-.16-.71l.14-.29a.59.59,0,0,1,.68-.33c.22.05.45.08.68.12a6.75,6.75,0,0,1,1.68.45c1.36.63,2.68,1.36,4,2.07l.54.3a1.94,1.94,0,0,1,.61.6l.15.19a.59.59,0,0,1,.13.54.61.61,0,0,1-.37.41l-.26.13A1.86,1.86,0,0,1,64.83,26.83ZM61,24.13a20.87,20.87,0,0,0,3.32,1.32l0,0c-1.26-.7-2.56-1.42-3.87-2a3.2,3.2,0,0,0-.64-.21,6.54,6.54,0,0,0,1.22.94Z"/></svg>