<svg id="Layer_1" data-name="Layer 1" xmlns="http://www.w3.org/2000/svg" viewBox="0 0 65 14"><defs><style>.cls-1{fill:#293b5c;}</style></defs><path class="cls-1" d="M.58,10l.06-.32c.93,0,1.14-.25,1.41-1.75L2.9,3.05c.27-1.5.15-1.74-.78-1.74l0-.31H5.32l-.05.31c-.94,0-1.14.24-1.39,1.74L3,7.93c-.26,1.5-.17,1.75.78,1.75L3.73,10Z"/><path class="cls-1" d="M7.61,10l.72-4c.06-.36,0-.63-.16-.63a1.14,1.14,0,0,0-.6.35V5.32a1.54,1.54,0,0,1,1-.51c.53,0,.75.43.65,1l0,.14A2.22,2.22,0,0,1,10.9,4.75c1,0,1.29,1,1.06,2.23L11.62,9c-.06.34,0,.61.16.61a1.32,1.32,0,0,0,.6-.33v.35a1.68,1.68,0,0,1-1,.52c-.52,0-.73-.45-.64-1l.36-2.08c.18-1,.09-1.61-.63-1.61-.5,0-1.35.75-1.62,2.31L8.45,10Z"/><path class="cls-1" d="M16.48,10.25c-.93,0-1.37-.61-1.29-1a.4.4,0,0,1,.42-.34c.55,0,0,.88,1.05.88a.88.88,0,0,0,.81-.72A1.35,1.35,0,0,0,17,8l-.54-.52A1.63,1.63,0,0,1,16,6.11a1.58,1.58,0,0,1,1.63-1.36c.81,0,1.07.54,1,.88a.33.33,0,0,1-.33.3c-.52,0-.07-.78-.85-.78a.79.79,0,0,0-.75.66c-.08.39.09.63.45,1l.54.51a1.61,1.61,0,0,1,.49,1.4A1.79,1.79,0,0,1,16.48,10.25Z"/><path class="cls-1" d="M22.7,8.56c-.12.72,0,1.09.33,1.09.2,0,.53-.15.95-.67v.4a1.94,1.94,0,0,1-1.33.87c-.68,0-1-.52-.78-1.69l.52-3h-1l.1-.53h1l.42-2.4h.82L23.35,5h1.2l-.11.53h-1.2Z"/><path class="cls-1" d="M28.81,10.25C27.55,10.25,27,9,27.25,7.49A3.19,3.19,0,0,1,30,4.75,1.79,1.79,0,0,1,31,5h.82l-.7,4c-.06.34-.05.61.16.61a1.32,1.32,0,0,0,.6-.33v.35a1.68,1.68,0,0,1-1,.52c-.42,0-.63-.27-.66-.69A2.07,2.07,0,0,1,28.81,10.25ZM30.88,5.6A1.28,1.28,0,0,0,30,5.23c-.89,0-1.52,1.06-1.73,2.26s0,2.16.86,2.16a1.58,1.58,0,0,0,1.33-1.39Z"/><path class="cls-1" d="M39.2,4.75c.51,0,.72.37.66.67a.51.51,0,0,1-.45.45c-.58,0-.12-.6-.68-.6a.61.61,0,0,0-.32.12,2,2,0,0,1,.21,1.4,2.39,2.39,0,0,1-2,2c-.53,0-1.26.33-1.34.72s.71.57,1.19.6c1.89.16,2.4,1.06,2.25,1.92A2.69,2.69,0,0,1,35.84,14c-1.55,0-2.38-.72-2.23-1.52.07-.42.42-.85,1.15-1.2l.24.17a1.82,1.82,0,0,0-.69,1c-.12.72.81,1.08,1.62,1.08s1.83-.45,2-1.15-.54-1.05-1.71-1.19-1.93-.52-1.78-1.38a1.81,1.81,0,0,1,1.39-1.21,1.81,1.81,0,0,1-.54-1.77,2.37,2.37,0,0,1,2-2,1.21,1.21,0,0,1,.92.4A1.89,1.89,0,0,1,39.2,4.75Zm-2,.48c-.6,0-1,.67-1.16,1.56s0,1.56.61,1.56,1-.69,1.13-1.56S37.8,5.23,37.22,5.23Z"/><path class="cls-1" d="M45.29,4.75a.73.73,0,0,1,.75.94.59.59,0,0,1-.6.51.39.39,0,0,1-.4-.48c0-.21,0-.31-.14-.31-.44,0-1.14,1-1.53,3.13L43.12,10h-.8L43,6c.06-.36,0-.63-.16-.63a1.14,1.14,0,0,0-.6.35V5.32a1.52,1.52,0,0,1,1-.51c.53,0,.69.43.58,1l-.07.38C44.13,5.27,44.72,4.75,45.29,4.75Z"/><path class="cls-1" d="M50.22,10.25C49,10.25,48.41,9,48.67,7.49a3.19,3.19,0,0,1,2.77-2.74,1.78,1.78,0,0,1,1,.25h.83l-.71,4c-.06.34,0,.61.17.61a1.37,1.37,0,0,0,.6-.33v.35a1.68,1.68,0,0,1-1,.52c-.42,0-.63-.27-.66-.69A2.09,2.09,0,0,1,50.22,10.25ZM52.29,5.6a1.26,1.26,0,0,0-.93-.37c-.88,0-1.51,1.06-1.72,2.26s0,2.16.85,2.16a1.58,1.58,0,0,0,1.34-1.39Z"/><path class="cls-1" d="M62.84,4.75c1,0,1.17,1,.94,2.23L63.44,9c-.08.34,0,.61.15.61a1.23,1.23,0,0,0,.6-.33v.35a1.66,1.66,0,0,1-1,.52c-.52,0-.75-.45-.64-1l.36-2.08c.21-1.11.13-1.61-.51-1.61-.48,0-1.31.69-1.58,2.31L60.44,10h-.82l.5-2.94c.2-1.11.14-1.61-.5-1.61S58.31,6.14,58,7.76L57.63,10h-.84l.72-4c.07-.36,0-.63-.16-.63a1.14,1.14,0,0,0-.6.35V5.32a1.57,1.57,0,0,1,1-.51c.53,0,.75.43.65,1l0,.14A2.12,2.12,0,0,1,60,4.75c.77,0,1,.54,1,1.38A2.18,2.18,0,0,1,62.84,4.75Z"/></svg>