<svg id="Layer_1" data-name="Layer 1" xmlns="http://www.w3.org/2000/svg" viewBox="0 0 44 25"><defs><style>.cls-1{fill:#fcf2eb;stroke:#293b5c;stroke-linecap:round;stroke-linejoin:round;stroke-width:0.2px;}</style></defs><path class="cls-1" d="M43.17,7.93a2.12,2.12,0,0,0,.35-.67,2,2,0,0,0-.46-1.64,9.11,9.11,0,0,0-3.42-3.25,5.19,5.19,0,0,1-.5-.31A4,4,0,0,0,38,1.49a3.76,3.76,0,0,0-4.32,1.27h0c-.08-.22-.14-.43-.2-.65s-.13-.46-.22-.68-.38-.69-.74-.58a.84.84,0,0,0-.55.43.73.73,0,0,0,0,.25,6.55,6.55,0,0,0-.52-.66,1,1,0,0,0-.52-.26l-.16,0a.3.3,0,0,0-.29,0,.33.33,0,0,0-.14.26V1a2.13,2.13,0,0,0,0,.56,1.08,1.08,0,0,0,.39.61,3.91,3.91,0,0,1,1.11,2.91s-.07.1-.06.11c-.59.08-1.19.14-1.77.2l-.37,0v0c-.07-.15-.13-.28-.2-.41a2.2,2.2,0,0,0-.18-.28,1.49,1.49,0,0,0-.15-.21,1.18,1.18,0,0,0-.29-1.09,1.4,1.4,0,0,1-.15-.24l-.25-.47A4.73,4.73,0,0,1,28,1.8l-.06-.27A1.52,1.52,0,0,0,27.21.37l-.1-.06c-.21-.13-.65-.41-1,0a1.15,1.15,0,0,0,0,1.11c.2.37.42.73.65,1.08a14.58,14.58,0,0,1,.89,1.57A4.51,4.51,0,0,1,28,5.37l.06.4-.22.12a1.59,1.59,0,0,1-.2-.39,7.16,7.16,0,0,0-.58-1c-.44-.68-1-1.48-1.52-2.24a1.29,1.29,0,0,0-.85-.59,1.13,1.13,0,0,0-.61.27,3.15,3.15,0,0,0-.25-.28,1,1,0,0,0-.67-.38h0a.74.74,0,0,0-.52.24.87.87,0,0,0,0,1.24l.11.16a6.07,6.07,0,0,1,.82,1.37c.3.77.54,1.55.79,2.38.08.27.16.53.25.8l-.38.22-.09-.14c-.15-.26-.3-.5-.42-.75s-.36-.78-.53-1.18-.46-1-.71-1.52a.83.83,0,0,0-.54-.47.9.9,0,0,0-.76.18A.7.7,0,0,0,21,4a5.41,5.41,0,0,0-.49-.44.4.4,0,0,0-.39,0c-.05,0-.43.13-.52.41a1.15,1.15,0,0,0,.07.89,19,19,0,0,1,2,4.46l-.31.21a15.26,15.26,0,0,1-1.69-2.34c-.26-.4-.51-.8-.78-1.19a2,2,0,0,0-.64-.53.45.45,0,0,0-.46,0c-.21.13-.31.28-.3.44V6L17,5.33a.35.35,0,0,0-.24-.14.37.37,0,0,0-.21.06,2,2,0,0,0-.29-.14A1.53,1.53,0,0,0,15.83,5l-.14,0a.35.35,0,0,0-.24.06.37.37,0,0,0-.12.22.69.69,0,0,1,0,.13.61.61,0,0,0,.07.58,3.7,3.7,0,0,0,.48.42l.3.25.36.31a3.05,3.05,0,0,1,.75.78c.44.8.81,1.63,1.21,2.5.12.27.24.53.37.8l-.16.08c-.38.18-.77.37-1.16.52a.35.35,0,0,1-.2-.05c-.72-.81-1.41-1.64-2.11-2.47L14.22,8a1,1,0,0,0-.52-.41,1.28,1.28,0,0,0-.93.14c-.3.22-.16.82-.06,1a3.54,3.54,0,0,0,.63.74L14,10a9.85,9.85,0,0,1,2,2.23l-.11,0a11.3,11.3,0,0,1-1.19.28c-.07,0-.25-.09-.29-.15-.35-.59-.68-1.22-1-1.82l-.25-.48-.24-.46c-.14-.29-.28-.58-.45-.86A3.93,3.93,0,0,0,12,8.26L11.7,8a.36.36,0,0,0-.23-.11.85.85,0,0,0-.75.34,1,1,0,0,0,.08,1,5.76,5.76,0,0,0,.57.88l.05.08a7.3,7.3,0,0,1,1.36,2.52c-.21,0-.41,0-.61,0H12l-.28,0c-.34-.53-.64-1.08-1-1.65l-.33-.6a.29.29,0,0,0-.14-.13l-.94-.43A.33.33,0,0,0,9,9.9l-.13.18a.3.3,0,0,0,0,.33l.08.17a3,3,0,0,0,.24.43c.15.23.32.45.48.66s.46.61.67.93a2.81,2.81,0,0,0,.16.27.93.93,0,0,1-.27.09c-.64.16-1.34.25-1.89.33a1.34,1.34,0,0,1-.22-.12,8.41,8.41,0,0,0-6.2-1.44,1.24,1.24,0,0,0-1.07.65,1.21,1.21,0,0,0,.35,1.18,4.26,4.26,0,0,0,.52.52,3.42,3.42,0,0,1,.5.51,7.77,7.77,0,0,0,2.65,2.3c.81.44,1,.86.75,1.6-.32.92-.7,1.85-1,2.74-.22.54-.43,1.07-.64,1.61,0,.06-.21.58,0,.88a1.77,1.77,0,0,0,.81.49l.16,0a1.24,1.24,0,0,0,.4-.09l.13-.05a6.67,6.67,0,0,0,3.49-2.78c.64-.85,1.2-1.77,1.75-2.65.24-.39.48-.78.73-1.16a.34.34,0,0,0,0-.35,1.43,1.43,0,0,1,0-1.39c.06-.19.12-.38.16-.56v0a9.45,9.45,0,0,1,.19,2.68v.19a.87.87,0,0,0,.32.6.81.81,0,0,1,.12.14.31.31,0,0,0,.22.12.29.29,0,0,0,.24-.07l.11-.1.21-.19.26-.21.12-.09a.33.33,0,0,0,.06-.44,2.35,2.35,0,0,1-.41-2.1,1.85,1.85,0,0,0,0-1.33,1.17,1.17,0,0,1,.74.13c.15.12.24.4.3,1a12.92,12.92,0,0,1-.05,2.24v.1c-.05.69.09,1.1,1,1.18a.3.3,0,0,0,.25-.1.29.29,0,0,0,.09-.25l0-.15a.52.52,0,0,0,.4-.21c.19-.3-.06-.66-.17-.81a.64.64,0,0,1-.09-.21c0-.8-.08-1.6-.11-2.4a5.8,5.8,0,0,1,0-.59l1.49-.44a2,2,0,0,1,.07.43c0,.61-.08,1.22-.13,1.83s-.09,1.24-.12,1.86a1.43,1.43,0,0,0,.22.77.58.58,0,0,0,.51.36h0a.66.66,0,0,0,.54-.38,4.15,4.15,0,0,1,.24-.34l.1-.14a.28.28,0,0,0,0-.29,1.78,1.78,0,0,0-.12-.29,1.75,1.75,0,0,1-.17-.52c0-.43,0-.87,0-1.31s0-.68,0-1a2.12,2.12,0,0,1,.48-1.54,2.64,2.64,0,0,1,.84-.43l.08,0a5.61,5.61,0,0,1,0,.71c-.09,1.29-.2,2.59-.33,3.88a1.18,1.18,0,0,0,.25.9.65.65,0,0,0,.53.19c.41,0,.85-.67.85-1.08,0-.17,0-.33,0-.49a1.41,1.41,0,0,0,.42.45c.33.2.83-.17,1-.34s.09-.42,0-.61,0-.11,0-.16v-.1a1.73,1.73,0,0,1-.05-.45c0-.24,0-.47,0-.71a7,7,0,0,0,0-1.51l0-.2a4.19,4.19,0,0,1,0-1.93c.1-.33.16-.45.33-.55l.49-.26s0,.08,0,.11a17.2,17.2,0,0,1-.13,4.59c-.14.84.34,1.09.64,1.17a.32.32,0,0,0,.33-.13l.52-.76a.31.31,0,0,0,0-.21A19.8,19.8,0,0,1,24,11.94c.06.67.11,1.35.16,2a1,1,0,0,0,.8,1,.3.3,0,0,0,.33-.17c0-.09.1-.18.15-.27a1.36,1.36,0,0,0,.27-.77c0-.56-.13-1.13-.21-1.67s-.12-.78-.16-1.17-.07-.9-.09-1.38l0-.51.25-.14.08.2c.14.37.27.72.37,1.08A6,6,0,0,1,26,13a1.08,1.08,0,0,0,.63,1.34.32.32,0,0,0,.41-.12l.49-.79a.34.34,0,0,0,0-.22l-.84-5,.11-.06.43-.2,0,0a.8.8,0,0,0-.22.53c0,.41.12.82.19,1.22l.18,1c.18,1,.37,2.07.57,3.09a1.5,1.5,0,0,0,.26.52,2.5,2.5,0,0,1,.16.24.32.32,0,0,0,.27.16h0a.3.3,0,0,0,.26-.17c.47-1,.48-1.07.26-1.91l0-.08c-.26-1-.48-2-.64-2.75-.05-.24-.08-.48-.11-.72s-.08-.55-.14-.82a.69.69,0,0,0-.39-.41l-.11-.06s-.06,0-.1,0l.05,0c.45-.19.74-.24.92-.16s.32.33.47.78a7.49,7.49,0,0,1,.39,3.79,1.08,1.08,0,0,0,.11.9.65.65,0,0,0,.5.26.29.29,0,0,0,.22-.07,3.69,3.69,0,0,0,.28-.27c.06-.07.15-.16.14-.17a1,1,0,0,0,.75-.23.72.72,0,0,0,.18-.37,1.73,1.73,0,0,0,.65.55.34.34,0,0,0,.34,0,.77.77,0,0,0,.23.38.8.8,0,0,0,.66.18.65.65,0,0,0,.52-.27,1,1,0,0,0,0-.82,7,7,0,0,1,0-3.18l.06.14c.3.75.6,1.5.88,2.26a3.1,3.1,0,0,0,2.36,1.94,7.47,7.47,0,0,0,3.84-.82l.12,0a2,2,0,0,0,1-2.64,1.33,1.33,0,0,1,.2-.35h.2c.53,0,.82-.37.88-1C43.62,8.22,43.4,8.07,43.17,7.93Zm-1.54-.69-.11.1-.79.73c-.33.29-.66.59-1,.91a.89.89,0,0,0-.17,1,3.64,3.64,0,0,0,.89.86.77.77,0,0,0,.42.1.92.92,0,0,1-.23.19l-.2.08a5.07,5.07,0,0,1-2.75.62,1.75,1.75,0,0,1-1.36-1.22c0-.1,0-.2-.06-.3A2.8,2.8,0,0,0,35.85,9a4.68,4.68,0,0,1-.66-1.43,7.05,7.05,0,0,0-.47-1.16.1.1,0,0,0,0,0,4.3,4.3,0,0,0,.09-1.07c0-.67,0-1.24.55-1.66A2.24,2.24,0,0,1,38,3.46l.73.37a1.29,1.29,0,0,0-.94.74,6.82,6.82,0,0,0-.54,1.67,1.4,1.4,0,0,0,.23,1.22A1.64,1.64,0,0,0,38.79,8h.11a2.68,2.68,0,0,0,1.59-1.06,1.49,1.49,0,0,0,.14-1.34,2.61,2.61,0,0,1-.06-.27L40.51,5a9.63,9.63,0,0,1,.59.88A10.31,10.31,0,0,0,41.86,7,1,1,0,0,1,41.63,7.24Zm-11.39.08a.84.84,0,0,1,.34.73c0,.38,0,.77,0,1.15l-.39-1.92Zm3.15-.16a1.26,1.26,0,0,0-.26.14V6.93h.21Zm-7.33-1.7.13.24a3.1,3.1,0,0,1,.34.7,2.16,2.16,0,0,1-.52.31l-.21-.46c-.49-1-1-2.06-1.43-3.09l.05,0a3.8,3.8,0,0,1,.64.62A15.93,15.93,0,0,1,26.06,5.46ZM22.39,7l-.05-.06a4.81,4.81,0,0,1-.78-1.55A5.46,5.46,0,0,1,22.39,7ZM9.88,15a2,2,0,0,1,0-.26l.18,0A2.32,2.32,0,0,0,9.88,15ZM9.16,18a29.42,29.42,0,0,1-1.89,2.56L7,20.88a4.37,4.37,0,0,1-1,1c.14-.38.27-.74.42-1.1A6.89,6.89,0,0,0,7,16.47.76.76,0,0,0,6.64,16a7.68,7.68,0,0,0-1-.52A10.36,10.36,0,0,1,2.8,13.23l0,0a8.7,8.7,0,0,1,4.38,1.22,4.59,4.59,0,0,0,.61.35c.62.31,1,.52.85,1.19a.45.45,0,0,0,.14.34l.07.07a.31.31,0,0,0,.36.07,1.63,1.63,0,0,0,.32-.22A3,3,0,0,1,9.16,18Zm2.3-3.11-.09-.1-.3-.31L11,14.45l.24-.06,0,.08a4.37,4.37,0,0,1,.18.46Zm9,.5c0,.2,0,.42,0,.63v0q-.07-.42-.12-.84a8.92,8.92,0,0,1,.07-2.91.4.4,0,0,1,.07-.15v.33c0,.67.07,1.35.08,2C20.52,14.79,20.49,15.1,20.46,15.42Zm11.22-4c0-.31,0-.62,0-.93l0-1a4.31,4.31,0,0,1,0-.79,4,4,0,0,0-.1-1.67h.09l.05.67c.05.76.1,1.5.14,2.24,0,.13,0,.26,0,.4s.08.61,0,.72A1.85,1.85,0,0,0,31.68,11.44Z"/></svg>