<svg id="Layer_1" data-name="Layer 1" xmlns="http://www.w3.org/2000/svg" viewBox="0 0 34 58"><defs><style>.cls-1{fill:#2121e8;}</style></defs><path class="cls-1" d="M29.18,50c.06.75.1,1.5.19,2.25s-.22,1.41-1,1.51c-1.53.19-3.05.43-4.58.6a7.56,7.56,0,0,1-2.17.09c-1.7-.27-3.28.28-4.92.51s-3.41.4-5.11.6c-2,.25-5-1-5.45-2.47A7.53,7.53,0,0,1,6,49.63a45.65,45.65,0,0,1,1.56-5.45,14.75,14.75,0,0,1,4-5.8A20.86,20.86,0,0,0,14.22,35a3.05,3.05,0,0,0,.25-2.89,21.87,21.87,0,0,0-1.21-3.06,13.88,13.88,0,0,0-1.76-2.24c-1.1-1.25-2.24-2.48-3.35-3.73a20.85,20.85,0,0,1-2.33-2.74c-.41-.64-1-1.37-.62-2.35.1-.23-.18-.64-.31-1s-.31-.4-.35-.62c-.23-1.57-.46-3.15-.64-4.73A3.37,3.37,0,0,1,5.48,8.45C7.44,7,9.8,6.66,12,6a9.69,9.69,0,0,1,2.84,0,20.5,20.5,0,0,0,2.48-.13,16.48,16.48,0,0,1,9.37,1.37,5,5,0,0,1,2.39,3.16c0,.09.06.25,0,.29-1.12,1.17-.19,2.68-.7,4-.74,1.87-1.14,3.88-2,5.67a8.17,8.17,0,0,1-3.27,3.49c-2.65,1.58-3.49,4.24-3.3,7.19a2.71,2.71,0,0,0,1.28,1.83c3.33,1.82,5.78,4.33,6.71,8.08.51,2,.89,4.08,1.27,6.13a2.71,2.71,0,0,1-.29,2.48s.14.29.21.44ZM13.4,26.38l4.35,8a5.27,5.27,0,0,0-1,.21,2.24,2.24,0,0,0-.82.55c-1,1.2-1.88,2.43-2.84,3.63s-2,2.33-2.88,3.55c-1.6,2.18-1.94,4.83-2.61,7.35,0,0,.12.13.17.19.33-.42.55-1,1-1.21,1-.57,2-1,2.81-1.36a8,8,0,0,0,1.79.56c1.39.06,2.79-.1,4.17,0,2.34.2,4.67.49,7,.85a16.43,16.43,0,0,1,2.68.88,6.1,6.1,0,0,0,.08-.69,20.41,20.41,0,0,0-1.14-7.2A12.48,12.48,0,0,0,23,36.27a41.66,41.66,0,0,0-4.47-3.09,1.81,1.81,0,0,1-.75-.88c-.12-.53,0-1.09-.82-1.06-.14,0-.34-.31-.39-.5s.25-.39.37-.38c1,.12,1-.62,1.09-1.28a9,9,0,0,1,.29-1.46,7.1,7.1,0,0,1,2.05-3.51c2-1.66,4.28-3.05,5.14-5.84a16.84,16.84,0,0,0,1.24-5.63c-1.25,0-2.47-.11-3.48.75a.91.91,0,0,1-.58.1c-1.51-.05-3-.15-4.54-.16-1.89,0-3.8-.38-5.64.38a.65.65,0,0,1-.2,0L8.68,13.5l-2.52-.12C5.34,17.3,7.4,21.63,11.05,24a11.92,11.92,0,0,1,.95-.77c.06,0,.26.14.4.21l-.74,1.29,1,.95,1.09-.89L14,25Zm0-17.8,0,.29a10.81,10.81,0,0,0-2.61,0c-1.43.36-2.79,1-4.21,1.43-.74.23-1,.72-.81,1.32a1.44,1.44,0,0,0,1.07.75q2.63.15,5.25.09c1.53-.05,3-.2,4.57-.35,3.15-.32,6.31-.69,9.47-1,.88-.08,1-.55.76-1.22-.14-.39-.3-.92-.61-1.09a10.52,10.52,0,0,0-3.4-1.59c-2.23-.31-4.53-.17-6.79-.32a23.06,23.06,0,0,0-6.72.82A1.82,1.82,0,0,0,8,9.09C9.86,9,11.57,7.69,13.41,8.58ZM7.62,53a5.08,5.08,0,0,0,1.56.71,17.45,17.45,0,0,0,3,0c2.68-.15,5.36-.31,8-.52,1.95-.15,3.9-.36,5.85-.61.36,0,.68-.44,1-.67a8.53,8.53,0,0,0-.77-.7,3.62,3.62,0,0,0-.77-.43,14.19,14.19,0,0,0-6.38-1.44c-2.46.16-5,.08-7.38.45C10,50.05,8.07,50.42,7.62,53Z"/><path class="cls-1" d="M11,56.1c-2.15,0-4.9-1.2-5.39-2.85a8,8,0,0,1-.13-3.72,40.85,40.85,0,0,1,1.4-5L7.09,44a15.3,15.3,0,0,1,4.18-6,21.62,21.62,0,0,0,2.54-3.29A2.58,2.58,0,0,0,14,32.3l-.3-.85a12.9,12.9,0,0,0-.88-2.15,10.19,10.19,0,0,0-1.34-1.75l-.36-.4c-.65-.74-1.31-1.47-2-2.2-.46-.51-.92-1-1.37-1.52l-.65-.71a14.07,14.07,0,0,1-1.74-2.1l-.14-.23a2.55,2.55,0,0,1-.51-2.58s-.12-.18-.18-.3l-.13-.28a.93.93,0,0,0-.11-.16,1.44,1.44,0,0,1-.27-.57c-.19-1.3-.44-3-.65-4.75A3.83,3.83,0,0,1,5.18,8.06a13.61,13.61,0,0,1,5-2.1c.56-.15,1.12-.3,1.68-.48a5,5,0,0,1,2-.06,7.89,7.89,0,0,0,1,.07,21.43,21.43,0,0,0,2.42-.12,17,17,0,0,1,9.64,1.41,5.55,5.55,0,0,1,2.65,3.45.75.75,0,0,1-.1.8c-.47.5-.46,1.05-.41,1.92a4.25,4.25,0,0,1-.18,1.89c-.29.74-.54,1.54-.78,2.31a23.85,23.85,0,0,1-1.25,3.39,8.67,8.67,0,0,1-3.46,3.7c-2.24,1.33-3.27,3.59-3.06,6.73a2.25,2.25,0,0,0,1,1.42c3.79,2.07,6.07,4.82,7,8.4.51,2.05.91,4.17,1.27,6.16l0,.14a3.23,3.23,0,0,1-.22,2.47.47.47,0,0,1,.29.41l.05.69c0,.52.08,1,.14,1.53a1.62,1.62,0,0,1-1.44,2.07l-1.86.25c-.91.13-1.82.25-2.74.36l-.26,0a7.32,7.32,0,0,1-2,.06,9.61,9.61,0,0,0-3.36.25c-.47.1-.94.19-1.41.25-1.07.15-2.15.27-3.22.39l-1.9.22A5.88,5.88,0,0,1,11,56.1ZM12.85,6.34a2.48,2.48,0,0,0-.68.09c-.57.18-1.15.34-1.72.49A12.9,12.9,0,0,0,5.79,8.85,2.84,2.84,0,0,0,4.4,11.64c.2,1.72.45,3.42.64,4.71l.09.13a2,2,0,0,1,.22.36l.11.23a1.37,1.37,0,0,1,.2,1.13c-.24.57,0,1,.42,1.64l.16.24a13.26,13.26,0,0,0,1.62,2c.22.24.45.48.66.72.46.51.91,1,1.37,1.52.67.73,1.33,1.47,2,2.21l.35.4a10.85,10.85,0,0,1,1.48,1.93,15.71,15.71,0,0,1,1,2.3c.09.28.19.55.29.83a3.59,3.59,0,0,1-.3,3.34A21.42,21.42,0,0,1,12,38.73,14.49,14.49,0,0,0,8,44.34l-.17.54A41,41,0,0,0,6.5,49.72,7.17,7.17,0,0,0,6.61,53c.35,1.2,3,2.35,4.91,2.12l1.91-.22c1.06-.12,2.13-.24,3.19-.39.46-.06.91-.15,1.36-.24A10.37,10.37,0,0,1,21.69,54a6.57,6.57,0,0,0,1.76-.06l.27,0c.9-.11,1.81-.23,2.71-.36l1.87-.25c.35,0,.68-.15.58-1-.07-.53-.11-1.06-.14-1.59l0-.37a.46.46,0,0,1-.14-.17l-.08-.13c-.12-.21-.34-.55-.07-.86a2.18,2.18,0,0,0,.21-1.93l0-.14c-.36-2-.76-4.08-1.26-6.1-.82-3.29-2.94-5.83-6.47-7.76A3.21,3.21,0,0,1,19.33,31c-.23-3.49,1-6.13,3.55-7.65A7.69,7.69,0,0,0,26,20.1a22.71,22.71,0,0,0,1.2-3.25c.24-.79.49-1.6.8-2.38A3.49,3.49,0,0,0,28.06,13a3.32,3.32,0,0,1,.55-2.5A4.53,4.53,0,0,0,26.5,7.69a16,16,0,0,0-9.09-1.33l-1,.09c.77,0,1.56.06,2.34.07a33.28,33.28,0,0,1,4.22.24A8.07,8.07,0,0,1,25.87,8l.64.37a2.24,2.24,0,0,1,.81,1.32,1.58,1.58,0,0,1,0,1.36,1.41,1.41,0,0,1-1.14.57c-1.75.17-3.5.36-5.24.55l-4.22.45-.94.09,1,0c.46,0,.93.05,1.39.05,1,0,2,.05,2.94.09l1.62.07A1.29,1.29,0,0,0,23,13a4.52,4.52,0,0,1,3.11-.83h.63a.46.46,0,0,1,.36.13.48.48,0,0,1,.16.35,14,14,0,0,1-1,4.86l-.3.94c-.76,2.46-2.55,3.88-4.28,5.25-.34.27-.68.54-1,.83a6.66,6.66,0,0,0-1.89,3.28,5.72,5.72,0,0,0-.23,1.08l-.07.52c-.06.43-.17,1.25-1,1.45a1.25,1.25,0,0,1,.69,1.09,2,2,0,0,0,0,.26,1.38,1.38,0,0,0,.54.59c.51.36,1,.69,1.57,1a20.19,20.19,0,0,1,3,2.11,12.9,12.9,0,0,1,3.24,5.67A20.87,20.87,0,0,1,27.73,49a4.36,4.36,0,0,1,0,.45l0,.28a.49.49,0,0,1-.23.36.48.48,0,0,1-.42.05c-.31-.1-.6-.21-.9-.32a7.89,7.89,0,0,0-1.7-.53c-2.48-.39-4.76-.66-7-.85a20.85,20.85,0,0,0-2.24,0c-.63,0-1.28,0-1.92,0A4,4,0,0,1,12,48l-.44-.16-.51.22c-.65.3-1.39.63-2.07,1a2.1,2.1,0,0,0-.5.62,5.27,5.27,0,0,1-.31.46.49.49,0,0,1-.76,0,.63.63,0,0,1-.29-.66c.14-.51.26-1,.38-1.55a15.72,15.72,0,0,1,2.31-6c.57-.77,1.18-1.51,1.78-2.23.38-.44.75-.89,1.11-1.34s.83-1.06,1.24-1.6,1.06-1.36,1.6-2a2.57,2.57,0,0,1,1-.7A2.13,2.13,0,0,1,17,34l-4-7.42a.49.49,0,0,1,0-.44l0,0a.5.5,0,0,1-.62-.05l-1-.95a.5.5,0,0,1-.1-.61l0,0a.52.52,0,0,1-.47,0c-3.84-2.53-5.94-7.13-5.1-11.17a.48.48,0,0,1,.51-.4l.55,0a1.93,1.93,0,0,1-1.45-1.07,1.38,1.38,0,0,1,0-1.13,1.67,1.67,0,0,1,1.09-.83l1.2-.41-.07-.08a.53.53,0,0,1-.06-.47A2.31,2.31,0,0,1,9.24,7.27a29.85,29.85,0,0,1,4.85-.83l-.3,0C13.46,6.38,13.15,6.34,12.85,6.34Zm3.47,41c.4,0,.8,0,1.2,0,2.23.19,4.53.47,7,.86a9.59,9.59,0,0,1,1.91.58l.27.11v0a19.82,19.82,0,0,0-1.12-7,12,12,0,0,0-3-5.25,19.8,19.8,0,0,0-2.82-2c-.54-.33-1.09-.67-1.61-1a3,3,0,0,1-.73-.71l.7,1.29a.51.51,0,0,1,0,.45.52.52,0,0,1-.35.28l-.37.06a2.18,2.18,0,0,0-.54.12,1.55,1.55,0,0,0-.63.41c-.54.66-1.06,1.34-1.58,2l-1.26,1.61c-.37.46-.74.91-1.12,1.36-.59.71-1.2,1.43-1.75,2.18a14.8,14.8,0,0,0-2.14,5.6c.74-.43,1.5-.77,2.17-1.08l.67-.3a.48.48,0,0,1,.37,0l.68.25a3.41,3.41,0,0,0,1,.29c.61,0,1.23,0,1.84,0Zm.55-15.61.47.86a.7.7,0,0,1-.06-.19,2,2,0,0,1-.06-.34,1.56,1.56,0,0,0-.07-.32h-.28Zm0-.88h0ZM14,26.36l2.18,4a1.1,1.1,0,0,1,.14-.18.84.84,0,0,1,.7-.34c.39,0,.42,0,.51-.62l.07-.54a7.18,7.18,0,0,1,.27-1.25A7.64,7.64,0,0,1,20,23.73c.34-.29.69-.57,1-.84,1.68-1.34,3.27-2.6,3.94-4.76.1-.33.21-.64.31-1a14.87,14.87,0,0,0,.91-4h-.14a3.74,3.74,0,0,0-2.52.62,1.3,1.3,0,0,1-.91.22L21,13.92c-1,0-1.94-.08-2.9-.09-.48,0-1,0-1.44-.05a9,9,0,0,0-4,.39.93.93,0,0,1-.42.06l-1.39-.09L8.65,14,6.9,13.91H6.57A10.21,10.21,0,0,0,11,23.4a7.13,7.13,0,0,1,.71-.55.68.68,0,0,1,.81.12l.1.06a.53.53,0,0,1,.24.31.47.47,0,0,1-.05.38l-.54,1,.41.38.75-.61a.5.5,0,0,1,.62,0l.26.2a.51.51,0,0,1,.15.6ZM8.24,13l.47,0,2.22.14,1.39.09a5.86,5.86,0,0,1,.87-.28L12.08,13C10.83,13,9.54,13,8.24,13ZM11.73,9.3a3.33,3.33,0,0,0-.84.09,22.53,22.53,0,0,0-2.36.79c-.61.23-1.21.45-1.83.64a.82.82,0,0,0-.49.32.5.5,0,0,0,0,.36,1.06,1.06,0,0,0,.63.41c1.77.1,3.52.13,5.21.09s3.13-.21,4.53-.35l4.21-.44c1.75-.19,3.5-.38,5.26-.55.28,0,.38-.1.39-.12s.06-.09-.06-.45-.24-.74-.38-.82l-.65-.38a7.28,7.28,0,0,0-2.57-1.14,32.93,32.93,0,0,0-4.1-.23c-.88,0-1.77,0-2.65-.09a22.34,22.34,0,0,0-6.57.81A1.86,1.86,0,0,0,9,8.43l.88-.24a5,5,0,0,1,3.77-.06.52.52,0,0,1,.28.5l0,.29a.51.51,0,0,1-.5.45c-.28,0-.57,0-.85,0Zm17,1h0ZM10.33,54.28a9.82,9.82,0,0,1-1.21-.07,3.49,3.49,0,0,1-1.35-.55c-.13-.07-.25-.15-.36-.2a.51.51,0,0,1-.28-.54c.53-3,3-3.38,4.56-3.63A42.1,42.1,0,0,1,16.56,49c.85,0,1.71-.06,2.56-.11a14.81,14.81,0,0,1,6.6,1.47,4,4,0,0,1,.88.5,5.88,5.88,0,0,1,.59.53l.22.2a.5.5,0,0,1,.16.4.49.49,0,0,1-.22.38c-.09.06-.18.14-.28.22a1.82,1.82,0,0,1-1,.53c-2,.27-4,.48-5.87.62-2.65.21-5.32.36-8,.52h-.27C11.4,54.25,10.87,54.28,10.33,54.28ZM8.19,52.75l.09,0a2.76,2.76,0,0,0,1,.42,15.4,15.4,0,0,0,2.63,0h.26c2.73-.16,5.39-.31,8-.51C22,52.55,24,52.34,26,52.08a.87.87,0,0,0,.33-.2,2.61,2.61,0,0,0-.31-.27,2.67,2.67,0,0,0-.66-.37,13.65,13.65,0,0,0-6.16-1.4c-.86,0-1.72.08-2.59.11a42,42,0,0,0-4.75.33C10.06,50.55,8.66,50.91,8.19,52.75Z"/><path class="cls-1" d="M18,20.33a7.94,7.94,0,0,1-.93-1.9c-.06-.33.43-1.08.61-1.06a4.78,4.78,0,0,1,1.48.64Z"/><path class="cls-1" d="M18,20.83a.5.5,0,0,1-.44-.27c-.13-.24-.26-.46-.38-.66a4.39,4.39,0,0,1-.61-1.38,2,2,0,0,1,.54-1.36.76.76,0,0,1,.62-.29,3.31,3.31,0,0,1,1.26.48c.13.07.26.15.39.21a.48.48,0,0,1,.25.29.46.46,0,0,1,0,.38L18.4,20.56a.51.51,0,0,1-.44.27Zm-.2-2.93a1.35,1.35,0,0,0-.24.48,3.67,3.67,0,0,0,.41.89l.53-1.05A4.19,4.19,0,0,0,17.75,17.9Z"/><path class="cls-1" d="M24.83,14.46a6.67,6.67,0,0,1-.55,1c-.43.55-.91,1-1.39,1.56a3.23,3.23,0,0,1-.7.58c-.07,0-.43-.25-.41-.32a3,3,0,0,1,.39-.85,7.11,7.11,0,0,1,.9-1.22,16.16,16.16,0,0,1,1.35-1.1Z"/><path class="cls-1" d="M22.17,18.08a.94.94,0,0,1-.53-.23.72.72,0,0,1-.35-.72,3.51,3.51,0,0,1,.46-1l.08-.12a7.54,7.54,0,0,1,.88-1.18,8.44,8.44,0,0,1,1-.82l.41-.32a.5.5,0,0,1,.64,0l.41.36a.51.51,0,0,1,.11.61c-.06.1-.1.2-.15.3a3.59,3.59,0,0,1-.45.77c-.43.54-.92,1-1.38,1.55a3.72,3.72,0,0,1-.86.7A.54.54,0,0,1,22.17,18.08Zm1.72-2.95a6.14,6.14,0,0,0-.47.42,5.05,5.05,0,0,0-.64.83c.4-.42.77-.83,1.11-1.25Z"/><path class="cls-1" d="M13.39,21.42l-.64.88a6.68,6.68,0,0,1-1.2-.56.79.79,0,0,1-.26-.67c0-.14.44-.32.62-.27A12.54,12.54,0,0,1,13.39,21.42Z"/><path class="cls-1" d="M12.75,22.8a.52.52,0,0,1-.21,0l-.37-.16a4.86,4.86,0,0,1-.91-.46A1.29,1.29,0,0,1,10.8,21a.76.76,0,0,1,.38-.46,1.2,1.2,0,0,1,.86-.17,6.47,6.47,0,0,1,1.07.43l.48.21a.55.55,0,0,1,.29.33.5.5,0,0,1-.08.43l-.65.88A.51.51,0,0,1,12.75,22.8Zm-.92-1.5,0,0a4,4,0,0,0,.69.34h0l.05-.07A6,6,0,0,0,11.83,21.3Z"/><path class="cls-1" d="M16.12,26l.9.74a2.86,2.86,0,0,1-.81.52c-.17,0-.58-.27-.58-.42S15.89,26.41,16.12,26Z"/><path class="cls-1" d="M16.18,27.8a1.18,1.18,0,0,1-.68-.28.88.88,0,0,1-.37-.63,1.37,1.37,0,0,1,.36-.82q.11-.13.21-.3a.48.48,0,0,1,.34-.23.52.52,0,0,1,.4.11l.9.74a.52.52,0,0,1,.18.41.51.51,0,0,1-.22.39l-.2.16a1.92,1.92,0,0,1-.78.44Zm.06-1Z"/><path class="cls-1" d="M9.17,15.05,8,16.59C7.27,15.59,7.38,15.45,9.17,15.05Z"/><path class="cls-1" d="M8,17.09h0a.47.47,0,0,1-.39-.21c-.28-.4-.62-.9-.43-1.39s.84-.68,1.94-.93a.51.51,0,0,1,.53.23.5.5,0,0,1,0,.57L8.35,16.9A.49.49,0,0,1,8,17.09Z"/><path class="cls-1" d="M18.33,16.5c0-.35-.07-.82.11-1s.65-.11,1.29-.18l-1.1,1.21Z"/><path class="cls-1" d="M18.63,17h-.3a.5.5,0,0,1-.36-.16.51.51,0,0,1-.13-.37c0-.09,0-.19,0-.29a1.46,1.46,0,0,1,.24-1,1.31,1.31,0,0,1,1.05-.31l.56,0a.51.51,0,0,1,.5.27.52.52,0,0,1-.08.57L19,16.84A.52.52,0,0,1,18.63,17Z"/><path class="cls-1" d="M15.73,15.07l-1.33.41c0-.21-.11-.58-.06-.6a8.46,8.46,0,0,1,1.24-.37Z"/><path class="cls-1" d="M14.4,16a.53.53,0,0,1-.27-.08.51.51,0,0,1-.22-.36,1.77,1.77,0,0,0,0-.2c-.06-.34-.13-.76.28-.93a8.29,8.29,0,0,1,1-.31l.29-.08a.51.51,0,0,1,.62.35l.15.57a.49.49,0,0,1-.33.61l-1.33.4A.4.4,0,0,1,14.4,16Z"/><path class="cls-1" d="M21.81,20.81l1,1.09-1.41.51Z"/><path class="cls-1" d="M21.4,22.91a.55.55,0,0,1-.34-.13.5.5,0,0,1-.14-.49l.4-1.61a.54.54,0,0,1,.36-.36.51.51,0,0,1,.5.15l1,1.09a.52.52,0,0,1,.12.46.49.49,0,0,1-.32.35l-1.41.51A.51.51,0,0,1,21.4,22.91Z"/></svg>