<svg id="Layer_1" data-name="Layer 1" xmlns="http://www.w3.org/2000/svg" viewBox="0 0 46 14"><defs><style>.cls-1{fill:#293b5c;}</style></defs><path class="cls-1" d="M.77,3.21H.44L1,1.5H5.59C7,1.5,7.19,1.17,7.52.36h.35l-.6,1.71H4.55L3.43,8.43c-.27,1.5-.17,1.75.76,1.75l0,.32H1l0-.32c1,0,1.16-.25,1.43-1.75L3.59,2.07H2.71C1.34,2.07,1.12,2.4.77,3.21Z"/><path class="cls-1" d="M12.93,10.2c.57,0,1.23-.71,1.5-2.21.33-1.89-.49-1.87-.39-2.47a.34.34,0,0,1,.38-.29c.34,0,.81.78.46,2.76-.3,1.73-1.24,2.76-2.08,2.76a1.57,1.57,0,0,1-1.4-.84,2.17,2.17,0,0,1-1.48.84c-1,0-1.46-.69-1.25-1.87.17-1,1-2.18,1.08-2.75a2.13,2.13,0,0,0-1-.3,1.23,1.23,0,0,0-.6.35V5.82a1.62,1.62,0,0,1,1-.51c.52,0,.63.21,1-.06h.27c-.15.84-.69,2.08-.94,3.51-.17,1,.21,1.44.66,1.44a1.48,1.48,0,0,0,1.06-.62,4.83,4.83,0,0,1-.09-2.43c.23-1.2.8-1.9,1.2-1.9s.65.63.45,1.75a6.32,6.32,0,0,1-.9,2.24C12.12,9.87,12.5,10.2,12.93,10.2ZM12.41,7c.13-.78.06-1.14-.08-1.14s-.31.38-.43,1.07a5.7,5.7,0,0,0-.08,1.8A6.43,6.43,0,0,0,12.41,7Z"/><path class="cls-1" d="M19.53,10.15a1.18,1.18,0,0,0,.6-.33v.35a1.64,1.64,0,0,1-1,.52c-.53,0-.75-.45-.65-1l.57-3.18c.06-.36,0-.63-.16-.63a1.14,1.14,0,0,0-.6.35V5.82a1.54,1.54,0,0,1,1-.51c.53,0,.75.43.65,1l-.56,3.2C19.31,9.88,19.34,10.15,19.53,10.15ZM20,3.63a.43.43,0,0,1-.43-.53.68.68,0,0,1,.63-.52.43.43,0,0,1,.43.52A.64.64,0,0,1,20,3.63Z"/><path class="cls-1" d="M24.65,9.06c-.12.72,0,1.09.33,1.09.19,0,.52-.15.94-.67l0,.4a2,2,0,0,1-1.34.87c-.67,0-1-.52-.78-1.69l.53-3h-1l.11-.53h1l.42-2.4h.83l-.41,2.4h1.2l-.1.53h-1.2Z"/><path class="cls-1" d="M30.32,9.06c-.12.72,0,1.09.33,1.09.19,0,.52-.15.94-.67l0,.4a2,2,0,0,1-1.34.87c-.67,0-1-.52-.78-1.69L30,6H29l.11-.53h1l.42-2.4h.83L31,5.5h1.2l-.1.53h-1.2Z"/><path class="cls-1" d="M36.86,10.15a2.36,2.36,0,0,0,1.36-.69l.14.3a2.8,2.8,0,0,1-1.89,1c-1.25,0-1.86-1.24-1.61-2.76s1.53-2.74,2.58-2.74a1,1,0,0,1,1.1,1.29c-.14.78-1,1.72-2.87,2.11C35.66,9.57,36,10.15,36.86,10.15Zm.93-3.6c.06-.39-.08-.7-.45-.7-.69,0-1.35.81-1.59,2.16,0,.09,0,.16,0,.24A2.57,2.57,0,0,0,37.79,6.55Z"/><path class="cls-1" d="M45,5.25a.74.74,0,0,1,.75.94.59.59,0,0,1-.6.51.4.4,0,0,1-.41-.48c0-.21,0-.31-.13-.31-.44,0-1.14,1-1.53,3.13l-.26,1.46H42l.72-4c.06-.36,0-.63-.17-.63a1.18,1.18,0,0,0-.6.35V5.82a1.57,1.57,0,0,1,1-.51c.52,0,.69.43.58,1l-.07.38C43.8,5.77,44.39,5.25,45,5.25Z"/></svg>