<svg id="Layer_1" data-name="Layer 1" xmlns="http://www.w3.org/2000/svg" viewBox="0 0 165 45"><defs><style>.cls-1{fill:#2121e8;}</style></defs><path class="cls-1" d="M153.78,7.06l-.73,1,.09.29A9,9,0,0,1,159.57,10c-.17.15-.35.24-.43.38-.81,1.54-.84,1.61-2.33.89s-3.18-.55-4.78-.49a3.49,3.49,0,0,0-2.49,1.59,26.46,26.46,0,0,1-2.78,2.72,23.63,23.63,0,0,1-2,1.45c-1.34,1-2.71,1.92-4,3a16.69,16.69,0,0,0-2.43,2.24A13.08,13.08,0,0,1,134,25.18a11,11,0,0,1-2.35.72c-2.42.54-4.84,1.12-7.28,1.55a24.93,24.93,0,0,1-6.52.2,25.17,25.17,0,0,1-7-1.81,48.91,48.91,0,0,0-13.6-3.18,40.44,40.44,0,0,0-7.7-.07,16.56,16.56,0,0,0-5.17,1.56c-3.12,1.43-6.23,2.91-9.27,4.5-1.42.74-2.67,1.81-4,2.66-3.07,1.91-6,4.09-9.86,4.23-2.33.08-4.66.18-7,.28-.52,0-1,.07-1.57.11-.15,0-.32.13-.46.1-2.89-.82-5.82-1.53-8.65-2.53S38,31,35.12,30a58,58,0,0,0-9.28-2.55,11.59,11.59,0,0,0-8,2c-1,.63-2.11,1.05-3.11,1.65-.81.48-1.51,1.15-2.3,1.66s-1.45.76-2.14,1.2S8.79,35,8,35.52C6.82,36.3,5.57,37,4.36,37.8a16.07,16.07,0,0,1-1.36,1,3.18,3.18,0,0,1-1.21.09c0-.54-.2-1.26.06-1.59a67.81,67.81,0,0,1,4.7-5.17,57.58,57.58,0,0,1,5.23-4.39c1.53-1.15,3.23-2.06,4.79-3.16,1.75-1.23,3.76-1.56,5.77-2,3.8-.88,7.29.29,10.78,1.46,3.17,1.06,6.29,2.27,9.42,3.47,1.33.5,2.62,1.13,3.93,1.7,3.21,1.42,6.59,1.43,10,1.07a27.16,27.16,0,0,0,4.67-1.13c3.41-1,6-3,8.62-5.27,1.47-1.27,3.05-2.42,4.58-3.63,0,0,.08,0,.09,0,.85-1.74,2.84-1.5,4.21-2.38a19.51,19.51,0,0,1,4.73-2,25,25,0,0,1,9.36-.67,29.77,29.77,0,0,1,8.57,1.69c1.78.71,3.45,1.65,5.21,2.42s3.55,1.48,5.35,2.16c3.56,1.35,7.27,1.1,11,.91.54,0,1-.53,1.58-.73a5.14,5.14,0,0,1,1.23-.23,5,5,0,0,0,1.22,0,28.79,28.79,0,0,0,10.71-6.91c1.83-1.83,4.07-3,5.93-4.77a19.24,19.24,0,0,1,2.13-1.92,7.42,7.42,0,0,1,5.3-1.6c.55.08,1.14,0,1.69.06a7.9,7.9,0,0,1,1.44.55ZM140.26,17.29c3.62-2,7-3.95,9-7.78-1.19.42-1.39-.38-1.63-1.33l-7,5.55ZM79,23.85l.48,0L85,17.14a2.6,2.6,0,0,0-.58-.06A19.18,19.18,0,0,0,78,19.61a1.22,1.22,0,0,0-.35,1.1C78,21.78,78.52,22.8,79,23.85Zm14.43-6.8-3.7,3.68,5.77-.11Zm-5.86,4.19L85.6,18.76c-1.32,1.62-2.81,2.88-3.55,4.73ZM74.39,27.47l3.37-1.81-1.62-3.51-.35.05Zm-2.09-.28a3.18,3.18,0,0,0,.4-.68c.4-1.44.77-2.89,1.17-4.39-1.39,1.21-2.76,2.38-4.23,3.64Zm16.41-7.56L91.5,17l-.14-.33-4.29.05-.13.3ZM66.15,31.47l1.7-4.12-.26-.11-3.92,2.7ZM122.46,26l5.1-.9C125,22.89,124.25,23.09,122.46,26ZM41.39,30.82c1.5.51,2.9,1,4.33,1.42a3.64,3.64,0,0,0,1.35-.19v-.41l-4.81-2.07Zm58.79-12-.2-.56-4.32-1.14,1.4,2.74ZM62,31.3l-1,2.85,3.73-1v-.31Zm6.13-.19.31.26,3.26-2.13-2.22-1.39Zm65.68-7.91c-.31-.28-.52-.47-.74-.65a7.57,7.57,0,0,0-.79-.61c-.9-.55-1.37-.36-1.62.68a16.5,16.5,0,0,0-.24,1.78Zm-126.6,11c.13-.07.28-.13.4-.21,1.39-.92,2.75-1.9,4.18-2.75.76-.46.7-1,.66-1.72C10.25,30.62,8.79,32.45,7.22,34.23ZM135.1,18.83l-.19-.24L132.6,20l2.05,1.28Zm-81,15.39,3,.13.05-.29-2.34-1.68ZM29.22,24.94l-2.65-.71c.1.92.32,1.57,1.14,1.74S29,25.64,29.22,24.94Zm28.27,6.83v.29l2,1.26.64-2ZM21,26.21c1.46.16,1.37-1.23,2-1.88l-2,.37Zm97-2-1.23,1.46,2.89.34Zm18.25-3.16.21.12,1.68-1.6-1.55-.84ZM18.38,27.18c1.64-.86,1.64-.86,1.34-2C18.21,25.62,18.09,25.79,18.38,27.18Zm110.54-3.31.15-1.77-1.74.45Zm-24-3.35-2.34-1.12-.14.17,1.14,1.66Zm-55,13,.21-.27a6.35,6.35,0,0,0-1.23-1.1c-.12-.07-.58.49-1,.84ZM33.19,26.14c.92,1.63,1.39,1.75,2.18.69ZM138.81,15.58l-1.75,1.15,1.52.77Zm-86.42,18,.87-1.32-2-.17c.32.37.48.54.61.71S52.12,33.16,52.39,33.56ZM15.61,28.44c1.41-.48,1.52-.7,1.11-2.07Zm-1.4-.26-1.08,1.7C14.36,29.83,14.61,29.46,14.21,28.18Zm9.65-2.67.15.22,1.55-.1-.63-1.29ZM150.43,8.15l-.08-.26L148.41,8l1.19.9Zm-51.2,13,2,.25,0-.19-.79-.72Z"/></svg>