<svg id="Layer_1" data-name="Layer 1" xmlns="http://www.w3.org/2000/svg" viewBox="0 0 60 10"><defs><style>.cls-1{fill:#293b5c;}</style></defs><path class="cls-1" d="M.64,9c.93,0,1.14-.25,1.41-1.75l.86-4.88C3.17.89,3.05.65,2.12.65l0-.31H7.39l-.26,2H6.89V2c0-.78-.07-1.13-1.1-1.13H4.13L3.54,4.3h.55c1.12,0,1.35-.18,1.56-1.44h.24l-.6,3.43H5.05C5.27,5,5.11,4.85,4,4.85H3.43L3.05,7c-.26,1.5-.16,1.74.77,1.74h1c1,0,1.22-.34,1.5-1.14l.1-.3h.24l-.45,2H.58Z"/><path class="cls-1" d="M13.48.77l0-.31,1.8-.38-1.45,8.3c-.06.34,0,.61.16.61a1.32,1.32,0,0,0,.6-.33V9a1.68,1.68,0,0,1-1,.52c-.42,0-.63-.27-.66-.69a2.07,2.07,0,0,1-1.42.75C10.3,9.59,9.75,8.35,10,6.83a3.19,3.19,0,0,1,2.77-2.74,1.79,1.79,0,0,1,1,.25l.3-1.81C14.32,1,14.23.77,13.48.77Zm.15,4.17a1.28,1.28,0,0,0-.93-.37c-.89,0-1.52,1.06-1.73,2.26S11,9,11.83,9A1.58,1.58,0,0,0,13.16,7.6Z"/><path class="cls-1" d="M19.3,9a1.23,1.23,0,0,0,.6-.33V9a1.66,1.66,0,0,1-1,.52c-.52,0-.75-.45-.64-1l.57-3.18c.06-.36,0-.63-.17-.63a1.18,1.18,0,0,0-.6.35V4.66a1.57,1.57,0,0,1,1-.51c.52,0,.75.43.65,1l-.56,3.2C19.08,8.72,19.1,9,19.3,9Zm.45-6.52a.44.44,0,0,1-.44-.53.7.7,0,0,1,.63-.52.44.44,0,0,1,.44.52A.65.65,0,0,1,19.75,2.47Z"/><path class="cls-1" d="M24.42,7.9c-.13.72,0,1.09.33,1.09.19,0,.52-.15.94-.67l0,.4a2,2,0,0,1-1.34.87c-.68,0-1-.52-.78-1.69l.52-3h-1l.11-.53h1l.42-2.4h.82l-.4,2.4h1.2l-.11.53H25Z"/><path class="cls-1" d="M30.76,9.59c-1.26,0-2.05-1.24-1.8-2.76a3.19,3.19,0,0,1,2.77-2.74c1.25,0,2,1.23,1.77,2.74A3.18,3.18,0,0,1,30.76,9.59Zm.9-5c-.9,0-1.5,1-1.73,2.28s0,2.3.9,2.3,1.49-1,1.71-2.3S32.54,4.55,31.66,4.55Z"/><path class="cls-1" d="M40,4.09a.73.73,0,0,1,.75.94.58.58,0,0,1-.6.51.39.39,0,0,1-.4-.48c0-.21,0-.31-.14-.31-.43,0-1.14,1-1.53,3.13l-.25,1.46h-.8l.72-4c.06-.36,0-.63-.16-.63A1.14,1.14,0,0,0,37,5V4.66a1.54,1.54,0,0,1,1-.51c.53,0,.69.43.59,1l-.08.38C38.89,4.61,39.47,4.09,40,4.09Z"/><path class="cls-1" d="M44.77,9a1.23,1.23,0,0,0,.6-.33V9a1.66,1.66,0,0,1-1,.52c-.52,0-.75-.45-.64-1l.57-3.18c.06-.36,0-.63-.17-.63a1.18,1.18,0,0,0-.6.35V4.66a1.57,1.57,0,0,1,1-.51c.52,0,.75.43.64,1l-.55,3.2C44.54,8.72,44.57,9,44.77,9Zm.45-6.52a.44.44,0,0,1-.44-.53.69.69,0,0,1,.63-.52.44.44,0,0,1,.44.52A.65.65,0,0,1,45.22,2.47Z"/><path class="cls-1" d="M50.32,9.59c-1.26,0-1.82-1.24-1.56-2.76a3.19,3.19,0,0,1,2.77-2.74,1.79,1.79,0,0,1,1,.25h.82l-.7,4c-.06.34-.05.61.16.61a1.32,1.32,0,0,0,.6-.33V9a1.68,1.68,0,0,1-1,.52c-.42,0-.63-.27-.66-.69A2.07,2.07,0,0,1,50.32,9.59Zm2.07-4.65a1.28,1.28,0,0,0-.93-.37c-.89,0-1.52,1.06-1.73,2.26s0,2.16.86,2.16A1.58,1.58,0,0,0,51.92,7.6Z"/><path class="cls-1" d="M57.28.77l0-.31L59.11.08l-1.44,8.3c-.06.34-.05.61.16.61a1.32,1.32,0,0,0,.6-.33V9a1.68,1.68,0,0,1-1,.52c-.52,0-.73-.45-.64-1l1.05-6C58.12,1,58,.77,57.28.77Z"/></svg>