<svg id="Layer_1" data-name="Layer 1" xmlns="http://www.w3.org/2000/svg" viewBox="0 0 81 11"><defs><style>.cls-1{fill:#293b5c;}</style></defs><path class="cls-1" d="M1.64,10c.93,0,1.14-.25,1.41-1.75l.86-4.88c.26-1.5.14-1.74-.79-1.74l0-.31H8.39l-.26,2H7.89V3c0-.78-.07-1.13-1.1-1.13H5.13L4.54,5.3h.55c1.12,0,1.35-.18,1.56-1.44h.24l-.6,3.43H6.05C6.27,6,6.11,5.85,5,5.85H4.43L4.05,8c-.26,1.5-.16,1.74.77,1.74h1c1,0,1.22-.34,1.5-1.14l.1-.3h.24l-.45,2H1.58Z"/><path class="cls-1" d="M10.61,10c.93,0,1.14-.25,1.41-1.75l.86-4.88c.26-1.5.14-1.74-.79-1.74l.05-.31h3.13c2.63,0,3.39,2,3,4.5s-1.92,4.5-4.53,4.5H10.55ZM13,8c-.27,1.5-.18,1.74.72,1.74h0c2.25,0,3-2.19,3.33-3.94s.32-3.95-1.93-3.95H14.1Z"/><path class="cls-1" d="M21.14,10.34,21.2,10c.93,0,1.14-.25,1.41-1.75l.85-4.88c.27-1.5.15-1.74-.78-1.74l.05-.31h3.15l-.05.31c-.94,0-1.14.24-1.39,1.74l-.87,4.88c-.26,1.5-.17,1.75.78,1.75l-.06.32Z"/><path class="cls-1" d="M28.62,3.05h-.33l.6-1.71h4.55C34.82,1.34,35,1,35.37.2h.35l-.6,1.71H32.4L31.28,8.27C31,9.77,31.11,10,32,10l0,.32H28.85l0-.32c.95,0,1.16-.25,1.43-1.75l1.12-6.36h-.88C29.19,1.91,29,2.24,28.62,3.05Z"/><path class="cls-1" d="M40.21,10.59c-2.06,0-3.36-2.14-2.91-4.75s2.52-4.76,4.59-4.76,3.37,2.15,2.91,4.76S42.28,10.59,40.21,10.59Zm1.57-8.92c-1.84,0-3,2.31-3.33,4.17s0,4.15,1.88,4.15,3-2.29,3.3-4.15S43.64,1.67,41.78,1.67Z"/><path class="cls-1" d="M50.5,6.39l-.35,1.88C49.9,9.77,50,10,50.93,10l-.06.32H47.72l.06-.32c.93,0,1.14-.25,1.41-1.75l.86-4.88c.27-1.5.15-1.74-.78-1.74l0-.31h2.94a2,2,0,0,1,2.09,2.53,3.09,3.09,0,0,1-2.21,2.45A2.32,2.32,0,0,1,53,7.86l.26,1.52c.07.43.15.61.34.61a1.18,1.18,0,0,0,.6-.33V10a1.82,1.82,0,0,1-1.14.52c-.52,0-.94-.3-1-1L52,8c-.08-.84-.36-1.58-1-1.58Zm2.77-2.52c.2-1.08-.34-2-1.32-2h-.67l-.71,4h.68A2.24,2.24,0,0,0,53.27,3.87Z"/><path class="cls-1" d="M57.05,10.34l.06-.32c.93,0,1.14-.25,1.41-1.75l.86-4.88c.27-1.5.15-1.74-.78-1.74l0-.31h3.15l0,.31c-1,0-1.14.24-1.4,1.74l-.87,4.88c-.25,1.5-.16,1.75.78,1.75l-.06.32Z"/><path class="cls-1" d="M64.76,8.88c-.4.83-.25,1.14.69,1.14l0,.32H62.63l.06-.32c.81,0,1-.21,1.58-1.3l3.81-7.64h.28L69.5,8.72c.17,1.06.26,1.3,1.1,1.3l0,.32H67.36l.06-.32c.93,0,1.21-.33,1.08-1.14l-.24-1.66H65.6Zm2.9-5.76L65.89,6.66h2.29Z"/><path class="cls-1" d="M73,10c.93,0,1.14-.25,1.41-1.75l.86-4.88c.27-1.5.15-1.74-.78-1.74l0-.31h3.15l0,.31c-1,0-1.14.24-1.4,1.74L75.43,8c-.27,1.5-.17,1.74.76,1.74h1.34c1,0,1.21-.34,1.5-1.14l.1-.3h.24l-.45,2H73Z"/></svg>