<svg id="Layer_1" data-name="Layer 1" xmlns="http://www.w3.org/2000/svg" viewBox="0 0 51 41"><defs><style>.cls-1{fill:#2121e8;}</style></defs><path class="cls-1" d="M22.19,31.74c.31-.41.78-.84.59-1.52-.05-.18.14-.45.27-.65s.53-.63.75-1a11.72,11.72,0,0,1,1.12-1.81,3.22,3.22,0,0,1,2.74-1.13.48.48,0,0,0,.59-.34c.08-.19.11-.39.2-.58.36-.74.34-1.69,1.23-2.13.08,0,.11-.2.16-.3a1.53,1.53,0,0,0-.8.33,3.38,3.38,0,0,1-1.66.82,11.28,11.28,0,0,0-2.25.59,11,11,0,0,1-3,1.08c-1.2.15-2.39.57-3.63.06-.61-.26-1.31-.31-1.61-1.1.84-.18.83-1,1.14-1.6-.78-.26-1.52-.53-2.27-.76a.78.78,0,0,0-.46.08,13.58,13.58,0,0,0-1.65.61c-.44.22-1,.5-1.17.89a7.8,7.8,0,0,1-1.58,2.29c-.59.72-1.44,1.26-1.69,2.26a.58.58,0,0,1-.73.45.94.94,0,0,1-.39-1.47,3.25,3.25,0,0,0,.39-.35c.21-.28.53-.57.58-.89a3.7,3.7,0,0,1,1.75-2.66c.56-.38,1.21-.61,1.79-.95a3.73,3.73,0,0,0,.63-.57l1-.87c-.44-.74-.85-1.47-1.31-2.17a2.78,2.78,0,0,1-.45-2.82A6.61,6.61,0,0,1,13,14a4.77,4.77,0,0,1,2.08-1.76,3.87,3.87,0,0,0,.65-.31,5.82,5.82,0,0,1,1.16-.6,6,6,0,0,1,3.24-.08,2.85,2.85,0,0,0,.48,0,5,5,0,0,0-2-1.43,7.82,7.82,0,0,0-2.42-.26A2.29,2.29,0,0,1,14.79,9a.8.8,0,0,1-.23-.58c0-.1.23-.25.38-.29a11.58,11.58,0,0,1,1.2-.24c.61-.09,1.25-.11,1.85-.26a1.68,1.68,0,0,1,1.89.79c.31.42.55.9.85,1.32s.63.82,1,1.27a3.59,3.59,0,0,1,.12-.47c.06-.13.17-.33.26-.34a3.76,3.76,0,0,1,1.21.06c.62.18,1.2.51,1.82.69s1.43.28,2.13.48c.34.1.62.41,1,.52a6.13,6.13,0,0,1,2.66,2.08,6.34,6.34,0,0,1,1.51,2.23s0,0,.1.06c.46-.55.89-1.15,1.4-1.67,1-1,2.33-1.65,3.84-.61a2.53,2.53,0,0,1,.45.34c.11.13.24.35.19.46s-.27.41-.43.42a3.27,3.27,0,0,1-.84-.19c-.45-.09-.88-.45-1.37-.16s-1.31.59-1.42,1.42c0,.12-.14.22-.19.34-.17.41-.32.83-.51,1.32a3.22,3.22,0,0,1,.8.12.75.75,0,0,0,1-.27,1.64,1.64,0,0,1,1-.53,4.32,4.32,0,0,0,.73-.33,2.9,2.9,0,0,1,.87-.3c.31,0,.63.16.94.13a4.3,4.3,0,0,1,2.56.83,13.94,13.94,0,0,1,1.61,1.39,3.54,3.54,0,0,1,1.15,1.55,3.78,3.78,0,0,0,.37.55c.08.16.23.42.16.51a5.74,5.74,0,0,1-.77.79.3.3,0,0,1-.18-.12,10.19,10.19,0,0,0-1.54-2,5.08,5.08,0,0,0-1.65-1.26,1.17,1.17,0,0,1-.43-.22A2.22,2.22,0,0,0,38,18.19c-.12,0-.25,0-.38,0-.48,0-1-.2-1.58.22l1.93.29a1.45,1.45,0,0,1,.49.18A17.44,17.44,0,0,1,40,20a6.41,6.41,0,0,1,1,1.17,8.34,8.34,0,0,1,.69,1.24A1.23,1.23,0,0,1,42,23c-.07.65.42,1,.76,1.36a6.12,6.12,0,0,1,1.39,1.84.94.94,0,0,0,.78.61,1.52,1.52,0,0,1,.89.42,23,23,0,0,1,1.57,2.32c.06.1-.11.42-.25.55s-.41-.08-.49-.21c-.34-.55-.57-1.17-1-1.69a1.5,1.5,0,0,0-1-.61c-.19,0-.53.44-.64.75a2.72,2.72,0,0,0,.88,2.75c.11.1.3.29.28.33s-.26.36-.42.38a.6.6,0,0,1-.49-.27c-.35-.73-.64-1.49-1-2.22-.12-.26-.22-.55-.65-.59a2.46,2.46,0,0,1-.89-.49,17.25,17.25,0,0,1-1.51-1c-.31-.26-.51-.69-1-.22,0,.05-.16.05-.23,0l-1.39-.31-1.38-.32a1.82,1.82,0,0,1-.79-.28,6.81,6.81,0,0,1-.81-1l-.16.05c.09,1,.12,2,.3,2.94.1.49.09.8-.37,1.05.29.38.16.72,0,1.12A19.66,19.66,0,0,0,34,32.51c-.19.88-.35,1.77-.53,2.65-.06.31-.68.84-.81.69a2.09,2.09,0,0,1-.62-1,14,14,0,0,1,0-2.15,3.33,3.33,0,0,1,.16-.89,11.42,11.42,0,0,0,1-3.49A22.39,22.39,0,0,0,33,25.78c-.11-.63-.09-1.27-.19-1.9a5.46,5.46,0,0,0-.34-1.26,4.15,4.15,0,0,0-.55-.79c-.05-.06-.13-.16-.19-.16-.32,0-.64.08-1,.12v.14l1.18.34c-.14.2-.24.32-.32.45-.49.77-1,1.51-1.44,2.32a2.87,2.87,0,0,1-1.61,1.41,3.85,3.85,0,0,0-2.19,1.46,8.08,8.08,0,0,1-.78,1c-.45.56-.89,1.13-1.36,1.68a3.14,3.14,0,0,1-.73.68,3.23,3.23,0,0,0-1.38,1.92c-.11.37-.26.41-.55.4C21.49,32.61,21.62,32.47,22.19,31.74Zm0-19.25a2.5,2.5,0,0,0-.5-.23,8,8,0,0,0-3.8-.5,2.82,2.82,0,0,0-.59.14,8.69,8.69,0,0,0-3.51,2.4,2.15,2.15,0,0,0-.37.66A7.62,7.62,0,0,0,13,16.42a1.9,1.9,0,0,0,.12,1.11,9,9,0,0,0,1.38,2.17,5.4,5.4,0,0,0,3.17,1.91,6.92,6.92,0,0,1,2.12.88,1.55,1.55,0,0,0,1.24.15L22.84,22a5.7,5.7,0,0,1,3.42.05,3.17,3.17,0,0,0,2.59-.2,7.23,7.23,0,0,1,2.68-1,.44.44,0,0,0,.27-.29c.12-.67.2-1.35.32-2a2.5,2.5,0,0,1,.28-.6l.15,0a21.19,21.19,0,0,0-1.83-2.53,7,7,0,0,0-1.9-1.06,14.47,14.47,0,0,0-1.46-.61c-.35-.14-.72-.21-1.08-.33s-.52-.21-.78-.31a1.37,1.37,0,0,0-.31-.13l-3.05-.53Zm10.45,9a.36.36,0,0,0,.16.27c.79.27,1.09,1,1.59,1.59a20.39,20.39,0,0,1,1.23,1.8.92.92,0,0,0,.43.38c.77.23,1.56.45,2.35.63s.77.11.76-.57A.54.54,0,0,1,39.6,25a.93.93,0,0,0,.75-.49,7.66,7.66,0,0,0,.79-1.24c.27-.53-.14-.92-.37-1.33-.06-.1-.19-.16-.22-.26-.39-1.11-1.41-1.59-2.23-2.28,0,0-.09-.07-.13-.06-.87.13-1.58-.63-2.52-.39A5.54,5.54,0,0,1,34,18.81a1.28,1.28,0,0,0-1.55,1.47C32.52,20.7,32.55,21.11,32.6,21.53ZM18,24.21a4.05,4.05,0,0,0,2,.36c.81-.11,1.64-.12,2.43-.3a14.48,14.48,0,0,0,2.09-.75c.54-.21,1.07-.46,1.64-.72a2.34,2.34,0,0,0-.3-.12,5.79,5.79,0,0,0-3.71.33,3.42,3.42,0,0,1-3.27,0l-.22-.1s-.06,0-.05,0Zm25.27,2.16c-.57-.78-1-1.64-1.55-2.49l-1.56,2.2,1,.66,1,.71c.28.2.54.41.8.61C43.68,27.45,43.91,27.22,43.29,26.37ZM29.75,13.86a6.35,6.35,0,0,0-2.66-1.71l-3.43-1c-.09,0-.18,0-.27-.09-.71-.33-1-.22-1.35.62A35.36,35.36,0,0,1,29.75,13.86Zm-.67,11.46a11.81,11.81,0,0,0,1.83-2.7C30,22.7,29.24,23.78,29.08,25.32ZM10,25.64c.54-.89,1.49-1.29,1.83-2.29A2.12,2.12,0,0,0,10,25.64Zm14.5,3.24.1.1a1.56,1.56,0,0,0,.34-.23c.61-.69.94-1.61,1.8-2.09,0,0,0-.12,0-.21C25.33,26.78,25,27.9,24.45,28.88ZM17.53,8.62,19.4,9C18.89,8.23,18.28,8.32,17.53,8.62ZM33.47,23.43c-.2.76.24,1.36.33,2A2.35,2.35,0,0,0,33.47,23.43Zm.59,3-.22,0,.24,1.83h.19A4.16,4.16,0,0,0,34.06,26.45Zm-1,7,.25-1.69C32.59,33.05,32.57,33.23,33,33.49ZM32.9,17l.16.09.6-1.09-.18-.11Z"/><path class="cls-1" d="M32.7,36.38a.61.61,0,0,1-.44-.19A2.41,2.41,0,0,1,31.52,35a10.3,10.3,0,0,1,0-1.84v-.39a3.87,3.87,0,0,1,.18-1c.11-.34.25-.66.38-1a6.43,6.43,0,0,0,.63-2.34,20.72,20.72,0,0,0-.17-2.5,9.46,9.46,0,0,1-.11-1.07c0-.28,0-.57-.08-.85a5.42,5.42,0,0,0-.25-1h0c-.14.23-.29.45-.44.68a14.22,14.22,0,0,0-1,1.6,3.33,3.33,0,0,1-1.88,1.66,3.36,3.36,0,0,0-1.94,1.25,4.73,4.73,0,0,1-.57.73l-.25.3-.44.54c-.31.39-.61.77-.93,1.14a3.51,3.51,0,0,1-.84.78,2.74,2.74,0,0,0-1.17,1.63.94.94,0,0,1-1,.77.49.49,0,0,1-.48-.43,2.27,2.27,0,0,1,.65-2.17l0,0,.14-.17c.32-.39.45-.59.37-.9a1.3,1.3,0,0,1,.33-1.06c.12-.18.26-.34.39-.5a5.46,5.46,0,0,0,.36-.48c.13-.2.24-.42.36-.64a5.24,5.24,0,0,1,.81-1.25,3.74,3.74,0,0,1,3.17-1.28.53.53,0,0,0,.14-.25,2.46,2.46,0,0,1,.14-.38,3.52,3.52,0,0,0,.22-.62,1.72,1.72,0,0,0,.07-.21,4.8,4.8,0,0,1-.81.25l-.39.08a8.39,8.39,0,0,0-1.76.48l-.43.2a9.18,9.18,0,0,1-2.72.91l-.79.13a5.32,5.32,0,0,1-3.1-.1l-.36-.13a2.1,2.1,0,0,1-1.53-1.26.52.52,0,0,1,0-.42.5.5,0,0,1,.34-.24c.31-.07.39-.24.57-.75v-.05l-.1,0c-.56-.19-1.11-.38-1.66-.55,0,0-.07,0-.12.06l-.45.15a7.56,7.56,0,0,0-1.16.45l-.11.05c-.25.12-.76.38-.82.55a6.2,6.2,0,0,1-1.32,2l-.34.4c-.19.23-.39.44-.6.65a3.17,3.17,0,0,0-1,1.42,1.14,1.14,0,0,1-.54.72,1,1,0,0,1-.83.08,1.34,1.34,0,0,1-.89-.94A1.41,1.41,0,0,1,7.7,26.5a2.5,2.5,0,0,1,.24-.22.69.69,0,0,0,.12-.1l.2-.24a1.36,1.36,0,0,0,.28-.41,4.25,4.25,0,0,1,2-3,8.43,8.43,0,0,1,1.1-.59l.73-.37a1.48,1.48,0,0,0,.3-.28l.23-.23.67-.6-.19-.33c-.29-.49-.58-1-.9-1.46A3.31,3.31,0,0,1,12,15.36a5.36,5.36,0,0,0,.17-.57,3.06,3.06,0,0,1,.49-1.15,5.11,5.11,0,0,1,2.32-1.92,2.58,2.58,0,0,0,.41-.2l.16-.08.34-.2a3.22,3.22,0,0,1,.93-.45A8.19,8.19,0,0,1,19,10.52a2.32,2.32,0,0,0-.53-.25A7.65,7.65,0,0,0,16.25,10a2.69,2.69,0,0,1-1.77-.6,1.3,1.3,0,0,1-.42-1c0-.47.53-.72.75-.78a11.46,11.46,0,0,1,1.25-.25c.23,0,.47-.06.7-.09a7.58,7.58,0,0,0,1.11-.17,2.16,2.16,0,0,1,2.41,1c.18.24.33.5.49.75s.23.4.37.59.27.37.42.55a.67.67,0,0,1,.51-.31,4.44,4.44,0,0,1,1.37.08,9.78,9.78,0,0,1,1,.37,6.59,6.59,0,0,0,.84.32c.34.1.69.16,1,.23s.74.15,1.1.25a2.27,2.27,0,0,1,.64.33,1.45,1.45,0,0,0,.35.2,6.73,6.73,0,0,1,2.87,2.22c.1.13.21.25.31.37a6.73,6.73,0,0,1,1,1.34c.3-.37.61-.76,1-1.11,1.45-1.46,3-1.69,4.48-.67l.11.07a1.79,1.79,0,0,1,.44.36,1,1,0,0,1,.28,1,1.15,1.15,0,0,1-.87.72,1.83,1.83,0,0,1-.73-.12L37,15.6a2.57,2.57,0,0,1-.47-.15c-.32-.12-.43-.15-.55-.07l-.3.17c-.52.28-.82.46-.88.89a.82.82,0,0,1-.19.42c-.11.26-.21.5-.3.74a1.71,1.71,0,0,1,.3.09c.13.06.21.08.38-.12a2.13,2.13,0,0,1,1.3-.71.87.87,0,0,0,.3-.14,3.59,3.59,0,0,1,.34-.17l.17-.07a2.49,2.49,0,0,1,.85-.26,1.79,1.79,0,0,1,.63.08,1,1,0,0,0,.3.05,4.78,4.78,0,0,1,2.86.9,5.43,5.43,0,0,1,1.13.94c.18.17.36.34.55.5a4,4,0,0,1,1.3,1.77l.12.16a2.18,2.18,0,0,1,.22.31c.16.31.37.7.13,1a5.41,5.41,0,0,1-.7.73l-.14.14a.54.54,0,0,1-.42.13.81.81,0,0,1-.53-.37,9.65,9.65,0,0,0-1.46-1.88l-.07-.07a4.43,4.43,0,0,0-1.42-1.09l-.24-.09.14.11a7,7,0,0,1,1.73,2.33l.12.23a1.51,1.51,0,0,1,.27.9c0,.29.15.49.46.79l.24.24A6.37,6.37,0,0,1,44.57,26a.46.46,0,0,0,.39.32,2,2,0,0,1,1.22.6,26.12,26.12,0,0,1,1.6,2.37c.26.44-.16,1-.33,1.17a.72.72,0,0,1-.49.15,1.2,1.2,0,0,1-.78-.46c-.14-.24-.27-.49-.4-.75a7.77,7.77,0,0,0-.52-.91,1.16,1.16,0,0,0-.49-.37,1.21,1.21,0,0,0-.23.38,2.23,2.23,0,0,0,.72,2.21c.19.16.66.56.37,1a1.21,1.21,0,0,1-.77.6,1.09,1.09,0,0,1-1-.56c-.18-.38-.35-.77-.52-1.16s-.3-.71-.47-1.06-.15-.29-.25-.3a1.94,1.94,0,0,1-.9-.43l-.2-.14-.36-.22a10.3,10.3,0,0,1-1.2-.83,2.09,2.09,0,0,1-.22-.2l-.06-.06h0a.78.78,0,0,1-.7.18l-1.2-.27-.55-.13c-.35-.07-.7-.15-1-.24l-.18,0a1.62,1.62,0,0,1-.83-.35l0,0A14.5,14.5,0,0,0,35.33,28a1.38,1.38,0,0,1-.23,1.3A1.87,1.87,0,0,1,35,30.38a13.5,13.5,0,0,0-.42,1.72l-.1.51c-.11.52-.21,1-.31,1.55l-.22,1.1a1.73,1.73,0,0,1-1,1.09Zm-.23-2.67a6.91,6.91,0,0,0,0,1.12,1,1,0,0,0,.26.44A.71.71,0,0,0,33,35L33.17,34v0a.47.47,0,0,1-.4,0A1.94,1.94,0,0,1,32.47,33.71Zm.05-.29.5.07Zm1.17-4.8A7.92,7.92,0,0,1,33,31.09c-.09.2-.17.41-.25.61,0,0,0-.09.08-.14a.49.49,0,0,1,.6-.23.48.48,0,0,1,.23.17A13.87,13.87,0,0,1,34,30.09c.15-.44.16-.53,0-.67A.48.48,0,0,1,34,29a.67.67,0,0,1,.09-.21A.47.47,0,0,1,33.69,28.62ZM23.28,30.16a1.8,1.8,0,0,1,0,.65,2.94,2.94,0,0,0,.6-.57l.64-.78h0a.44.44,0,0,1-.34-.13.61.61,0,0,1-.15-.22c-.09.11-.17.22-.26.32s-.23.28-.33.42A2.48,2.48,0,0,0,23.28,30.16ZM47,29.59h0Zm-3.69-1.15.14.14a2.37,2.37,0,0,1,.09-.36l-.22.21ZM9.49,25.84a2.22,2.22,0,0,1-.47.75c-.06.06-.11.13-.16.19a1.6,1.6,0,0,1-.3.29.52.52,0,0,0-.11.1.43.43,0,0,0-.07.39.38.38,0,0,0,.23.26.13.13,0,0,0,.1-.1,3.69,3.69,0,0,1,1-1.64A.49.49,0,0,1,9.49,25.84Zm31.4.1c.2.13.4.25.59.39.35.23.69.47,1,.71l.48.36c.25-.26.19-.35-.1-.74-.4-.55-.76-1.16-1.1-1.74l-.08-.13ZM44.14,27a1.4,1.4,0,0,1,0,.29,1.12,1.12,0,0,1,.22-.16Zm-4.39.24Zm-12.7-1.11a.48.48,0,0,1,.11.24c0,.05,0,.09,0,.14a7.17,7.17,0,0,1,.89-.41,1.16,1.16,0,0,1-.46,0A1.75,1.75,0,0,0,27.05,26.15ZM40,25.47a1.13,1.13,0,0,1-.39.07,1.81,1.81,0,0,1-.05.74h.17a.17.17,0,0,1,0-.1.47.47,0,0,1,.08-.38Zm-6.45.39,0,.2a.49.49,0,0,1,.21-.08L34,26h.11v-.12a.47.47,0,0,1-.3.1h0A.59.59,0,0,1,33.54,25.86Zm-4.88-.26a1,1,0,0,1-.42.46l.12,0a4,4,0,0,0,.51-.24A.51.51,0,0,1,28.66,25.6Zm4.43-4.21a3.19,3.19,0,0,1,1.27,1.19c.12.17.23.33.36.48a8.91,8.91,0,0,1,.86,1.21c.13.22.27.43.41.64a1,1,0,0,0,.17.18c.88.27,1.61.46,2.31.62l.15,0v-.11a1.09,1.09,0,0,1,.3-.8,1,1,0,0,1,.67-.3c.12,0,.17,0,.34-.26a7.86,7.86,0,0,0,.77-1.19c.07-.14,0-.23-.19-.59a2.68,2.68,0,0,1-.18-.28.71.71,0,0,1-.25-.33,3.53,3.53,0,0,0-1.45-1.57c-.19-.14-.38-.28-.56-.43a3.06,3.06,0,0,1-1.2-.25,1.81,1.81,0,0,0-1.07-.17,2.54,2.54,0,0,1-1.26-.07,3.38,3.38,0,0,0-.54-.09.79.79,0,0,0-1,1l0,.3C33,20.84,33.06,21.11,33.09,21.39Zm1.25,2.81a2.45,2.45,0,0,1,0,.46h0a.86.86,0,0,1,.24,0ZM18.7,23.92a2.89,2.89,0,0,0,1.25.15l.87-.09a12.12,12.12,0,0,0,1.52-.2,10.45,10.45,0,0,0,1.57-.54l.44-.18,0,0a4.4,4.4,0,0,0-2,.42,3.92,3.92,0,0,1-3.5.07Zm7.92-1.27a.59.59,0,0,1-.06.45l.33-.06.39-.08a3.63,3.63,0,0,0,.86-.3A3.69,3.69,0,0,1,26.62,22.65ZM33,22.49a3.58,3.58,0,0,1,.19.55.55.55,0,0,1,.22-.1h0A2.56,2.56,0,0,0,33,22.49Zm-21,.38a.61.61,0,0,1,.14.07l.16-.21-.19.09Zm18.08-1a.52.52,0,0,1,.32.42l.06,0A.51.51,0,0,1,30.3,22v-.24Zm-11.3-9.67a3.82,3.82,0,0,0-.75.08l-.2,0a1.54,1.54,0,0,0-.29.07,8.3,8.3,0,0,0-3.33,2.26,1.75,1.75,0,0,0-.29.51l0,.13a7.13,7.13,0,0,0-.36,1.24,1.55,1.55,0,0,0,.08.81l.11.22a7.32,7.32,0,0,0,1.18,1.82,4.93,4.93,0,0,0,2.87,1.77,5.23,5.23,0,0,1,1.83.7L20,22a1,1,0,0,0,.85.13c.42-.16.85-.3,1.28-.44l.59-.2a6.1,6.1,0,0,1,3.71,0,2.67,2.67,0,0,0,2.21-.15,7.75,7.75,0,0,1,2.73-1c0-.25.08-.56.13-.86s.1-.71.17-1.06a1.74,1.74,0,0,1,.23-.57l0,0c-.1-.14-.19-.28-.28-.42a10.48,10.48,0,0,0-1.25-1.68,4,4,0,0,0-1.22-.71c-.19-.08-.37-.16-.54-.25-.49-.24-1-.44-1.41-.6-.19-.07-.38-.12-.57-.17l-.5-.15-.58-.23-.23-.09-.13-.06c-.89-.18-1.71-.32-2.53-.46L22.17,13a.5.5,0,0,1-.23-.05l-.18-.09a1.22,1.22,0,0,0-.24-.11l-.66-.18A8.37,8.37,0,0,0,18.71,12.16ZM43.66,22.1Zm.59,0ZM14.67,20.61a.47.47,0,0,1-.16.3l-1,.87-.17.18,0,.05.09-.05a9.39,9.39,0,0,1,1.3-.5l.41-.14.3-.09A7.48,7.48,0,0,1,14.67,20.61ZM40.6,18.56l.11,0,.1,0a5.29,5.29,0,0,1,1.75,1.31A10.68,10.68,0,0,1,44,21.75l.2-.21-.07-.12a.74.74,0,0,0-.12-.17,1.81,1.81,0,0,1-.28-.46,3,3,0,0,0-1-1.33l-.6-.56a4.77,4.77,0,0,0-.93-.79A3.87,3.87,0,0,0,39,17.35a2,2,0,0,1-.63-.08,1.51,1.51,0,0,0-.31-.06,2.55,2.55,0,0,0-.53.18l-.19.09a1.27,1.27,0,0,0-.23.12l-.07,0h.23l.35,0a1.22,1.22,0,0,1,.27,0,2.83,2.83,0,0,1,2.74.88Zm-7.68,2.77Zm-1-.11.1.05v-.13Zm-.49-.82Zm6.79-.53Zm.88-1.14c.21.14.43.28.63.43A1.3,1.3,0,0,0,39.15,18.73Zm-6.42-.29a.76.76,0,0,0-.12.24h0a1.82,1.82,0,0,1,.64-.32l-.08-.09a.5.5,0,0,1,0-.43l.09-.26a.47.47,0,0,1-.33,0l.05.08a.51.51,0,0,1,.06.48A.55.55,0,0,1,32.73,18.44Zm2.81,0-.13.09.14,0h0A.17.17,0,0,1,35.54,18.43ZM32.4,16.86l0,0s0,0,0,0Zm1.39-1.32,0,0a.61.61,0,0,1,.15.13,2.73,2.73,0,0,1,1.21-1l.27-.15a1.53,1.53,0,0,1,1.42,0l.31.11.33.08a1.5,1.5,0,0,0,.3.08l0,0a1.54,1.54,0,0,0-.22-.17l-.14-.09c-1.06-.73-2.1-.55-3.2.55C34.08,15.2,33.93,15.36,33.79,15.54Zm-3.87-1.21a3.91,3.91,0,0,1,1.16.77l.18.19c-.14-.17-.29-.35-.45-.52l-.33-.38-.27-.32,0,.07A.51.51,0,0,1,29.92,14.33ZM21,11.56l.14,0,.41.11a.39.39,0,0,1,0-.18.48.48,0,0,1-.26-.18l-.22-.27a.53.53,0,0,1,0,.35Zm-1.66-2a6.11,6.11,0,0,1,1.42,1.12c-.15-.19-.29-.38-.43-.58a7,7,0,0,1-.41-.64,1,1,0,0,1-.08-.14l0,0A.46.46,0,0,1,19.33,9.53Zm-3-.5c.31,0,.62,0,.93,0A.49.49,0,0,1,17,8.67a.52.52,0,0,1,.1-.35l-.26,0-.66.07a11.17,11.17,0,0,0-1.1.22v0A1.65,1.65,0,0,0,16.24,9Z"/><path class="cls-1" d="M22.15,12.49c-.57.06-.74.6-1,1a7,7,0,0,0-1,2,15.32,15.32,0,0,0-.28,2.17,3.64,3.64,0,0,1-.27,1.34,2.08,2.08,0,0,0-.31,1.43,6.68,6.68,0,0,1,0,1,1.88,1.88,0,0,0,.37.16c.15,0,.34.1.44,0a.46.46,0,0,0,.11-.42,3.74,3.74,0,0,1,.11-2.47,6,6,0,0,0,.27-1.93A5.83,5.83,0,0,1,22,13.29c.19-.26.4-.49.14-.81Z"/><path class="cls-1" d="M20,22.08a1.51,1.51,0,0,1-.39-.07,1.55,1.55,0,0,1-.41-.15l-.1-.05a.52.52,0,0,1-.29-.46c0-.11,0-.22,0-.33a3,3,0,0,0,0-.6,2.57,2.57,0,0,1,.37-1.75,1.94,1.94,0,0,0,.16-.79c0-.13,0-.25,0-.37s0-.48.07-.72a7.26,7.26,0,0,1,.23-1.52,7.42,7.42,0,0,1,1-2.1,2.39,2.39,0,0,1,.13-.21A1.69,1.69,0,0,1,21.93,12a.48.48,0,0,1,.2,0,.49.49,0,0,1,.39.17l0,0a1,1,0,0,1-.1,1.34,5.48,5.48,0,0,0-1.3,3.2,6.45,6.45,0,0,1-.3,2.09,3.31,3.31,0,0,0-.1,2.16.94.94,0,0,1-.32,1A.72.72,0,0,1,20,22.08Z"/><path class="cls-1" d="M29.11,16.72A.42.42,0,0,1,29,17a.55.55,0,0,1-.37.14,14,14,0,0,0-1.94,0,2.39,2.39,0,0,1-2.16-.78,1.12,1.12,0,0,1,0-.86c.08-.17.43-.27.68-.31s.35.1.54.15c.51.13.93.49,1.54.39a1.22,1.22,0,0,1,1,.49c.23.34.38.35.7.16A1,1,0,0,1,29.11,16.72Zm-1.19-.11c-.81-.71-1.83-.5-2.77-.61C26,16.7,27,16.37,27.92,16.61Z"/><path class="cls-1" d="M28.67,17.68h0c-.24,0-.48,0-.71,0a5.62,5.62,0,0,0-1.16,0,2.86,2.86,0,0,1-2.66-1,1.55,1.55,0,0,1-.06-1.3c.13-.31.47-.5,1-.6a1.07,1.07,0,0,1,.62.1l.13,0a3.9,3.9,0,0,1,.57.21,1.42,1.42,0,0,0,.78.18,1.68,1.68,0,0,1,1.45.71h0a.51.51,0,0,1,.71.2l.05.09a1.15,1.15,0,0,1,.16.4h0a.92.92,0,0,1-.23.76A1.06,1.06,0,0,1,28.67,17.68Z"/><path class="cls-1" d="M26.78,19.08a4.09,4.09,0,0,0,.47.23c.37.12.44.29.21.56-.05.06-.26.09-.27.06-.34-.6-1.11-.58-1.4-.93a6.87,6.87,0,0,1-.93,0c-.65-.11-.88-.08-1.23.24l.22.62c1.06.22,2.14.45,3.24.65a1.17,1.17,0,0,0,.73-.16c.21-.14.5-.44.46-.59a1.32,1.32,0,0,0-.58-.7,2.23,2.23,0,0,0-.83-.16Z"/><path class="cls-1" d="M27.22,21,27,21c-.81-.14-1.62-.31-2.42-.48l-.83-.17a.48.48,0,0,1-.37-.32l-.22-.62a.48.48,0,0,1,.13-.54,1.67,1.67,0,0,1,1.65-.36,3.24,3.24,0,0,0,.46,0c.24,0,.59-.06.78.17a.58.58,0,0,0,.19.11l.05-.11a.5.5,0,0,1,.54-.29,1.46,1.46,0,0,0,.22,0,1.84,1.84,0,0,1,.78.2,1.81,1.81,0,0,1,.8,1c.17.6-.66,1.13-.67,1.14A1.66,1.66,0,0,1,27.22,21ZM24.3,19.43l.49.1,1.51.31-.15-.06a2.2,2.2,0,0,1-.55-.28h-.16a3.57,3.57,0,0,1-.66,0A2.92,2.92,0,0,0,24.3,19.43Zm2.89.39h0Z"/><path class="cls-1" d="M19.81,14.65c-.16-.15-.2-.21-.26-.23-.85-.35-1.69-.74-2.55-1a3.06,3.06,0,0,0-1.09,0c-.08,0-.22.16-.2.2.1.27.18.67.39.78a10.07,10.07,0,0,0,1.62.58,2.53,2.53,0,0,1,.64.21.63.63,0,0,0,1-.18A1.63,1.63,0,0,1,19.81,14.65Z"/><path class="cls-1" d="M18.83,15.83a1.3,1.3,0,0,1-.77-.28.74.74,0,0,0-.24-.08l-.25-.07-.46-.14a6.06,6.06,0,0,1-1.24-.47,1.28,1.28,0,0,1-.56-.85,1.46,1.46,0,0,1-.07-.19.59.59,0,0,1,.06-.5.84.84,0,0,1,.58-.37l.24,0a2.47,2.47,0,0,1,1,.06c.66.23,1.3.5,1.93.77l.65.28a.75.75,0,0,1,.28.2l.12.12a.48.48,0,0,1,.17.4.52.52,0,0,1-.21.38l-.19.12-.13.08a1.22,1.22,0,0,1-.79.56Zm-2.5-2,.05.11a6.67,6.67,0,0,0,1,.35l.48.16.18,0a1.67,1.67,0,0,1,.59.24.46.46,0,0,0,.18.09.47.47,0,0,0,.12-.12l-.25-.11c-.61-.26-1.24-.53-1.87-.74A1.15,1.15,0,0,0,16.33,13.84Z"/><path class="cls-1" d="M15.89,16.29a1,1,0,0,1,.63.13c.58.44,1.13.92,1.67,1.42.36.33.29.55-.2.67a.78.78,0,0,1-.5,0c-.76-.35-1.5-.75-2.26-1.11a1,1,0,0,1-.61-.88C15.08,16.43,15.48,16.33,15.89,16.29Zm-.16.3c.06.62.35.83,1.5,1.11Z"/><path class="cls-1" d="M17.7,19.05a1.08,1.08,0,0,1-.42-.08c-.39-.19-.78-.38-1.16-.58L15,17.85a1.46,1.46,0,0,1-.9-1.3.5.5,0,0,1,.41-.52l.39-.08c.32-.06.62-.12.92-.15h0a1.4,1.4,0,0,1,1,.22c.56.43,1.12.91,1.71,1.46a.91.91,0,0,1,.37.89c-.12.46-.62.58-.79.63A2.08,2.08,0,0,1,17.7,19.05Zm-.08-1,.06,0-.05,0Z"/></svg>