<svg id="Layer_1" data-name="Layer 1" xmlns="http://www.w3.org/2000/svg" viewBox="0 0 26 19"><defs><style>.cls-1{fill:#293b5c;}</style></defs><path class="cls-1" d="M10.05,15.58c.19-.24.47-.49.35-.89,0-.11.09-.28.17-.39s.31-.38.44-.58a7.23,7.23,0,0,1,.66-1.08A1.92,1.92,0,0,1,13.31,12a.28.28,0,0,0,.34-.2c0-.11.07-.24.12-.35.22-.44.21-1,.74-1.26,0,0,.06-.12.09-.18a.91.91,0,0,0-.48.2,2.1,2.1,0,0,1-1,.48A7.12,7.12,0,0,0,11.8,11a6.39,6.39,0,0,1-1.79.64,4.06,4.06,0,0,1-2.16,0c-.36-.15-.78-.19-1-.66.51-.1.5-.57.68-.94-.46-.16-.9-.32-1.35-.46a.54.54,0,0,0-.27,0A8.18,8.18,0,0,0,5,10c-.26.14-.62.3-.7.53a4.44,4.44,0,0,1-.93,1.36c-.36.43-.86.75-1,1.34a.33.33,0,0,1-.43.27.55.55,0,0,1-.23-.87,2.29,2.29,0,0,0,.23-.21c.13-.17.32-.34.34-.52a2.23,2.23,0,0,1,1-1.59c.34-.22.72-.36,1.07-.56a2.92,2.92,0,0,0,.37-.34l.58-.52C5,8.5,4.79,8.06,4.52,7.64A1.62,1.62,0,0,1,4.25,6,4,4,0,0,1,4.6,5,2.75,2.75,0,0,1,5.84,4c.13,0,.26-.13.38-.19a3.5,3.5,0,0,1,.69-.36,3.61,3.61,0,0,1,1.93-.05,1.52,1.52,0,0,0,.28,0A2.92,2.92,0,0,0,8,2.55a4.94,4.94,0,0,0-1.44-.16,1.35,1.35,0,0,1-.86-.29.48.48,0,0,1-.14-.34c0-.06.14-.15.23-.17a5.59,5.59,0,0,1,.71-.15,10,10,0,0,0,1.1-.15,1,1,0,0,1,1.12.47c.19.25.33.53.51.78s.37.49.58.75A1.19,1.19,0,0,1,9.84,3c0-.08.1-.2.16-.2a2.11,2.11,0,0,1,.71,0c.37.11.72.3,1.09.41s.85.17,1.26.28c.2.06.37.25.57.32a3.68,3.68,0,0,1,1.58,1.23,3.78,3.78,0,0,1,.9,1.32l.06,0c.27-.33.53-.68.83-1a1.64,1.64,0,0,1,2.28-.36,1.35,1.35,0,0,1,.27.2c.06.08.14.21.11.27s-.16.24-.25.25a1.87,1.87,0,0,1-.51-.11c-.26-.06-.52-.27-.81-.1s-.77.35-.84.85c0,.07-.09.13-.11.2-.1.24-.2.49-.31.78a2.25,2.25,0,0,1,.48.07.45.45,0,0,0,.57-.15,1,1,0,0,1,.6-.32,2.48,2.48,0,0,0,.44-.2,2,2,0,0,1,.52-.18c.18,0,.37.1.55.08a2.62,2.62,0,0,1,1.52.49,8.27,8.27,0,0,1,1,.83,2.14,2.14,0,0,1,.68.92c.05.12.16.21.22.33s.14.25.1.3a4.08,4.08,0,0,1-.46.47s-.09,0-.11-.07A5.72,5.72,0,0,0,22,8.83a3,3,0,0,0-1-.75A.73.73,0,0,1,20.76,8a1.35,1.35,0,0,0-1.32-.42,1.62,1.62,0,0,1-.22,0c-.29,0-.6-.12-.94.13l1.14.18a.73.73,0,0,1,.29.11,10.28,10.28,0,0,1,.93.65,3.69,3.69,0,0,1,.62.69,6.65,6.65,0,0,1,.41.74.75.75,0,0,1,.13.36c0,.39.25.6.45.81a3.85,3.85,0,0,1,.83,1.09.55.55,0,0,0,.46.37.83.83,0,0,1,.53.25A14.33,14.33,0,0,1,25,14.27c0,.06-.06.25-.15.33s-.24,0-.29-.12c-.2-.33-.34-.7-.56-1a.91.91,0,0,0-.57-.36c-.12,0-.32.26-.38.44a1.6,1.6,0,0,0,.52,1.64c.07.06.18.17.16.19s-.15.22-.24.23a.36.36,0,0,1-.29-.16c-.21-.44-.38-.89-.59-1.32-.07-.15-.14-.33-.39-.35a1.55,1.55,0,0,1-.53-.29,7.7,7.7,0,0,1-.89-.6c-.19-.16-.31-.41-.58-.13,0,0-.09,0-.14,0l-.82-.18-.82-.19a1.1,1.1,0,0,1-.47-.17,4.22,4.22,0,0,1-.49-.61l-.09,0c.06.58.07,1.17.18,1.75.06.28.05.47-.22.62a.65.65,0,0,1,0,.67A11.88,11.88,0,0,0,17.05,16c-.11.53-.21,1.05-.31,1.58,0,.18-.41.49-.48.41a1.17,1.17,0,0,1-.37-.57,7.69,7.69,0,0,1,0-1.27,1.84,1.84,0,0,1,.09-.53,6.56,6.56,0,0,0,.61-2.08,11.13,11.13,0,0,0-.1-1.53c-.07-.38-.06-.76-.11-1.13a3.21,3.21,0,0,0-.21-.75,2.44,2.44,0,0,0-.32-.47s-.08-.1-.12-.09l-.57.06v.09l.7.2-.19.27a13.79,13.79,0,0,0-.85,1.38,1.76,1.76,0,0,1-1,.83,2.3,2.3,0,0,0-1.3.87,5.18,5.18,0,0,1-.47.58l-.8,1a2.1,2.1,0,0,1-.44.4A1.89,1.89,0,0,0,10,16.43c-.06.22-.15.24-.33.24A1.11,1.11,0,0,1,10.05,15.58ZM10,4.15A1.64,1.64,0,0,0,9.73,4a4.81,4.81,0,0,0-2.25-.3,1.79,1.79,0,0,0-.35.09A5.12,5.12,0,0,0,5,5.23a1.36,1.36,0,0,0-.22.39,5.31,5.31,0,0,0-.26.86,1.12,1.12,0,0,0,.08.66,4.89,4.89,0,0,0,.82,1.29A3.2,3.2,0,0,0,7.34,9.57a4.15,4.15,0,0,1,1.26.52.89.89,0,0,0,.73.09l1.11-.38a3.35,3.35,0,0,1,2,0A1.89,1.89,0,0,0,14,9.71a4.26,4.26,0,0,1,1.59-.56A.26.26,0,0,0,15.76,9c.07-.39.12-.8.19-1.2a1.87,1.87,0,0,1,.17-.35h.09A12.92,12.92,0,0,0,15.12,5.9,4.4,4.4,0,0,0,14,5.27c-.28-.13-.57-.25-.86-.36s-.43-.13-.64-.2-.32-.12-.47-.18a.67.67,0,0,0-.18-.07L10,4.14Zm6.21,5.37c0,.06.05.15.09.16.47.16.65.62,1,1A11.83,11.83,0,0,1,18,11.7a.53.53,0,0,0,.25.22c.46.14.93.27,1.4.37s.46.07.45-.33a.32.32,0,0,1,.29-.36.54.54,0,0,0,.44-.28,4.41,4.41,0,0,0,.47-.74c.16-.32-.08-.55-.22-.79,0-.06-.11-.1-.13-.16-.23-.65-.84-.94-1.33-1.35a.13.13,0,0,0-.07,0c-.52.08-.94-.37-1.5-.23a3,3,0,0,1-1-.11.77.77,0,0,0-.92.88C16.19,9,16.21,9.27,16.24,9.52ZM7.58,11.11a2.28,2.28,0,0,0,1.18.21c.48-.06,1-.07,1.45-.17a8.39,8.39,0,0,0,1.24-.45c.32-.12.63-.27,1-.42l-.18-.07A3.43,3.43,0,0,0,10,10.4a2,2,0,0,1-1.94,0L8,10.32h0Zm15,1.29c-.34-.47-.61-1-.92-1.48l-.93,1.3.61.4L22,13l.47.36C22.82,13,23,12.9,22.59,12.4ZM14.55,5A3.88,3.88,0,0,0,13,4l-2-.57-.16,0c-.42-.2-.59-.14-.8.36A21.18,21.18,0,0,1,14.55,5Zm-.4,6.8a7,7,0,0,0,1.09-1.6C14.68,10.21,14.24,10.86,14.15,11.77ZM2.78,12c.32-.52.89-.76,1.09-1.36A1.27,1.27,0,0,0,2.78,12Zm8.62,1.93.06.06a2.43,2.43,0,0,0,.2-.14c.36-.41.56-1,1.06-1.24,0,0,0-.07,0-.13C11.92,12.64,11.71,13.3,11.4,13.89Zm-4.11-12,1.1.25C8.1,1.62,7.73,1.67,7.29,1.85Zm9.47,8.8c-.12.45.14.81.19,1.19A1.42,1.42,0,0,0,16.76,10.65Zm.35,1.79-.14,0,.15,1.09h.11A2.43,2.43,0,0,0,17.11,12.44Zm-.62,4.19.14-1C16.23,16.36,16.22,16.47,16.49,16.63Zm-.07-9.77.09,0,.36-.64-.11-.06Z"/><path class="cls-1" d="M16.33,18.43A.55.55,0,0,1,16,18.3a1.53,1.53,0,0,1-.47-.79,5.89,5.89,0,0,1,0-1.11v-.23a2.14,2.14,0,0,1,.11-.64c.07-.2.15-.4.23-.59a3.77,3.77,0,0,0,.36-1.36,12,12,0,0,0-.1-1.47c0-.21-.05-.42-.06-.64s0-.33,0-.5-.05-.25-.08-.38l-.16.24a10.85,10.85,0,0,0-.57.95,2.09,2.09,0,0,1-1.17,1,2,2,0,0,0-1.11.71,3.64,3.64,0,0,1-.35.45,1.15,1.15,0,0,0-.14.17l-.27.33c-.18.22-.36.45-.55.67a2.18,2.18,0,0,1-.52.48,1.5,1.5,0,0,0-.65.91.66.66,0,0,1-.72.53.4.4,0,0,1-.38-.34,1.47,1.47,0,0,1,.41-1.36l.29.2h0l-.28-.22.09-.1c.18-.22.23-.32.2-.45a.84.84,0,0,1,.21-.7,2.62,2.62,0,0,1,.23-.32,1.71,1.71,0,0,0,.21-.26c.08-.12.14-.25.21-.38a3.33,3.33,0,0,1,.5-.76,2.32,2.32,0,0,1,1.92-.8.24.24,0,0,0,0-.08,2.34,2.34,0,0,1,.09-.24,1.45,1.45,0,0,0,.11-.29l-.31.08-.24.05a5.59,5.59,0,0,0-1,.28l-.26.12a5.56,5.56,0,0,1-1.64.55l-.46.07a3.18,3.18,0,0,1-1.9-.06L7.5,12a1.33,1.33,0,0,1-1-.81.35.35,0,0,1,0-.33.36.36,0,0,1,.26-.19c.13,0,.16-.07.25-.32-.32-.12-.64-.22-.95-.32,0,0,0,0,0,0l-.26.09a5.36,5.36,0,0,0-.68.26,2.06,2.06,0,0,0-.51.32,3.79,3.79,0,0,1-.8,1.23l-.2.24c-.11.14-.24.26-.36.39a1.8,1.8,0,0,0-.57.8.76.76,0,0,1-.36.49.7.7,0,0,1-.57.05.88.88,0,0,1-.59-.62.93.93,0,0,1,.19-.88,1,1,0,0,1,.15-.14,2,2,0,0,0,.17-.19.74.74,0,0,0,.15-.2A2.6,2.6,0,0,1,3.07,10a3.88,3.88,0,0,1,.66-.36c.14-.07.29-.14.42-.22a.64.64,0,0,0,.16-.14l.15-.15.34-.3-.08-.14c-.18-.29-.34-.58-.53-.86a2,2,0,0,1-.3-2c0-.11.07-.22.1-.33a1.81,1.81,0,0,1,.31-.72A3.11,3.11,0,0,1,5.72,3.6a1.13,1.13,0,0,0,.22-.11L6,3.44l.2-.11a1.9,1.9,0,0,1,.57-.28,6,6,0,0,1,.93-.16,6,6,0,0,0-1.22-.11h0a1.72,1.72,0,0,1-1.1-.37.86.86,0,0,1-.29-.64c0-.35.37-.52.51-.56a6.85,6.85,0,0,1,.76-.16L6.82,1A4.48,4.48,0,0,0,7.46.91,1.37,1.37,0,0,1,9,1.53a3.52,3.52,0,0,1,.3.45c.07.11.14.23.22.34a2,2,0,0,0,.17.23A.55.55,0,0,1,10,2.42a3,3,0,0,1,.85.05,4.24,4.24,0,0,1,.59.23c.17.06.33.13.5.18a5.82,5.82,0,0,0,.6.14q.33.06.66.15a1.58,1.58,0,0,1,.41.21,1,1,0,0,0,.18.11,4,4,0,0,1,1.75,1.34l.18.22a5.5,5.5,0,0,1,.54.69,6.33,6.33,0,0,1,.49-.56,2,2,0,0,1,2.78-.41,1.48,1.48,0,0,1,.35.28.69.69,0,0,1,.18.66.8.8,0,0,1-.6.5A1.36,1.36,0,0,1,19,6.13l-.14,0L18.53,6c-.17-.07-.21-.07-.24,0l-.18.1c-.32.17-.45.26-.48.46a.66.66,0,0,1-.12.29c-.05.11-.09.21-.13.32l.09,0s.07,0,.11,0a1.29,1.29,0,0,1,.82-.45,1.18,1.18,0,0,0,.16-.08l.21-.1.1-.05a1.71,1.71,0,0,1,.54-.16,1,1,0,0,1,.4.05l.15,0a3,3,0,0,1,1.75.54,3.54,3.54,0,0,1,.69.58l.32.29a2.45,2.45,0,0,1,.8,1.09l.06.07a2.43,2.43,0,0,1,.14.2c.1.19.25.47.07.72a3,3,0,0,1-.43.44l-.08.09a.47.47,0,0,1-.32.1.59.59,0,0,1-.39-.26,5.24,5.24,0,0,0-.86-1.1c-.13-.14-.25-.25-.36-.35l.23.29a4.8,4.8,0,0,1,.37.66l.07.13a1,1,0,0,1,.17.58c0,.13.06.22.24.4l.1.1a4,4,0,0,1,.91,1.21c0,.1.08.12.15.13a1.33,1.33,0,0,1,.79.39,15.27,15.27,0,0,1,.95,1.42c.2.31-.08.69-.21.81a.45.45,0,0,1-.37.11.77.77,0,0,1-.52-.31c-.09-.14-.17-.3-.25-.45a3.85,3.85,0,0,0-.3-.53.9.9,0,0,0-.18-.16.41.41,0,0,0-.08.14,1.24,1.24,0,0,0,.4,1.21c.11.09.45.38.24.7a.77.77,0,0,1-.53.41.76.76,0,0,1-.69-.38c-.11-.23-.21-.46-.31-.7s-.18-.42-.28-.62l-.06-.14a1.07,1.07,0,0,1-.59-.26l-.32-.21a5.9,5.9,0,0,1-.73-.5l-.11-.1a.59.59,0,0,1-.44.07L19.37,13l-.4-.09-.63-.15-.1,0a1.19,1.19,0,0,1-.38-.12,5.21,5.21,0,0,0,.1.69,1,1,0,0,1-.13.81,1.32,1.32,0,0,1-.09.67,8.26,8.26,0,0,0-.24,1l-.06.3c-.07.32-.13.64-.2,1l-.12.62a1.15,1.15,0,0,1-.69.72Zm-.08-1.49a3.59,3.59,0,0,0,0,.47.28.28,0,0,0,.07.13v0l.1-.49a.35.35,0,0,1-.17-.06Zm.38-1.71.13,0,0,0c.05-.23.11-.47.18-.7s.08-.26.05-.3A.42.42,0,0,1,17,14v0h0a5.07,5.07,0,0,1-.4,1.32h.07Zm-5.83-.57a1,1,0,0,1,0,.16l.18-.19.28-.34a.41.41,0,0,1-.11-.07l0,0-.07.08a2.35,2.35,0,0,0-.19.25Zm0-.08Zm14.12-.31Zm-13.5-.38h0ZM2.12,12.8l-.1.09a.16.16,0,0,0-.08.18s0,.08.07.1A1.34,1.34,0,0,1,2.12,12.8Zm19.18-.69.27.18.61.43.21.16,0,0a.78.78,0,0,0-.14-.22h0c-.23-.32-.43-.66-.63-1ZM16.62,9.37a2.13,2.13,0,0,1,.74.72,2.92,2.92,0,0,0,.21.28,6.07,6.07,0,0,1,.52.73l.24.37.07.09,1.32.35a.73.73,0,0,1,.21-.49.64.64,0,0,1,.46-.21s0,0,.13-.12A4.74,4.74,0,0,0,21,10.4s0-.05-.11-.25a1.63,1.63,0,0,1-.11-.17.43.43,0,0,1-.16-.21,2,2,0,0,0-.82-.89l-.31-.24a2.05,2.05,0,0,1-.72-.15.94.94,0,0,0-.58-.1,1.73,1.73,0,0,1-.79,0l-.31-.06a.63.63,0,0,0-.4.09.56.56,0,0,0-.1.38l0,.19C16.59,9.09,16.6,9.23,16.62,9.37ZM8.11,10.88l.32.06-.29-.1Zm2.6-.3a2,2,0,0,0-.45.15Zm2.07-.28v0h0ZM8,4.05a1.54,1.54,0,0,0-.43,0l-.12,0a.46.46,0,0,0-.15,0A4.77,4.77,0,0,0,5.35,5.47a1,1,0,0,0-.16.28l0,.08A4.33,4.33,0,0,0,5,6.54.76.76,0,0,0,5,7l.07.14a4.13,4.13,0,0,0,.68,1.05,2.81,2.81,0,0,0,1.65,1,3.37,3.37,0,0,1,1.12.42l.26.14c.22.11.33.11.43.07L10,9.54l.32-.11a3.71,3.71,0,0,1,2.26,0,1.47,1.47,0,0,0,1.25-.08,4.75,4.75,0,0,1,1.58-.59l.06-.44c0-.21.07-.43.11-.64a1,1,0,0,1,.13-.34l-.13-.2a6.94,6.94,0,0,0-.73-1,2.31,2.31,0,0,0-.7-.41l-.32-.14A6.65,6.65,0,0,0,13,5.28l-.33-.11-.3-.09A2.48,2.48,0,0,1,12,5l-.14-.06-.08,0-1.61-.28-.14,0a.47.47,0,0,1-.17,0l-.12-.06a.45.45,0,0,0-.12-.06l-.39-.11A5.17,5.17,0,0,0,8,4.05ZM5.63,9.14a.27.27,0,0,1-.07.08l-.31.28.34-.11.23-.08h0Zm11,.33Zm-.17-.16Zm4.6-1.63h0a3,3,0,0,1,1.13.82,7.16,7.16,0,0,1,.59.66l0-.06a1.72,1.72,0,0,0-.56-.75c-.13-.1-.25-.22-.37-.33a3.11,3.11,0,0,0-.53-.46A2.25,2.25,0,0,0,20,7.13h0a1.53,1.53,0,0,1,1,.57S21.05,7.68,21.06,7.68Zm-1.83-.55h.14l.41,0-.16,0-.15,0a1,1,0,0,0-.24.08Zm-2.81-.27h0ZM8.6,2.43l.08,0,0-.07ZM6.57,2h.35a.36.36,0,0,1,0-.11.21.21,0,0,1,0-.11l-.38.05-.44.08A1,1,0,0,0,6.52,2Z"/><path class="cls-1" d="M10,4.15c-.34,0-.44.35-.59.57a4.23,4.23,0,0,0-.57,1.17,7.72,7.72,0,0,0-.16,1.28,2.28,2.28,0,0,1-.16.8,1.28,1.28,0,0,0-.19.85,4,4,0,0,1,0,.6,2,2,0,0,0,.22.09c.08,0,.2.06.26,0a.25.25,0,0,0,.06-.24A2.35,2.35,0,0,1,9,7.81a3.66,3.66,0,0,0,.16-1.14,3.43,3.43,0,0,1,.8-2c.12-.16.24-.29.09-.49Z"/><path class="cls-1" d="M8.78,9.94a1,1,0,0,1-.26,0,1.18,1.18,0,0,1-.26-.1A.48.48,0,0,1,8,9.42v-.2a1.93,1.93,0,0,0,0-.34,1.59,1.59,0,0,1,.23-1.1,1.28,1.28,0,0,0,.08-.44l0-.22c0-.14,0-.28,0-.42a4.18,4.18,0,0,1,.14-.92A4.31,4.31,0,0,1,9.12,4.5l.07-.12a1.18,1.18,0,0,1,.68-.6l.1,0a.42.42,0,0,1,.35.13.21.21,0,0,1,0,.06.72.72,0,0,1-.07.88,3.06,3.06,0,0,0-.76,1.85,4,4,0,0,1-.18,1.27,1.88,1.88,0,0,0-.06,1.23.64.64,0,0,1-.23.69A.5.5,0,0,1,8.78,9.94Z"/><path class="cls-1" d="M14.16,6.66a.26.26,0,0,1,0,.2.33.33,0,0,1-.22.08,7.36,7.36,0,0,0-1.15,0,1.42,1.42,0,0,1-1.28-.46.61.61,0,0,1,0-.51c0-.11.25-.16.4-.19s.21.06.32.09c.3.07.55.29.92.23a.76.76,0,0,1,.57.29c.13.21.22.21.41.1A.46.46,0,0,1,14.16,6.66Zm-.7-.06c-.48-.43-1.09-.3-1.65-.36C12.3,6.65,12.91,6.46,13.46,6.6Z"/><path class="cls-1" d="M13.91,7.33l-.43,0a3.09,3.09,0,0,0-.68,0,1.8,1.8,0,0,1-1.67-.66,1,1,0,0,1,0-.86.85.85,0,0,1,.69-.42.76.76,0,0,1,.42.07,4,4,0,0,1,.41.16.94.94,0,0,0,.42.1,1.09,1.09,0,0,1,.92.4.45.45,0,0,1,.2,0,.41.41,0,0,1,.27.19.68.68,0,0,1,.13.32.62.62,0,0,1-.16.53A.71.71,0,0,1,13.91,7.33Z"/><path class="cls-1" d="M12.78,8.07a2.39,2.39,0,0,0,.28.13c.22.07.26.18.12.34s-.15.05-.16,0c-.2-.36-.65-.35-.83-.55a3.15,3.15,0,0,1-.55,0c-.39-.06-.52,0-.73.14l.13.37c.63.13,1.27.27,1.92.39a.68.68,0,0,0,.44-.1c.12-.08.3-.26.27-.35a.75.75,0,0,0-.34-.41,1.58,1.58,0,0,0-.49-.1Z"/><path class="cls-1" d="M13,9.31l-.15,0c-.49-.08-1-.19-1.46-.29L11,8.91a.41.41,0,0,1-.29-.25l-.13-.37a.39.39,0,0,1,.11-.43,1.06,1.06,0,0,1,1.06-.23H12a.61.61,0,0,1,.53.14h0a.45.45,0,0,1,.4-.21l.13,0a1.13,1.13,0,0,1,.5.13,1.19,1.19,0,0,1,.52.65c.11.42-.42.77-.44.78A1,1,0,0,1,13,9.31Z"/><path class="cls-1" d="M8.64,5.43c-.1-.08-.12-.12-.15-.13C8,5.09,7.48,4.86,7,4.68a1.77,1.77,0,0,0-.65,0s-.13.09-.12.11.11.4.24.47a7.25,7.25,0,0,0,1,.34,1.14,1.14,0,0,1,.38.13.38.38,0,0,0,.61-.11C8.44,5.54,8.54,5.5,8.64,5.43Z"/><path class="cls-1" d="M8.06,6.23A.83.83,0,0,1,7.55,6L7.44,6,7.28,6,7,5.89a4.73,4.73,0,0,1-.76-.29A.86.86,0,0,1,5.88,5l0-.11a.43.43,0,0,1,0-.38.6.6,0,0,1,.42-.26l.14,0a1.5,1.5,0,0,1,.66,0c.39.13.77.3,1.15.46l.39.17a.47.47,0,0,1,.19.14l.07.07A.37.37,0,0,1,9,5.46a.41.41,0,0,1-.16.29l-.13.08a.93.93,0,0,1-.57.39ZM6.36,5.07h0Z"/><path class="cls-1" d="M6.31,6.41a.58.58,0,0,1,.37.07c.35.27.68.55,1,.85s.17.32-.12.4a.51.51,0,0,1-.3,0c-.45-.21-.89-.45-1.34-.66a.57.57,0,0,1-.36-.53C5.83,6.49,6.07,6.43,6.31,6.41Zm-.09.18c0,.37.2.49.89.66Z"/><path class="cls-1" d="M7.39,8.14a.65.65,0,0,1-.29-.06l-.7-.34-.64-.32a.94.94,0,0,1-.59-.85.39.39,0,0,1,.32-.41l.23,0L6.27,6h0a1,1,0,0,1,.65.15c.34.26.67.55,1,.87a.65.65,0,0,1,.24.63.65.65,0,0,1-.53.44Z"/></svg>