<svg id="Layer_1" data-name="Layer 1" xmlns="http://www.w3.org/2000/svg" viewBox="0 0 47 42"><defs><style>.cls-1{fill:#293b5c;}</style></defs><path class="cls-1" d="M30.26,32.76a23.75,23.75,0,0,1-3.59.71,7.83,7.83,0,0,0-2.46,1A41.11,41.11,0,0,1,17,37.61a22.39,22.39,0,0,0-2.61,1c-.53.23-.86.13-1.11-.35-.92-1.77-1.83-3.54-2.77-5.29a13.83,13.83,0,0,0-.82-1.23l0,0a14.47,14.47,0,0,0-.51-1.44,13,13,0,0,0-.74-1.14c-.4-.67-.8-1.34-1.17-2C6.65,26,6.09,24.94,5.56,23.83,4.79,22.21,4.05,20.59,3.3,19c-.15-.33-.34-.63-.47-1s0-.53.36-.66c1.79-.59,3.59-1.19,5.36-1.85.91-.34,1.75-.85,2.65-1.24,1.8-.8,3.61-1.57,5.42-2.34a4.91,4.91,0,0,0,.7-.3,15.82,15.82,0,0,1,4.18-1.34c.66-.18,1.3-.41,2-.58.2,0,.53,0,.63.07A15.46,15.46,0,0,1,26,12.22a33.4,33.4,0,0,1,1.72,4c.36.93.62,1.9.92,2.86l.17-.06c.5,1.59.92,3.2,1.54,4.74a30.78,30.78,0,0,0,1.66,3c.65,1.24,1.27,2.5,1.83,3.79.34.79.2.93-.58,1.25L32.7,32l1,.6.31-.08c1-.24,1.23-.53.84-1.48s-.83-1.93-1.28-2.88a14.54,14.54,0,0,0-1.2-2.24,18.85,18.85,0,0,1-2.53-5.2c-.28-.86-.59-1.72-.86-2.58-.41-1.27-.71-2.58-1.24-3.79-.59-1.36-1.4-2.62-2.12-3.92a1.85,1.85,0,0,0,.18-.43,3.07,3.07,0,0,1-.14-.52c-1.06-.68-1.13-1.91-1.63-2.9a.48.48,0,0,1,0-.21A2.09,2.09,0,0,1,24,6.1c-.15-.24-.29-.49-.42-.74-.44-.12-.7-.57-1-.94a17.52,17.52,0,0,0-2.7-2.94c-.36-.31-.63-.38-1-.05a6.24,6.24,0,0,1-1.21,1,9.34,9.34,0,0,0-3.16,2.59c-.35.44-.61,1-1,1.36C13,7,12.38,7.43,11.84,8a17.42,17.42,0,0,1-3.46,2.76A18,18,0,0,0,5.18,13,40.42,40.42,0,0,0,2,16.75a.77.77,0,0,0-.08.69c.4.85.87,1.66,1.3,2.5.12.24.16.53.29.76.53,1,1.11,1.91,1.61,2.89.69,1.36,1.32,2.76,2,4.13,1.17,2.4,2.35,4.81,3.55,7.2.4.82.88,1.6,1.28,2.41s.6,1.37.9,2.05.45.68,1.09.36c.92-.45,1.87-.82,2.81-1.21,2.13-.87,4.29-1.67,6.38-2.61,1.65-.74,3.18-1.68,5.06-1.81a14.33,14.33,0,0,0,2.9-.73l.36-.11-1.16-.51M23.46,7.4c.09.22.16.44.24.66.17.42.05.71-.39.83-1,.27-1.93.5-2.88.8s-1.92.66-2.88,1-1.91.61-2.77.89c.89-.64,1.83-1.36,2.83-2a25.15,25.15,0,0,1,2.23-1.21c.88-.45,1.78-.87,2.67-1.32C23,6.78,23.28,6.94,23.46,7.4Zm-1-1.46c-1.26.7-2.45,1.33-3.61,2-1.42.86-2.75,1.88-4.21,2.64A39.53,39.53,0,0,0,10.84,13a13.87,13.87,0,0,1-2.49,1.08l-.11-.2a12.09,12.09,0,0,1,2.94-2.33c1.1-.73,2.07-1.64,3.13-2.44.37-.28.82-.46,1.21-.73.74-.51,1.46-1.06,2.2-1.57S19,6,19.71,5.54a.52.52,0,0,1,.36-.06c.75.28,1.17-.16,1.62-.78ZM7.14,12.4a51,51,0,0,0,5.12-4.06c.69-.58,1.21-1.34,1.85-2a13,13,0,0,1,3.49-3,7.72,7.72,0,0,0,1.26-.91.51.51,0,0,1,.78,0c.38.4.79.76,1.34,1.27-5.79,4-11.15,8.29-17.12,12A9.88,9.88,0,0,1,7.14,12.4Z"/><path class="cls-1" d="M13.33,40.34a.56.56,0,0,1-.25-.05,1.21,1.21,0,0,1-.62-.75l-.26-.62c-.2-.48-.4-1-.63-1.41s-.42-.81-.64-1.21-.44-.8-.64-1.2q-1.8-3.6-3.55-7.21c-.27-.55-.53-1.1-.79-1.65-.4-.83-.79-1.66-1.2-2.47-.3-.6-.63-1.17-1-1.75-.22-.37-.43-.75-.64-1.13A2.32,2.32,0,0,1,3,20.43a2.85,2.85,0,0,0-.12-.31l-.49-.93c-.28-.52-.56-1.05-.82-1.58a1.19,1.19,0,0,1,.13-1.11c.25-.3.48-.6.72-.9a26.88,26.88,0,0,1,2.52-2.93,14.87,14.87,0,0,1,2.73-1.94l.53-.32a16.4,16.4,0,0,0,3.39-2.69,11.37,11.37,0,0,1,.89-.82c.29-.25.57-.49.82-.75a5.42,5.42,0,0,0,.56-.75c.13-.2.26-.39.41-.58a9.59,9.59,0,0,1,3.29-2.7,3.15,3.15,0,0,0,.79-.66c.11-.11.22-.22.34-.32a1,1,0,0,1,1.51,0,18.09,18.09,0,0,1,2.76,3l.09.15c.2.28.41.58.65.65a.36.36,0,0,1,.24.19,8,8,0,0,0,.41.7.34.34,0,0,1,.05.14.36.36,0,0,0,0,.09l0,.11a.36.36,0,0,1,0,.18,9,9,0,0,1,.38.95,3,3,0,0,0,1.09,1.76.39.39,0,0,1,.17.26,3,3,0,0,0,.12.45.33.33,0,0,1,0,.24,1.74,1.74,0,0,1-.11.32l.57,1a29.38,29.38,0,0,1,1.47,2.78A20.8,20.8,0,0,1,29,16.74c.12.42.24.83.37,1.24s.31.95.47,1.43.27.76.39,1.14a18.09,18.09,0,0,0,2.48,5.1,12.18,12.18,0,0,1,1.06,1.94L34,28c.49,1,.91,2,1.3,2.9a1.57,1.57,0,0,1,.1,1.3c-.2.4-.63.57-1.22.71l-.3.08a.45.45,0,0,1-.3,0l-1-.6a.39.39,0,0,1,.05-.71l.56-.22a1.6,1.6,0,0,0,.51-.27s0-.1-.14-.46c-.49-1.14-1.07-2.33-1.82-3.77-.2-.39-.44-.77-.67-1.14a11.26,11.26,0,0,1-1-1.84c-.44-1.1-.79-2.24-1.12-3.35-.11-.37-.23-.74-.34-1.11l-.06,0a.38.38,0,0,1-.2-.23l-.27-.9c-.2-.64-.4-1.31-.64-1.94L27.23,16a32.55,32.55,0,0,0-1.56-3.58,11.25,11.25,0,0,0-1.43-1.9l-.4-.45a.91.91,0,0,0-.28,0c-.35.09-.7.2-1,.31s-.6.19-.91.27-.72.18-1.09.27a10.19,10.19,0,0,0-3,1,4,4,0,0,1-.51.23l-.23.09-1.45.62-4,1.71c-.36.16-.71.34-1.06.52a16.67,16.67,0,0,1-1.6.74c-1.73.64-3.51,1.23-5.23,1.8l-.15.05a.39.39,0,0,0-.14.07l0,.09a3.82,3.82,0,0,0,.26.54c.07.13.14.26.2.39l.79,1.72c.48,1.05,1,2.1,1.46,3.14s1,2,1.66,3.28c.35.67.75,1.33,1.14,2a5.49,5.49,0,0,0,.31.47,5.44,5.44,0,0,1,.46.74,7.15,7.15,0,0,1,.38,1l.12.35,0,0,.25.36a9.3,9.3,0,0,1,.59.9c.65,1.23,1.3,2.47,1.94,3.71l.83,1.59c.13.26.22.34.6.17a22.25,22.25,0,0,1,2.66-1A42.11,42.11,0,0,0,24,34.15l.32-.17a6.45,6.45,0,0,1,2.28-.89,26.08,26.08,0,0,0,3.54-.7.33.33,0,0,1,.26,0l1.15.5a.4.4,0,0,1,.24.38.4.4,0,0,1-.28.36l-.36.1-.76.24a9.43,9.43,0,0,1-2.22.52,10.59,10.59,0,0,0-3.91,1.28c-.33.17-.67.33-1,.48C21.86,36.9,20.41,37.48,19,38l-2.14.85-.45.19c-.78.31-1.58.64-2.33,1A1.78,1.78,0,0,1,13.33,40.34Zm-.85-2.75c.15.34.3.68.44,1l.26.61c.12.27.17.33.19.34s.15-.07.37-.18c.78-.39,1.59-.72,2.38-1l.46-.18h0c-.63.21-1.29.48-2.05.82a1.12,1.12,0,0,1-1.62-.52ZM10.8,34.38c.06.12.13.24.19.37.17.35.36.69.55,1C11.29,35.31,11.05,34.84,10.8,34.38Zm19.43-1.2a24.45,24.45,0,0,1-3.51.68,6.07,6.07,0,0,0-2,.81l-.32.17c-.26.14-.54.29-.83.43l.38-.18a11.3,11.3,0,0,1,4.2-1.37,8.28,8.28,0,0,0,2-.48l.12,0ZM33.6,32l.2.12.17,0c.52-.13.67-.24.7-.3s0-.21-.13-.65c-.06-.16-.13-.32-.2-.48a1,1,0,0,1,0,.72A1.26,1.26,0,0,1,33.6,32Zm-1.25-5.54v0c.33.62.62,1.2.89,1.75l-.16-.33A14.1,14.1,0,0,0,32.35,26.48ZM4,14.79c-.35.42-.7.86-1,1.29L2.29,17a.45.45,0,0,0,0,.28l.16.33a.75.75,0,0,1,0-.16.94.94,0,0,1,.6-.47l.15,0c1.72-.57,3.49-1.16,5.2-1.8a14.83,14.83,0,0,0,1.53-.7c.36-.19.73-.37,1.1-.53,1.32-.59,2.65-1.16,4-1.72l1.44-.62.27-.11a2.54,2.54,0,0,0,.38-.16l.2-.12-1.64.53-.78.24a.38.38,0,0,1-.47-.2.38.38,0,0,1,.12-.49l.66-.48c-.12.07-.24.14-.37.2a39.12,39.12,0,0,0-3.78,2.37,7.77,7.77,0,0,1-1.78.83l-.77.29a.4.4,0,0,1-.5-.16l-.11-.21a.38.38,0,0,1,0-.43l.1-.12c-1.3.89-2.62,1.76-4,2.59a.39.39,0,0,1-.54-.53C3.69,15.31,3.86,15,4,14.79Zm3.31-2.06a9.9,9.9,0,0,0-1.93,1.6c3.08-2,6-4.17,8.92-6.27,1.95-1.43,4-2.9,6-4.32l-.13-.11c-.32-.31-.6-.56-.86-.84-.1-.11-.11-.12-.27,0s-.25.2-.38.3a4.2,4.2,0,0,1-.95.65,8.45,8.45,0,0,0-2.62,2.13c-.25.26-.49.52-.75.77s-.51.54-.75.83a10.38,10.38,0,0,1-1.13,1.17l-.81.69a41.26,41.26,0,0,1-4.35,3.4ZM19.93,5.85c-.68.44-1.35.85-2,1.29-.38.26-.75.52-1.11.79s-.73.53-1.1.78c-.19.13-.39.24-.59.35a4.49,4.49,0,0,0-.61.37c-.39.3-.77.62-1.15.93-.64.52-1.29,1.06-2,1.53l-.46.3A14.62,14.62,0,0,0,9.4,13.28a6.56,6.56,0,0,0,1.22-.59,38.8,38.8,0,0,1,3.86-2.42A27.77,27.77,0,0,0,17,8.69c.54-.36,1.08-.72,1.64-1,.8-.49,1.61-.93,2.46-1.41l.79-.43-.26-.43A1.48,1.48,0,0,1,19.93,5.85Zm3.83,3.42a.82.82,0,0,1,.64.24c.14.16.28.33.43.49l.5.58a.37.37,0,0,1,0-.39,1.1,1.1,0,0,0,.09-.23c0-.09-.05-.19-.08-.29a3.9,3.9,0,0,1-1.26-2.06,6.6,6.6,0,0,0-.36-.89.83.83,0,0,1-.06-.33c0-.06,0-.1,0-.14a6.59,6.59,0,0,1-.34-.57,2.38,2.38,0,0,1-.91-.9l-.09-.13a17.35,17.35,0,0,0-2.64-2.88c-.27-.23-.31-.19-.46-.05l-.3.28a.9.9,0,0,1,1,.25c.25.27.51.51.83.8l.48.45a.4.4,0,0,1,.13.32.37.37,0,0,1-.17.29l-1.42,1a.75.75,0,0,1,.42,0c.44.16.68,0,1.17-.65a.41.41,0,0,1,.33-.16.38.38,0,0,1,.32.18l.79,1.24a.4.4,0,0,1,.05.3.44.44,0,0,1-.19.25l-1.16.64c-.78.43-1.51.83-2.23,1.27h0L19.66,8l1.44-.71,1.23-.61a1,1,0,0,1,1.49.58c.05.13.1.25.14.38l.11.28a1,1,0,0,1,0,.86,1,1,0,0,1-.67.5l-1,.27c-.62.17-1.23.33-1.84.52l-.51.16.3-.07c.35-.08.71-.16,1.06-.26l.88-.26,1.09-.32A2.15,2.15,0,0,1,23.76,9.27Zm-.86-2a.55.55,0,0,0-.21.07L21.44,8,20,8.69l-.39.19a19.85,19.85,0,0,0-1.81,1c-.28.18-.56.37-.83.57l.43-.15,1.18-.41c.57-.2,1.14-.4,1.71-.58s1.25-.36,1.88-.52l1-.28c.12,0,.17-.07.18-.09a.37.37,0,0,0,0-.22l-.12-.31c0-.11-.08-.23-.13-.34h0c-.06-.16-.12-.23-.16-.24ZM23.8,10Z"/><path class="cls-1" d="M17.3,29c-.32.24-.58.42-.82.62a2.28,2.28,0,0,1-2,.36c-.45-.09-.55-.45-.41-.85.25-.66.53-1.3.8-1.95.07-.19.15-.38.25-.61l-2.05-.36c-.4-.07-.82-.25-.78-.69,0-.25.35-.54.61-.68.55-.3,1.15-.5,1.84-.79-.51-.46-1-.9-1.48-1.36-.65-.63-.6-.92.25-1.27a3.56,3.56,0,0,1,.79-.22c.25,0,1.21.38,1.49.35,0-.41-.67-1.25-.68-1.65,0-.57.32-.84.79-1a1.19,1.19,0,0,1,1.3.23,4.89,4.89,0,0,1,1.31,2.68c.11.43.2.87.3,1.29.81-.53,1.61-1.08,2.43-1.59a1.63,1.63,0,0,1,2.12.32,1.13,1.13,0,0,1-.29,1.67c-.83.46-1.69.88-2.53,1.32a2.76,2.76,0,0,0-.36.26c.5.24.92.48,1.36.65a3.12,3.12,0,0,1,1.76,2.28.84.84,0,0,1-1.17.91c-.94-.36-1.84-.83-2.89-1.31a4.8,4.8,0,0,1,.32,1.06,14.54,14.54,0,0,1,0,2.38,1.11,1.11,0,0,1-1.18,1c-.62-.16-.73-.71-.82-1.24-.07-.35-.05-.72-.1-1.08A4.32,4.32,0,0,0,17.3,29Zm.53-6.21a5.35,5.35,0,0,0-.16-1,11.31,11.31,0,0,0-.74-1.67c-.09-.16-.43-.19-.65-.28,0,.22-.16.45-.11.64A3.31,3.31,0,0,0,17.83,22.74Zm-2.56,6.15a2.29,2.29,0,0,0,2-1.68,2,2,0,0,0,0-.54c-.2,0-.44,0-.59.06A3,3,0,0,0,15.27,28.89Zm7.53-6.44c-.88-.52-2.42.29-3.24,1.63A9.79,9.79,0,0,0,22.8,22.45Zm-3.59,3.4a6.52,6.52,0,0,0,3,1.93A3.12,3.12,0,0,0,19.21,25.85Zm-1,2.38c-.27,1.06,0,2.57.52,2.77C19.3,29.8,19.09,28.66,18.24,28.23ZM16.64,24a2.18,2.18,0,0,0-2.29-1.78C14.56,24.07,15.92,23.43,16.64,24Z"/><path class="cls-1" d="M18.57,32.35a1,1,0,0,1-.24,0,1.63,1.63,0,0,1-1.12-1.55,4.48,4.48,0,0,1-.06-.64c0-.15,0-.3,0-.45s0-.06,0-.09l-.37.28a2.62,2.62,0,0,1-2.27.44.89.89,0,0,1-.67-.45,1,1,0,0,1,0-.92c.17-.47.37-.94.56-1.41l.3-.71-1.57-.27c-1.07-.19-1.12-.84-1.1-1.11a1.52,1.52,0,0,1,.81-1,12.54,12.54,0,0,1,1.29-.56h0l-1-.95a1.3,1.3,0,0,1-.54-1.09c.08-.42.5-.65.92-.82a4.33,4.33,0,0,1,.87-.25,2.1,2.1,0,0,1,.93.19l-.06-.12a2.51,2.51,0,0,1-.38-1,1.41,1.41,0,0,1,1-1.41,1.59,1.59,0,0,1,1.7.31,5.32,5.32,0,0,1,1.43,2.87l.18.75.26-.17c.57-.38,1.13-.76,1.7-1.11a2,2,0,0,1,2.66.44A1.75,1.75,0,0,1,24,22.9a1.36,1.36,0,0,1-.68.88c-.55.3-1.12.59-1.69.88L21,25c.25.12.47.23.71.32a3.5,3.5,0,0,1,2,2.63,1.35,1.35,0,0,1-.51,1.17,1.24,1.24,0,0,1-1.19.13c-.67-.26-1.31-.57-2-.89l-.09,0a1.35,1.35,0,0,1,0,.29A14.18,14.18,0,0,1,20,31a1.58,1.58,0,0,1-.67,1.08A1.37,1.37,0,0,1,18.57,32.35ZM18,30.57s0,0,0,.06c.1.57.19.84.54.93a.44.44,0,0,0,.35-.11.76.76,0,0,0,.34-.51c0,.07-.06.15-.1.23a.41.41,0,0,1-.5.2A1.3,1.3,0,0,1,18,30.57Zm.56-1.52a3.89,3.89,0,0,0,.11,1A1.78,1.78,0,0,0,18.53,29.05ZM15.18,24a.41.41,0,0,1,0,.11.43.43,0,0,1-.24.3l-.6.24a11.57,11.57,0,0,0-1.21.52,1,1,0,0,0-.4.38c0,.12.14.21.46.27l2.05.35a.45.45,0,0,1,.27.2.37.37,0,0,1,0,.34l-.48,1.16c-.19.46-.38.92-.56,1.39a.35.35,0,0,0,0,.26s.1.06.13.06a1.85,1.85,0,0,0,1.63-.28l.54-.41.29-.21a.37.37,0,0,1,.35-.06.36.36,0,0,1,.26.25c0,.08,0,.16.08.23a4.39,4.39,0,0,1,.11-.93.38.38,0,0,1,.22-.26.37.37,0,0,1,.34,0,1.77,1.77,0,0,1,.8.8v-.05a1.94,1.94,0,0,0-.17-.58c0-.13-.09-.25-.14-.39a.4.4,0,0,1,.54-.48l.94.44c.66.32,1.29.62,1.93.86a.48.48,0,0,0,.45,0A.57.57,0,0,0,23,28,2.75,2.75,0,0,0,21.45,26a8.65,8.65,0,0,1-.93-.43l-.46-.23a.37.37,0,0,1-.22-.31.37.37,0,0,1,.16-.36l.16-.12a1.86,1.86,0,0,1,.25-.17l.86-.44c.56-.28,1.12-.57,1.66-.87a.57.57,0,0,0,.3-.38,1,1,0,0,0-.15-.74,1.26,1.26,0,0,0-1.58-.2c-.57.35-1.12.72-1.68,1.1l-.75.49a.42.42,0,0,1-.36,0,.4.4,0,0,1-.24-.28l-.09-.4c-.06-.29-.12-.59-.2-.88A4.53,4.53,0,0,0,17,19.35a.77.77,0,0,0-.89-.15c-.47.17-.55.37-.54.64a2,2,0,0,0,.22.49,1.51,1.51,0,0,1,.08-.45c0-.06,0-.12.05-.17a.36.36,0,0,1,.19-.27.35.35,0,0,1,.33,0l.19,0a1,1,0,0,1,.66.4A12.14,12.14,0,0,1,18,21.6a2.63,2.63,0,0,1,.13.7c0,.12,0,.24,0,.38a.4.4,0,0,1-.59.4,3.61,3.61,0,0,1-1.42-1.43.43.43,0,0,1-.33.25,3,3,0,0,1-.9-.2,5.29,5.29,0,0,0-.58-.17,4.19,4.19,0,0,0-.69.2,1.29,1.29,0,0,0-.46.26,3.55,3.55,0,0,0,.33.37l.49.46a2.75,2.75,0,0,1-.11-.57.4.4,0,0,1,.34-.43A2.59,2.59,0,0,1,17,23.88a.4.4,0,0,1-.15.44.39.39,0,0,1-.47,0,1.65,1.65,0,0,0-.68-.22A4.09,4.09,0,0,1,15.18,24Zm-.35-1.35c.17.54.53.61,1,.7h0A1.61,1.61,0,0,0,14.83,22.61Zm1.73-2.35a.25.25,0,0,0,0,.08,3.14,3.14,0,0,0,.74,1.48,11.17,11.17,0,0,0-.7-1.57S16.58,20.27,16.56,20.26Zm-1.18,9h-.16a.38.38,0,0,1-.27-.16.42.42,0,0,1-.06-.31,3.39,3.39,0,0,1,1.62-2.43,1.22,1.22,0,0,1,.6-.1h.16a.38.38,0,0,1,.29.1.37.37,0,0,1,.13.28c0,.05,0,.1,0,.15a1.54,1.54,0,0,1,0,.48A2.74,2.74,0,0,1,15.38,29.29Zm1.56-2.23h-.05a2.34,2.34,0,0,0-1.07,1.32,2.13,2.13,0,0,0,1.11-1.25S16.94,27.09,16.94,27.06Zm5.25,1.11-.14,0a7,7,0,0,1-3.14-2,.4.4,0,0,1-.05-.43.43.43,0,0,1,.38-.21,3.51,3.51,0,0,1,3.31,2.16.39.39,0,0,1-.36.55Zm-1.6-1.6.38.24A2,2,0,0,0,20.59,26.57Zm-1-2.09a.37.37,0,0,1-.3-.14.41.41,0,0,1,0-.46c1-1.57,2.73-2.4,3.78-1.76a.38.38,0,0,1,.19.3.4.4,0,0,1-.13.33,8.81,8.81,0,0,1-2.9,1.53l-.46.17A.35.35,0,0,1,19.56,24.48Zm2.09-1.7a2.5,2.5,0,0,0-.57.28A6,6,0,0,0,21.65,22.78Z"/><path class="cls-1" d="M45.3,36.39a3.66,3.66,0,0,1-.44.13l-1.63.17a1.74,1.74,0,0,1-1.51-.33,2.52,2.52,0,0,0-1.1-.41c-.68-.14-1.36-.18-2-.32-.51-.1-1-.3-1.49-.45-1.36-.4-2.74-.77-4.09-1.2-1.16-.36-2.29-.8-3.44-1.19a12.42,12.42,0,0,0-1.36-.38,6.1,6.1,0,0,0-.74,0,1.34,1.34,0,0,1-1-.41,2.09,2.09,0,0,0-.28-.22,3.56,3.56,0,0,1-.61-.54.53.53,0,0,1,.39-.89,6.52,6.52,0,0,1,1.77.11c.85.2,1.66.54,2.5.79.52.16,1.07.26,1.59.41s1.17.36,1.75.55c.73.23,1.46.46,2.18.74.45.17.87.45,1.32.62a15.64,15.64,0,0,0,2,.62c.49.12,1,.09,1.52.17s1,.23,1.51.34a1.77,1.77,0,0,0,.46.07,2,2,0,0,1,1.58.7,3.1,3.1,0,0,0,.62.43l.57.33ZM25.91,30.86l.41.51c.51.59,1.28.53,1.93.77a8.07,8.07,0,0,0,1.2.29,4.75,4.75,0,0,1,.57.14c.76.22,1.49.5,2.24.75l.41.13c1.16.36,2.33.69,3.49,1,.7.21,1.4.43,2.11.61.49.12,1,.16,1.49.25.21,0,.37.07.41-.2s-.09-.36-.32-.37l-.4,0a16.29,16.29,0,0,1-3.24-1.1c-.84-.35-1.68-.67-2.54-1-.55-.2-1.1-.38-1.66-.56l-.85-.26c-.27-.09-.54-.16-.82-.24-.74-.21-1.48-.4-2.22-.6A4.08,4.08,0,0,0,25.91,30.86ZM44.13,36.1a3.46,3.46,0,0,0-2.42-.91c.81.32,1.19.39,1.17.48s-.16.14-.31.13l-1,0,1,.46Z"/><path class="cls-1" d="M42.76,37.12a1.85,1.85,0,0,1-1.29-.46,2.33,2.33,0,0,0-.93-.33c-.32-.06-.65-.1-1-.15s-.71-.09-1.06-.16a7.58,7.58,0,0,1-1-.29L37,35.56l-1.42-.41c-.89-.26-1.79-.51-2.68-.79-.7-.22-1.39-.47-2.08-.72l-1.36-.48c-.45-.15-.89-.27-1.33-.37a1.73,1.73,0,0,0-.33,0h-.36a1.68,1.68,0,0,1-1.3-.56l-.07,0-.16-.11-.17-.14a2.72,2.72,0,0,1-.5-.47,1,1,0,0,1-.12-1,.93.93,0,0,1,.82-.5,7,7,0,0,1,1.87.11,15.52,15.52,0,0,1,1.59.5l.93.31q.42.12.84.21l.75.19c.59.17,1.18.36,1.76.55l.42.14c.59.19,1.19.39,1.78.61a7.21,7.21,0,0,1,.69.33c.21.1.42.21.63.29a13.83,13.83,0,0,0,1.93.61,4.86,4.86,0,0,0,.8.1,5.38,5.38,0,0,1,.69.07,9,9,0,0,1,1,.22l.5.12a2,2,0,0,0,.36.06,2.37,2.37,0,0,1,1.88.82,2.37,2.37,0,0,0,.37.26l.18.1c.12.09.26.16.39.24l.17.1a.38.38,0,0,1,.19.32v.17a.4.4,0,0,1-.28.39l-.12,0a1.72,1.72,0,0,1-.38.11l-.82.08-.81.09A4.22,4.22,0,0,1,42.76,37.12Zm-2.32-1.6.25,0,.5.12v0c0-.14.06-.22.17-.26a.4.4,0,0,1,.05-.46c-.3-.07-.61-.15-.91-.2a.8.8,0,0,1,.05.47A.76.76,0,0,1,40.44,35.52ZM26.66,31.15a1.9,1.9,0,0,0,1,.44,5,5,0,0,1,.69.18,5.27,5.27,0,0,0,.93.23l.22,0c.2,0,.41.08.61.14.47.14.95.31,1.42.47l.82.28.41.13,2.44.73,1.27.37-.23-.1L36.06,34c-.77-.32-1.59-.63-2.52-1l-1.65-.56-.84-.26L30.24,32l-2-.54L28,31.39A5.48,5.48,0,0,0,26.66,31.15Z"/><path class="cls-1" d="M13.94,25.39a2.29,2.29,0,0,0,2.64,0,1.79,1.79,0,0,0,.34-.42c-.16-.12-.31-.31-.48-.34A3,3,0,0,0,13.94,25.39Z"/><path class="cls-1" d="M15.24,26.22a2.2,2.2,0,0,1-1.59-.56.42.42,0,0,1-.1-.3.39.39,0,0,1,.15-.28,3.37,3.37,0,0,1,2.81-.8,1.13,1.13,0,0,1,.52.32l.13.1a.39.39,0,0,1,.15.26.37.37,0,0,1-.08.3.62.62,0,0,0-.09.12,1.32,1.32,0,0,1-.32.36A2.56,2.56,0,0,1,15.24,26.22Zm-.56-.86a2.12,2.12,0,0,0,1.66-.23l.05-.05a.05.05,0,0,0,0,0A2.36,2.36,0,0,0,14.68,25.36Z"/></svg>