<svg id="Layer_1" data-name="Layer 1" xmlns="http://www.w3.org/2000/svg" viewBox="0 0 80 40"><defs><style>.cls-1{fill:#2121e8;}</style></defs><path class="cls-1" d="M29.66,12.44c.63,0,1.43.34,1.85.07,1.31-.88,1.65,0,2.07.9a5.86,5.86,0,0,1,.53,1.39c.13.7.47.88,1.14.73,2.6-.57,5.23-1.07,7.83-1.67,2.07-.47,4.11-1.07,6.18-1.55,1.43-.34,2.88-.55,4.31-.85,1.59-.34,3.19-.62,4.73-1.08,1.81-.55,3.82-.17,5.49-1.28.07,0,.23,0,.35,0a22.25,22.25,0,0,1,2.47.18c1.64.31,3.26.69,4.88,1.08a9.44,9.44,0,0,1,2,.67,5.67,5.67,0,0,1,1.1,1,5.09,5.09,0,0,1-1.18,1,11.46,11.46,0,0,1-1.69.26c-2.39.64-4.76,1.34-7.15,2-2.71.72-5.45,1.34-8.14,2.13-3,.88-5.92,1.93-8.9,2.85-1.13.35-2.33.49-3.47.81-2.24.62-4.47,1.31-6.7,2-.71.2-1.21.49-1,1.37a20.24,20.24,0,0,1,.48,3.17c0,.88.06,2.38-.34,2.54a11.07,11.07,0,0,1-3.62.37c-.19,0-.49-.33-.55-.55-.28-1.06-.49-2.14-.74-3.21-.14-.64-.32-1.22-1.24-.92-1.64.54-3.31,1-4.94,1.53-3.88,1.32-7.75,2.65-11.6,4a6.35,6.35,0,0,1-6.15-.79,2.49,2.49,0,0,1-.27-4c2.06-1.87,4.61-2.84,7.09-3.88s5.32-1.84,8-2.78c2.32-.81,4.63-1.67,7.06-2.55a6,6,0,0,0-.34-1.05c-.75-1.44-1.59-2.88.44-4a.42.42,0,0,1,.12,0Zm28.42-.38,1.24.36.15.38c-.62.32-1.27,1-1.86.91-1.8-.15-3.28.9-5,1.12A38.22,38.22,0,0,0,47.87,16l-7,1.78c0-1.52,0-1.48-1.75-.94-.95.28-1.95.36-2.91.61s-1.31.69-.76,1.64a3.51,3.51,0,0,1,.33,1.07c.38,1.65.85,1.77,2.52,1.21,2.15-.72,4.39-1.19,6.58-1.83,1.79-.53,3.56-1.13,5.34-1.71l7.48-2.42c2.27-.73,4.53-1.51,6.81-2.18,1.33-.38,2.7-.59,4-.9a2.45,2.45,0,0,0,.52-.24l0-.37a23.31,23.31,0,0,0-4-.65,58.44,58.44,0,0,0-6,.56,3.37,3.37,0,0,0-1,.45c-1,.21-2,.39-2.92.65a7,7,0,0,0-1.18.56c-2.33.45-4.67.86-7,1.37a9.39,9.39,0,0,0-2.84,1.17l2.06-.33c2.23-.41,4.47-.79,6.68-1.27.41-.09.73-.57,1.08-.87C55.41,13.16,57.07,13.61,58.08,12.06ZM17.71,23.62c-.37.54,0,1.55,0,2.35l-.33.17-1.8-1.81-.82.35.82,1.95L15.3,27l-3.17-1.44-.84,2.09-1.21-1.16a3.11,3.11,0,0,1-.42.28c-.64.35-1.15.81-.81,1.59a1.85,1.85,0,0,0,1.84,1.18c2.88.08,5.47-.88,8.08-1.88s5.14-1.89,7.74-2.76c.83-.28,1.75-.3,2.61-.51s1.67-.66,1.29-1.91a27.6,27.6,0,0,1-.61-3.17c-.88.38-2,.51-2.39,1.12s0,1.7,0,2.59l-.38.2c-.24-.44-.48-.87-.7-1.31s-.33-.69-.49-1c-.22.34-.59.65-.64,1a12.24,12.24,0,0,0,0,2c-1.09-.38-1.13-.45-1.41-2.34-1.66.22-1.73.32-1.61,1.74a2.62,2.62,0,0,1-.28.89,2.8,2.8,0,0,1-.82-.37c-.37-.38-.66-.83-1.12-1.42C19.17,22.79,18.13,23,17.71,23.62ZM33.93,29c.89,0,1.28-.37,1.14-1.24-.27-1.63-.62-3.26-.73-4.91-.15-2.26-1.12-4.23-1.88-6.28-.32-.85-.72-1.67-1.09-2.5l-.36.14Z"/><path class="cls-1" d="M11.31,32.24a6.71,6.71,0,0,1-3.93-1.31,2.83,2.83,0,0,1-.29-4.57,21.83,21.83,0,0,1,6.61-3.7l.57-.24c1.71-.71,3.5-1.3,5.24-1.86.92-.3,1.84-.6,2.76-.93,1.61-.56,3.2-1.14,4.84-1.74l1.92-.7a3,3,0,0,0-.23-.66l-.07-.14C28,15,27.11,13.31,29.38,12l.18-.06a.38.38,0,0,1,.31.07l.08.08.4.07a1.86,1.86,0,0,0,1,0,1.73,1.73,0,0,1,1.41-.38c.58.16.86.73,1.12,1.29l.06.13a6.23,6.23,0,0,1,.55,1.47.72.72,0,0,0,.21.45.75.75,0,0,0,.51,0l3.31-.7c1.51-.31,3-.62,4.52-1,1.08-.24,2.15-.53,3.23-.81s2-.51,3-.75,1.69-.35,2.52-.5c.6-.11,1.2-.22,1.8-.35l1-.21c1.21-.24,2.47-.5,3.66-.86a11.9,11.9,0,0,1,2.2-.37,6.82,6.82,0,0,0,3.19-.86.6.6,0,0,1,.5,0c.34,0,.6.05.86.06A12.74,12.74,0,0,1,66.68,9c1.65.32,3.32.71,4.89,1.09a9.36,9.36,0,0,1,2,.7,3.41,3.41,0,0,1,.88.77c.1.11.2.23.3.33a.36.36,0,0,1,.11.26.35.35,0,0,1-.12.25l-.33.33a2.9,2.9,0,0,1-1,.75,3,3,0,0,1-1,.19,4.66,4.66,0,0,0-.68.09l-3.59,1c-1.18.34-2.37.67-3.56,1l-3.12.8c-1.65.41-3.36.84-5,1.33s-3.37,1.05-5,1.59c-1.29.43-2.59.85-3.89,1.25a19.4,19.4,0,0,1-1.9.46c-.53.1-1.06.21-1.57.35-1.34.38-2.67.77-4,1.17l-2.7.8c-.72.2-.89.41-.78,1l.07.36a18.26,18.26,0,0,1,.42,2.86c.09,2.17-.16,2.72-.56,2.88a8.16,8.16,0,0,1-3,.39h-.78c-.4,0-.81-.48-.9-.81-.18-.67-.32-1.34-.47-2-.08-.41-.17-.81-.27-1.21s-.15-.61-.3-.7a.76.76,0,0,0-.49,0c-.76.25-1.52.48-2.29.71s-1.77.53-2.65.82c-4.66,1.58-8.23,2.82-11.59,4A7.67,7.67,0,0,1,11.31,32.24ZM29.54,12.77c-1.37.86-1,1.78-.19,3.29l.07.14a3.82,3.82,0,0,1,.29.84c0,.1.05.19.07.27a.34.34,0,0,1-.21.43l-2.22.81c-1.64.6-3.24,1.18-4.85,1.74-.92.33-1.85.63-2.78.93-1.72.57-3.49,1.15-5.18,1.85l-.57.24a21.39,21.39,0,0,0-6.41,3.57,2.2,2.2,0,0,0-.79,1.78,2.26,2.26,0,0,0,1,1.7,6,6,0,0,0,5.83.75c3.36-1.2,6.94-2.44,11.6-4,.89-.3,1.78-.57,2.68-.83s1.52-.45,2.27-.7a1.3,1.3,0,0,1,1,0,1.68,1.68,0,0,1,.65,1.15L32.14,28c.14.66.28,1.32.45,2a.77.77,0,0,0,.26.3c.21,0,.48,0,.74,0a7.71,7.71,0,0,0,2.71-.34,5.86,5.86,0,0,0,.12-2.2,17.2,17.2,0,0,0-.4-2.75L36,24.56a1.45,1.45,0,0,1,1.27-1.78L39.91,22c1.34-.4,2.67-.8,4-1.17.53-.15,1.08-.26,1.62-.37A18.71,18.71,0,0,0,47.38,20c1.3-.41,2.59-.83,3.88-1.26,1.65-.54,3.34-1.1,5-1.6s3.38-.92,5-1.33c1-.26,2.07-.52,3.11-.8l3.55-1,3.6-1a3.91,3.91,0,0,1,.82-.1,2.56,2.56,0,0,0,.82-.14,2.58,2.58,0,0,0,.72-.6l.11-.11L74,12a2.74,2.74,0,0,0-.67-.62,7.81,7.81,0,0,0-1.88-.63c-1.56-.38-3.23-.78-4.86-1.09a10.66,10.66,0,0,0-1.63-.13l-.8,0a.78.78,0,0,1-.21,0h0a7.58,7.58,0,0,1-3.42.92,10.53,10.53,0,0,0-2.07.34c-1.22.37-2.49.63-3.72.88l-1,.21c-.6.13-1.21.24-1.81.35-.82.15-1.67.3-2.49.5-1,.23-2,.48-2.94.74s-2.16.57-3.25.82c-1.5.34-3,.65-4.52,1-1.11.22-2.21.45-3.31.69a1.36,1.36,0,0,1-1-.1,1.33,1.33,0,0,1-.51-.9,5.53,5.53,0,0,0-.49-1.31l-.06-.12c-.21-.44-.41-.85-.68-.93a1.26,1.26,0,0,0-.83.29,2.06,2.06,0,0,1-1.48.08,4.32,4.32,0,0,0-.58-.09ZM11,29.86h-.35a2.21,2.21,0,0,1-2.15-1.39c-.35-.81,0-1.5,1-2,.15-.09.28-.19.34-.23a.38.38,0,0,1,.48,0l.83.8.66-1.61a.34.34,0,0,1,.19-.2.39.39,0,0,1,.28,0l2.86,1.3-.72-1.69a.35.35,0,0,1,.19-.46l.82-.35a.34.34,0,0,1,.38.07l1.51,1.51c0-.11,0-.23-.05-.35a2.65,2.65,0,0,1,.15-1.82h0a3.36,3.36,0,0,1,1.65-1c.26-.11.53-.21.79-.34a.34.34,0,0,1,.43.1l.39.52a8.34,8.34,0,0,0,.7.86,1.07,1.07,0,0,0,.37.17,1,1,0,0,0,.13-.41c-.14-1.62.09-1.88,1.91-2.11a.34.34,0,0,1,.39.29c.21,1.35.25,1.65.7,1.87a.2.2,0,0,1,0-.07,7,7,0,0,1,0-1.45,1.9,1.9,0,0,1,.48-.88,2.69,2.69,0,0,0,.22-.28.34.34,0,0,1,.32-.16.38.38,0,0,1,.29.2l.16.34c.1.23.2.46.32.68s.23.45.36.67l0-.2a3,3,0,0,1,.12-2,2.88,2.88,0,0,1,1.72-1c.28-.09.57-.18.83-.29a.35.35,0,0,1,.3,0,.34.34,0,0,1,.18.24c.08.4.14.78.19,1.14a14.51,14.51,0,0,0,.41,2,1.77,1.77,0,0,1-.06,1.46,2.19,2.19,0,0,1-1.47.89,11.34,11.34,0,0,1-1.14.2,9.07,9.07,0,0,0-1.45.3c-2.8.94-5.33,1.84-7.73,2.76A22.19,22.19,0,0,1,11,29.86Zm-1-2.94-.22.13c-.78.42-.83.75-.66,1.14a1.51,1.51,0,0,0,1.53,1c2.89.09,5.57-.95,7.94-1.86s4.94-1.82,7.76-2.77A8.58,8.58,0,0,1,28,24.21,9.58,9.58,0,0,0,29,24c.57-.14.9-.31,1-.56a1.18,1.18,0,0,0,0-.91,14.65,14.65,0,0,1-.43-2.08c0-.23-.07-.46-.11-.71l-.49.16c-.56.17-1.15.35-1.33.66a2.6,2.6,0,0,0,0,1.51c0,.3.09.6.1.88a.37.37,0,0,1-.19.33l-.38.2a.35.35,0,0,1-.47-.15L26.53,23c-.17-.31-.34-.62-.5-.93l-.24-.52a.83.83,0,0,0-.22.39,6.37,6.37,0,0,0,0,1.31c0,.21,0,.41,0,.63a.32.32,0,0,1-.14.29.33.33,0,0,1-.32.05c-1.2-.42-1.34-.65-1.6-2.27-1.06.14-1.06.24-1,1.31a1.55,1.55,0,0,1-.19.78,1.3,1.3,0,0,0-.1.25.36.36,0,0,1-.19.21.34.34,0,0,1-.28,0l-.25-.09a1.73,1.73,0,0,1-.68-.36,8.24,8.24,0,0,1-.76-.93l-.21-.29-.58.24a2.89,2.89,0,0,0-1.33.78h0a2.22,2.22,0,0,0,0,1.33,7.65,7.65,0,0,1,.08.81.34.34,0,0,1-.19.32l-.33.17a.36.36,0,0,1-.41-.06l-1.63-1.64-.29.12.69,1.63a.34.34,0,0,1-.05.35l-.27.34a.34.34,0,0,1-.41.09L12.32,26l-.71,1.75a.33.33,0,0,1-.25.21.34.34,0,0,1-.32-.08Zm23.88,2.39a.34.34,0,0,1-.34-.28L30.67,14.24a.36.36,0,0,1,.21-.39l.36-.15a.35.35,0,0,1,.45.19c.11.26.23.51.35.77.26.57.52,1.15.75,1.75.16.43.33.86.5,1.29a16.91,16.91,0,0,1,1.4,5.09,33.71,33.71,0,0,0,.51,3.61c.07.42.15.84.22,1.27a1.44,1.44,0,0,1-.23,1.18,1.57,1.57,0,0,1-1.25.46ZM31.62,15.42l2.59,13.17a.7.7,0,0,0,.44-.19.78.78,0,0,0,.07-.62c-.06-.42-.14-.84-.21-1.26A34.29,34.29,0,0,1,34,22.84,16,16,0,0,0,32.63,18c-.17-.43-.34-.87-.5-1.31S31.8,15.83,31.62,15.42ZM37,22a1.24,1.24,0,0,1-.64-.15,2.29,2.29,0,0,1-.89-1.63l0-.2a3,3,0,0,0-.25-.77A1.5,1.5,0,0,1,34.94,18a1.63,1.63,0,0,1,1.18-.84c.44-.11.9-.19,1.35-.27A13.92,13.92,0,0,0,39,16.52l.15,0c1-.3,1.41-.43,1.74-.18s.31.5.32,1.05L42.68,17l5.1-1.3,1-.26-1.15.2-1.32.24-1.44.24-.63.1a.36.36,0,0,1-.38-.23.35.35,0,0,1,.15-.42,9.8,9.8,0,0,1,3-1.21c1.66-.37,3.35-.69,5-1L53.87,13l.3-.17a4.84,4.84,0,0,1,.9-.4c.7-.18,1.4-.33,2.1-.48l.68-.14a.38.38,0,0,1,.23-.08h0l.13-.08a2,2,0,0,1,.82-.32l1.31-.16a44.28,44.28,0,0,1,4.76-.41h.07a13.71,13.71,0,0,1,2.78.4c.4.09.81.18,1.22.25a.36.36,0,0,1,.29.37l0,.37a.34.34,0,0,1-.2.3l-.14.07a1.53,1.53,0,0,1-.45.19c-.47.11-.94.2-1.41.3-.87.17-1.77.35-2.62.6-1.64.48-3.3,1-4.9,1.55l-1.9.62L48.9,18.65c-1.28.42-2.61.86-3.92,1.24-.88.26-1.76.49-2.64.72-1.3.33-2.64.68-3.93,1.12A4.92,4.92,0,0,1,37,22Zm3.49-5.2a10.61,10.61,0,0,0-1.1.31l-.14,0a15.86,15.86,0,0,1-1.63.36c-.43.07-.87.15-1.29.26s-.64.25-.71.43a.85.85,0,0,0,.16.69,3.24,3.24,0,0,1,.33,1l0,.19c.16.69.33,1.06.55,1.18s.8,0,1.52-.22c1.31-.44,2.66-.79,4-1.13.88-.23,1.75-.46,2.62-.71,1.31-.38,2.63-.81,3.9-1.23l8.91-2.89,1.9-.62c1.61-.53,3.27-1.08,4.92-1.56.89-.26,1.8-.44,2.68-.62.47-.09.93-.18,1.4-.29l.06,0-.75-.16a12.4,12.4,0,0,0-2.63-.39h-.06a43.2,43.2,0,0,0-4.69.4l-1.3.16.3.09a.35.35,0,0,1,.23.2l.14.38a.34.34,0,0,1-.16.44c-.18.1-.37.22-.56.35a2.44,2.44,0,0,1-1.49.6,6.89,6.89,0,0,0-2.82.55,10.11,10.11,0,0,1-2.08.56,22.47,22.47,0,0,0-3.22.76c-.5.15-1,.3-1.5.42l-5.11,1.3-1.9.49a.37.37,0,0,1-.3-.07.35.35,0,0,1-.13-.27,3.48,3.48,0,0,0-.06-1Zm12.46-3L52,14c-1.51.29-3.06.58-4.59.91h0c1.76-.31,3.58-.64,5.35-1Zm1.21-.16-.24.24c-.1.1-.22.22-.34.32.33-.09.65-.2,1-.32l1-.32-.41,0A9.51,9.51,0,0,0,54.13,13.71Zm3.12-.36a2.55,2.55,0,0,1,.39,0,2.14,2.14,0,0,0,1-.49l.29-.2-.75-.22a2.76,2.76,0,0,1-1.17.89Zm-.61-.59-.56.12A2.66,2.66,0,0,0,56.64,12.76Z"/></svg>