<svg id="Layer_1" data-name="Layer 1" xmlns="http://www.w3.org/2000/svg" viewBox="0 0 53 14"><defs><style>.cls-1{fill:#293b5c;}</style></defs><path class="cls-1" d="M.64,12.67c.93,0,1.14-.26,1.41-1.76L2.91,6c.26-1.5.14-1.74-.79-1.74l0-.32H7.39L7.13,6H6.89v-.3c0-.78-.07-1.12-1.1-1.12H4.13l-.59,3.4h.55c1.12,0,1.35-.18,1.56-1.44h.24l-.6,3.44H5.05C5.27,8.68,5.11,8.5,4,8.5H3.43l-.38,2.19c-.26,1.5-.16,1.74.77,1.74h1c1,0,1.22-.35,1.5-1.14l.1-.3h.24l-.45,2H.58Z"/><path class="cls-1" d="M10.07,13.24h-.3l.59-3.3h.31c-.16,1.45.35,2.7,1.86,2.7a1.8,1.8,0,0,0,1.65-1.56C14.3,10.34,14,9.77,13,9l-.86-.63A2.29,2.29,0,0,1,11.21,6,2.6,2.6,0,0,1,13.6,3.73,1.66,1.66,0,0,1,15,4.34a1.7,1.7,0,0,0,.47-.69h.3L15.14,7h-.31c.13-1.2,0-2.62-1.26-2.62a1.64,1.64,0,0,0-1.52,1.33A1.78,1.78,0,0,0,13,7.46l.93.66A2.5,2.5,0,0,1,15,10.63a3,3,0,0,1-2.75,2.61,2.41,2.41,0,0,1-1.68-.78A2.22,2.22,0,0,0,10.07,13.24Z"/><path class="cls-1" d="M24.67,6.52A3,3,0,0,1,21.7,9h-.87l-.35,1.87c-.25,1.5-.16,1.76.78,1.76L21.2,13H18.05l.06-.31c.93,0,1.14-.26,1.41-1.76L20.38,6c.27-1.5.15-1.74-.78-1.74l0-.32h2.94A2,2,0,0,1,24.67,6.52Zm-1.07,0c.2-1.08-.34-2-1.32-2h-.67l-.71,4h.68A2.25,2.25,0,0,0,23.6,6.52Z"/><path class="cls-1" d="M26.75,12.67c.93,0,1.14-.26,1.41-1.76L29,6c.27-1.5.15-1.74-.78-1.74l0-.32h3.15l0,.32c-.95,0-1.14.24-1.4,1.74l-.82,4.65c-.27,1.5-.17,1.74.76,1.74h1.34c1,0,1.21-.35,1.5-1.14l.1-.3h.24l-.45,2h-6Z"/><path class="cls-1" d="M35.54,13l.06-.31c.93,0,1.14-.26,1.41-1.76L37.87,6c.27-1.5.15-1.74-.78-1.74l0-.32h3.15l0,.32c-1,0-1.14.24-1.4,1.74L38,10.91c-.25,1.5-.16,1.76.78,1.76l-.06.31ZM40.25,2,38,2.87l0-.1,1.62-1.31a1.22,1.22,0,0,1,.72-.36.36.36,0,0,1,.36.44A.78.78,0,0,1,40.25,2Z"/><path class="cls-1" d="M51.14,3.73a.8.8,0,0,1,.86.9c0,.24-.18.43-.45.43-.54,0-.12-.73-.68-.73s-.82,1.17-1,2.23l-1.18,6.68H48.4L45.17,5.63l-.82,4.74c-.42,2.34-1,2.87-1.88,2.87a.79.79,0,0,1-.84-.9c0-.24.18-.44.45-.44.54,0,.12.74.69.74s.83-1.17,1-2.24L44.56,6c.25-1.5.15-1.74-.8-1.74L43.82,4h1.79l2.94,6.9.75-4.29C49.7,4.24,50.3,3.73,51.14,3.73Z"/></svg>