<svg id="Layer_1" data-name="Layer 1" xmlns="http://www.w3.org/2000/svg" viewBox="0 0 124 42"><defs><style>.cls-1{fill:#2121e8;}</style></defs><path class="cls-1" d="M98.65,31.29l-5.24-1-.07.3a5.77,5.77,0,0,0,3.35,2,1.37,1.37,0,0,1,.61.42c.83.81,1.69,1.6,2.45,2.48a4.27,4.27,0,0,1,.53,1.3c-1,.81-1.63-.15-2.2-.58C96.48,35,95,33.6,93.42,32.37A6.4,6.4,0,0,0,91,31.16c-1.9-.44-3.85-.67-5.78-1l-.21.32c.76,1.27,1.51,2.55,2.3,3.81.12.19.48.21.69.37.4.31,1,.6,1.11,1s-.24,1-.4,1.51c-.84-1-1.56-1.71-2.21-2.51-1.15-1.4-2.25-2.84-3.4-4.25a1.32,1.32,0,0,0-.76-.54c-1.78-.15-3.56-.24-5.35-.33a.44.44,0,0,0-.25.13c.93,1.15,1.89,2.24,2.72,3.44.19.27-.12.89-.2,1.36a6.75,6.75,0,0,1-.9-.77c-.72-.93-1.4-1.9-2.1-2.84-.14-.2-.33-.36-.46-.56a1.9,1.9,0,0,0-3-.53,1,1,0,0,1-.64.16c-2.86-.33-5.74-.61-8.58-1.07-1.69-.27-3.33-.86-5-1.24-3.76-.83-7.55-1.54-11.29-2.45-2.14-.52-4.2-1.35-6.32-2-2.28-.67-4.57-1.29-6.87-1.9-2.86-.74-5.73-1.45-8.59-2.17a1.17,1.17,0,0,1-.4-.12c-2.23-1.92-5.13-1.71-7.74-2.43-.19-.05-.64.17-.66.31-.07.45-.18,1.09.06,1.36.58.64.34,1.24-.15,1.47s-1.29.68-1.83-.27a3.22,3.22,0,0,0-1.22-1.09c-3-1.65-6-3.23-9-4.92-.62-.35-1.7-.29-1.71-1.33s1-1.08,1.61-1.34A35.86,35.86,0,0,1,9.87,9.1c2.33-.63,5-.55,6.88-2.58.06-.06.18-.06.32-.11l.27.92.78-.44-1.24,6.69c.64.12,1.26.22,1.87.35l4.71,1c.24.05.66.07.74-.06.54-.83,1.13-.42,1.8-.21,2.66.81,5.35,1.55,8,2.33,1.89.56,3.76,1.21,5.66,1.7,2.36.6,4.75,1.07,7.12,1.59,2.21.49,4.43.95,6.63,1.44.89.19,1.77.47,2.67.61,2.14.35,4.28.7,6.43.94,3,.34,6.07.61,9.11.84.76,0,1.53-.24,2.21.4.11.11.6-.12.88-.26.76-.37.83-1.61,1.94-1.56a.21.21,0,0,0,.15-.14c.23-2,2.15-2.63,3.12-4a17.53,17.53,0,0,1,1.17-1.44l1.76,1.15L76,25l4.37.48c.23,0,.46.14.67.09.43-.1,1-.14,1.24-.44C83.2,24,84,22.67,84.9,21.53a30.88,30.88,0,0,1,2.51-2.47L89,20.35a12.29,12.29,0,0,0-4.79,5.45,20.74,20.74,0,0,1,3,.13c2.34.46,3.67-1.06,5.13-2.41,1.11-1,2.26-2,3.43-2.94A3.43,3.43,0,0,1,97.17,20a.77.77,0,0,1,.65,1.28c-.71.74-1.48,1.43-2.26,2.1-.93.79-1.89,1.53-3,2.4,1.46.53,2.67,1,3.92-.19s2.68-2.23,4-3.4a1.08,1.08,0,0,1,1.62.08c.48.45.2,1-.3,1.41Q100,25,98.27,26.31a2.78,2.78,0,0,0,3.16.42c1.81-1.6,3.56-3.27,5.55-5.1l1.36.86A12.67,12.67,0,0,1,107.2,24,36.52,36.52,0,0,0,104,27.27l2.62.09c.73-2.68,3.38-3.61,5-5.64l1.53,1.22c-1.54,1.22-3.57,2.24-4.55,4.43l2.28.42,4.89-2c.19-.08.46-.08.58-.22.91-1.09,2.08-1,3.6-.67a23.7,23.7,0,0,1-1.81,2.94,4,4,0,0,0-.56,4.43,12.92,12.92,0,0,1,1.57,5.37,1.4,1.4,0,0,1-.52,1.2,1.6,1.6,0,0,1-1.26-.42c-1.6-1.36-3.16-2.79-4.73-4.2a2.47,2.47,0,0,1-.72-.72c-.51-1.18-1.53-1.33-2.62-1.37L106.07,32l-.19.25c.6.66,1.16,1.35,1.8,1.95s1.21,1.73,2.37,2c.31.08.52.81.63,1.27,0,.14-.37.46-.63.58a.68.68,0,0,1-.63-.11c-1.85-1.93-3.66-3.89-5.51-5.82a2,2,0,0,0-1-.59,11.7,11.7,0,0,0-2.68-.17c1.15,1.29,1.68,3,3.38,3.84a1.5,1.5,0,0,1,.54,1.07c0,.21-.36.63-.6.66a1.31,1.31,0,0,1-1-.34c-1-1.1-2-2.22-2.89-3.4A12.62,12.62,0,0,1,98.65,31.29ZM72.32,27.41c-.06-1.45-.12-1.47-1.75-1.61-2.56-.24-5.14-.37-7.67-.84-4.87-.89-9.79-1.59-14.6-2.87-4.54-1.2-9.14-2.19-13.7-3.33-2.73-.67-5.43-1.45-8.14-2.17a3.27,3.27,0,0,0-.62,0c.44.31.85.45.88.65.1.78.71.73,1.22.86,2.25.57,4.49,1.12,6.73,1.72.43.11.79.47,1.21.55,1.61.33,3.26.48,4.83.91,3,.83,5.88,2.13,9,2.71.83.16,1.6.6,2.43.77,1.6.31,3.23.46,4.82.77,2.34.45,4.64,1,7,1.46,1.8.32,3.62.48,5.44.72.13,0,.32,0,.38.12.44.58.86.15,1.28,0Zm1.92-1.19a2.56,2.56,0,0,0,2.57,1.94c1.23,0,2.45,0,3.67.08,2.47.2,4.93.47,7.39.72.52.05,1,.17,1.26-.54A1,1,0,0,1,90,28c1.14.23,2.24.62,3.37.88a37.21,37.21,0,0,0,4.52.89c1.73.18,3.48.06,5.22.21,2.1.18,4.2.5,6.3.73.25,0,.71-.13.73-.26a1.1,1.1,0,0,0-.21-.91,1.87,1.87,0,0,0-1-.39q-2.74-.33-5.49-.59c-3.72-.35-7.44-.69-11.16-1-1.74-.14-3.49-.16-5.23-.26-1.91-.11-3.83-.2-5.74-.37C79,26.73,76.67,26.47,74.24,26.22ZM5.57,11.63V12l9.29,5.1a5.3,5.3,0,0,0,0-.57c-1.58-.23-1.21-1.33-1.19-2.4,0-.83.17-1.14,1.05-1.23a1,1,0,0,0,.71-.56c.18-1,.24-1.94.36-3ZM116.76,35.81l.33-.21a15.77,15.77,0,0,0-1-2.28c-.73-1.15-1.25-2.26-.59-3.63.34-.72.61-1.48,1-2.52l-4.75,2.11a6.55,6.55,0,0,0,.27,1.66c.54,1.29.94,2.65,2.59,3.16C115.42,34.36,116.05,35.22,116.76,35.81Z"/><path class="cls-1" d="M118.38,39.21a2.2,2.2,0,0,1-1.28-.53c-1.26-1.07-2.5-2.18-3.7-3.27l-1.05-.94-.19-.16a2,2,0,0,1-.61-.68c-.44-1-1.27-1.12-2.31-1.16L107,32.35l-.56,0,.22.26c.4.45.8.91,1.24,1.32a6.4,6.4,0,0,1,.66.73,3.08,3.08,0,0,0,1.56,1.22c.39.1.64.54.88,1.53.13.52-.81,1-.82,1a1,1,0,0,1-1-.19c-.91-1-1.81-1.9-2.71-2.86s-1.86-2-2.8-3a1.58,1.58,0,0,0-.81-.48,9.47,9.47,0,0,0-1.89-.18c.21.29.41.6.6.89a5.61,5.61,0,0,0,2.21,2.29,1.82,1.82,0,0,1,.74,1.35,1.22,1.22,0,0,1-.9,1.05,1.63,1.63,0,0,1-1.28-.46c-1.18-1.28-2.11-2.37-2.92-3.41a7.35,7.35,0,0,1-.76-1.33l-.23-.47L94,30.78a5,5,0,0,0,2.74,1.49,1.55,1.55,0,0,1,.81.51l.47.46c.67.65,1.37,1.32,2,2a2.51,2.51,0,0,1,.45,1,3,3,0,0,0,.14.42.35.35,0,0,1-.11.4,1.6,1.6,0,0,1-2.33-.32,3.31,3.31,0,0,0-.3-.25c-.84-.64-1.64-1.33-2.43-2S94,33.23,93.21,32.65a6.14,6.14,0,0,0-2.32-1.15c-1.34-.31-2.73-.52-4.07-.72l-1.38-.21.4.68c.57,1,1.14,1.92,1.73,2.86l.2.08a1.55,1.55,0,0,1,.41.2l.3.22a2,2,0,0,1,.93,1,1.89,1.89,0,0,1-.22,1.23,4.59,4.59,0,0,0-.17.48.37.37,0,0,1-.26.24.33.33,0,0,1-.34-.11l-.79-.87c-.52-.58-1-1.1-1.43-1.65-.59-.72-1.17-1.45-1.74-2.18L82.8,30.66c-.21-.26-.42-.41-.52-.41-1.62-.14-3.27-.22-4.87-.31h0l.36.45c.68.81,1.38,1.66,2,2.55a1.43,1.43,0,0,1,0,1.18c0,.15-.09.3-.11.43a.34.34,0,0,1-.22.27.32.32,0,0,1-.35-.06l-.28-.22a3.19,3.19,0,0,1-.68-.6c-.48-.61-.93-1.25-1.39-1.88l-.71-1c0-.07-.12-.14-.18-.21a2,2,0,0,1-.29-.36,1.77,1.77,0,0,0-1.08-.86,1.91,1.91,0,0,0-1.43.43,1.37,1.37,0,0,1-.88.22L70,30.07c-2.14-.24-4.36-.49-6.53-.83a27.3,27.3,0,0,1-3-.72c-.67-.19-1.34-.37-2-.52-1.45-.33-2.9-.63-4.35-.93-2.28-.48-4.64-1-6.94-1.53-1.31-.31-2.6-.75-3.85-1.17-.83-.28-1.66-.56-2.49-.81-2-.59-4.18-1.19-6.86-1.9q-2.94-.77-5.9-1.5l-2.78-.69a1,1,0,0,1-.44-.18c-1.48-1.27-3.26-1.56-5.15-1.86a24,24,0,0,1-2.47-.49A1,1,0,0,0,17,17c-.05.34-.12.87,0,1a1.42,1.42,0,0,1,.41,1.21,1.18,1.18,0,0,1-.67.81l-.08,0a1.48,1.48,0,0,1-2.21-.44,2.8,2.8,0,0,0-1.08-1c-1.24-.69-2.5-1.37-3.75-2.05-1.73-.93-3.51-1.89-5.24-2.87a2.82,2.82,0,0,0-.52-.2c-.57-.18-1.36-.43-1.37-1.44s.86-1.33,1.44-1.53l.38-.13A30.84,30.84,0,0,1,9,9l.78-.2c.6-.16,1.24-.28,1.85-.39,1.83-.34,3.57-.66,4.86-2.08a.64.64,0,0,1,.37-.18l.1,0a.36.36,0,0,1,.27,0,.34.34,0,0,1,.18.21l.14.5.39-.22a.35.35,0,0,1,.38,0,.34.34,0,0,1,.14.35L17.28,13.3l.24,0,1.3.24,1.81.39c1,.2,1.93.41,2.9.6a1.33,1.33,0,0,0,.42,0,1.36,1.36,0,0,1,1.85-.39l.3.1c1.65.51,3.31,1,5,1.46l3,.88c.7.2,1.4.42,2.1.64,1.16.37,2.36.75,3.55,1.05,1.74.44,3.53.82,5.26,1.19l1.85.4,3.31.72,3.32.72c.34.07.69.16,1,.25.53.13,1.08.27,1.62.36l.13,0c2.05.33,4.18.68,6.28.91,2.91.33,5.88.6,9.09.84a5.56,5.56,0,0,0,.58,0,2.27,2.27,0,0,1,1.76.43,4,4,0,0,0,.58-.25,1.72,1.72,0,0,0,.56-.6,1.77,1.77,0,0,1,1.35-1,4.77,4.77,0,0,1,1.92-2.76,7.37,7.37,0,0,0,1.24-1.26c.25-.36.54-.7.82-1l.37-.44a.38.38,0,0,1,.47-.07l1.75,1.16a.37.37,0,0,1,.16.26.35.35,0,0,1-.1.28l-6.35,6.25.45.05,3.19.35a1.59,1.59,0,0,1,.3.06.91.91,0,0,0,.25,0l.28-.06A1.58,1.58,0,0,0,82,24.9c.43-.54.84-1.13,1.23-1.7s.89-1.28,1.38-1.89a17,17,0,0,1,1.75-1.75l.79-.75a.35.35,0,0,1,.46,0l1.62,1.28a.33.33,0,0,1,.13.29.32.32,0,0,1-.16.28,12,12,0,0,0-4.44,4.82h.47a10.76,10.76,0,0,1,2.06.13c2,.38,3.15-.75,4.42-1.94l.41-.38c1.09-1,2.25-2,3.45-3a3.81,3.81,0,0,1,1.52-.7,1.27,1.27,0,0,1,1.14.6,1.29,1.29,0,0,1-.16,1.26c-.65.66-1.38,1.34-2.29,2.12-.64.55-1.29,1.07-2,1.62l-.5.4c1.16.41,2,.56,3-.32.68-.65,1.42-1.26,2.13-1.85s1.25-1,1.83-1.56a1.42,1.42,0,0,1,2.1.09,1,1,0,0,1,.36.82,1.59,1.59,0,0,1-.69,1.12l-2.47,1.88-.71.53a2.47,2.47,0,0,0,2.37.15c1.28-1.13,2.54-2.3,3.86-3.54l1.68-1.56a.36.36,0,0,1,.43,0l1.35.87a.33.33,0,0,1,.09.5l-.33.46a6.38,6.38,0,0,1-.84,1c-.22.23-.45.44-.68.66-.68.65-1.37,1.31-2,2.08l1.63.06a8.08,8.08,0,0,1,2.94-3.59,12.42,12.42,0,0,0,2-1.9.34.34,0,0,1,.24-.13.31.31,0,0,1,.26.07l1.53,1.21a.37.37,0,0,1,.13.28.35.35,0,0,1-.13.27c-.35.27-.71.54-1.09.81a9.7,9.7,0,0,0-3.16,3.09l1.72.32,4.8-2,.29-.08a.69.69,0,0,0,.17-.05c1-1.24,2.39-1.09,3.92-.77a.34.34,0,0,1,.25.2.33.33,0,0,1,0,.32c-.2.32-.38.65-.55,1a12.79,12.79,0,0,1-1.29,2,3.76,3.76,0,0,0-.54,4,13.24,13.24,0,0,1,1.63,5.51,1.73,1.73,0,0,1-.73,1.57A1,1,0,0,1,118.38,39.21ZM106.07,31.6h0l1,0,2.21.12c1.15.05,2.33.21,2.92,1.58a1.46,1.46,0,0,0,.41.42l.22.18,1.05.94c1.19,1.08,2.43,2.2,3.68,3.26a1.37,1.37,0,0,0,.89.35,1.17,1.17,0,0,0,.32-.82,12.69,12.69,0,0,0-1.53-5.24,4.44,4.44,0,0,1,.59-4.83A13.29,13.29,0,0,0,119,25.7l.31-.56c-1.33-.23-2.12-.15-2.78.65a.91.91,0,0,1-.54.26l-.18.05-4.89,2a.41.41,0,0,1-.19,0l-2.29-.43a.38.38,0,0,1-.25-.18.34.34,0,0,1,0-.31,9.69,9.69,0,0,1,3.59-3.77l.71-.52-.91-.72A15.56,15.56,0,0,1,109.73,24,7,7,0,0,0,107,27.45a.36.36,0,0,1-.35.26L104,27.62a.34.34,0,0,1-.3-.2.35.35,0,0,1,0-.37,27.78,27.78,0,0,1,2.56-2.69l.68-.66a7.24,7.24,0,0,0,.76-.94l.12-.17-.81-.52c-.51.46-1,.92-1.48,1.37-1.33,1.24-2.59,2.41-3.88,3.55-.88.77-2.89.4-3.65-.44a.34.34,0,0,1-.09-.27.35.35,0,0,1,.14-.25l1.06-.8,2.47-1.88a.93.93,0,0,0,.41-.59.36.36,0,0,0-.13-.28c-.55-.51-.91-.31-1.15-.08-.61.55-1.24,1.07-1.86,1.58s-1.44,1.18-2.1,1.82c-1.39,1.32-2.76.82-4.21.28a.4.4,0,0,1-.26-.28.36.36,0,0,1,.09-.34l1-.8c.68-.54,1.33-1.06,2-1.6A30.23,30.23,0,0,0,97.57,21a.66.66,0,0,0,.05-.44.72.72,0,0,0-.38-.24,3,3,0,0,0-1.22.55q-1.78,1.44-3.41,2.93l-.41.38c-1.35,1.26-2.73,2.57-5,2.11a10,10,0,0,0-1.93-.11h-1a.37.37,0,0,1-.28-.17.33.33,0,0,1,0-.32,12.5,12.5,0,0,1,4.52-5.34l-1-.79-.59.54a16.52,16.52,0,0,0-1.67,1.68c-.48.59-.93,1.23-1.35,1.85s-.82,1.18-1.27,1.74a1.88,1.88,0,0,1-1.18.51l-.26,0a1.19,1.19,0,0,1-.57,0l-.2-.05-3.19-.34L76,25.34a.35.35,0,0,1-.2-.6l6.56-6.46-1.14-.75-.18.21c-.28.33-.55.64-.78,1a7.73,7.73,0,0,1-1.35,1.39,3.92,3.92,0,0,0-1.7,2.49.5.5,0,0,1-.51.44c-.46,0-.64.23-.94.68a2.23,2.23,0,0,1-.83.84c-.58.29-1,.47-1.29.21a1.53,1.53,0,0,0-1.32-.32c-.22,0-.45,0-.67,0-3.22-.24-6.2-.52-9.12-.84-2.11-.24-4.25-.58-6.32-.92l-.13,0c-.57-.09-1.13-.24-1.67-.38-.34-.08-.67-.17-1-.24l-3.31-.72-3.32-.71-1.85-.4c-1.74-.37-3.53-.76-5.28-1.2-1.21-.31-2.42-.69-3.59-1.06-.69-.22-1.39-.44-2.09-.64l-3-.88c-1.67-.47-3.33-1-5-1.46l-.34-.11c-.58-.21-.78-.26-1.07.18s-.84.26-1.1.21c-1-.19-1.94-.4-2.91-.61l-1.8-.38c-.42-.09-.85-.16-1.28-.24l-.59-.11a.37.37,0,0,1-.22-.14.37.37,0,0,1-.06-.27l1.11-5.94-.13.07a.35.35,0,0,1-.3,0A.4.4,0,0,1,17,7.43L16.86,7c-1.44,1.43-3.3,1.77-5.1,2.1-.63.12-1.22.23-1.8.38l-.78.21a29.55,29.55,0,0,0-4.59,1.47,3.72,3.72,0,0,1-.44.16c-.66.22-1,.37-1,.85s.26.58.88.78a3,3,0,0,1,.65.26C6.45,14.14,8.23,15.1,10,16l3.76,2a3.5,3.5,0,0,1,1.35,1.22c.32.55.65.47,1.3.16l.09,0a.5.5,0,0,0,.27-.32.72.72,0,0,0-.24-.6c-.34-.38-.24-1-.15-1.58a.62.62,0,0,1,.31-.47,1.18,1.18,0,0,1,.79-.19,21.51,21.51,0,0,0,2.39.48c1.9.3,3.86.62,5.49,2l.11,0a.58.58,0,0,1,.14,0l2.69.67c2,.5,3.94,1,5.91,1.51,2.69.7,4.87,1.3,6.88,1.9.84.25,1.68.53,2.51.81,1.24.42,2.51.85,3.79,1.16,2.29.56,4.65,1.05,6.92,1.52,1.46.31,2.91.61,4.36.93.69.16,1.38.35,2.06.54a26.94,26.94,0,0,0,2.92.7c2.15.34,4.36.59,6.5.83l2.08.23a.62.62,0,0,0,.39-.1,2.56,2.56,0,0,1,2-.53,2.41,2.41,0,0,1,1.53,1.17c.06.09.14.17.21.26a2,2,0,0,1,.23.27l.71,1c.46.63.91,1.25,1.39,1.86a2.28,2.28,0,0,0,.42.39,1.59,1.59,0,0,0,.1-.58c-.59-.85-1.25-1.64-1.94-2.49-.26-.3-.51-.6-.76-.91a.38.38,0,0,1-.07-.29.36.36,0,0,1,.18-.24.63.63,0,0,1,.44-.17l.47,0c1.6.08,3.26.16,4.89.3a1.72,1.72,0,0,1,1,.67c.56.69,1.11,1.38,1.65,2.08s1.15,1.45,1.74,2.17c.44.54.9,1.05,1.41,1.62l.41.44a1.53,1.53,0,0,0,.18-.74c0-.2-.37-.41-.65-.61L87.75,35a.89.89,0,0,0-.22-.11.94.94,0,0,1-.55-.36c-.6-.94-1.17-1.91-1.74-2.87l-.56-.94a.37.37,0,0,1,0-.38L84.9,30a.33.33,0,0,1,.35-.15l1.68.26c1.35.2,2.75.41,4.11.72a7,7,0,0,1,2.6,1.28c.78.6,1.53,1.25,2.26,1.88s1.57,1.36,2.4,2l.34.3c.46.42.77.67,1.22.42l-.06-.21a2.1,2.1,0,0,0-.31-.72c-.61-.7-1.29-1.36-1.95-2l-.48-.46a1.3,1.3,0,0,0-.42-.32,6.12,6.12,0,0,1-3.55-2.1.35.35,0,0,1-.09-.32l.07-.31a.36.36,0,0,1,.41-.26l5.23,1a.36.36,0,0,1,.25.17l.32.64A6.35,6.35,0,0,0,100,33c.8,1,1.72,2.1,2.88,3.37a1,1,0,0,0,.67.23.67.67,0,0,0,.3-.32,1.21,1.21,0,0,0-.34-.74A6.16,6.16,0,0,1,101,33a12.44,12.44,0,0,0-1-1.38.35.35,0,0,1,.25-.58,11.73,11.73,0,0,1,2.76.18,2.28,2.28,0,0,1,1.17.69c.94,1,1.88,2,2.81,3l2.7,2.86a.48.48,0,0,0,.24,0,1.42,1.42,0,0,0,.4-.29c-.2-.78-.35-.9-.37-.91a3.77,3.77,0,0,1-1.9-1.44,6.49,6.49,0,0,0-.6-.67A18.23,18.23,0,0,1,106.16,33l-.54-.6a.36.36,0,0,1,0-.45l.19-.25A.35.35,0,0,1,106.07,31.6Zm4.27,5.94ZM23.91,14.67Zm92.85,21.49a.3.3,0,0,1-.22-.08c-.23-.19-.45-.4-.67-.62a3.92,3.92,0,0,0-1.37-1c-1.65-.51-2.16-1.76-2.66-3l-.16-.38a4.11,4.11,0,0,1-.23-1.2c0-.18,0-.36-.06-.53a.37.37,0,0,1,.2-.38l4.76-2.11a.35.35,0,0,1,.46.45c-.14.34-.26.66-.38.95-.23.59-.43,1.1-.67,1.6-.54,1.14-.2,2.06.58,3.28a9.23,9.23,0,0,1,.77,1.62c.1.24.19.47.3.71a.35.35,0,0,1-.13.43l-.33.22A.32.32,0,0,1,116.76,36.16Zm-4.64-6.66,0,.31a3.29,3.29,0,0,0,.18,1l.16.39c.47,1.16.88,2.16,2.22,2.58A4.41,4.41,0,0,1,116.36,35l.14.14,0-.09a8.3,8.3,0,0,0-.71-1.5c-.7-1.09-1.38-2.38-.62-4,.23-.47.42-1,.65-1.55l.06-.15Zm-2.66,1.56h-.08l-2.5-.3c-1.24-.16-2.53-.33-3.79-.43-.8-.07-1.63-.08-2.42-.09s-1.87,0-2.81-.12A31.1,31.1,0,0,1,94,29.37l-.69-.16c-.53-.12-1-.27-1.57-.41s-1.19-.35-1.79-.47a.77.77,0,0,0-.49.22,1.21,1.21,0,0,1-1.51.77l-2-.21c-1.79-.19-3.64-.38-5.46-.53-.75-.06-1.53-.06-2.28-.06-.45,0-.91,0-1.37,0a2.91,2.91,0,0,1-2.91-2.26A.36.36,0,0,1,74,26a.34.34,0,0,1,.29-.1l2.18.23c1.65.17,3.26.35,4.87.48s3.31.24,4.93.33l.8,0,2,.09c1.06,0,2.15.08,3.22.17,3.88.31,7.92.69,11.17,1,1.7.16,3.5.35,5.49.59a2.28,2.28,0,0,1,1.22.49,1.46,1.46,0,0,1,.32,1.22C110.43,30.89,109.79,31.06,109.46,31.06ZM90.8,27.81l1.12.31c.51.15,1,.29,1.54.41l.69.16a30.7,30.7,0,0,0,3.78.72c.91.1,1.84.11,2.75.12s1.64,0,2.47.09c1.28.11,2.57.27,3.82.43.83.11,1.66.22,2.49.31a.94.94,0,0,0,.36-.08.76.76,0,0,0-.12-.49,1.54,1.54,0,0,0-.83-.3c-2-.24-3.77-.44-5.47-.59-3.24-.31-7.28-.68-11.16-1Zm-12.44,0c.71,0,1.43,0,2.15.07,1.83.15,3.68.34,5.47.53l2,.21c.51.05.64.05.78-.33a1.09,1.09,0,0,1,.6-.55h-.34c-.68,0-1.36,0-2-.09l-.8,0c-1.62-.08-3.3-.18-5-.32S78,27,76.39,26.79l-1.67-.17a2.43,2.43,0,0,0,2.1,1.19c.45,0,.9,0,1.35,0Zm-8.14.66a.94.94,0,0,1-.76-.43s-.06,0-.11,0l-1.79-.22c-1.22-.14-2.48-.29-3.7-.51s-2.59-.52-3.85-.79c-1-.23-2.09-.46-3.13-.66-.79-.16-1.58-.27-2.37-.38s-1.64-.24-2.45-.4a7.81,7.81,0,0,1-1.27-.4,7.89,7.89,0,0,0-1.17-.37,38.51,38.51,0,0,1-5.49-1.59c-1.15-.39-2.33-.8-3.52-1.12a25.62,25.62,0,0,0-2.9-.57c-.63-.1-1.27-.21-1.9-.33a2.55,2.55,0,0,1-.73-.33,2.19,2.19,0,0,0-.5-.23c-1.61-.43-3.23-.84-4.85-1.25l-1.88-.47-.25-.06a1.24,1.24,0,0,1-1.23-1.1s-.16-.05-.27-.11l-.46-.29a.35.35,0,0,1-.13-.39.35.35,0,0,1,.32-.25h.31a1.39,1.39,0,0,1,.41,0l2.79.76c1.75.48,3.56,1,5.34,1.41s3.66.89,5.5,1.32c2.7.64,5.49,1.29,8.21,2,3.58.94,7.28,1.58,10.86,2.2,1.24.22,2.48.43,3.72.66a58.34,58.34,0,0,0,5.89.68l1.74.15c1.77.16,2,.28,2.07,1.94a.35.35,0,0,1-.24.35L72,27.9l-.82.28-.24.11A1.56,1.56,0,0,1,70.22,28.48ZM27,17.11a.29.29,0,0,1,0,.09c.05.37.21.42.67.51.1,0,.2,0,.3.06l1.88.47c1.62.41,3.24.82,4.85,1.25a2.93,2.93,0,0,1,.67.31A1.71,1.71,0,0,0,36,20c.62.13,1.25.23,1.87.33a25.69,25.69,0,0,1,3,.58c1.2.33,2.4.74,3.56,1.14a39.25,39.25,0,0,0,5.39,1.57,6.91,6.91,0,0,1,1.29.4,6.61,6.61,0,0,0,1.15.36c.8.16,1.63.28,2.42.39s1.61.24,2.4.39c1.05.2,2.1.43,3.15.66,1.25.28,2.54.56,3.82.79s2.45.37,3.66.51c.59.07,1.18.13,1.76.21a.84.84,0,0,1,.62.26c.16.21.21.2.56,0a1.56,1.56,0,0,1,.33-.14l.82-.28.23-.08c0-.89-.15-.9-1.42-1L68.8,26c-2-.16-4-.33-6-.69-1.23-.23-2.47-.44-3.71-.66-3.59-.62-7.31-1.26-10.92-2.22-2.71-.72-5.5-1.37-8.19-2-1.84-.43-3.68-.86-5.51-1.32s-3.6-.94-5.35-1.41Zm-12.19.3a.47.47,0,0,1-.17,0L5.39,12.26A.35.35,0,0,1,5.21,12v-.33a.36.36,0,0,1,.27-.33L15.74,8.92a.39.39,0,0,1,.31.08.38.38,0,0,1,.11.3l-.09.88c-.07.76-.15,1.48-.28,2.19a1.28,1.28,0,0,1-1,.84c-.64.06-.72.16-.73.88l0,.52c-.07,1,0,1.39.92,1.53.34,0,.31.34.28.72v.22a.37.37,0,0,1-.19.29A.47.47,0,0,1,14.85,17.41ZM6.12,11.86l7.28,4a3.25,3.25,0,0,1-.09-1.31l0-.48c0-.93.24-1.46,1.37-1.56a.69.69,0,0,0,.39-.29c.13-.67.2-1.38.28-2.12l0-.39Z"/></svg>