<svg id="Layer_1" data-name="Layer 1" xmlns="http://www.w3.org/2000/svg" viewBox="0 0 72 22"><defs><style>.cls-1{fill:#293b5c;}</style></defs><path class="cls-1" d="M58.07,15.94,55,15.37l0,.17a3.4,3.4,0,0,0,2,1.19.72.72,0,0,1,.36.25c.5.48,1,.95,1.46,1.47a2.44,2.44,0,0,1,.31.77c-.6.48-1-.09-1.3-.34-1-.72-1.82-1.56-2.77-2.3a4,4,0,0,0-1.46-.72c-1.13-.25-2.28-.39-3.43-.58l-.12.19c.45.75.89,1.52,1.36,2.26.07.11.29.13.41.22s.59.36.66.61-.14.57-.24.9c-.5-.57-.92-1-1.31-1.49-.68-.84-1.34-1.69-2-2.53a.78.78,0,0,0-.45-.32c-1.06-.09-2.12-.14-3.18-.2-.06,0-.13.07-.15.08.55.68,1.13,1.33,1.62,2,.11.17-.07.53-.12.81a4,4,0,0,1-.54-.46c-.43-.55-.83-1.12-1.24-1.69-.09-.11-.2-.2-.28-.32a1.12,1.12,0,0,0-1.78-.32.62.62,0,0,1-.38.1c-1.7-.2-3.41-.37-5.1-.64-1-.16-2-.51-3-.74-2.23-.49-4.48-.91-6.7-1.45-1.27-.31-2.5-.8-3.76-1.18s-2.71-.77-4.08-1.13c-1.69-.44-3.4-.86-5.1-1.29a.61.61,0,0,1-.24-.07c-1.32-1.14-3-1-4.6-1.44a.47.47,0,0,0-.39.18c0,.27-.1.65,0,.81.34.38.2.74-.09.87s-.77.41-1.09-.15a1.81,1.81,0,0,0-.72-.65c-1.78-1-3.58-1.93-5.34-2.93-.37-.2-1-.17-1-.79s.6-.64,1-.79a20.64,20.64,0,0,1,3.21-1c1.39-.37,3-.33,4.1-1.53,0,0,.1,0,.18-.06l.16.54.47-.26-.74,4c.38.07.75.13,1.11.21l2.8.59c.14,0,.39,0,.44,0,.32-.49.67-.24,1.07-.12,1.58.48,3.18.92,4.76,1.39,1.13.33,2.23.71,3.37,1,1.4.36,2.82.64,4.23,1l3.94.85c.52.12,1,.28,1.58.37,1.27.2,2.54.41,3.82.56,1.8.2,3.6.36,5.41.49.45,0,.91-.14,1.31.24.07.07.36-.07.53-.15.45-.22.49-1,1.15-.93,0,0,.08-.05.09-.08.14-1.17,1.27-1.57,1.85-2.4a9.28,9.28,0,0,1,.7-.85l1,.68-4.08,4,2.6.29c.13,0,.27.08.39,0s.6-.08.74-.26c.55-.69,1-1.45,1.55-2.13a19,19,0,0,1,1.5-1.47l1,.76a7.28,7.28,0,0,0-2.85,3.24,12.6,12.6,0,0,1,1.78.08c1.4.27,2.18-.63,3.05-1.43.66-.6,1.34-1.19,2-1.75a2,2,0,0,1,.82-.37.52.52,0,0,1,.44.25.54.54,0,0,1-.06.51,17.41,17.41,0,0,1-1.34,1.24c-.55.47-1.12.92-1.76,1.43.87.32,1.58.6,2.33-.11s1.59-1.32,2.35-2a.65.65,0,0,1,1,.05c.28.26.11.61-.18.84L57.85,13a1.67,1.67,0,0,0,1.88.25c1.07-1,2.11-2,3.29-3l.81.52a8.14,8.14,0,0,1-.68.87,22.57,22.57,0,0,0-1.91,2l1.56,0c.44-1.59,2-2.14,3-3.35l.91.72c-.92.73-2.12,1.34-2.71,2.63l1.36.26c.88-.37,1.89-.79,2.91-1.2.11-.05.27-.05.34-.13.54-.65,1.23-.58,2.14-.4a14.06,14.06,0,0,1-1.08,1.75,2.43,2.43,0,0,0-.33,2.63,7.85,7.85,0,0,1,.94,3.19.84.84,0,0,1-.32.71c-.18.08-.55-.08-.74-.24-1-.81-1.88-1.66-2.82-2.5-.15-.13-.35-.26-.42-.43-.31-.7-.91-.79-1.56-.81l-1.89-.1-.11.15c.36.39.69.8,1.07,1.16s.72,1,1.41,1.2c.18,0,.31.48.37.76,0,.09-.22.27-.37.35a.43.43,0,0,1-.38-.07c-1.09-1.15-2.17-2.31-3.27-3.46a1.2,1.2,0,0,0-.59-.35A6.83,6.83,0,0,0,59,16c.68.77,1,1.81,2,2.28.17.08.29.41.32.64s-.22.37-.36.39a.79.79,0,0,1-.58-.21c-.59-.65-1.18-1.31-1.72-2A7.63,7.63,0,0,1,58.07,15.94Zm-15.63-2.3c0-.86-.08-.87-1-1-1.53-.14-3.06-.22-4.56-.49-2.9-.53-5.82-.95-8.67-1.71s-5.43-1.3-8.15-2c-1.61-.4-3.22-.86-4.83-1.29a1.52,1.52,0,0,0-.36,0c.25.18.5.27.51.38.07.47.43.44.73.51,1.33.34,2.67.67,4,1,.25.06.47.27.72.33.95.19,1.93.28,2.86.53,1.79.5,3.5,1.27,5.34,1.61.49.1,1,.36,1.45.46.95.18,1.91.28,2.86.46,1.39.27,2.76.61,4.14.86,1.07.2,2.16.29,3.24.43.07,0,.18,0,.22.07.26.35.51.09.76,0Zm1.13-.71a1.53,1.53,0,0,0,1.53,1.16c.73,0,1.46,0,2.18,0,1.47.12,2.93.28,4.39.43.31,0,.6.1.75-.32a.61.61,0,0,1,.52-.26c.68.14,1.33.38,2,.53a24.59,24.59,0,0,0,2.69.53c1,.1,2.07,0,3.1.12,1.25.1,2.49.3,3.74.44.15,0,.42-.08.44-.16a.67.67,0,0,0-.13-.54,1.06,1.06,0,0,0-.61-.23c-1.08-.13-2.17-.25-3.25-.35q-3.31-.32-6.63-.59c-1-.09-2.08-.1-3.11-.16s-2.27-.12-3.41-.21C46.39,13.24,45,13.08,43.57,12.93ZM2.78,4.27v.19l5.51,3a2.78,2.78,0,0,0,0-.34C7.37,7,7.59,6.36,7.6,5.73s.11-.68.63-.73a.6.6,0,0,0,.42-.33c.11-.57.15-1.16.22-1.81ZM68.83,18.63l.2-.13a11.85,11.85,0,0,0-.62-1.35A2,2,0,0,1,68.05,15c.21-.43.37-.88.62-1.5l-2.82,1.25a4.27,4.27,0,0,0,.16,1c.32.76.56,1.57,1.54,1.87C68,17.77,68.41,18.28,68.83,18.63Z"/><path class="cls-1" d="M69.8,20.72a1.48,1.48,0,0,1-.81-.33c-.75-.64-1.47-1.3-2.2-1.95l-.62-.55a.52.52,0,0,0-.11-.1,1.14,1.14,0,0,1-.38-.43c-.22-.51-.62-.62-1.32-.65l-1.29-.07h-.2l0,0c.24.27.47.54.73.78a4.28,4.28,0,0,1,.4.44,1.75,1.75,0,0,0,.89.7c.32.08.46.51.57,1s-.5.64-.52.65a.68.68,0,0,1-.7-.12l-1.59-1.69L61,16.62a.91.91,0,0,0-.44-.27,6.14,6.14,0,0,0-1-.1c.1.14.19.28.28.43A3.28,3.28,0,0,0,61.14,18a1.16,1.16,0,0,1,.48.86.78.78,0,0,1-.59.69,1,1,0,0,1-.82-.29c-.7-.76-1.25-1.41-1.74-2a4.33,4.33,0,0,1-.46-.81l-.12-.24-2.36-.44a2.74,2.74,0,0,0,1.42.71,1,1,0,0,1,.52.32l.28.28c.4.38.81.78,1.19,1.21a1.61,1.61,0,0,1,.28.61,2.41,2.41,0,0,0,.08.25.27.27,0,0,1-.09.31,1,1,0,0,1-1.47-.19.8.8,0,0,0-.17-.15c-.5-.38-1-.8-1.44-1.2s-.87-.75-1.33-1.1a3.63,3.63,0,0,0-1.35-.67c-.79-.18-1.62-.3-2.41-.42l-.68-.11.16.27c.34.58.68,1.15,1,1.71l.08,0a1.32,1.32,0,0,1,.27.13,1.09,1.09,0,0,0,.17.13,1.25,1.25,0,0,1,.58.62,1.21,1.21,0,0,1-.13.78,1.48,1.48,0,0,0-.1.27.27.27,0,0,1-.21.19.28.28,0,0,1-.26-.08l-.46-.52c-.31-.34-.6-.65-.86-1l-1-1.29-1-1.24a.67.67,0,0,0-.27-.22c-.92-.08-1.85-.13-2.77-.17l.13.15c.4.48.82,1,1.18,1.52a.92.92,0,0,1,0,.76c0,.08-.05.17-.07.24a.28.28,0,0,1-.17.22.29.29,0,0,1-.27-.05l-.17-.13a2.37,2.37,0,0,1-.41-.37c-.29-.37-.57-.75-.84-1.13l-.41-.56-.11-.12a2,2,0,0,1-.18-.23,1,1,0,0,0-.59-.48,1.13,1.13,0,0,0-.8.24.89.89,0,0,1-.57.15l-1.22-.14c-1.28-.14-2.6-.29-3.89-.5a15.06,15.06,0,0,1-1.79-.43c-.4-.11-.79-.22-1.2-.31L31.6,13.5c-1.35-.28-2.75-.57-4.12-.91a21.69,21.69,0,0,1-2.29-.7c-.49-.16-1-.33-1.48-.47-1.18-.36-2.48-.71-4.07-1.13-1.17-.31-2.34-.6-3.51-.89L14.54,9a.73.73,0,0,1-.34-.13,5.8,5.8,0,0,0-3-1.09,12.77,12.77,0,0,1-1.47-.3l-.06,0a1.26,1.26,0,0,0,0,.51.91.91,0,0,1,.25.77.76.76,0,0,1-.43.53c-.34.16-1,.48-1.45-.27a1.5,1.5,0,0,0-.61-.54L5.15,7.3C4.11,6.74,3.07,6.18,2,5.59a2.45,2.45,0,0,0-.3-.11C1.41,5.37.9,5.21.89,4.57s.56-.86.9-1L2,3.51a18.58,18.58,0,0,1,2.8-.89l.45-.12c.36-.1.74-.17,1.11-.24A4.64,4.64,0,0,0,9.22,1.05.5.5,0,0,1,9.47.92a.39.39,0,0,1,.24,0,.3.3,0,0,1,.17.16l.06.21.16-.09a.3.3,0,0,1,.3,0,.28.28,0,0,1,.11.27L9.82,5.2l.1,0,.75.14,1.1.24L13.46,6l.21,0a.85.85,0,0,1,1.15-.23L15,5.8c1,.3,2,.58,2.95.86l1.81.52L21,7.57c.69.21,1.4.44,2.1.62,1,.26,2.09.48,3.11.7l1.12.24,1.92.42,2,.43.62.15c.32.08.63.17,1,.22h.07c1.23.2,2.49.4,3.74.54,1.73.2,3.49.36,5.4.5a2,2,0,0,0,.34,0,1.5,1.5,0,0,1,1.06.25,2.89,2.89,0,0,0,.3-.13,1,1,0,0,0,.3-.34,1.14,1.14,0,0,1,.81-.61A3,3,0,0,1,46,8.93a4.5,4.5,0,0,0,.72-.73,5.94,5.94,0,0,1,.49-.61l.23-.27a.27.27,0,0,1,.36-.05l1,.68a.26.26,0,0,1,.12.21.27.27,0,0,1-.08.22L45.23,12l2,.22.18,0,.13,0,.16,0a1.16,1.16,0,0,0,.42-.13c.25-.32.49-.66.73-1s.52-.76.82-1.13a10.21,10.21,0,0,1,1-1l.47-.45a.29.29,0,0,1,.37,0l1,.76a.25.25,0,0,1,.1.23.26.26,0,0,1-.12.21,7.05,7.05,0,0,0-2.57,2.74h.17a6.36,6.36,0,0,1,1.24.08c1.12.22,1.79-.41,2.56-1.13l.25-.23c.65-.6,1.34-1.19,2.05-1.76a2.22,2.22,0,0,1,.93-.43.82.82,0,0,1,.75.4.81.81,0,0,1-.11.82c-.39.4-.82.8-1.36,1.26-.38.33-.78.64-1.19,1l-.19.16a1.34,1.34,0,0,0,1.58-.22c.41-.39.85-.75,1.27-1.1s.74-.6,1.09-.92a.9.9,0,0,1,1.33,0,.65.65,0,0,1,.24.54,1,1,0,0,1-.44.71l-1.5,1.15-.3.23a1.37,1.37,0,0,0,1.23,0c.77-.67,1.51-1.37,2.3-2.1l1-.93a.29.29,0,0,1,.33,0l.81.52a.26.26,0,0,1,.12.18.3.3,0,0,1,0,.21,2.83,2.83,0,0,0-.2.28,4.85,4.85,0,0,1-.5.62l-.41.4c-.37.35-.75.71-1.12,1.12l.78,0a5,5,0,0,1,1.75-2.12,7,7,0,0,0,1.18-1.12.3.3,0,0,1,.19-.1.25.25,0,0,1,.2.06l.91.72a.26.26,0,0,1,.11.21.27.27,0,0,1-.11.22c-.2.16-.42.32-.65.48a5.85,5.85,0,0,0-1.81,1.73l.91.17,2.83-1.17.18-.05.09,0c.62-.75,1.48-.65,2.37-.47A.29.29,0,0,1,71,12a.25.25,0,0,1,0,.25l-.32.57a7.25,7.25,0,0,1-.78,1.22,2.14,2.14,0,0,0-.31,2.3,7.92,7.92,0,0,1,1,3.3,1.08,1.08,0,0,1-.48,1A.54.54,0,0,1,69.8,20.72Zm-7.32-4.66h0l.6,0,1.29.06a1.78,1.78,0,0,1,1.79,1,.92.92,0,0,0,.22.23l.14.11.61.55c.73.65,1.45,1.31,2.2,1.94a.86.86,0,0,0,.46.2.7.7,0,0,0,.14-.42,7.29,7.29,0,0,0-.89-3.08,2.68,2.68,0,0,1,.35-3,7.19,7.19,0,0,0,.72-1.12l.14-.25c-.71-.11-1.14-.05-1.5.38a.59.59,0,0,1-.36.18l-.09,0-2.91,1.2a.25.25,0,0,1-.15,0l-1.36-.26a.25.25,0,0,1-.19-.14.29.29,0,0,1,0-.24,5.85,5.85,0,0,1,2.16-2.27l.35-.25-.42-.34a9.29,9.29,0,0,1-1.09,1,4.13,4.13,0,0,0-1.63,2,.28.28,0,0,1-.27.2l-1.56-.05a.29.29,0,0,1-.25-.16.31.31,0,0,1,0-.29,15.71,15.71,0,0,1,1.53-1.6l.4-.39a4.08,4.08,0,0,0,.44-.55l0-.05-.39-.24-.84.78c-.79.74-1.54,1.44-2.3,2.11a1.93,1.93,0,0,1-2.27-.27.26.26,0,0,1-.06-.21.26.26,0,0,1,.1-.19l.6-.45,1.5-1.14a.53.53,0,0,0,.22-.31s0,0-.06-.11c-.28-.26-.45-.18-.59,0-.36.33-.73.64-1.11.95s-.85.69-1.24,1.07c-.86.81-1.73.49-2.57.18a.32.32,0,0,1-.2-.22.27.27,0,0,1,.08-.26l.58-.47c.41-.32.79-.63,1.17-1s.95-.85,1.33-1.23a.4.4,0,0,0,0-.19.34.34,0,0,0-.17-.11,1.71,1.71,0,0,0-.68.32c-.7.56-1.38,1.15-2,1.73l-.24.23c-.81.76-1.65,1.54-3,1.27A5.86,5.86,0,0,0,50.11,13H49.5a.34.34,0,0,1-.23-.13.3.3,0,0,1,0-.26,7.47,7.47,0,0,1,2.63-3.14L51.41,9c-.1.1-.2.2-.31.29a10.14,10.14,0,0,0-1,1c-.29.35-.55.73-.8,1.09s-.49.71-.76,1a1.15,1.15,0,0,1-.74.33l-.15,0a.74.74,0,0,1-.37,0l-.11,0-2.6-.28a.32.32,0,0,1-.23-.19.26.26,0,0,1,.07-.28l3.84-3.78-.56-.37-.07.08c-.16.19-.32.37-.46.57a4.31,4.31,0,0,1-.81.84,2.25,2.25,0,0,0-1,1.43.36.36,0,0,1-.37.32c-.22,0-.33.12-.5.38A1.37,1.37,0,0,1,44,12c-.36.18-.65.29-.84.11s-.4-.19-.74-.17a2.67,2.67,0,0,1-.4,0c-1.91-.15-3.69-.31-5.42-.5-1.26-.14-2.53-.35-3.76-.55h-.08c-.34-.06-.67-.14-1-.22a5.66,5.66,0,0,0-.59-.15l-2-.43-1.93-.42L26.1,9.43C25.08,9.21,24,9,23,8.72c-.72-.18-1.44-.41-2.13-.63l-1.24-.38L17.8,7.19c-1-.28-2-.57-3-.87l-.21-.07c-.33-.12-.4-.14-.55.08s-.52.2-.72.16l-1.71-.36L10.56,5.9l-.74-.14-.37-.07a.27.27,0,0,1-.22-.32L9.86,2a.31.31,0,0,1-.19,0,.29.29,0,0,1-.16-.18l-.06-.2a5.36,5.36,0,0,1-3,1.21c-.36.07-.72.13-1.06.23L5,3.15A16.9,16.9,0,0,0,2.23,4L2,4.11c-.4.14-.53.22-.53.45s.11.28.48.4a1.52,1.52,0,0,1,.4.16c1,.58,2.07,1.14,3.1,1.7L7.65,8a2.18,2.18,0,0,1,.83.75c.15.27.29.26.68.07.12-.06.17-.11.18-.17a.39.39,0,0,0-.12-.3c-.23-.25-.16-.66-.11-1a.44.44,0,0,1,.21-.33A.83.83,0,0,1,9.84,7a11.5,11.5,0,0,0,1.42.28,6.29,6.29,0,0,1,3.29,1.22h.13l1.58.4c1.18.3,2.35.59,3.52.9,1.6.42,2.9.78,4.09,1.13.5.15,1,.32,1.5.49.73.24,1.49.5,2.24.68,1.36.33,2.75.62,4.1.9l2.6.56c.41.09.82.2,1.23.32a16.74,16.74,0,0,0,1.73.41c1.28.2,2.59.35,3.86.49l1.23.14a.27.27,0,0,0,.19-.05,1.56,1.56,0,0,1,1.21-.32,1.42,1.42,0,0,1,1,.72.86.86,0,0,0,.13.14,2.09,2.09,0,0,1,.14.17l.41.56c.27.38.55.76.83,1.12a.81.81,0,0,0,.16.16,1.43,1.43,0,0,0,0-.21c-.34-.48-.73-1-1.15-1.45l-.44-.55a.24.24,0,0,1-.06-.23.26.26,0,0,1,.14-.18.4.4,0,0,1,.3-.11h.24c1,.05,2,.1,2.94.18a1.09,1.09,0,0,1,.65.43l1,1.24L51,17.7c-.31-.51-.62-1-.92-1.55l-.33-.54a.29.29,0,0,1,0-.3l.12-.18a.28.28,0,0,1,.28-.12l1,.15c.81.13,1.64.25,2.45.44a4,4,0,0,1,1.57.77c.46.35.91.74,1.34,1.12s.94.8,1.42,1.17l.21.18c.27.24.42.35.6.27l0-.08a1,1,0,0,0-.17-.4c-.35-.41-.76-.8-1.15-1.18l-.29-.28a.83.83,0,0,0-.21-.17,3.69,3.69,0,0,1-2.15-1.27.28.28,0,0,1-.07-.25l.05-.18a.26.26,0,0,1,.31-.2l3.11.57a.26.26,0,0,1,.19.14l.2.39a3.65,3.65,0,0,0,.4.7c.47.61,1,1.25,1.7,2A.55.55,0,0,0,61,19a.65.65,0,0,0,.12-.15.8.8,0,0,0-.17-.36A3.67,3.67,0,0,1,59.4,17a8.37,8.37,0,0,0-.58-.81.28.28,0,0,1,0-.29.27.27,0,0,1,.24-.16,6.75,6.75,0,0,1,1.65.1,1.49,1.49,0,0,1,.74.43L63.08,18l1.59,1.68h.08a1,1,0,0,0,.18-.13,1.09,1.09,0,0,0-.19-.47,2.23,2.23,0,0,1-1.14-.86,3.25,3.25,0,0,0-.35-.39c-.27-.26-.52-.55-.77-.82l-.31-.36a.27.27,0,0,1,0-.35l.11-.15A.29.29,0,0,1,62.48,16.06ZM51.26,18c.2.24.41.47.64.73l.16.18a1,1,0,0,0,.07-.31c0-.09-.23-.22-.37-.32l-.2-.14a.27.27,0,0,0-.12-.05Zm-7.73-6.32ZM13.62,6h0ZM68.83,18.91a.28.28,0,0,1-.17-.07c-.14-.11-.27-.24-.41-.37a2.15,2.15,0,0,0-.78-.59,2.61,2.61,0,0,1-1.62-1.81l-.09-.23a2.38,2.38,0,0,1-.15-.73l0-.32a.26.26,0,0,1,.16-.29l2.82-1.26a.28.28,0,0,1,.3.06.28.28,0,0,1,.07.3c-.09.21-.16.39-.23.57-.14.35-.26.65-.4.95A1.78,1.78,0,0,0,68.64,17a5.7,5.7,0,0,1,.46,1c.06.14.12.29.18.42a.28.28,0,0,1-.1.34l-.2.13A.25.25,0,0,1,68.83,18.91Zm-2.68-4a.66.66,0,0,0,0,.14,2.33,2.33,0,0,0,.1.57l.1.23c.27.67.51,1.25,1.27,1.49a2.32,2.32,0,0,1,.87.59,4.77,4.77,0,0,0-.32-.64,2.33,2.33,0,0,1-.38-2.42c.13-.27.24-.54.37-.86Zm-1.65.95h-.06L63,15.69c-.74-.1-1.5-.19-2.24-.26-.48,0-1,0-1.44,0a15.65,15.65,0,0,1-1.67-.07,17.77,17.77,0,0,1-2.31-.44l-.41-.09-.94-.25c-.35-.1-.7-.2-1-.28a.45.45,0,0,0-.23.11.77.77,0,0,1-.95.48l-1.21-.12c-1.08-.12-2.16-.23-3.24-.32-.44,0-.9,0-1.35,0H45.1A1.77,1.77,0,0,1,43.3,13a.28.28,0,0,1,.3-.3l1.31.14c1,.1,1.93.2,2.88.28s1.94.14,2.92.19l.48,0,1.21,0c.63,0,1.27.05,1.91.1,2.21.18,4.42.39,6.63.59q1.64.15,3.27.36a1.42,1.42,0,0,1,.76.3,1,1,0,0,1,.21.79C65.13,15.77,64.71,15.87,64.5,15.87ZM54,14l.05,0c.31.08.61.17.92.24l.4.1a17.46,17.46,0,0,0,2.25.42,14.53,14.53,0,0,0,1.62.07c.48,0,1,0,1.47.06.76.06,1.53.16,2.27.25.49.07,1,.13,1.48.18a.39.39,0,0,0,.14,0,.32.32,0,0,0,0-.2.87.87,0,0,0-.45-.16c-1.08-.13-2.16-.25-3.25-.35q-3.31-.31-6.63-.59Zm-8-.16c.42,0,.85,0,1.28,0,1.09.08,2.17.2,3.26.31l1.14.12h.07c.3,0,.33,0,.39-.15a.51.51,0,0,1,.19-.25l-1.19-.05-.48,0c-1-.05-2-.11-2.93-.19s-1.92-.18-2.89-.29L44,13.25a1.43,1.43,0,0,0,1.13.56H46Zm-4.83.52a.59.59,0,0,1-.47-.23h-.06L39.6,14c-.72-.09-1.47-.17-2.21-.31s-1.52-.3-2.28-.47l-1.86-.39c-.47-.09-.93-.16-1.4-.23s-1-.14-1.47-.23a5.15,5.15,0,0,1-.76-.24,4.87,4.87,0,0,0-.68-.22,23.24,23.24,0,0,1-3.27-.94c-.68-.24-1.39-.48-2.09-.67a16.16,16.16,0,0,0-1.71-.34c-.38-.06-.76-.12-1.13-.2a1.29,1.29,0,0,1-.46-.2A1.38,1.38,0,0,0,20,9.4l-2.87-.73L16,8.38l-.14,0a.82.82,0,0,1-.78-.65L15,7.62l-.28-.18a.27.27,0,0,1-.11-.3A.28.28,0,0,1,14.82,7H15a.57.57,0,0,1,.26,0l1.66.45C18,7.69,19,8,20.09,8.24s2.18.53,3.28.78c1.6.38,3.25.77,4.87,1.2,2.12.56,4.32.94,6.44,1.31.74.13,1.48.25,2.21.39a34.39,34.39,0,0,0,3.5.4l1,.09c1.07.1,1.25.19,1.29,1.22a.28.28,0,0,1-.19.27l-.77.26-.14.06A1,1,0,0,1,41.19,14.34ZM15.62,7.61c0,.13.09.16.34.2l.18,0,1.13.28,2.87.74a1.55,1.55,0,0,1,.41.19,1.49,1.49,0,0,0,.29.14L22,9.39a16,16,0,0,1,1.78.35c.72.2,1.43.44,2.12.68a24.37,24.37,0,0,0,3.19.93,4.15,4.15,0,0,1,.78.24,4.68,4.68,0,0,0,.67.21c.48.09,1,.16,1.44.23s1,.14,1.42.23c.63.12,1.25.26,1.87.4s1.51.33,2.27.46,1.46.22,2.18.3l1,.13a.55.55,0,0,1,.41.18c.07.09.07.09.25,0a1,1,0,0,1,.21-.09l.57-.2c0-.42-.11-.42-.78-.49l-1-.08c-1.17-.1-2.38-.2-3.55-.41-.73-.14-1.47-.26-2.2-.39-2.14-.37-4.35-.76-6.49-1.32-1.61-.43-3.26-.82-4.86-1.19L20,8.77c-1.07-.26-2.12-.55-3.18-.84Zm-7.33.16a.33.33,0,0,1-.13,0l-5.52-3a.27.27,0,0,1-.14-.25V4.26A.27.27,0,0,1,2.72,4L8.81,2.59a.28.28,0,0,1,.24.07.24.24,0,0,1,.09.23l-.05.52C9,3.86,9,4.29,8.92,4.72a.83.83,0,0,1-.67.55c-.34,0-.36.06-.37.46,0,.1,0,.21,0,.31,0,.58,0,.76.49.84.26,0,.25.27.23.49v.14a.28.28,0,0,1-.14.22A.37.37,0,0,1,8.29,7.77Zm-5-3.34,4,2.22a2.37,2.37,0,0,1,0-.65c0-.09,0-.19,0-.28,0-.56.16-.93.87-1a.43.43,0,0,0,.19-.14c.06-.38.11-.8.15-1.24l0-.14Z"/></svg>