<svg id="Layer_1" data-name="Layer 1" xmlns="http://www.w3.org/2000/svg" viewBox="0 0 44 58"><defs><style>.cls-1{fill:#293b5c;}</style></defs><path class="cls-1" d="M12.24,7.05c-.24-.69.2-1.26.34-1.88,0-.16.22-.4.35-.41a1,1,0,0,1,.54.27,1.63,1.63,0,0,1,.36.42,2.44,2.44,0,0,1,.46,2.44c-.16.37-.3.74-.46,1.12l1.23,1.22c.11-.19.17-.3.22-.41.31-.74.61-1.48.94-2.2a.59.59,0,0,1,.45-.31c.15,0,.31.21.44.35a1,1,0,0,1,.15.35c.39,1.19.58,2.36-.38,3.39-.3.32-.1.48.11.68.57.58,1.15,1.15,1.71,1.74.34.36.66.73,1,1.14.08-.16.15-.23.15-.31a3.37,3.37,0,0,1,1.29-2.32c.3-.3.74-.28.81.06a8.74,8.74,0,0,1,.17,1.53A3.4,3.4,0,0,1,21,16.25c-.23.27-.15.42,0,.68.43.83.84,1.67,1.23,2.53.12.26.19.38.52.31a1.31,1.31,0,0,1,1.47.51,2.08,2.08,0,0,0,.58.6c.46.27.71.57.38,1.11a.61.61,0,0,0,0,.38c.18,1.11.39,2.22.55,3.34A3.62,3.62,0,0,0,27,28.05a6,6,0,0,1,1.6,1.67A27.83,27.83,0,0,1,30,33.29a6.38,6.38,0,0,0,.24.91,5.6,5.6,0,0,1,.59,2.57c0,.82.05,1.63.13,2.44.17,1.69.37,3.39.56,5.08a7.55,7.55,0,0,1-1.25,5.19c-.17.26-.29.54-.45.84l.3.06,4,.17a29.32,29.32,0,0,0,4,.13,17.39,17.39,0,0,1,3.17.38,1.63,1.63,0,0,1,.52.24,1,1,0,0,1-.92.9,10,10,0,0,0-1.05.36c-1.14.4-2.29.8-3.44,1.17-.51.17-1.05.26-1.58.41-.77.21-1.52.52-2.3.65-1.36.21-2.74.33-4.11.47-.51.06-1,.06-1.54.1a17.9,17.9,0,0,1-2.3.16c-1.17-.05-2.35,0-3.54-.15l-1.49-.17c-.38,0-.76-.08-1.13-.14-.71-.09-1.41-.2-2.11-.3-.91-.13-1.83-.27-2.74-.37s-2.14-.15-3.19-.31q-1.82-.28-3.6-.72c-1.08-.27-2.37-.13-3-1.45.17-.19.33-.51.57-.58a4.93,4.93,0,0,1,1.28-.13c.7,0,1.4,0,2.1-.09,1.65-.11,3.29-.28,4.94-.37,1.41-.07,2.82-.05,4.23-.09,1.13,0,2.27-.11,3.4-.17a17,17,0,0,1-1-1.5,10.12,10.12,0,0,1-1-3.86c-.11-1-.45-2-.46-3.08,0-1.87.15-3.74.21-5.61,0-.44.28-.91-.1-1.34,0-.05.07-.25.15-.36s.23-.17.26-.28c.22-.73.43-1.46.6-2.2a6.9,6.9,0,0,1,1.7-3.54,2.27,2.27,0,0,0,.85-2.38c-.21-.68-.45-1.34-.63-2a12.86,12.86,0,0,1-.26-1.63c-.05-.34.07-.73-.06-1-.25-.58.07-.88.43-1.18.19-.15.43-.23.62-.38a.44.44,0,0,0,.16-.35,8.55,8.55,0,0,0-.51-1.5A10.1,10.1,0,0,0,20.33,17a4.38,4.38,0,0,1-3.53,2c-.48,0-.76-.17-.74-.67a2.45,2.45,0,0,1,1.24-1.63c.73-.31,1.44-.68,2.25-1.07L18.3,14.06c-.12.14-.18.18-.21.25a2.7,2.7,0,0,1-2.6,1.47.77.77,0,0,1-.77-1.11c.26-.5.51-1,1.13-1.21.41-.13.81-.31,1.3-.49l-2.33-2.23c-.14.19-.33.41-.49.65A4,4,0,0,1,11,13.13c-.49,0-.78-.26-.68-.72a2.87,2.87,0,0,1,2.36-2.47c.34,0,.69-.08,1-.12l.07-.17-.53-.29c-.15-.08-.41-.15-.44-.26-.19-.81-1-1-1.49-1.48a3.44,3.44,0,0,0-.75-.52c-.08.08-.13.11-.15.16a3.12,3.12,0,0,1-2.77,2.1c-.09,0-.17.15-.26.21s-.34.25-.43.21a.52.52,0,0,1-.25-.42A6.23,6.23,0,0,1,7.1,7.92a2.09,2.09,0,0,1,.74-.82,8.69,8.69,0,0,1,1.34-.53A13.07,13.07,0,0,0,6.75,6a.67.67,0,0,0-.81.39,1.72,1.72,0,0,1-.8.86,4.48,4.48,0,0,1-3,0c-.1,0-.24-.41-.18-.48A6.4,6.4,0,0,1,3.14,5.56,18.91,18.91,0,0,1,5,4.54c-.16-.37-.35-.73-.48-1.11A2.16,2.16,0,0,1,4.7,1.69a.42.42,0,0,1,.41-.1c.57.44,1.33.72,1.48,1.56.11.6.21,1.2.33,1.8,0,.14.11.35.21.38C8,5.58,9,5.79,10,6c-.23-.36-.41-.67-.61-1a2.79,2.79,0,0,1-.53-2.33c.07-.24.24-.64.36-.64a1,1,0,0,1,.73.36c.4.51.72,1.07,1.07,1.61.48.73.89,1.48.29,2.35a1.79,1.79,0,0,0-.12.37l.9.8C12.16,7.33,12.27,7.16,12.24,7.05Zm12,43.24c1.25,0,2.51,0,3.77.09a1.47,1.47,0,0,0,1.32-.68,11,11,0,0,0,1.3-2.5,4.28,4.28,0,0,0,.22-2.3c0-.41-.05-.82-.09-1.24-.12-1.21-.22-2.43-.37-3.65-.17-1.52-.37-3-.58-4.55,0-.2-.21-.38-.28-.59l-1.2-3.49a7.19,7.19,0,0,0-.5-1.32,4.79,4.79,0,0,0-.87-1c-.41-.37-1-.62-1.26-1.06a5.08,5.08,0,0,1-.54-1.65c-.22-.87-.4-1.74-.57-2.62a3.62,3.62,0,0,1-.09-1c0-.33-.11-.4-.37-.41-.83-.05-1.65-.11-2.48-.12-.12,0-.37.24-.35.33.15,1,.31,1.93.54,2.88A12.88,12.88,0,0,0,22.46,27c.23.58-.14,1-.43,1.41a18.85,18.85,0,0,0-1.6,2.43,12.61,12.61,0,0,0-1.32,4.87c0,1.23-.24,2.46-.28,3.7a34,34,0,0,0,.08,3.64c.05.88.31,1.74.36,2.62a9.47,9.47,0,0,0,1.53,4.08c.05.08.22.19.29.16.46-.17.49.13.49.5C22.5,50.37,23.39,50.29,24.28,50.29Zm13.87,1c-.32,0-.64-.14-1-.13-.61,0-1.21.12-1.82.1-1.15,0-2.3-.1-3.44-.17-.79,0-1.58-.11-2.37-.14-1.32,0-2.63-.09-3.95-.08-1,0-1.92.1-2.87.16-2.36.16-4.72.35-7.08.49-.81,0-1.62,0-2.43,0-.39,0-.77,0-1.16,0l-6.78.49,0,.2c.72.17,1.43.36,2.16.49,1.64.3,3.28.61,4.93.84.93.14,1.89.08,2.82.21a26.64,26.64,0,0,1,3.91.69,17.85,17.85,0,0,0,3.07.31,17.14,17.14,0,0,0,2.77.14c1.33,0,2.65-.19,4-.32,1-.1,2-.2,3-.37.59-.1,1.15-.37,1.73-.52.89-.23,1.8-.38,2.66-.66,1.28-.4,2.53-.89,3.8-1.35l-.06-.3C39.38,51.39,38.77,51.37,38.15,51.33Zm-27-39a2.67,2.67,0,0,0,2.82-1.75C12.27,10.3,11.05,11.07,11.11,12.3Zm8.64,4.23c-.82-.41-2.67.49-3,1.49C17.72,18.71,19.21,17.68,19.75,16.53ZM4.94,6.57c.5-.26.48-.77.13-1.23a2.18,2.18,0,0,0-2,1.45A1.94,1.94,0,0,0,4.94,6.57Zm12.47,7.6a.48.48,0,0,0-.21-.39,1.88,1.88,0,0,0-1.63.55.89.89,0,0,0-.18.69c.06.16.39.21.61.31A2.4,2.4,0,0,0,17.41,14.17ZM6.17,5a2.18,2.18,0,0,0-1.1-2.71A2.71,2.71,0,0,0,6.17,5Zm10.35,3.3a2.81,2.81,0,0,0-.39,2.86C17.14,10.41,17.19,9.61,16.52,8.33Zm4,5.79a7.22,7.22,0,0,0-.29,1.24,1.12,1.12,0,0,0,.06.35,1.59,1.59,0,0,0,.39-.09,2.28,2.28,0,0,0,.68-2.53l-.19-.1A8.47,8.47,0,0,0,20.51,14.12ZM7.57,8.67A1.9,1.9,0,0,0,9.71,7.24C8.29,7.3,7.63,7.76,7.57,8.67Zm2-5.54c-.4.6.26,2.21,1.22,2.88A4.34,4.34,0,0,0,9.61,3.13Zm3.62,5.08c.89-.43.81-1.81-.14-2.49A3.13,3.13,0,0,0,13.23,8.21Zm9.56,12.32c-.16.75.16,1,1.24.89C23.93,20.63,23.28,20.72,22.79,20.53Z"/><path class="cls-1" d="M24.7,56h-.27l-1.22,0c-.77,0-1.56,0-2.36-.12-.47-.06-1-.13-1.47-.17s-.77-.09-1.16-.14l-2.78-.4-2-.27c-.42,0-.84-.08-1.27-.11-.63-.06-1.29-.11-1.94-.21-1.18-.18-2.41-.42-3.64-.73q-.33-.08-.69-.12a3,3,0,0,1-2.62-1.58.47.47,0,0,1,.08-.52,1,1,0,0,0,.13-.16,1.38,1.38,0,0,1,.65-.55,4,4,0,0,1,1.13-.14h.27l.9,0,1.19-.05,1.92-.16c1-.08,2-.17,3-.22.84,0,1.69-.05,2.51-.06l1.73,0,2.33-.11h.22c-.2-.28-.38-.56-.55-.85a10.7,10.7,0,0,1-1.05-4c0-.4-.12-.8-.2-1.21A10.09,10.09,0,0,1,17.25,42c0-1.18.05-2.38.11-3.53,0-.7.08-1.4.1-2.1a2.54,2.54,0,0,1,.06-.45c.06-.33.07-.44,0-.56-.29-.33,0-.76.1-.92a1.07,1.07,0,0,1,.23-.24h0c.2-.67.4-1.39.57-2.1a7.39,7.39,0,0,1,1.83-3.76c.72-.72.94-1.27.73-1.91l-.19-.61c-.16-.48-.32-1-.44-1.44a12,12,0,0,1-.28-1.7,2.78,2.78,0,0,1,0-.5.89.89,0,0,0,0-.38,1.37,1.37,0,0,1,.56-1.73,2.34,2.34,0,0,1,.39-.25,1.32,1.32,0,0,0,.2-.12,8.26,8.26,0,0,0-.44-1.3,5.25,5.25,0,0,0-.42-.68,4.7,4.7,0,0,1-3.49,1.66,1.17,1.17,0,0,1-.93-.31,1.09,1.09,0,0,1-.29-.85,2.84,2.84,0,0,1,1.52-2c.51-.21,1-.46,1.52-.71l.18-.09-.48-.58a3.2,3.2,0,0,1-2.84,1.41,1.33,1.33,0,0,1-1.16-.61,1.23,1.23,0,0,1,0-1.19A2.44,2.44,0,0,1,15.71,13c.2-.06.38-.13.58-.21l-1.42-1.36-.15.22A4.49,4.49,0,0,1,11,13.6a1.15,1.15,0,0,1-1-.37,1,1,0,0,1-.19-.92,3.3,3.3,0,0,1,2.64-2.82.51.51,0,0,1-.15-.28c-.08-.32-.3-.47-.69-.72a3.52,3.52,0,0,1-.7-.55,1,1,0,0,0-.25-.2,3.55,3.55,0,0,1-2.9,2.08L7.65,10,7.56,10a.78.78,0,0,1-.78.18,1,1,0,0,1-.52-.93,6.22,6.22,0,0,1,.41-1.56,2.46,2.46,0,0,1,.93-1l.12-.07c-.34-.08-.68-.14-1-.19s-.27,0-.31.11a2.27,2.27,0,0,1-1.06,1.1A4.81,4.81,0,0,1,2,7.71a.81.81,0,0,1-.5-.58.68.68,0,0,1,.07-.65,7.09,7.09,0,0,1,1.26-1.3,10.84,10.84,0,0,1,1.31-.76l.17-.09A5.75,5.75,0,0,1,4,3.57a2.6,2.6,0,0,1,.25-2.11.73.73,0,0,1,.52-.34.66.66,0,0,1,.58.1l.39.27A2.41,2.41,0,0,1,7.06,3.07l.09.54c.07.41.15.83.23,1.24a.19.19,0,0,0,0,.07L9,5.31a3.26,3.26,0,0,1-.58-2.69c.12-.45.36-1,.8-1a1.45,1.45,0,0,1,1.11.54c.3.38.55.79.8,1.18l.3.46a3.62,3.62,0,0,1,.65,1.51,1.82,1.82,0,0,0,.07-.25c.07-.3.37-.75.77-.77a1.4,1.4,0,0,1,.87.35,2.28,2.28,0,0,1,.46.54,2.87,2.87,0,0,1,.5,2.89l-.3.73,0,.08.54.55.2-.48c.22-.52.43-1,.67-1.54a1,1,0,0,1,.9-.58,1.14,1.14,0,0,1,.73.47,1.33,1.33,0,0,1,.26.5c.42,1.26.67,2.67-.43,3.87v0l.24.24c.52.52,1,1,1.53,1.56l.45.49a4.44,4.44,0,0,1,1.34-2,1.07,1.07,0,0,1,1.05-.3.81.81,0,0,1,.56.6,10.28,10.28,0,0,1,.17,1.61,3.83,3.83,0,0,1-1.27,2.66s0,.09.05.15c.46.9.87,1.73,1.24,2.55l0,0a1.77,1.77,0,0,1,1.92.71,1.76,1.76,0,0,0,.44.46,1.43,1.43,0,0,1,.73.84,1.13,1.13,0,0,1-.16.87.75.75,0,0,1,0,.11c.06.41.13.81.2,1.21.12.71.24,1.43.34,2.15a3.18,3.18,0,0,0,1.19,2l.25.21A5.46,5.46,0,0,1,29,29.51a19,19,0,0,1,1,2.68c.11.31.21.63.32,1a2.56,2.56,0,0,1,.11.46,2.43,2.43,0,0,0,.1.39,6.1,6.1,0,0,1,.65,2.78c0,.9.06,1.68.13,2.39.12,1.31.27,2.62.42,3.92L32,44.24a8.14,8.14,0,0,1-1.33,5.51,1,1,0,0,0-.11.17l3.54.16c.41,0,.82.05,1.24.08a14.88,14.88,0,0,0,2.66.05,6.82,6.82,0,0,1,2.1.2,9.76,9.76,0,0,0,1.15.18,1.33,1.33,0,0,1,.58.22l.12.07a.46.46,0,0,1,.25.52,1.5,1.5,0,0,1-1.29,1.26,3.41,3.41,0,0,0-.61.21l-.38.14-.77.27-2.67.9c-.32.1-.64.17-1,.25l-.64.16c-.26.07-.51.16-.77.24a11.59,11.59,0,0,1-1.59.42c-1.07.17-2.16.28-3.22.39l-.91.09-1,.07-.58,0-.74.07A11.91,11.91,0,0,1,24.7,56ZM7.82,52.34c1.51.27,3.07.56,4.61.78.45.06.91.08,1.39.1s.95,0,1.42.1l.3,0a25.85,25.85,0,0,1,3.68.67,8.25,8.25,0,0,0,1.87.22c.37,0,.75,0,1.13.08a17.49,17.49,0,0,0,2.69.13c1.14,0,2.3-.16,3.42-.27l.53,0c.91-.09,1.94-.19,2.93-.36a7.73,7.73,0,0,0,1-.28c.25-.09.49-.17.75-.24L34.57,53c.54-.12,1-.23,1.55-.39.76-.25,1.53-.52,2.28-.8l-.28,0h0a4,4,0,0,1-.48-.07,1.85,1.85,0,0,0-.44-.06,7,7,0,0,0-.79,0,9,9,0,0,1-1,.05c-.88,0-1.76-.07-2.63-.12l-.83,0L31,51.54l-1.45-.08h-.19c-1.23,0-2.49-.08-3.73-.07-.72,0-1.45.06-2.16.11l-.69,0-2.34.17c-1.58.11-3.16.23-4.75.32a13.82,13.82,0,0,1-1.58,0l-.87,0a10.67,10.67,0,0,0-1.13,0ZM4.22,52a1.36,1.36,0,0,0,.64.53.45.45,0,0,1-.06-.28l0-.2A.44.44,0,0,1,5,51.69a2.3,2.3,0,0,0-.61.09A.91.91,0,0,0,4.22,52Zm36.26-.51,0,.19a.38.38,0,0,1,0,.15l.15,0a.68.68,0,0,0,.43-.22A4.38,4.38,0,0,1,40.48,51.44ZM20.53,50.16l0,.06a.49.49,0,0,1,0,.47.43.43,0,0,1,0,.07l.65,0a.51.51,0,0,1-.1-.29v0A.87.87,0,0,1,20.53,50.16Zm8.69.35h.13l0-.09ZM21.33,49.4a.67.67,0,0,1,.39.12.7.7,0,0,1,.28.41l.4,0c.62,0,1.25-.08,1.88-.08h0c1.36,0,2.6,0,3.79.09.41,0,.59-.11.95-.52a5.6,5.6,0,0,0,.85-1.56c.12-.28.24-.57.38-.85a3.5,3.5,0,0,0,.19-1.84l0-.21c0-.45-.05-.83-.09-1.22l-.08-.83c-.09-.94-.17-1.88-.28-2.81-.18-1.52-.38-3-.59-4.54a.59.59,0,0,0-.08-.16,1.54,1.54,0,0,1-.17-.34c-.23-.65-.45-1.31-.68-2l-.52-1.54-.12-.34a3.06,3.06,0,0,0-1.13-1.77,4,4,0,0,0-.46-.35,3.33,3.33,0,0,1-.87-.81,4.45,4.45,0,0,1-.54-1.49l-.07-.3c-.22-.89-.4-1.8-.57-2.64a4.17,4.17,0,0,1-.1-1l-.56,0-1.68-.08c.16,1,.31,1.81.51,2.64a7.15,7.15,0,0,0,.38,1.06l.18.43a1.72,1.72,0,0,1-.37,1.71l-.1.15q-.27.39-.57.78a8.77,8.77,0,0,0-1,1.57,12.39,12.39,0,0,0-1.28,4.69c0,.66-.08,1.32-.14,2s-.12,1.17-.14,1.74c0,1.13,0,2.3.07,3.59a11.23,11.23,0,0,0,.18,1.24,12.43,12.43,0,0,1,.19,1.4,8.73,8.73,0,0,0,1.41,3.76ZM18.36,35a1.59,1.59,0,0,1,.08,1.12,1.54,1.54,0,0,0,0,.3c0,.71-.06,1.41-.1,2.12-.06,1.14-.12,2.32-.11,3.47a9.82,9.82,0,0,0,.24,1.74c.08.42.17.86.22,1.29a9.76,9.76,0,0,0,.94,3.7,9.58,9.58,0,0,0,.62,1l.09.12a9.53,9.53,0,0,1-1.5-4.12,10.24,10.24,0,0,0-.18-1.29c-.07-.43-.15-.88-.18-1.33a35.94,35.94,0,0,1-.08-3.69c0-.61.08-1.22.14-1.8s.13-1.27.14-1.89a9.18,9.18,0,0,1,.16-1.49c0,.13-.07.24-.11.36a.83.83,0,0,1-.29.4Zm2.56,14.47ZM22,27a3.09,3.09,0,0,1-1.08,2.05,6.34,6.34,0,0,0-1.57,3.3l0,.14c.21-.63.47-1.24.73-1.83a10.17,10.17,0,0,1,1.11-1.75c.18-.25.36-.49.53-.75l.12-.16c.27-.39.36-.57.26-.82A1.34,1.34,0,0,0,22,27Zm-.27-4.3Zm.38-2.62a1.17,1.17,0,0,1-.28.38,2,2,0,0,1-.38.23l-.23.14c-.38.32-.4.4-.3.63a1.57,1.57,0,0,1,.1.76.47.47,0,0,1,.09-.12.93.93,0,0,1,.63-.34h0l1.24,0a1,1,0,0,1-.42-.28,1.25,1.25,0,0,1-.19-1.1.61.61,0,0,1,.09-.18A.76.76,0,0,1,22.06,20.08Zm2.08,1.8h.06a1.19,1.19,0,0,1,.46.12.63.63,0,0,1,.09-.25.48.48,0,0,0,.08-.21s0-.1-.3-.26l-.05,0s0,.07,0,.11a.48.48,0,0,1-.1.35A.5.5,0,0,1,24.14,21.88Zm-2.95-2.16Zm-3.75-1.95a1.27,1.27,0,0,0,.32,0,2.52,2.52,0,0,0,1.17-.8,2.37,2.37,0,0,0-.45.15A2.87,2.87,0,0,0,17.44,17.77ZM19.73,16l.23.08a.47.47,0,0,1,.26.43l.13,0h0a.92.92,0,0,1,.11-.37h-.1a.45.45,0,0,1-.36-.06.55.55,0,0,1-.16-.18l-.1.07Zm-3.87-1.24.07,0,.08,0a2.42,2.42,0,0,0,.85-.63,1.75,1.75,0,0,0-.9.4A.81.81,0,0,0,15.86,14.78ZM21,14.29a3,3,0,0,0-.15.53,1.77,1.77,0,0,0,.17-.59s0,0,0,.06Zm-4-.22.46.1L17,14.06Zm.46-.71a.89.89,0,0,1,.42.51h0l.1-.11v0l-.45-.46Zm4.1-.72,0,0v-.05ZM13.2,11a2,2,0,0,0-1.27.44,1.05,1.05,0,0,0-.3.46,2.31,2.31,0,0,0,.92-.34A2.39,2.39,0,0,0,13.2,11Zm2.16-.37.11.11,0-.2A.36.36,0,0,1,15.36,10.6Zm-1.26-.49a.47.47,0,0,1,.21.16.58.58,0,0,1,.09.25l0-.07.08-.08L14.16,10Zm2.37-.61a2.06,2.06,0,0,0-.11.77A1.14,1.14,0,0,0,16.47,9.5ZM7.26,9v0l0,0Zm6-.18h0l.1,0a.14.14,0,0,1,0-.06l.09-.22-.06,0a.47.47,0,0,1-.26,0A.77.77,0,0,1,13.24,8.84Zm-4.39-1a1.23,1.23,0,0,0-.61.32A1.24,1.24,0,0,0,8.85,7.83Zm3.6,0,.22.16q-.06-.18-.12-.39l0,.09A.61.61,0,0,1,12.45,7.87Zm4.17,0,.07,0-.05,0Zm-.07-.11ZM2.34,7.07Zm7.37-.3a.47.47,0,0,1,.36.18l.11-.12.06-.06a.46.46,0,0,1,.48-.12h0l0-.09a.24.24,0,0,1,0-.08.46.46,0,0,1-.21-.08l-.17-.13,0,.06a.47.47,0,0,1-.49.18l-.23-.06a.49.49,0,0,1,0,.12.41.41,0,0,1,0,.22h.1Zm-7.2.09.14,0a.37.37,0,0,1,0-.18Zm2.3-1a1.82,1.82,0,0,0-1,.64,2.32,2.32,0,0,0,.91-.32h0c.08,0,.12-.08.13-.12A.35.35,0,0,0,4.81,5.83Zm.44-.92a.45.45,0,0,1,.19.15,1.61,1.61,0,0,1,.33.72,1.09,1.09,0,0,1,.86-.29l-.09-.17a.47.47,0,0,1-.63.1,2.67,2.67,0,0,1-.61-.56Zm.28-1.59A2.7,2.7,0,0,0,5.81,4a2.25,2.25,0,0,0-.08-.24A1.43,1.43,0,0,0,5.53,3.32Zm3.85-.7a1.21,1.21,0,0,1-.05.14.55.55,0,0,1,.15-.08Z"/></svg>