<svg id="Layer_1" data-name="Layer 1" xmlns="http://www.w3.org/2000/svg" viewBox="0 0 81 104"><defs><style>.cls-1{fill:#2121e8;}</style></defs><path class="cls-1" d="M26.14,15.41c-.4-1.17.35-2.12.58-3.17.06-.27.36-.67.58-.69a1.65,1.65,0,0,1,.91.44,3,3,0,0,1,.61.72c.82,1.25,1.46,2.55.78,4.1-.27.62-.51,1.25-.77,1.88l2.06,2.07c.18-.33.3-.51.38-.7.52-1.23,1-2.48,1.58-3.7a1,1,0,0,1,.75-.52c.26,0,.53.35.74.59a1.59,1.59,0,0,1,.26.59c.66,2,1,4-.65,5.7-.5.54-.15.8.19,1.15,1,1,1.94,1.94,2.88,2.93.57.6,1.1,1.23,1.71,1.91.14-.25.26-.38.27-.52,0-1.68,1.06-2.82,2.16-3.91.5-.5,1.25-.46,1.37.11A14.76,14.76,0,0,1,42.81,27c0,1.63-.94,2.8-1.93,3.92-.4.45-.26.71,0,1.14q1.09,2.1,2.08,4.26c.19.43.31.65.87.52a2.23,2.23,0,0,1,2.48.87,3.52,3.52,0,0,0,1,1c.79.47,1.2,1,.65,1.88a1,1,0,0,0,0,.63c.3,1.88.65,3.75.91,5.63A6.11,6.11,0,0,0,51,50.75a10.6,10.6,0,0,1,2.7,2.82,49.08,49.08,0,0,1,2.24,6,14.26,14.26,0,0,0,.4,1.53,9.46,9.46,0,0,1,1,4.33c0,1.37.08,2.73.22,4.09.28,2.86.62,5.71.94,8.57a12.71,12.71,0,0,1-2.11,8.74c-.28.42-.48.9-.75,1.41.27,0,.39.08.51.09l6.65.28a46.63,46.63,0,0,0,6.67.23c1.89-.19,3.56.5,5.35.63a3.08,3.08,0,0,1,.88.42,1.77,1.77,0,0,1-1.56,1.51,15.92,15.92,0,0,0-1.76.61c-1.93.66-3.85,1.33-5.79,2-.87.28-1.78.44-2.66.69a36.17,36.17,0,0,1-3.88,1.09c-2.29.37-4.61.56-6.92.8-.86.09-1.72.11-2.59.17A31.46,31.46,0,0,1,46.7,97c-2-.09-4,0-6-.26-.81-.1-1.68-.2-2.52-.28-.64,0-1.27-.14-1.9-.23-1.19-.17-2.37-.35-3.56-.51-1.53-.22-3.06-.45-4.6-.62-1.79-.2-3.6-.26-5.38-.53-2-.31-4.06-.72-6.05-1.21-1.82-.45-4-.22-5-2.44.29-.31.56-.85,1-1a8.06,8.06,0,0,1,2.15-.22c1.18-.06,2.36-.06,3.53-.14,2.77-.2,5.54-.48,8.32-.63,2.36-.12,4.74-.08,7.11-.15,1.92-.06,3.83-.19,5.73-.28-.61-.91-1.22-1.68-1.69-2.53a17,17,0,0,1-1.67-6.51,51.42,51.42,0,0,1-.78-5.18c0-3.15.26-6.29.35-9.44,0-.74.48-1.54-.16-2.26-.06-.07.12-.41.24-.6s.4-.29.45-.47c.36-1.23.71-2.47,1-3.71a11.48,11.48,0,0,1,2.86-6c1.06-1,2-2.31,1.43-4-.35-1.14-.76-2.26-1.06-3.42A21.3,21.3,0,0,1,40,41.69c-.07-.57.13-1.23-.08-1.71-.43-1,.1-1.48.72-2,.31-.25.72-.39,1-.64a.75.75,0,0,0,.28-.59,15.7,15.7,0,0,0-.86-2.53,19.36,19.36,0,0,0-1.36-2.1,7.45,7.45,0,0,1-6,3.31c-.81,0-1.28-.29-1.24-1.13a4.06,4.06,0,0,1,2.08-2.74c1.24-.53,2.44-1.16,3.8-1.81L36.35,27.2a2.66,2.66,0,0,0-.36.41,4.5,4.5,0,0,1-4.38,2.48,1.29,1.29,0,0,1-1.28-1.87,3.37,3.37,0,0,1,1.9-2c.69-.22,1.35-.52,2.17-.83l-3.91-3.75c-.24.32-.56.69-.83,1.1a6.66,6.66,0,0,1-5.58,2.92c-.83,0-1.31-.43-1.14-1.2.43-1.92,1.54-3.83,4-4.17.57-.08,1.15-.13,1.73-.19l.11-.29c-.3-.16-.6-.32-.89-.49s-.69-.25-.73-.44c-.33-1.36-1.73-1.61-2.51-2.48a6.35,6.35,0,0,0-1.26-.89,1.43,1.43,0,0,0-.26.28,5.27,5.27,0,0,1-4.66,3.53c-.16,0-.29.25-.45.36s-.56.42-.71.35a.86.86,0,0,1-.42-.71,10,10,0,0,1,.63-2.43,3.37,3.37,0,0,1,1.25-1.37,14.38,14.38,0,0,1,2.26-.9,21.22,21.22,0,0,0-4.09-1,1.11,1.11,0,0,0-1.37.65,2.94,2.94,0,0,1-1.35,1.45,7.55,7.55,0,0,1-5,.07c-.18,0-.41-.7-.31-.82a11.5,11.5,0,0,1,2-2,30.35,30.35,0,0,1,3.05-1.73c-.27-.62-.58-1.23-.79-1.87a3.63,3.63,0,0,1,.36-2.93.69.69,0,0,1,.68-.16c1,.75,2.26,1.21,2.51,2.63.18,1,.35,2,.55,3,0,.24.19.6.35.65,1.53.41,3.07.77,4.8,1.2-.39-.62-.69-1.14-1-1.64a4.65,4.65,0,0,1-.88-3.92c.11-.41.39-1.08.61-1.08a1.7,1.7,0,0,1,1.21.61c.67.85,1.22,1.79,1.81,2.7.81,1.24,1.5,2.49.49,4a3.22,3.22,0,0,0-.21.62l1.52,1.35C26,15.87,26.2,15.59,26.14,15.41ZM46.41,88.19q3.17,0,6.35.16A2.49,2.49,0,0,0,55,87.2c1.09-1.26,1.48-2.81,2.19-4.22a7.13,7.13,0,0,0,.37-3.86c0-.69-.08-1.39-.15-2.08-.2-2.05-.38-4.1-.62-6.15-.29-2.55-.63-5.11-1-7.66,0-.34-.35-.65-.47-1-.68-2-1.34-3.93-2-5.89a11.75,11.75,0,0,0-.85-2.21A7.2,7.2,0,0,0,51,52.48a12.12,12.12,0,0,1-2.12-1.8A8.82,8.82,0,0,1,48,47.9c-.36-1.46-.66-2.93-1-4.4a5.81,5.81,0,0,1-.15-1.66c0-.55-.2-.66-.63-.68-1.39-.08-2.79-.18-4.18-.2-.2,0-.62.39-.59.55.26,1.63.53,3.26.92,4.86a21.94,21.94,0,0,0,1,2.63c.39,1-.24,1.66-.72,2.38a29.71,29.71,0,0,0-2.69,4.09,20.9,20.9,0,0,0-2.22,8.2c0,2.07-.41,4.14-.48,6.22A59.47,59.47,0,0,0,37.37,76c.1,1.48.53,2.94.61,4.42.15,2.58,1.36,4.71,2.57,6.86.08.15.38.33.49.29.78-.3.84.2.83.84C43.43,88.33,44.92,88.19,46.41,88.19ZM69.77,90c-.54,0-1.08-.24-1.62-.23-1,0-2.05.2-3.07.18-1.93-.05-3.86-.18-5.79-.29-1.33-.07-2.66-.2-4-.24-2.21-.07-4.43-.15-6.64-.14-1.62,0-3.23.17-4.85.28-4,.27-7.94.59-11.91.82-1.36.07-2.72-.06-4.09-.07-.65,0-1.3,0-1.95.07l-11.42.82,0,.34c1.21.28,2.41.61,3.64.83,2.76.51,5.52,1,8.3,1.41,1.57.23,3.18.14,4.75.35a45.31,45.31,0,0,1,6.58,1.17,33.7,33.7,0,0,0,5.17.53,30.25,30.25,0,0,0,4.66.23c2.23-.09,4.46-.33,6.69-.55,1.66-.16,3.34-.33,5-.62,1-.17,2-.62,2.93-.88,1.49-.39,3-.63,4.48-1.1,2.15-.68,4.25-1.51,6.38-2.27l-.1-.5C71.84,90,70.8,90,69.77,90ZM24.24,24.24c1.64.49,4.42-1.2,4.75-2.95C26.2,20.87,24.14,22.17,24.24,24.24Zm14.55,7.11c-1.38-.68-4.49.84-5.08,2.52C35.37,35,37.89,33.29,38.79,31.35ZM13.86,14.59c.84-.44.8-1.29.21-2.06A3.68,3.68,0,0,0,10.77,15,3.26,3.26,0,0,0,13.86,14.59Zm21,12.8a.77.77,0,0,0-.35-.66,3.2,3.2,0,0,0-2.75.93,1.56,1.56,0,0,0-.3,1.15c.11.27.67.36,1,.53A4,4,0,0,0,34.84,27.39ZM15.93,12a3.67,3.67,0,0,0-1.85-4.56C13.56,8.77,14.53,11.09,15.93,12Zm17.42,5.56c-.91,1.51-1.51,3-.66,4.8C34.39,21.06,34.49,19.71,33.35,17.56Zm6.72,9.74a11.22,11.22,0,0,0-.48,2.08,1.86,1.86,0,0,0,.08.61,2.85,2.85,0,0,0,.67-.16c1.33-.72,1.57-2.91,1.14-4.26l-.32-.17A15,15,0,0,0,40.07,27.3ZM18.29,18.13c1.93.05,3.05-.68,3.59-2.4C19.49,15.83,18.38,16.59,18.29,18.13Zm3.43-9.32c-.68,1,.44,3.71,2.06,4.84C24.07,12.66,22.84,9.84,21.72,8.81Zm6.09,8.54c1.5-.71,1.37-3.05-.23-4.19A5.22,5.22,0,0,0,27.81,17.35ZM43.91,38.1c-.27,1.25.27,1.64,2.08,1.49C45.82,38.26,44.73,38.41,43.91,38.1Z"/><path class="cls-1" d="M47.13,97.61h-.45c-.69,0-1.38,0-2.07,0a37.86,37.86,0,0,1-3.94-.21c-.8-.1-1.66-.21-2.49-.28-.65-.06-1.29-.15-1.94-.24l-1.77-.25-1.78-.26-1.12-.16c-1.15-.16-2.31-.33-3.47-.46L26,95.5c-1.08-.08-2.19-.17-3.28-.34-2-.3-4-.71-6.11-1.22-.38-.09-.77-.15-1.17-.22-1.55-.24-3.3-.52-4.27-2.55a.6.6,0,0,1,.11-.66,3.42,3.42,0,0,0,.22-.28,2.1,2.1,0,0,1,1-.86,6.18,6.18,0,0,1,1.85-.23l.45,0c.5,0,1,0,1.5-.05.67,0,1.34,0,2-.09l3.23-.26c1.67-.14,3.39-.28,5.09-.37,1.41-.07,2.83-.09,4.21-.1,1,0,1.95,0,2.92,0,1.32,0,2.64-.12,4-.19l.68,0a16.26,16.26,0,0,1-1.1-1.69,17.43,17.43,0,0,1-1.75-6.73c-.07-.68-.21-1.38-.35-2.06a17.64,17.64,0,0,1-.43-3.18c0-2,.09-4,.19-6,.07-1.17.13-2.35.16-3.52a4.73,4.73,0,0,1,.1-.73c.1-.53.14-.83-.11-1.11s-.06-1,.19-1.33a1.81,1.81,0,0,1,.34-.34l.06,0c.39-1.33.7-2.46,1-3.6a12.17,12.17,0,0,1,3-6.24C41,50.18,41.35,49.2,41,48l-.33-1c-.26-.78-.53-1.6-.74-2.42a21.65,21.65,0,0,1-.46-2.83,3.57,3.57,0,0,1,0-.8,2.07,2.07,0,0,0,0-.74,2.1,2.1,0,0,1,.88-2.69,3.38,3.38,0,0,1,.63-.39,2.65,2.65,0,0,0,.42-.26l0-.06v0a15,15,0,0,0-.79-2.31,8.27,8.27,0,0,0-.83-1.31l0,0A7.8,7.8,0,0,1,33.84,36a1.88,1.88,0,0,1-1.44-.47A1.68,1.68,0,0,1,32,34.28,4.63,4.63,0,0,1,34.42,31c.85-.36,1.68-.76,2.56-1.2l.53-.26-1.14-1.38a5.09,5.09,0,0,1-4.76,2.52h0a2,2,0,0,1-1.78-.94,1.81,1.81,0,0,1,0-1.8,3.94,3.94,0,0,1,2.26-2.34c.42-.13.82-.29,1.26-.46L30.55,22.5c-.13.18-.27.36-.4.55a7.27,7.27,0,0,1-6,3.18,1.74,1.74,0,0,1-1.46-.55,1.54,1.54,0,0,1-.29-1.38c.6-2.66,2.19-4.31,4.48-4.63l.31-.05a1,1,0,0,1-.6-.63c-.14-.6-.56-.9-1.23-1.33a5.58,5.58,0,0,1-1.14-.89,2.55,2.55,0,0,0-.64-.48,5.82,5.82,0,0,1-4.9,3.58,1.94,1.94,0,0,1-.32.28l-.14.1a1.17,1.17,0,0,1-1.14.3,1.44,1.44,0,0,1-.76-1.36A10.49,10.49,0,0,1,17,16.61,3.8,3.8,0,0,1,18.43,15a6.16,6.16,0,0,1,.68-.34,20.46,20.46,0,0,0-2.28-.46c-.47-.06-.61,0-.73.3a3.54,3.54,0,0,1-1.67,1.76,8.16,8.16,0,0,1-5.4.1,1.21,1.21,0,0,1-.71-.86.93.93,0,0,1,.08-.92l.1-.12a10.81,10.81,0,0,1,2-2,17.24,17.24,0,0,1,2.18-1.28l.45-.23,0-.07a11.06,11.06,0,0,1-.56-1.36,4.18,4.18,0,0,1,.41-3.4,1.13,1.13,0,0,1,.76-.48,1,1,0,0,1,.81.13,8,8,0,0,0,.67.47,3.84,3.84,0,0,1,2.06,2.54l.16.9q.18,1.06.39,2.1a.69.69,0,0,0,.07.23c1,.28,2.09.54,3.21.81l-.25-.38a5.35,5.35,0,0,1-1-4.41c.15-.56.51-1.51,1.17-1.52a2.2,2.2,0,0,1,1.7.84,22,22,0,0,1,1.34,2c.17.26.33.53.5.78.71,1.09,1.78,2.73.49,4.63a.22.22,0,0,0,0,.08l.44.39A4.06,4.06,0,0,1,25.85,13a6.72,6.72,0,0,0,.28-.87c.1-.44.56-1.11,1.13-1.15a2,2,0,0,1,1.32.56,3.29,3.29,0,0,1,.74.86c.89,1.36,1.61,2.87.83,4.67-.18.43-.36.86-.53,1.29l-.09.21,1.21,1.21.45-1.06c.36-.87.72-1.74,1.12-2.59a1.57,1.57,0,0,1,1.33-.87,1.71,1.71,0,0,1,1.1.73,2,2,0,0,1,.4.77c.69,2.1,1.11,4.42-.75,6.39a.33.33,0,0,0-.06.08c0,.05.11.11.16.16l.38.38c.87.88,1.74,1.75,2.59,2.64.34.35.66.72,1,1.1a6.93,6.93,0,0,1,2.27-3.63,1.64,1.64,0,0,1,1.58-.47,1.14,1.14,0,0,1,.81.87A15.77,15.77,0,0,1,43.41,27c.06,1.9-1.13,3.25-2.08,4.33a.39.39,0,0,0-.1.15,1.44,1.44,0,0,0,.14.31c.79,1.52,1.47,2.93,2.09,4.3l.1.2h.1a2.78,2.78,0,0,1,3.09,1.1,3.13,3.13,0,0,0,.79.83,2.27,2.27,0,0,1,1.15,1.29,1.88,1.88,0,0,1-.29,1.42s0,0,0,.23c.11.67.23,1.35.34,2,.21,1.2.41,2.4.58,3.61a5.57,5.57,0,0,0,2.06,3.56l.43.35a9.16,9.16,0,0,1,2.41,2.64A31.36,31.36,0,0,1,56,57.77c.18.54.36,1.08.55,1.61a6,6,0,0,1,.18.76,2.46,2.46,0,0,0,.19.69A10.16,10.16,0,0,1,58,65.43c0,1.52.1,2.84.22,4,.21,2.2.46,4.4.71,6.6l.23,2a13.37,13.37,0,0,1-2.21,9.14,6.52,6.52,0,0,0-.33.59l6.26.26c.69,0,1.39.09,2.08.14a25.23,25.23,0,0,0,4.51.09,11.61,11.61,0,0,1,3.48.32,14.1,14.1,0,0,0,2,.31,2,2,0,0,1,.88.35l.22.13a.59.59,0,0,1,.32.66,2.36,2.36,0,0,1-2,2,6.91,6.91,0,0,0-1.06.35l-.63.24-1.38.47c-1.47.51-2.94,1-4.42,1.49-.53.17-1.07.3-1.61.43-.36.08-.72.17-1.07.27s-.87.26-1.3.4a17.47,17.47,0,0,1-2.65.7c-1.79.29-3.63.48-5.4.65l-1.54.16c-.54,0-1.08.08-1.62.11l-1,.06c-.41,0-.83.07-1.24.12A20.72,20.72,0,0,1,47.13,97.61ZM28.08,94.48l.15,0c1.17.13,2.34.3,3.51.46l1.12.16,1.78.26,1.77.25.84.12a44,44,0,0,0-5.71-1L31,94.67c-.74-.1-1.52-.13-2.27-.16C28.53,94.5,28.3,94.5,28.08,94.48ZM17.25,91.55q.45.11.9.18l.34.06c2.6.48,5.29,1,8,1.35a22.39,22.39,0,0,0,2.36.17c.78,0,1.58.07,2.38.17l.52.07a43.66,43.66,0,0,1,6.15,1.12,13.44,13.44,0,0,0,3.18.38c.62,0,1.25,0,1.89.13a29.15,29.15,0,0,0,4.57.23c1.91-.07,3.86-.27,5.75-.46l.9-.09c1.53-.15,3.27-.32,4.94-.61a11.05,11.05,0,0,0,1.64-.47c.41-.15.82-.29,1.24-.4l1.8-.42c.88-.2,1.79-.4,2.65-.67,1.5-.48,3-1,4.46-1.57l.27-.1c-.47,0-.94,0-1.41-.08h0a4.19,4.19,0,0,1-.79-.12,3.15,3.15,0,0,0-.78-.1,11.9,11.9,0,0,0-1.34.09,16.8,16.8,0,0,1-1.75.09c-1.49,0-3-.13-4.46-.21l-1.36-.08-1.54-.1c-.81-.06-1.62-.11-2.43-.14h-.37c-2-.07-4.17-.15-6.25-.13-1.21,0-2.45.11-3.64.2l-1.17.08-4,.28c-2.65.19-5.3.38-8,.53a23.57,23.57,0,0,1-2.66,0c-.48,0-1,0-1.46,0s-1.16,0-1.91.07Zm45.37,2.9-.36.09c-.39.11-.77.24-1.15.37L61,95c.49-.12,1-.28,1.47-.44ZM12.41,91c.72,1.16,1.88,1.35,3.2,1.56.43.06.86.13,1.27.23,2,.5,4.05.91,6,1.21,1.05.16,2.14.24,3.19.33h.09c-2.64-.38-5.31-.86-7.89-1.34l-.33-.06c-.86-.15-1.71-.36-2.53-.56l-1.13-.28a.6.6,0,0,1-.47-.64l0-.34a.6.6,0,0,1,.55-.54l2.52-.18,8.9-.64c.78,0,1.42-.07,2-.07s1,0,1.5,0c.84,0,1.71.07,2.54,0,2.65-.16,5.29-.35,7.94-.54l4-.28,1.1-.08-1.52.1L41.9,89a.66.66,0,0,1-.44-.17.6.6,0,0,1-.19-.44v-.28h0A1.14,1.14,0,0,1,40,87.59c-1.24-2.21-2.49-4.43-2.65-7.12a19.46,19.46,0,0,0-.3-2.19,20,20,0,0,1-.31-2.23,59.52,59.52,0,0,1-.13-6.18c0-1,.14-2,.24-3s.22-2.13.24-3.19a21.61,21.61,0,0,1,2.27-8.44,15.63,15.63,0,0,1,1.84-2.9c.31-.42.62-.84.9-1.27l.19-.27c.44-.64.68-1,.47-1.57-.09-.23-.19-.47-.29-.7a13.13,13.13,0,0,1-.7-2c-.37-1.54-.64-3.07-.94-4.9a.94.94,0,0,1,.27-.74,1.41,1.41,0,0,1,.92-.52h0c1,0,2.09.08,3.14.15l1.06.06a1.25,1.25,0,0,1,1,.38v0a1.25,1.25,0,0,1,.15-.71.79.79,0,0,0,.15-.51c0-.15-.24-.33-.6-.55a2.8,2.8,0,0,1-.57-.46,2.31,2.31,0,0,1,.24.78.63.63,0,0,1-.13.46.57.57,0,0,1-.42.22,2.94,2.94,0,0,1-2.45-.54A1.92,1.92,0,0,1,43.32,38a.64.64,0,0,1,.3-.4.62.62,0,0,1,.5,0,4.58,4.58,0,0,0,.53.14,3.14,3.14,0,0,1,1.23.49l-.1-.14a1.61,1.61,0,0,0-1.86-.63A1.15,1.15,0,0,1,42.59,37a1.48,1.48,0,0,1-.5.87,4.78,4.78,0,0,1-.61.38,2,2,0,0,0-.42.26c-.65.52-.79.74-.55,1.27a2.79,2.79,0,0,1,.13,1.3,3.87,3.87,0,0,0,0,.59,23.57,23.57,0,0,0,.43,2.67c.2.79.46,1.58.72,2.34.11.35.23.7.34,1,.65,2.06-.51,3.55-1.59,4.62-1.49,1.47-2.14,3.25-2.7,5.65-.28,1.2-.61,2.36-1,3.75a1.27,1.27,0,0,1-.44.57l-.1.08-.08.13a2.39,2.39,0,0,1,.19,1.86,5.24,5.24,0,0,0-.08.53c0,1.19-.1,2.37-.16,3.56-.1,1.92-.21,3.92-.19,5.86a15.69,15.69,0,0,0,.41,3c.14.7.28,1.43.36,2.16a16.56,16.56,0,0,0,1.61,6.28,16.33,16.33,0,0,0,1.07,1.64c.19.27.39.55.58.84a.59.59,0,0,1,0,.6.6.6,0,0,1-.5.34l-1.75.09c-1.33.07-2.66.14-4,.19-1,0-2,0-2.94,0-1.37,0-2.78,0-4.16.1-1.69.09-3.4.23-5.06.37l-3.25.26c-.69,0-1.38.07-2.07.09-.49,0-1,0-1.47,0h-.48a6,6,0,0,0-1.52.18c-.1,0-.29.29-.41.44Zm61-1.08a.14.14,0,0,1,0,.07l.1.51a.58.58,0,0,1-.16.52c.21-.07.42-.13.64-.18a1.19,1.19,0,0,0,1-.65.69.69,0,0,0-.21-.09A12.34,12.34,0,0,1,73.44,89.9ZM54.06,88.73l.89,0h.43a.63.63,0,0,1-.25-.26.6.6,0,0,1,0-.54l.06-.11A3.5,3.5,0,0,1,54.06,88.73Zm-7.65-.54h0Zm-5-1.3a.91.91,0,0,1,.56.17,1.08,1.08,0,0,1,.43.72l.84,0c1.08-.07,2.09-.14,3.14-.14h0c2.28,0,4.37,0,6.38.16.75,0,1.11-.21,1.74-.94A9.36,9.36,0,0,0,56,84.12c.2-.47.4-1,.64-1.41A6,6,0,0,0,57,79.52l0-.36c0-.75-.08-1.41-.15-2.06l-.13-1.4c-.15-1.58-.3-3.16-.48-4.74-.28-2.36-.6-4.86-1-7.64A2.15,2.15,0,0,0,55,63a2.92,2.92,0,0,1-.28-.53c-.38-1.1-.75-2.19-1.12-3.29l-.9-2.6c-.06-.19-.12-.39-.19-.58a7.28,7.28,0,0,0-.6-1.53,7.18,7.18,0,0,0-1.36-1.52c-.23-.21-.5-.4-.78-.61A5.2,5.2,0,0,1,48.37,51a7.62,7.62,0,0,1-.88-2.46l-.12-.5c-.36-1.49-.67-3-.95-4.44a6.12,6.12,0,0,1-.16-1.82v0H46.2l-1.07-.07c-1,0-2-.11-3-.13l-.06,0c.28,1.72.53,3.17.88,4.62A12.75,12.75,0,0,0,43.61,48c.1.25.21.49.3.74a2.68,2.68,0,0,1-.6,2.69l-.18.25c-.3.44-.62.88-.94,1.31a15.45,15.45,0,0,0-1.71,2.68,20.62,20.62,0,0,0-2.16,8c0,1.11-.14,2.22-.25,3.3s-.2,2-.23,2.92c-.06,1.9,0,3.89.12,6.07a19.65,19.65,0,0,0,.3,2.1,17.89,17.89,0,0,1,.32,2.33c.14,2.41,1.27,4.42,2.46,6.54h0A1.44,1.44,0,0,1,41.44,86.89ZM48.84,49a4.68,4.68,0,0,0,.53,1.33,4.19,4.19,0,0,0,1.12,1,9.89,9.89,0,0,1,.9.7A8.24,8.24,0,0,1,53,53.83a8.66,8.66,0,0,1,.72,1.77l.18.56c.3.87.6,1.74.89,2.61L55.89,62a1.53,1.53,0,0,0,.16.31,2,2,0,0,1,.33.8c.15,1,.28,2,.41,3,0-.22,0-.44,0-.67a8.79,8.79,0,0,0-.93-4.07,3.75,3.75,0,0,1-.3-1,5.25,5.25,0,0,0-.13-.57c-.19-.54-.37-1.09-.56-1.64a30.58,30.58,0,0,0-1.66-4.3,8.21,8.21,0,0,0-2.12-2.27l-.43-.36A7.43,7.43,0,0,1,48.84,49Zm-1.38-6.51a8.74,8.74,0,0,0,.14.87l.09.49-.09-.54C47.55,43.06,47.51,42.78,47.46,42.51Zm-5.28-1Zm2.34-2.65a.83.83,0,0,0,.4.12ZM33.2,34.18a.89.89,0,0,0,0,.15.57.57,0,0,0,.08.4.79.79,0,0,0,.54.11l.6,0a2.62,2.62,0,0,1-1-.44A.58.58,0,0,1,33.2,34.18Zm1.33-.58a1.93,1.93,0,0,0,.95,0,4.62,4.62,0,0,0,2.36-1.78,3.85,3.85,0,0,0-1.26.31A4.85,4.85,0,0,0,34.53,33.6Zm3.59-3a2.4,2.4,0,0,1,.93.22.59.59,0,0,1,.28.79c0,.1-.09.2-.14.3l.1-.14a.62.62,0,0,1,.5-.23.54.54,0,0,1,.25.06,1.29,1.29,0,0,1,.39-1.1l.06-.08a1.76,1.76,0,0,1-.5.13l-.18,0a.6.6,0,0,1-.47-.08.63.63,0,0,1-.26-.41.89.89,0,0,0,0-.14v0a.59.59,0,0,1-.32.4Zm.74-1.29.06.07.06.09a.62.62,0,0,1,0-.19v0Zm-8-.65a.56.56,0,0,0,.05.48.69.69,0,0,0,.26.25,1,1,0,0,1-.31-.73Zm9.82-1.12a8,8,0,0,0-.38,1.55l0,.1a3,3,0,0,0,.84-2.5,5.29,5.29,0,0,0-.44.85Zm-8.62,1,.29.11.2.07a3.87,3.87,0,0,0,1.73-1.39.16.16,0,0,0,0-.08,3,3,0,0,0-1.94.76A1.88,1.88,0,0,0,32,28.53Zm2.22-2.46a1.48,1.48,0,0,1,.51.11,1.39,1.39,0,0,1,.71,1.18v0a1.6,1.6,0,0,1,.28-.35l.17-.19a1.09,1.09,0,0,1,.17-.13L35,25.56a.59.59,0,0,1-.35.36Zm7.2-1.21h0l.32.18a.61.61,0,0,1,.29.34l.06.23a10.63,10.63,0,0,0-.17-1.1.62.62,0,0,0-.37.19ZM23.64,24.1l-.12.46a.48.48,0,0,0,0,.35.61.61,0,0,0,.5.12,10.15,10.15,0,0,0,1.15-.12,3.2,3.2,0,0,1-1.13-.1.61.61,0,0,1-.43-.54Zm1.23-.38h0a3.77,3.77,0,0,0,1.88-.61,4,4,0,0,0,1.38-1.3,3.7,3.7,0,0,0-2.64.79A2,2,0,0,0,24.87,23.72Zm7.9-.76.34.33a1,1,0,0,1,.12-.59l-.17.14A.56.56,0,0,1,32.77,23Zm-1.7-1.62.9.86a4.63,4.63,0,0,1-.29-1.62l-.09.17-.17.3A.59.59,0,0,1,31.07,21.34Zm-2.29-.69.3,0a.66.66,0,0,1,.4.25.62.62,0,0,1,.1.46,3,3,0,0,1-.25.73c.15-.21.31-.41.46-.59l.22-.29a.6.6,0,0,1,.31-.21l-1-1-.1.26A.58.58,0,0,1,28.78,20.65Zm4.52-1.73A3.66,3.66,0,0,0,33,21.31,2.19,2.19,0,0,0,33.3,18.92Zm-15.61-.77c-.09.37-.15.75-.22,1.12h0l.19-.13.07-.07a1.09,1.09,0,0,1,.48-.35.6.6,0,0,1-.37-.19A.59.59,0,0,1,17.69,18.15Zm10,.4.15.06a2,2,0,0,1,.33.16l.09.05a.69.69,0,0,1,0-.35l.24-.58c0-.13.1-.26.16-.4a2.77,2.77,0,0,1-.6.41.61.61,0,0,1-.48,0,.59.59,0,0,1-.34-.35,10.93,10.93,0,0,1-.54-1.82,2.7,2.7,0,0,1-.14.4c0,.1-.1.22-.14.35a.61.61,0,0,1-.23.31A3.29,3.29,0,0,1,27.67,18.55Zm0,.16ZM33.35,17h0a.6.6,0,0,1,.51.32,9.22,9.22,0,0,1,.45,1c-.08-.34-.18-.69-.3-1.06l0-.09a1.35,1.35,0,0,0-.11-.28,3.12,3.12,0,0,0-.33-.36.65.65,0,0,0-.17.15l-.16.36Zm-12.43-.54c-1.18.18-1.68.6-1.89,1.08A2.33,2.33,0,0,0,20.92,16.42Zm7-2.12a4.61,4.61,0,0,0,.22,2,1.59,1.59,0,0,0,.16-.59A2.23,2.23,0,0,0,27.87,14.3Zm-6,.82a.59.59,0,0,1,.47.24.56.56,0,0,1,.13.32l.07-.16a1.14,1.14,0,0,1,.26-.35l.11-.1a.6.6,0,0,1,.77-.09l.06,0a.65.65,0,0,1,0-.24,1.21,1.21,0,0,0,.05-.18,2.25,2.25,0,0,1,.12-.37.66.66,0,0,1-.51-.09,4.63,4.63,0,0,1-.49-.41.66.66,0,0,1-.12.33.59.59,0,0,1-.63.23l-.89-.22a.61.61,0,0,1,.3.52.58.58,0,0,1-.38.56l0,0a6.18,6.18,0,0,1,.67,0Zm-12.37.1c.3.08.58.14.86.19a.6.6,0,0,1-.17-.63,3.81,3.81,0,0,1,.49-1,14.42,14.42,0,0,0-1.22,1.35Zm17.12-.66a1.62,1.62,0,0,0,0,.22Zm-15,0a3.4,3.4,0,0,0,2-.54h0c.27-.14.3-.29.31-.34a.85.85,0,0,0-.13-.58A3.21,3.21,0,0,0,11.6,14.6Zm2.26,0h0ZM14,11.93h.1a.6.6,0,0,1,.46.24,2.31,2.31,0,0,1,.54,1.63A1.72,1.72,0,0,1,17,13l.26,0a1.51,1.51,0,0,1-.65-1v0c0,.1-.08.2-.13.3a.63.63,0,0,1-.38.32.65.65,0,0,1-.49-.08,4.65,4.65,0,0,1-1.15-1.11.6.6,0,0,1-.28.31l-.44.24Zm10-.54a6.27,6.27,0,0,1,.43,1.84A2.56,2.56,0,0,0,24,11.39Zm3.6,1.17a.63.63,0,0,1,.35.11l.31.25a2.18,2.18,0,0,0-.39-.45,2.82,2.82,0,0,0-.43-.29,1.14,1.14,0,0,0-.12.19,2.81,2.81,0,0,1-.08.31.54.54,0,0,1,.2-.1Zm-9.88-.63Zm4.65-1.24a5.82,5.82,0,0,0,.43.92C22.65,11.3,22.51,11,22.35,10.69ZM14.54,8.44a4.47,4.47,0,0,0,1,2.45,3.18,3.18,0,0,0-.21-1.19A3.3,3.3,0,0,0,14.54,8.44Zm6.7-.74a3.61,3.61,0,0,0-.23.6,3.13,3.13,0,0,0-.09,1.29,2,2,0,0,1,.31-1.12.61.61,0,0,1,.43-.26.5.5,0,0,1,.27,0l-.15-.2A1.24,1.24,0,0,0,21.24,7.7Zm-7.33-.91a.36.36,0,0,0,0,.09l.12,0Zm-.14-.11Zm.21,0Z"/></svg>