<svg id="Layer_1" data-name="Layer 1" xmlns="http://www.w3.org/2000/svg" viewBox="0 0 43 44"><defs><style>.cls-1{fill:#293b5c;}</style></defs><path class="cls-1" d="M1.5,40.55a6.2,6.2,0,0,1,4-2.06,10.53,10.53,0,0,0,4-.86A15.23,15.23,0,0,1,15,36.2l3.88-.41c.63-.07.81-.26.73-.81-.13-.93-.27-1.86-.39-2.79a54.83,54.83,0,0,1-.68-6.41,31.16,31.16,0,0,0-.34-4.31c-.19-1.28-.31-2.57-.46-3.85l-.18-1.7a12.26,12.26,0,0,0-.92,1.9c-.3.67-.6,1.35-.94,2a1.24,1.24,0,0,1-1.56.47c-.38-.18-.73-.42-1.06-.61a5.63,5.63,0,0,1,1.35-3.53c1-1.31,2.1-2.49,3.13-3.76a4.85,4.85,0,0,0,.85-1.45c.35-1.1.6-2.24.86-3.37A10.18,10.18,0,0,0,19.4,6.2l.37-.92a10.74,10.74,0,0,1,.59-1.39,9.32,9.32,0,0,1,2.33-2.56A1.81,1.81,0,0,1,24.43.85a13.22,13.22,0,0,1,2.9,1.2A8.34,8.34,0,0,1,29.1,4a13.15,13.15,0,0,1,1.1,1.65c.41.7.77,1.44,1.17,2.16.11.2-.13.58.34.61.28,0,.55.18.84.2a11.1,11.1,0,0,1,1.92.07A9.1,9.1,0,0,1,37.9,9.93a19.06,19.06,0,0,0,2.77,1.43c.36.19.65.46.42.85a2.45,2.45,0,0,1-2.77,1,15.94,15.94,0,0,0-1.94-.75c.57,1,1.07,1.92,1.62,2.83.17.28.46.49.1.84s-.36.59-.63.73a2.69,2.69,0,0,1-2.68-.75c-.68-.87-1.44-1.67-2.17-2.51l-.15.11A32,32,0,0,0,32.92,17a4.92,4.92,0,0,1-.26,2.39,1.42,1.42,0,0,1-.91.75,1,1,0,0,1-1.17-.6c-.42-.82-.82-1.66-1.26-2.56a6.16,6.16,0,0,1-.6,1A5.88,5.88,0,0,1,27.57,19a.84.84,0,0,1-.81-.11A3,3,0,0,1,26,17.5a12.24,12.24,0,0,1,.13-2.33c0-.29.05-.58.08-1-.68.36-1.23.68-1.81,1-.2.09-.6.16-.67.07a1,1,0,0,1-.22-.81,9,9,0,0,1,1.15-2.22,9,9,0,0,1,4.76-2.86c.86-.23,1.18-.54.74-1.46s-1.08-2-1.64-2.93a6.36,6.36,0,0,0-3-2.63,2.14,2.14,0,0,0-2.82.38.72.72,0,0,1-.25.16A3.59,3.59,0,0,0,20.77,5c-.34,1.1-.57,2.23-.84,3.35-.21.87-.43,1.75-.6,2.63-.07.36,0,.77,0,1.13a13.92,13.92,0,0,0-.54,1.7c-.12,1.14-.12,2.29-.15,3.43a17.32,17.32,0,0,0,0,2c.1.91.31,1.81.42,2.72.07.56,0,1.13.05,1.69.07.74.19,1.47.27,2.22.1.92.13,1.86.27,2.78.23,1.62.53,3.22.79,4.84.12.73.2,1.47.29,2.12a22.37,22.37,0,0,1,3.4.62,7.51,7.51,0,0,0,4.86.12,3.43,3.43,0,0,1,3.72,1.39,9.42,9.42,0,0,0,1.54,1.48c.25.23.53.42.76.6A1.66,1.66,0,0,1,32.94,41a10.27,10.27,0,0,0-3.58.24c-1.64.33-3.29.67-4.94,1a6.51,6.51,0,0,1-1.65,0c-1.58-.17-3.14-.41-4.72-.57-1.2-.13-2.42-.2-3.63-.27s-2.49-.17-3.73-.19c-.7,0-1.39.13-2.09.17-.21,0-.43-.15-.64-.13-.74.07-1.47.21-2.2.27-1.34.11-2.69.19-4,.29-.55,0-.87-.18-.86-.74A6,6,0,0,0,1.5,40.55Zm3.92,0c1.8-.1,3.61-.29,5.41-.29,2.2,0,4.4.08,6.59.25,1.5.11,3,.53,4.49.59a31.63,31.63,0,0,0,4.56-.27,6.35,6.35,0,0,0,1.9-.54,9,9,0,0,1,3.26-.38l1.28-.07c-.75-1.14-1.22-2.33-2.62-2.61a1.22,1.22,0,0,0-.63,0,9.47,9.47,0,0,1-6.45-.16A10,10,0,0,0,19,36.83c-1.95.19-3.9.33-5.82.66A14.43,14.43,0,0,0,10,38.61a14.81,14.81,0,0,1-4.46,1A2.72,2.72,0,0,0,3.4,40.64ZM36.92,15.3a22.36,22.36,0,0,0-1.47-2.13,7.58,7.58,0,0,0-2.8-2.47,3,3,0,0,0-.47-.24,2.46,2.46,0,0,0-.54,0c.05.14.09.29.15.42.83,1.73,2.32,2.94,3.45,4.44a4.63,4.63,0,0,0,1.28.83C37,16,37.19,15.71,36.92,15.3Zm-8.76-1.77c-.7,1.09-1.6,2.1-1.36,3.55,0,.06,0,.13,0,.17.13.27.28.53.43.79.23-.2.53-.35.67-.59.84-1.44.85-3.08,1.19-4.65l-.21-.09A6.84,6.84,0,0,0,28.16,13.53Zm2.54-.08c-.05,1.36-.18,2.72-.1,4.07,0,.53.52,1,.85,1.65C32.3,18.21,31.83,14.72,30.7,13.45Zm5.61-2.19a15.25,15.25,0,0,0,2.38.93c.16.05.39-.13.59-.21-.12-.13-.21-.31-.35-.39-.88-.48-1.75-1-2.65-1.4A6.31,6.31,0,0,0,35,9.87l-.08.18A8.64,8.64,0,0,0,36.31,11.26ZM14.13,19a.41.41,0,0,0,.17.34c.17,0,.44,0,.51-.11.29-.47.54-1,.79-1.48.16-.33.32-.67.45-1s.17-.61.25-.91l-.21-.06A7.84,7.84,0,0,0,14.13,19Z"/><path class="cls-1" d="M23.49,42.75a6.78,6.78,0,0,1-.77,0c-.79-.08-1.57-.18-2.36-.28L18,42.13C17,42,15.88,42,14.84,41.9l-1-.06c-1-.07-2.13-.14-3.19-.16a9.67,9.67,0,0,0-1.18.09l-.87.08a1.24,1.24,0,0,1-.5-.09l-.14,0c-.34,0-.68.08-1,.13S6.19,42,5.8,42l-2.6.19-1.44.09a1.24,1.24,0,0,1-1-.29,1.16,1.16,0,0,1-.34-.92.46.46,0,0,1,.17-.36l.25-.19a1.52,1.52,0,0,0,.33-.28h0A6.78,6.78,0,0,1,5.45,38L6,38a8.63,8.63,0,0,0,3.32-.75,15.26,15.26,0,0,1,5.65-1.48c1-.12,2.07-.23,3.11-.33l.77-.09a.89.89,0,0,0,.33-.07,1.35,1.35,0,0,0,0-.2l-.08-.58c-.11-.74-.22-1.48-.31-2.22-.07-.56-.14-1.12-.22-1.69a35.51,35.51,0,0,1-.46-4.78,30.12,30.12,0,0,0-.34-4.25c-.13-.91-.23-1.84-.33-2.73l-.12-1.13s0-.08,0-.12l-.05.12-.14.34c-.31.68-.61,1.37-1,2a1.69,1.69,0,0,1-2.17.68,9,9,0,0,1-.81-.46l-.29-.18a.45.45,0,0,1-.23-.39A6.13,6.13,0,0,1,14,15.87c.59-.8,1.26-1.57,1.9-2.31.42-.48.84-1,1.24-1.47a4,4,0,0,0,.77-1.3c.32-1,.57-2.07.8-3.1l.05-.22a4.77,4.77,0,0,0,.09-.81c0-.16,0-.33,0-.5L19,6l.08-.2c.09-.21.19-.47.29-.73s.11-.26.16-.39A6.6,6.6,0,0,1,20,3.65,9.53,9.53,0,0,1,22.39,1,2.29,2.29,0,0,1,24.58.4l.29.1a11.85,11.85,0,0,1,2.72,1.16,6.63,6.63,0,0,1,1.56,1.61l.32.41a13.54,13.54,0,0,1,1.13,1.7c.25.42.48.85.71,1.28s.31.6.47.89a.9.9,0,0,1,.1.39,3.08,3.08,0,0,1,.39.11,1.35,1.35,0,0,0,.31.07,5.3,5.3,0,0,0,.69,0,5.31,5.31,0,0,1,1.31.08l.31.07a8.8,8.8,0,0,1,3.28,1.27,10.4,10.4,0,0,0,1.84,1l.87.41a1.31,1.31,0,0,1,.73.76.94.94,0,0,1-.11.75c-.46.79-2.11,1.84-3.39,1.17a7.56,7.56,0,0,0-.71-.3c.34.59.66,1.16,1,1.72l.09.13a.91.91,0,0,1-.06,1.3,2.23,2.23,0,0,0-.19.24,1.47,1.47,0,0,1-.55.56,3.13,3.13,0,0,1-3.27-.87c-.42-.54-.89-1.07-1.35-1.59a14.58,14.58,0,0,0,.31,2,4.5,4.5,0,0,1-.17,2.25l-.09.36a1.88,1.88,0,0,1-1.24,1.09,1.43,1.43,0,0,1-1.71-.83c-.3-.58-.58-1.16-.88-1.77a1.94,1.94,0,0,1-.21.29,6.11,6.11,0,0,1-1.25,1.17,1.22,1.22,0,0,1-1.43-.21,3.34,3.34,0,0,1-.85-1.63,7.85,7.85,0,0,1,.06-1.75c0-.22.06-.45.07-.68V15c-.37.2-.71.39-1.07.55,0,0-.89.41-1.24-.07a1.43,1.43,0,0,1-.28-1.28l.08-.2a8.25,8.25,0,0,1,1.14-2.13,9.27,9.27,0,0,1,5-3c.48-.13.56-.24.58-.27s.05-.13-.15-.53c-.38-.78-.83-1.56-1.27-2.31l-.35-.59a5.87,5.87,0,0,0-2.78-2.45c-1.07-.48-1.69-.41-2.27.27a1,1,0,0,1-.35.25,3.07,3.07,0,0,0-1.51,1.91c-.25.78-.44,1.62-.63,2.42-.06.3-.13.59-.21.89l-.09.4c-.18.72-.36,1.47-.5,2.21a1.51,1.51,0,0,0,0,.43,2.55,2.55,0,0,1,0,.72,4.87,4.87,0,0,1-.26.79,3.41,3.41,0,0,0-.26.85c-.1.93-.12,1.89-.14,2.82v.57a16.28,16.28,0,0,0,0,2c.05.47.13.93.21,1.4s.15.87.21,1.32a6.2,6.2,0,0,1,0,1c0,.25,0,.49,0,.74q.06.62.15,1.23l.12,1c0,.36.06.72.09,1.08,0,.55.09,1.13.17,1.68.15,1,.32,2,.48,3,.11.62.21,1.24.31,1.86s.15,1,.22,1.52l0,.27.77.11a11.45,11.45,0,0,1,2.37.48,6.91,6.91,0,0,0,4.55.11A3.91,3.91,0,0,1,33.1,37.5a5,5,0,0,0,1,1l.47.4a4.82,4.82,0,0,0,.51.41l.22.17a.47.47,0,0,1,.15.53,2.12,2.12,0,0,1-2.59,1.47,9.43,9.43,0,0,0-3.41.23l-.94.19c-1.31.26-2.67.53-4,.76A5.5,5.5,0,0,1,23.49,42.75Zm-12.87-2h.08c1.08,0,2.17.08,3.23.15l1,.06c1,.06,2.13.13,3.2.24.8.08,1.59.18,2.38.29s1.56.2,2.34.28a5.45,5.45,0,0,0,1.52,0c1.33-.23,2.68-.5,4-.76l.95-.19A10.24,10.24,0,0,1,33,40.55c.72.12,1.14,0,1.42-.55-.16-.12-.33-.26-.49-.4l-.44-.38A6,6,0,0,1,32.32,38a3,3,0,0,0-.51-.56A7.15,7.15,0,0,1,32.93,39l.37.59a.44.44,0,0,1,0,.47.46.46,0,0,1-.39.26l-1.29.07c-.28,0-.56,0-.84,0a5.69,5.69,0,0,0-2.26.32,6.72,6.72,0,0,1-2,.58l-.3,0a29.7,29.7,0,0,1-4.33.24,18.12,18.12,0,0,1-2.47-.31,20.39,20.39,0,0,0-2-.28c-2.28-.17-4.48-.25-6.55-.25-.85,0-1.72,0-2.58.1l.19.06.14,0a7.84,7.84,0,0,0,.82-.08A11.85,11.85,0,0,1,10.62,40.74Zm-9.25.54h0s.12.06.31.05l1.45-.1,2.58-.19c.37,0,.74-.08,1.11-.13h.08L5.45,41h0L4,41.08l-.55,0A.49.49,0,0,1,3,40.87a.5.5,0,0,1,0-.5A3.15,3.15,0,0,1,5.5,39.1a14.59,14.59,0,0,0,4.32-.93l.4-.17a12.78,12.78,0,0,1,2.85-1c1.48-.26,3-.4,4.46-.54l1.39-.13a10.31,10.31,0,0,1,4.44.25,9,9,0,0,0,6.14.16,1.41,1.41,0,0,1,.22-.06,2.29,2.29,0,0,0-.58.11A7.76,7.76,0,0,1,24,36.7a11.08,11.08,0,0,0-2.18-.43c-.38-.05-.76-.1-1.15-.17a.46.46,0,0,1-.38-.4l-.08-.61c-.07-.49-.13-1-.21-1.5s-.21-1.24-.31-1.85c-.08-.43-.15-.86-.22-1.29.08.56.16,1.12.23,1.68.09.74.19,1.47.3,2.2l.08.59a1.15,1.15,0,0,1-.17.91,1.34,1.34,0,0,1-1,.43l-.78.08-3.1.33a14.68,14.68,0,0,0-5.31,1.38,9.51,9.51,0,0,1-3.67.86L5.55,39a5.67,5.67,0,0,0-3.71,1.92h0a2.82,2.82,0,0,1-.46.38ZM11,39.77c2,0,4.21.08,6.46.25a21.39,21.39,0,0,1,2.13.29,17.78,17.78,0,0,0,2.35.3,29.35,29.35,0,0,0,4.19-.23l.3,0a6.24,6.24,0,0,0,1.76-.51,6.57,6.57,0,0,1,2.63-.4c.26,0,.53,0,.79,0l.49,0c-.53-.87-1-1.55-1.89-1.73a.82.82,0,0,0-.38,0,9.86,9.86,0,0,1-6.76-.15,9.5,9.5,0,0,0-4-.21l-1.39.14c-1.45.13-3,.27-4.39.52a12.52,12.52,0,0,0-2.64.91l-.41.18a15.11,15.11,0,0,1-4.59,1l-.33,0h.13L7.07,40c1.23-.09,2.5-.18,3.76-.18Zm2.55-20.36.08.05c.23.14.46.29.71.41a.78.78,0,0,0,.94-.27c.33-.63.63-1.3.92-2l.15-.36a11.65,11.65,0,0,1,.81-1.62.46.46,0,0,1,.5-.2.45.45,0,0,1,.36.4l.06.54c0,.2.05.4.07.6v-.36c0-.95,0-1.93.14-2.9a5,5,0,0,1,.32-1.1,4.73,4.73,0,0,0,.23-.66,1.64,1.64,0,0,0,0-.45,3.08,3.08,0,0,1,0-.43,5.19,5.19,0,0,1-.93,1.57c-.41.51-.83,1-1.26,1.5-.63.72-1.28,1.47-1.85,2.25A5.51,5.51,0,0,0,13.54,19.41Zm17.8.22a.36.36,0,0,0,.27,0,1.11,1.11,0,0,0,.59-.41l.1-.38a3.57,3.57,0,0,0,.16-1.8,18.23,18.23,0,0,1-.34-2.3c0-.33-.07-.65-.12-1a.46.46,0,0,1,.19-.43l.15-.12a.46.46,0,0,1,.39-.07,9.61,9.61,0,0,1-1.36-2.05,3.24,3.24,0,0,1-.13-.33l0-.13a.43.43,0,0,1,.05-.42.47.47,0,0,1,.36-.21h.14a1.23,1.23,0,0,1,1,.19l.13.07a8,8,0,0,1,3,2.62,21.3,21.3,0,0,1,1.36,1.95l-.74-1.3L36,12.69a.47.47,0,0,1,.05-.54.49.49,0,0,1,.52-.14l.62.23a9.44,9.44,0,0,1,1.38.55c.71.37,1.86-.31,2.15-.81,0,0,0-.09-.23-.19l-.84-.4-.55-.26.08,0a1.23,1.23,0,0,1,.4.38l.08.11a.49.49,0,0,1,.11.42.5.5,0,0,1-.29.33l-.15.07a1,1,0,0,1-.76.15l-.2-.07a14.82,14.82,0,0,1-2.25-.89h0A5.42,5.42,0,0,1,35,10.79l-.42-.39a.46.46,0,0,1-.12-.55l.08-.18a.48.48,0,0,1,.53-.25l.4.07a4.36,4.36,0,0,1,1,.27l1.34.68-.2-.13a7.76,7.76,0,0,0-2.95-1.12l-.31-.07a4.09,4.09,0,0,0-1.07-.06,6.59,6.59,0,0,1-.77,0A2.14,2.14,0,0,1,32,8.94a1.5,1.5,0,0,0-.3-.08A.74.74,0,0,1,30.93,8c-.14-.3-.3-.61-.46-.91s-.44-.84-.68-1.25a13.22,13.22,0,0,0-1.05-1.59l-.33-.41a6,6,0,0,0-1.33-1.4,11.19,11.19,0,0,0-2.5-1.06l-.3-.1c-.39-.13-.78,0-1.3.4a12.79,12.79,0,0,0-1,.88l.27-.15.12-.07a2.59,2.59,0,0,1,3.35-.49,6.76,6.76,0,0,1,3.21,2.83l.35.59c.45.76.91,1.55,1.31,2.37A1.56,1.56,0,0,1,30.75,9a1.67,1.67,0,0,1-1.19.79,8.32,8.32,0,0,0-4.51,2.69,7.8,7.8,0,0,0-1,1.9l-.09.21s0,.09.08.18l.18-.05c.4-.19.78-.39,1.21-.63l.58-.31a.48.48,0,0,1,.48,0,.49.49,0,0,1,.21.43l-.07.93a8.62,8.62,0,0,1,.82-1.39l.31-.47h0a4.29,4.29,0,0,1,.53-.64l.22-.24a.46.46,0,0,1,.55-.12l.21.09a.47.47,0,0,1,.27.53c-.09.43-.16.87-.23,1.31a9.46,9.46,0,0,1-1,3.47.43.43,0,0,1,0,.07.69.69,0,0,0,.11-.13,3.21,3.21,0,0,0,.37-.58l.19-.35a.48.48,0,0,1,.42-.23.46.46,0,0,1,.4.27l.38.78h0a28.31,28.31,0,0,1,.05-2.92c0-.39,0-.78.05-1.16a.47.47,0,0,1,.82-.3c1.21,1.36,1.82,5.13.75,6.34a.46.46,0,0,1-.41.16ZM27,18.46l.11.15s.08,0,.15,0h.08A4.11,4.11,0,0,0,28,18l-.26.21-.2.15a.51.51,0,0,1-.39.11Zm4.07-3.21a21,21,0,0,0,0,2.24,1.72,1.72,0,0,0,.29.66A7.32,7.32,0,0,0,31.09,15.25Zm-3.82,1.9a1.62,1.62,0,0,0,.1.18.4.4,0,0,0,.11-.12,8.56,8.56,0,0,0,.9-3.15v0l-.15.24a3.72,3.72,0,0,0-1,2.72A.86.86,0,0,1,27.27,17.15ZM27.2,17h0Zm10.23-1.77a.91.91,0,0,1,0,.72,1,1,0,0,1-.53.54.66.66,0,0,0,.32-.08,1,1,0,0,0,.22-.26,2.31,2.31,0,0,1,.31-.39l-.06-.07a1.22,1.22,0,0,1-.12-.19Zm-5-4.15a13.81,13.81,0,0,0,1.86,2.38c.45.5.91,1,1.32,1.56a2.24,2.24,0,0,0,.69.47l.26.13h0s0,0,0-.09h0l-.05-.07a23.27,23.27,0,0,0-1.4-2,7.11,7.11,0,0,0-2.61-2.34Zm4.11-.26c.16.08.32.17.49.24l-.63-.32.14.08ZM19.86,6.31c0,.13,0,.24,0,.36.06-.26.12-.52.19-.78l-.11.28ZM14.43,19.78h-.19a.6.6,0,0,1-.43-.31.8.8,0,0,1-.12-.65h0a8.2,8.2,0,0,1,2.08-3.42.46.46,0,0,1,.46-.11l.21.06a.48.48,0,0,1,.32.57l-.07.27c-.06.23-.12.46-.2.68-.14.38-.31.73-.47,1.06l-.07.14c-.23.46-.47.93-.74,1.38A.91.91,0,0,1,14.43,19.78Zm-.3-.82h0Z"/></svg>