<svg id="Layer_1" data-name="Layer 1" xmlns="http://www.w3.org/2000/svg" viewBox="0 0 308 67"><defs><style>.cls-1{fill:#2121e8;}</style></defs><path class="cls-1" d="M5.26,61.51c1.06.22,1.33-.12,1.79-2.24-.1.13,1-6.33,1.09-6.2.3-2.12.14-2.44-1-2.22-.1-.22,0-.63.06-.4-.1-.23,6.82-.23,6.64,0A7.32,7.32,0,0,1,13.53,53c.16-.13-.16-.13-.31,0,.15-.13.15-.53,0-.38.13-1.18,0-1.64-1.41-1.43.09-.21-2.09-.21-2.1,0,0-.21-.79,4.3-.77,4.33a2.81,2.81,0,0,1,.71,0c1.5,0,1.8-.26,2-1.83.08-.1.4-.1.3,0A40,40,0,0,1,11.18,58c.07.08-.25.08-.31,0,.36-1.59.14-1.83-1.35-1.83H8.81S8.28,59.1,8.33,59c-.4,2.1-.26,2.42,1,2.21,0,.21,1.26.21,1.22,0,1.41.21,1.65-.25,1.91-1.45.12.15.26-.25.13-.38.13.13.45.13.31,0a7,7,0,0,1-.57,2.54c.11.23-7.31.23-7.13,0C5,62.14,5.08,61.73,5.26,61.51Z"/><path class="cls-1" d="M21.8,61.51c1,.22,1.31-.12,1.79-2.24-.12.13,1-6.33,1.09-6.2.28-2.12.12-2.44-1-2.22-.12-.22-.06-.63.06-.4-.12-.23,4-.23,4,0,3.52-.23,4.54,2.45,3.76,5.73-.36,3.28-2.35,6-5.77,5.73,0,.23-4.21.23-4,0C21.52,62.14,21.6,61.73,21.8,61.51ZM24.89,59c-.46,2.1-.35,2.42.92,2.21-.07.21,0,.21,0,0,2.92.21,3.95-2.69,4.25-5,.52-2.33.52-5.23-2.47-5-.15-.21-1.41-.21-1.36,0C26.21,51,24.78,59.1,24.89,59Z"/><path class="cls-1" d="M40.32,61.91c-.13.23,0-.18.07-.4,1.11.22,1.39-.12,1.8-2.24,0,.13,1.08-6.33,1.09-6.2.35-2.12.19-2.44-1-2.22,0-.22,0-.63.06-.4,0-.23,4.13-.23,4,0,.12-.23.07.18-.06.4-1.13-.22-1.39.1-1.77,2.22,0-.13-1.11,6.33-1.11,6.2-.33,2.12-.22,2.46,1,2.24.05.22,0,.63-.07.4C44.37,62.14,40.19,62.14,40.32,61.91Z"/><path class="cls-1" d="M61.63,61.7a1.3,1.3,0,0,0-.19-1.09c-.86,1.24-1.95,1.87-3,1.63-2.55.24-4.1-2.6-3.32-6.06.43-3.46,3-6.3,5.46-6.06,1.08-.24,2,.37,2.39,1.63a2,2,0,0,0,.59-1.09c.17-.23.56-.23.38,0a21.91,21.91,0,0,1-.74,4.2c.15,0-.27,0-.4,0,.23-2.64-.66-4.21-2.32-4-2.1-.22-3.57,2.85-3.89,5.31-.56,2.47-.14,5.51,2,5.29,1.6.22,3-1.37,3.73-4,.11,0,.53,0,.4,0A21.27,21.27,0,0,1,62,61.7C62.14,61.93,61.72,61.93,61.63,61.7Z"/><path class="cls-1" d="M71.83,61.91c-.12.23,0-.18.08-.4,1.11.22,1.39-.12,1.79-2.24,0,.13,1.09-6.33,1.09-6.2.36-2.12.2-2.44-1-2.22,0-.22,0-.63.06-.4,0-.23,4.13-.23,4,0,.12-.23.06.18-.06.4-1.13-.22-1.39.1-1.78,2.22,0-.13-1.1,6.33-1.1,6.2-.34,2.12-.22,2.46,1,2.24,0,.22,0,.63-.08.4C75.88,62.14,71.71,62.14,71.83,61.91Z"/><path class="cls-1" d="M90.39,62.24c-2.77.24-4.5-2.6-3.71-6.06.42-3.46,3.15-6.3,5.85-6.06,2.76-.24,4.51,2.6,3.7,6.06C95.83,59.64,93.09,62.48,90.39,62.24Zm2-11.37c-2.4-.22-3.92,2.85-4.24,5.31-.55,2.47-.11,5.51,2.39,5.29,2.43.22,3.92-2.82,4.2-5.29C95.33,53.72,94.9,50.65,92.39,50.87Z"/><path class="cls-1" d="M116.84,50.12c1.08-.24,1.46.43,1.09,1.15.21.12,0,.38-.58.56-.47-.18.09-1.16-.85-.94-.55-.22-.89,1.33-1.3,2.85.15-.1-1.42,8.74-1.51,8.5.09.24-.26.24-.35,0,.09.24-4.19-9.84-4.1-9.69a55.64,55.64,0,0,0-1,6c-.69,3.2-1.5,3.89-2.39,3.65-1.08.24-1.44-.45-1.07-1.15-.21-.12,0-.38.57-.55.47.17-.09,1.15.88.93.53.22.88-1.33,1.28-2.84a39.27,39.27,0,0,1,1-5.56c.22-2.12.08-2.44-1-2.22-.16-.22-.08-.63.08-.4-.16-.23,2.21-.23,2.27,0-.06-.23,3.83,8.91,3.74,8.79a46.38,46.38,0,0,0,1-5.47C115.15,50.55,116,49.88,116.84,50.12Z"/><path class="cls-1" d="M124.89,61.51c1.06.22,1.34-.12,1.8-2.24-.1.13,1-6.33,1.09-6.2.3-2.12.14-2.44-1-2.22-.09-.22,0-.63.06-.4-.09-.23,6.83-.23,6.65,0a7.13,7.13,0,0,1-.33,2.52c.17-.13-.15-.13-.3,0,.15-.13.15-.53,0-.38.13-1.18,0-1.64-1.41-1.43.09-.21-2.1-.21-2.11,0,0-.21-.78,4.3-.76,4.33a2.81,2.81,0,0,1,.71,0c1.49,0,1.79-.26,2-1.83.09-.1.41-.1.31,0a40.06,40.06,0,0,1-.77,4.37c.07.08-.25.08-.3,0,.35-1.59.13-1.83-1.36-1.83h-.7s-.53,2.9-.48,2.79c-.41,2.1-.27,2.42,1,2.21,0,.21,1.27.21,1.23,0,1.41.21,1.65-.25,1.91-1.45.11.15.25-.25.13-.38.12.13.44.13.31,0a7,7,0,0,1-.58,2.54c.12.23-7.3.23-7.12,0C124.64,62.14,124.72,61.73,124.89,61.51Z"/><path class="cls-1" d="M142,62.24c-.14.24-.54.24-.38,0a27.57,27.57,0,0,1,.74-4.21c-.12.08.29.08.4,0-.32,2,.35,3.66,2.37,3.44.84.22,1.92-.48,2.1-2,.24-.83-.14-1.59-1.55-2.67,0,0-1.12-.81-1.08-.8a2.74,2.74,0,0,1-1.15-3c.2-1.76,1.53-3.11,3-2.87a1.31,1.31,0,0,1,1.74.79,2.84,2.84,0,0,0,.59-.88c.14-.25.53-.25.38,0a27.8,27.8,0,0,1-.75,4.2c.13-.08-.29-.08-.4,0,.29-1.67.17-3.56-1.6-3.34a1.74,1.74,0,0,0-1.93,1.7c-.22.93.36,1.62,1.2,2.29a6.86,6.86,0,0,1,1.19.84,2.86,2.86,0,0,1,1.41,3.19c-.26,2.26-1.89,3.57-3.49,3.33a1.83,1.83,0,0,1-2.14-1A3.62,3.62,0,0,0,142,62.24Z"/><path class="cls-1" d="M2.11,24.77a1.2,1.2,0,0,0,1.44-.31c.28,0,.44-.42.45-1.2C4,23.43,4,6,4,6.14,4,5.36,3.83,5,3.55,4.93a1.22,1.22,0,0,0-1.44-.31c-.06-.2-.06-1.12,0-.89-.06-.23,2.16-.23,2.17,0a7.37,7.37,0,0,1,3.17,0c0-.23,0,22.16,0,21.94a7.69,7.69,0,0,1-3.17,0c0,.22-2.23.22-2.17,0C2.05,25.89,2.05,25,2.11,24.77ZM15.41,13a1.35,1.35,0,0,0,.31-1.22,2.6,2.6,0,0,1,.89,0,5.55,5.55,0,0,1,0,1.82,3.4,3.4,0,0,1,0,1.42,5.55,5.55,0,0,1,0,1.82,2.6,2.6,0,0,1-.89,0,1.35,1.35,0,0,0-.31-1.22c-.14-.22-.55-.34-1.21-.36.05,0-7.37,0-7.27,0a6.05,6.05,0,0,1,0-1.9c-.1,0,7.32,0,7.27,0C14.86,13.31,15.27,13.19,15.41,13Zm4.11-4.26c.13,0-.79.22-.9.17a5.27,5.27,0,0,0-.79-2.52,1.28,1.28,0,0,0-1.34-.79c.06,0-9.57,0-9.44,0a4.82,4.82,0,0,1,0-1.93c-.13-.05,11.58-.05,11.47,0a3.19,3.19,0,0,1,.28,1.45A19.66,19.66,0,0,1,19.52,8.71ZM18.28,23a5.76,5.76,0,0,0,1.07-2.5c.12-.05,1,.23.86.27a18.71,18.71,0,0,1-1.06,3.48,3.64,3.64,0,0,1-.45,1.49c.1,0-11.68,0-11.54,0a4.48,4.48,0,0,1,0-1.93c-.14,0,9.78,0,9.71,0A1.46,1.46,0,0,0,18.28,23Z"/><path class="cls-1" d="M39.89,18.45a3.75,3.75,0,0,1,.82,2.88c.13,1.87-.48,3.11-1.77,3.63a6.05,6.05,0,0,1-4.25,1A5.36,5.36,0,0,1,31,25.2a3.68,3.68,0,0,1-2.29-1.74,25.71,25.71,0,0,1,0-4.3,2.56,2.56,0,0,0,.58,0A5.62,5.62,0,0,0,31.12,23a3.9,3.9,0,0,0,3.46,1.27,2.52,2.52,0,0,0,2.33-.69,1.91,1.91,0,0,0,.84-2,1.89,1.89,0,0,0-.55-1.54,3.44,3.44,0,0,0-1.65-.87s-3.11-.79-3.07-.8A4.54,4.54,0,0,1,29.88,17,2.81,2.81,0,0,1,29,14.58a3.55,3.55,0,0,1,1.59-3.42A5.17,5.17,0,0,1,35,9.82a4.3,4.3,0,0,1,2.77.43A3.3,3.3,0,0,1,40,11.47a24.91,24.91,0,0,1,.34,4.07c.11,0-.48,0-.58.07a5.65,5.65,0,0,0-1.88-3.1,3.18,3.18,0,0,0-2.88-1,2.36,2.36,0,0,0-2.13.66A1.63,1.63,0,0,0,32,13.82a1.56,1.56,0,0,0,.47,1.29,5.2,5.2,0,0,0,1.84.84s2.7.7,2.65.73A4.5,4.5,0,0,1,39.89,18.45Z"/><path class="cls-1" d="M49,32.42c0,.22,0-.69,0-.9a.91.91,0,0,0,1.22-.31c.22,0,.34-.42.36-1.2,0,.17,0-17.61,0-17.43,0-.79-.14-1.2-.36-1.21A.92.92,0,0,0,49,11.06c0-.21,0-1.12,0-.89,0-.23,1.81-.23,1.82,0a6.92,6.92,0,0,1,3.07,0c.05-.23.05,22.47,0,22.25a7.22,7.22,0,0,1-3.07,0C50.79,32.64,48.93,32.64,49,32.42Zm4.86-18.88a3.36,3.36,0,0,1,1.71-2.6A3.93,3.93,0,0,1,59,9.82a4.94,4.94,0,0,1,4.57,1.83c1.25,1.11,1.83,3.23,1.7,6.23.13,3-.45,5.12-1.7,6.24A4.92,4.92,0,0,1,59,25.94a3.8,3.8,0,0,1-3.39-1.18A3.72,3.72,0,0,1,53.84,22c-.1.08-1.33.08-1.21,0-.12.08-.12-8.53,0-8.44C52.51,13.45,53.74,13.45,53.84,13.54ZM61,22.64a9.37,9.37,0,0,0,.76-4.76,9.13,9.13,0,0,0-.79-4.72,2.52,2.52,0,0,0-2.83-1.69,2.38,2.38,0,0,0-2,.59,3,3,0,0,0-1.55,2,7.42,7.42,0,0,0-.61,3.8,7.46,7.46,0,0,0,.61,3.81,3,3,0,0,0,1.55,2,2.35,2.35,0,0,0,2,.59A2.49,2.49,0,0,0,61,22.64Z"/><path class="cls-1" d="M78.84,24.46a.93.93,0,0,0,1.22.31c.07.21.07,1.12,0,.9.07.22-1.79.22-1.82,0a6.15,6.15,0,0,1-2.83,0c0,.22-1.89.22-1.82,0-.07.22-.07-.69,0-.9a.93.93,0,0,0,1.22-.31c.21,0,.33-.42.36-1.2,0,.17,0-17.3,0-17.12,0-.78-.15-1.19-.36-1.21a.94.94,0,0,0-1.22-.31c-.07-.2-.07-1.12,0-.89-.07-.23,1.79-.23,1.82,0a6.92,6.92,0,0,1,3.07,0c0-.23,0,19.7,0,19.53C78.51,24,78.64,24.45,78.84,24.46Z"/><path class="cls-1" d="M94.5,24.5a1.11,1.11,0,0,0,1.22.31c.07.14.07,1.05,0,.89.07.16-1.79.16-1.82,0a8.4,8.4,0,0,1-2.83,0c0,.16-1.89.16-1.82,0-.07.16-.07-.75,0-.89a1.11,1.11,0,0,0,1.22-.31c.2-.08.33-.49.36-1.21,0,.11,0-10.86,0-10.75,0-.71-.16-1.12-.36-1.2A1.09,1.09,0,0,0,89.25,11c-.07-.14-.07-1.06,0-.9-.07-.16,1.79-.16,1.82,0a9.88,9.88,0,0,1,3.07,0c0-.16,0,13.27,0,13.16C94.17,24,94.29,24.42,94.5,24.5ZM92.42,2.6C92.41,2.55,95,5,94.9,5s-2.49,2.53-2.48,2.48S89.92,5,90,5,92.41,2.55,92.42,2.6Z"/><path class="cls-1" d="M110,24.5a1.12,1.12,0,0,0,1.23.31c.06.14.06,1.05,0,.89a3.54,3.54,0,0,1-1.83,0,8.34,8.34,0,0,1-2.82,0,3.54,3.54,0,0,1-1.83,0c-.06.16-.06-.75,0-.89A1.1,1.1,0,0,0,106,24.5c.21-.08.33-.49.37-1.21,0,.11,0-10.86,0-10.75,0-.71-.16-1.12-.37-1.2a1.09,1.09,0,0,0-1.22-.31c-.06-.14-.06-1.06,0-.9a3.54,3.54,0,0,1,1.83,0,9.81,9.81,0,0,1,3.06,0c0-.16,0,13.27,0,13.16C109.66,24,109.78,24.42,110,24.5ZM108.8,14.3c-.13-.07.86-.07,1,0a4.21,4.21,0,0,1,1.45-3.19,3.41,3.41,0,0,1,3.34-1.29,3.58,3.58,0,0,1,3.6,1.46,5.52,5.52,0,0,1,1.19,4.26c.09,0,.09,7.86,0,7.75.09.72.21,1.13.36,1.21a1.16,1.16,0,0,0,1.22.31c.13.14.13,1.05,0,.89.13.16-1.74.16-1.82,0a8.4,8.4,0,0,1-2.83,0,3.51,3.51,0,0,1-1.82,0c0,.16,0-.75,0-.89a1.05,1.05,0,0,0,1.22-.31c.26-.08.38-.49.36-1.21,0,.11,0-7.16,0-7.13a7.07,7.07,0,0,0-.52-3.41,1.68,1.68,0,0,0-2-1,2.72,2.72,0,0,0-2.77,1.8c-.82,1.13-1.19,3.17-1.09,6a3.19,3.19,0,0,1-.89,0A34.71,34.71,0,0,1,108.8,14.3Z"/><path class="cls-1" d="M145,3.55l1.48.09c-.13-.05,12.91-.05,12.78,0l1.46-.09a3.05,3.05,0,0,0,1.06-.36c.18-.06.35,1.88.17,1.9a12.28,12.28,0,0,1,.31,3.65c.19,0-.73.12-.9.07a3.64,3.64,0,0,0-.51-2.47c-.1-.52-.53-.78-1.28-.77.14,0-13.57,0-13.44,0-.74,0-1.17.25-1.27.76a3.85,3.85,0,0,0-.59,2.51c-.17.06-1.05-.05-.86-.1a12,12,0,0,1,.35-3.65,3.39,3.39,0,0,1,.2-1.9A2.62,2.62,0,0,0,145,3.55Zm10.13,20.91a1.8,1.8,0,0,0,1.82.31c.09.21.09,1.12,0,.9a5.68,5.68,0,0,1-2.72,0,5.69,5.69,0,0,1-2.72,0,5.85,5.85,0,0,1-2.76,0c-.08.22-.08-.69,0-.9a1.82,1.82,0,0,0,1.83-.31c.33,0,.52-.42.55-1.2,0,.17,0-19.76,0-19.53a8.66,8.66,0,0,1,3.44,0c0-.23,0,19.7,0,19.53C154.65,24,154.84,24.45,155.17,24.46Z"/><path class="cls-1" d="M173.59,24.5a1.12,1.12,0,0,0,1.23.31c.06.14.06,1.05,0,.89a3.54,3.54,0,0,1-1.83,0,8.34,8.34,0,0,1-2.82,0,3.54,3.54,0,0,1-1.83,0c-.06.16-.06-.75,0-.89a1.1,1.1,0,0,0,1.22-.31c.21-.08.33-.49.37-1.21,0,.11,0-10.86,0-10.75,0-.71-.16-1.12-.37-1.2a1.09,1.09,0,0,0-1.22-.31c-.06-.14-.06-1.06,0-.9a3.54,3.54,0,0,1,1.83,0,9.81,9.81,0,0,1,3.06,0c0-.16,0,13.27,0,13.16C173.27,24,173.39,24.42,173.59,24.5Zm1.24-12.95a3.09,3.09,0,0,1,3.1-1.65,2.33,2.33,0,0,1,1.78.36,1.59,1.59,0,0,1,1.22,1,33.36,33.36,0,0,1-1.14,3.17c.07,0-.32-.13-.38-.11a1.34,1.34,0,0,0-.55-1.34,1.67,1.67,0,0,0-1.58-.58,3.06,3.06,0,0,0-2.88,2c-.8,1.32-1.18,3.59-1.12,6.66a3.8,3.8,0,0,1-1.58,0,49.35,49.35,0,0,1,0-5.44h1.65A8.91,8.91,0,0,1,174.83,11.55Z"/><path class="cls-1" d="M199.81,10.8a4.57,4.57,0,0,1,2.55,2.81,6.74,6.74,0,0,1,.88,4.27,6.71,6.71,0,0,1-.88,4.27A4.54,4.54,0,0,1,199.81,25a5.45,5.45,0,0,1-4,1,6,6,0,0,1-5.48-2.17,7.11,7.11,0,0,1-2-5.89,6.74,6.74,0,0,1,.88-4.27,4.58,4.58,0,0,1,2.54-2.81,8.71,8.71,0,0,1,8,0Zm-1,11.75a8.1,8.1,0,0,0,.95-4.67,8.1,8.1,0,0,0-.95-4.67,3.42,3.42,0,0,0-6,0,8,8,0,0,0-.95,4.67,8,8,0,0,0,.95,4.67,3.42,3.42,0,0,0,6,0Z"/><path class="cls-1" d="M211.66,32.42c0,.22,0-.69,0-.9a.91.91,0,0,0,1.22-.31c.22,0,.34-.42.36-1.2,0,.17,0-17.61,0-17.43,0-.79-.14-1.2-.36-1.21a.92.92,0,0,0-1.22-.31c0-.21,0-1.12,0-.89,0-.23,1.81-.23,1.82,0a6.92,6.92,0,0,1,3.07,0c0-.23,0,22.47,0,22.25a7.22,7.22,0,0,1-3.07,0C213.47,32.64,211.61,32.64,211.66,32.42Zm4.86-18.88a3.37,3.37,0,0,1,1.7-2.6,4,4,0,0,1,3.43-1.12,4.94,4.94,0,0,1,4.57,1.83c1.25,1.11,1.83,3.23,1.7,6.23.13,3-.45,5.12-1.7,6.24a4.92,4.92,0,0,1-4.57,1.82,3.79,3.79,0,0,1-3.39-1.18A3.72,3.72,0,0,1,216.52,22c-.1.08-1.33.08-1.21,0-.12.08-.12-8.53,0-8.44C215.19,13.45,216.42,13.45,216.52,13.54Zm7.12,9.1a9.37,9.37,0,0,0,.76-4.76,9.13,9.13,0,0,0-.79-4.72,2.52,2.52,0,0,0-2.83-1.69,2.38,2.38,0,0,0-2,.59,3,3,0,0,0-1.55,2,7.42,7.42,0,0,0-.61,3.8,7.46,7.46,0,0,0,.61,3.81,3,3,0,0,0,1.55,2,2.35,2.35,0,0,0,2,.59A2.5,2.5,0,0,0,223.64,22.64Z"/><path class="cls-1" d="M242.15,24.5a1.1,1.1,0,0,0,1.22.31c.06.14.06,1.05,0,.89a3.54,3.54,0,0,1-1.83,0,8.34,8.34,0,0,1-2.82,0,3.54,3.54,0,0,1-1.83,0c-.06.16-.06-.75,0-.89a1.12,1.12,0,0,0,1.23-.31c.2-.08.32-.49.36-1.21,0,.11,0-10.86,0-10.75,0-.71-.16-1.12-.36-1.2a1.11,1.11,0,0,0-1.23-.31c-.06-.14-.06-1.06,0-.9a3.54,3.54,0,0,1,1.83,0,9.81,9.81,0,0,1,3.06,0c0-.16,0,13.27,0,13.16C241.82,24,241.94,24.42,242.15,24.5ZM240.06,2.6c0-.05,2.53,2.44,2.48,2.44s-2.48,2.53-2.48,2.48S237.57,5,237.62,5,240.06,2.55,240.06,2.6Z"/><path class="cls-1" d="M262.23,14.47a2.42,2.42,0,0,0-.74-2.22,2.13,2.13,0,0,0-2.16-.78,3,3,0,0,0-3.06,1.62,7.08,7.08,0,0,0-1.11,4.65,6.39,6.39,0,0,0,1.35,4.71,4,4,0,0,0,3.79,1.63,3.38,3.38,0,0,0,3-.91A3.56,3.56,0,0,0,265,21.05a5.28,5.28,0,0,0,.69.28,5.28,5.28,0,0,1-2,3.18,4.39,4.39,0,0,1-4.09,1.43,6.15,6.15,0,0,1-5.5-2.1c-1.47-1.31-2.15-3.32-2-5.92-.14-2.65.55-4.69,2-6a6.16,6.16,0,0,1,5.43-2.1c2-.16,3.55.32,4.46,1.41a4.31,4.31,0,0,1,1.5,4,2.25,2.25,0,0,1-.1,1.45c.13,0-3.25-.3-3.31-.27A5.2,5.2,0,0,0,262.23,14.47Z"/><path class="cls-1" d="M284.23,21.33a5.79,5.79,0,0,1-1.53,3.3,3.28,3.28,0,0,1-3.26,1.31A3.37,3.37,0,0,1,276,24.63c-.92-.75-1.32-2.11-1.18-4a4.42,4.42,0,0,1,.52-2.86c-.13,0,10.31-1.16,10.23-1.14a1.57,1.57,0,0,1,0,.86c.08,0-7.34,1.51-7.27,1.49a3.67,3.67,0,0,0-.31,2,2.76,2.76,0,0,0,.57,2.2,1.44,1.44,0,0,0,1.67.83,2.11,2.11,0,0,0,2-.86,4.86,4.86,0,0,0,1.43-2.62,12.33,12.33,0,0,0,.53-4.34,5.67,5.67,0,0,0-.76-3.53,2.15,2.15,0,0,0-2.34-1.23,1.94,1.94,0,0,0-2,.71,1.91,1.91,0,0,0-.69,1.84.74.74,0,0,0,.05.59.94.94,0,0,0,.12.55c-.06-.05-.06.05,0,.1a25.6,25.6,0,0,0-3,.28c-.13,0-.16-.12,0-.07-.29-.63-.37-1.07-.24-1.27a3.08,3.08,0,0,1,1.64-3.14,5.3,5.3,0,0,1,4.32-1.24,4.67,4.67,0,0,1,4,1.1,3.48,3.48,0,0,1,1.67,2.66,9.1,9.1,0,0,1,.35,3.65,55.68,55.68,0,0,1,0,6.06c.11.72.23,1.13.36,1.21a1.18,1.18,0,0,0,1.22.31c.14.14.14,1.05,0,.89.14.16-1.72.16-1.82,0a7.42,7.42,0,0,1-2.66,0c.05.16.05-4.3,0-4.37S284.28,21.4,284.23,21.33Z"/><path class="cls-1" d="M302.73,24.46a.92.92,0,0,0,1.22.31c.07.21.07,1.12,0,.9.07.22-1.8.22-1.83,0a6.11,6.11,0,0,1-2.82,0c0,.22-1.89.22-1.83,0-.06.22-.06-.69,0-.9a.94.94,0,0,0,1.23-.31c.2,0,.33-.42.36-1.2,0,.17,0-17.3,0-17.12,0-.78-.16-1.19-.36-1.21a1,1,0,0,0-1.23-.31c-.06-.2-.06-1.12,0-.89-.06-.23,1.8-.23,1.83,0a6.92,6.92,0,0,1,3.07,0c0-.23,0,19.7,0,19.53C302.4,24,302.52,24.45,302.73,24.46Z"/></svg>