<svg id="Layer_1" data-name="Layer 1" xmlns="http://www.w3.org/2000/svg" viewBox="0 0 258 170"><defs><style>.cls-1{fill:#293b5c;}</style></defs><path class="cls-1" d="M256.47,163.65h0a1.86,1.86,0,0,0,0-2.06c-.19-.32-.38-.64-.56-1-.54-1-1.1-1.92-1.72-2.86a10.87,10.87,0,0,0-1.67-1.87,19.43,19.43,0,0,1-4.43-5.66l-.39-.85a29.65,29.65,0,0,0-2.28-4.31l-.29-.43-.05-.07c-.94-1.43-1.92-2.9-4.09-3.37-1.73-.38-3.48-.7-5.18-1.21-1.18-.34-2.35-.71-3.53-1l-.45-.12a6.32,6.32,0,0,1-1.25-.42,1.71,1.71,0,0,1,.56-.2l.18-.05c1.33-.38,1.51-.65,1.39-2V136c.37-.87.05-1.58-1-2.11-.56-.29-1.12-.55-1.78-.86l-1.74-.82c-1.41-.67-2.88-1.37-4.36-2s-2.88-1.13-4.3-1.64l-1.05-.38c-.78-.29-2.07-.72-2.7-.93a56,56,0,0,1-6.42-2.74l-1.55-.74a5.62,5.62,0,0,0-5.2,0c-.6.31-1.22.6-1.83.9s-1.55.74-2.32,1.15a.73.73,0,0,1-.92-.06l-.11-.08c-.62-.44-1.25-.89-1.92-1.3-.32-.19-.64-.4-1-.62a19.85,19.85,0,0,0-2.7-1.54c-1.51-.66-3.07-1.26-4.59-1.85l0,0-1.82-.71c-.56-.22-1.47-.62-2-.88l-.52-.25-.57-.29-.06,0a12.49,12.49,0,0,0-1.28-.59,63.7,63.7,0,0,1-12.23-6.42,2.82,2.82,0,0,1-1.47-3.32,2.73,2.73,0,0,0-.5-2c-.59-.87-1.21-1.72-1.82-2.55-.38-.51-.77-1-1.14-1.55A38.61,38.61,0,0,0,159,96.56a5.06,5.06,0,0,0-1.35-.91,16.37,16.37,0,0,1-5.35-4.1,31.63,31.63,0,0,0-6.16-5.13c-.61-.42-1.21-.85-1.81-1.28l-.91-.67c-1.1-.8-2.24-1.63-3.34-2.48l-.86-.67c-1.76-1.36-3.57-2.77-5.42-4.09-.8-.56-1.65-1-2.48-1.54-.53-.3-1.12-.64-1.68-1l-.75-.47a19.05,19.05,0,0,1-3.73-2.78,11.62,11.62,0,0,0-2-1.55l-.57-.38c-.7-.48-1.4-1-2.11-1.43l-.09-.06c-1.18-.79-2.4-1.61-3.57-2.45-1-.71-1.93-1.5-2.85-2.27a43.29,43.29,0,0,0-3.64-2.81c-2.86-1.92-5.67-4-8.38-6.09l-1-.74a22.65,22.65,0,0,0-5.41-3.06c-1.33-.52-3.07-1.23-4.76-2.07l-.39-.19a34.41,34.41,0,0,0-7-2.88,5.28,5.28,0,0,1-.73-.25,4.92,4.92,0,0,0-1.18-.36c-1.45-.19-2.92-.34-4.33-.47L73.81,44c-1.34-.13-2.67-.27-4-.42a2.4,2.4,0,0,1-.49-.13,8.77,8.77,0,0,0,2.77-4.33c.62-2.09,1.09-4.25,1.53-6.34l.14-.64c.07-.31.12-.62.18-.93a6.27,6.27,0,0,1,1-2.89,3.89,3.89,0,0,0,.65-1.68c.54-3.11,1-6.23,1.53-9.28a6.13,6.13,0,0,0-.54-3.58,9.38,9.38,0,0,0-.51-.94,7.73,7.73,0,0,1-.5-.93,4.38,4.38,0,0,0-3.48-2.79,1.11,1.11,0,0,1-1-1,3.44,3.44,0,0,0-.35-1l-.3-.54a19.42,19.42,0,0,0-1.39-2.29,2.53,2.53,0,0,0-1.86-1,2.53,2.53,0,0,1-1.67-.53A3.63,3.63,0,0,0,63.28,2h0a7.94,7.94,0,0,1-3-.54,6.76,6.76,0,0,0-5.06,0c-1.09.44-2.24.82-3.42,1.19a7.91,7.91,0,0,0-4.68,3.68,2.89,2.89,0,0,1-2.12,1.74,4.44,4.44,0,0,0-.83.25l-.3.11a3.87,3.87,0,0,0-2.63,3.27c-.15.8.36,2.63-.45,3.37a2.26,2.26,0,0,0-.5,2.57,2.62,2.62,0,0,0-.88-.66,1.33,1.33,0,0,0-1,.56,10.89,10.89,0,0,0-1.76,6.36,41.48,41.48,0,0,0,.35,4.2c0,.39.09.78.13,1.17l0,.34a30.15,30.15,0,0,0,.48,3.24,23.76,23.76,0,0,0,2.12,5.59c.22.45.22.45-.07.69-.87.74-1.81,1.47-2.79,2.2-.29.21-.58.44-.92.7s-.48.37-.73.54l-.69.47c-1.47,1-3,2.08-4.52,3.1-.49.33-1,.64-1.51.95s-1.11.68-1.66,1.05-1.4,1-2.08,1.46c-1.09.79-2.22,1.6-3.38,2.31a34.15,34.15,0,0,0-7.16,5.58,9.29,9.29,0,0,1-1.22,1l-.3.22-1.49,1.1c-.8.57-1.62,1.17-2.41,1.79l-.23.18a21.49,21.49,0,0,0-2.75,2.4,19.19,19.19,0,0,0-3.53,5.3,24.08,24.08,0,0,0-1.05,2.79c-1,3.62-.25,6.51-.05,8.33a3,3,0,0,0,1,1.08,11.68,11.68,0,0,0,4.13,1.64c2.63.49,5.32,1,8.21,1.47a4.2,4.2,0,0,0,1.37,0l.78-.12c1.69-.26,3.43-.52,5.14-.85,2.38-.46,5.51-1.08,8.65-1.81,3.94-.9,7.49.11,10.85,3.09,1.05.94,2,2,3,3l1.13,1.17c.55.57,1.1,1.14,1.64,1.72,1.11,1.18,2.26,2.4,3.49,3.52a41,41,0,0,0,3.73,2.9l1,.74A5.55,5.55,0,0,0,57,99a11.05,11.05,0,0,1,5.14,3.31,34.55,34.55,0,0,0,4.3,3.82l.67.53a18,18,0,0,0,5,3,2.14,2.14,0,0,1,.77.67l.35.41c.65.78,1.68,2.11,2.27,3a33.37,33.37,0,0,0,6.21,6.4l.94.75a19.75,19.75,0,0,1,1.72,1.43l.3.3A8.77,8.77,0,0,0,87,124.4a3.83,3.83,0,0,1,1,.75c.1.09.2.19.3.27.35.31.69.65,1,1a13.16,13.16,0,0,0,2.3,2c.47.29.93.6,1.4.91a18.58,18.58,0,0,0,4.87,2.58,1.07,1.07,0,0,1,.29.19l.16.12,1.4,1c1,.71,2,1.45,3.08,2.14a17.28,17.28,0,0,0,2.42,1.3l1.69.77a48.41,48.41,0,0,1,5.35,2.66,6.51,6.51,0,0,0,1.37.57l.09,0,.81.22a6.5,6.5,0,0,1,1,.31c1.24.52,2.52,1,3.75,1.51l.06,0,2.16.85a4,4,0,0,1,1.41.5c4.24,2.44,8.68,3.27,13.15,5.09,1.11.45,2.19.95,3.26,1.49h.09a31.42,31.42,0,0,0,7,1.1,36.1,36.1,0,0,0,4.68-.27l.63-.06a18.49,18.49,0,0,0,2.08-.37l.85-.17q.45-.09.9-.15a13.38,13.38,0,0,0,2-.44c1.25-.42,2.55-.78,3.81-1.13a46.87,46.87,0,0,0,6.72-2.24,3.3,3.3,0,0,1,.53-.17,3.64,3.64,0,0,0,.47-.14l.15-.05c2.33-.81,4.67-1.61,7-2.43l2.11-.75.09,0c1.45-.52,3-1.07,4.46-1.55l.27-.08a3,3,0,0,0,1.88-1.21l2.56.32L197,142c1.46.2,3.83.59,5.19.84a41.07,41.07,0,0,0,7.93.8,11.8,11.8,0,0,1,2.77.32c1.27.26,2.55.56,3.81.84,1.61.37,3.27.74,4.92,1.07a16,16,0,0,1,5.65,1.92c.65.42,1.27.88,1.74,1.23l1.7,1.29.06,0c1.57,1.18,3.2,2.41,4.75,3.67,1.23,1,2.45,2.07,3.66,3.13.85.74,1.7,1.48,2.56,2.21.56.47,1.12.9,1.68,1.33s1.24.95,1.82,1.45.86.78,1.24,1.14a20.18,20.18,0,0,0,3.18,2.57,3.62,3.62,0,0,1,.55.46l.38.35.31.26a9,9,0,0,0,1.07.83,1.56,1.56,0,0,0,.85.3,1,1,0,0,0,.24,0,1.55,1.55,0,0,0,1-.84,1.45,1.45,0,0,1,.41-.44l.4-.26,0,0c.82-.51,1.94-1.2,1.58-2.79ZM201.6,126.82a19.86,19.86,0,0,1,2.68-1.25,3.18,3.18,0,0,1,2.53.1c.47.22.92.45,1.4.7.79.39,1.61.81,2.44,1.16,1.09.46,2.21.87,3.34,1.29l1.46.53,1.56.59c1.11.42,2.22.83,3.32,1.26l1,.38.08,0c1,.38,2.06.77,3,1.22,1.33.62,2.44,1.15,3.32,1.59-1.37,0-2,.07-2.29.56a.82.82,0,0,0,.15.92l.85.87a.3.3,0,0,1-.07.49,1.36,1.36,0,0,1-1.2,0c-1.43-.53-2.94-1-4.42-1.44-.75-.23-1.5-.44-2.25-.65-1.18-.34-2.4-.68-3.58-1.09a82.36,82.36,0,0,1-13.45-6,3.74,3.74,0,0,1-.75-.66A4.63,4.63,0,0,1,201.6,126.82ZM48.86,19.16a4.62,4.62,0,0,1,.91-1c.3-.81,6.52.08,8.35-3.27.27-.5,1.64-.59,2-.44s3.1.74,4.33,1.11a9.41,9.41,0,0,0,2.13.47,4.09,4.09,0,0,1,3.62,4,3.11,3.11,0,0,0,.38,1.29l.75,1.42a5,5,0,0,1,.74,2c0,.31.08.62.13.94A6.46,6.46,0,0,1,72,29.21a1.27,1.27,0,0,0-.12.51,28.14,28.14,0,0,1-1,5.67l-.07.29c-.18.7-.51,1.84-.74,2.53l-.15.47a7,7,0,0,1-3.33,3.91,5.42,5.42,0,0,0-2.18,2.22,2.66,2.66,0,0,1-2.21,1.53,6.11,6.11,0,0,1-4.51-1.08,4.18,4.18,0,0,0-1.39-.67,17,17,0,0,1-4.08-1.71c-.58-.31-1.18-.62-1.79-.91A2.31,2.31,0,0,1,49,39.73c0-1.11-.12-2.22-.23-3.29l-.12-1.14c0-.4-.63-3.34-.74-4a17.22,17.22,0,0,1-.37-3.79,8.81,8.81,0,0,0-.09-2.11C46.66,23.17,47.54,21,48.86,19.16ZM87.36,121.6a1.55,1.55,0,0,1-.9-.28,36.24,36.24,0,0,1-7.41-6.09,33.64,33.64,0,0,1-3.48-4.58,10.06,10.06,0,0,0-4-3.51,22.15,22.15,0,0,1-8.27-6.69,8.81,8.81,0,0,0-3.83-3,24.12,24.12,0,0,1-7.6-5,14.39,14.39,0,0,1-1.39-1.59l-.57-.71c-.65-.77-1.3-1.52-2-2.31l-.32-.36,1.25,0,2,.1c1.15.06,2.46.13,3.72.14a3.46,3.46,0,0,0,1.66-.51,6.46,6.46,0,0,1,2.63-.94,4,4,0,0,0,.84-.24L60.1,86a.59.59,0,0,0,.34-.3.58.58,0,0,0,0-.45,1.39,1.39,0,0,0-1.88-1c-.33.11-.67.2-1,.29a8.25,8.25,0,0,0-2.42.92,2,2,0,0,1-1.08.24c-2.09-.07-4.14-.16-6.19-.35a5.82,5.82,0,0,1-1.4-.37c-.3-.1-.63-.22-1-.31a9.25,9.25,0,0,1-3.88-2.07,13.81,13.81,0,0,0-10-3.08,16.41,16.41,0,0,0-3,.54l-.85.2c-.63.14-1.24.3-1.86.46s-1.52.39-2.28.55a48.88,48.88,0,0,1-9.34,1,12.7,12.7,0,0,1-2-.19l-.33,0c-1.39-.21-2.88-.44-4.32-.7a29,29,0,0,1-2.9-.69,1.91,1.91,0,0,1-1.27-1,.75.75,0,0,0-.07-.12,4.17,4.17,0,0,1-.72-1.63s0-.09,0-.14a4.44,4.44,0,0,1,.26-3L3,74.45a24.28,24.28,0,0,1,2.67-6.27,18.1,18.1,0,0,1,4.39-4.77c.35-.26.9-.71,1.17-.94l.6-.49,1.82-1.53L15,59.29l.05,0c.88-.77,1.8-1.57,2.74-2.31,1.15-.92,2.41-1.78,3.61-2.57.62-.42,1.28-.82,1.91-1.21a29.93,29.93,0,0,0,3.59-2.45,38.65,38.65,0,0,1,3.76-2.65l0,0,1.52-1,1.47-1c1.89-1.28,3.85-2.6,5.74-4a11.73,11.73,0,0,0,1.46-1.29l.09-.06.63.46a.57.57,0,0,0,.57.09,1.25,1.25,0,0,0,.84-.8,1.35,1.35,0,0,0-.36-1.17,15.38,15.38,0,0,1-2.82-5.89,44.45,44.45,0,0,1-.78-5c-.1-.9-.15-1.83-.19-2.73,0-.46.44,1.29.46,1.35.13.44.14.71.51.74s.91-.38.85-3.05a31.79,31.79,0,0,0,.59,3.56c1.5,1.4.71-3.46.95-3.56,0,0,.64,4.12.65,4.32s.26,1.16.61,1.08a.56.56,0,0,0,.44-.51l.15-2.18A13.33,13.33,0,0,1,45,30.18l.38,1.31c.39,1.32.8,2.68,1.13,4a6.37,6.37,0,0,1,.1,1.41c0,.29,0,.57,0,.86,0,.76.11,1.52.16,2.28l.1,1.39a2.93,2.93,0,0,1-.85,2.2l-.49.56c-1.36,1.57-2.73,3.14-4.08,4.72l-3.58,4.23L35.1,56.46,32.91,59l-.09.11c-1.24,1.45-2.49,2.91-3.71,4.37a10.69,10.69,0,0,0-1.27,1.88A32.87,32.87,0,0,1,21.34,74a4.74,4.74,0,0,0-1.65,3.09.56.56,0,0,0,.15.44.53.53,0,0,0,.44.17,3.87,3.87,0,0,0,2.78-1.5c.93-1.08,1.83-2.14,2.64-3.29.61-.87,1.18-1.79,1.72-2.67.29-.46.57-.92.86-1.37s.56-.9.86-1.39a31,31,0,0,1,2.17-3.07c1.06-1.28,2.17-2.54,3.24-3.76.69-.78,1.38-1.55,2.06-2.34s1.43-1.71,2.27-2.79l1.72-2.24c.95-1.23,1.92-2.51,2.92-3.74.56-.69,1.19-1.36,1.8-2,.42-.45.84-.9,1.25-1.36.6-.68,1.18-1.38,1.79-2.13l.58-.69a7.8,7.8,0,0,1,.73.41c.48.3,1,.62,1.45,1C52,45.34,53,46,54,46.53a18.56,18.56,0,0,0,2.58,1.08l0,0c.35.13.7.25,1,.39l.27.08H58a5.86,5.86,0,0,0,4.78.6,5,5,0,0,0,3.26-2.19,14.14,14.14,0,0,1,1-1.4.57.57,0,0,1,.15-.09,5.9,5.9,0,0,0,3.19,1h.1c1.26.13,2.53.22,3.78.3l1.49.1.9.06A15.15,15.15,0,0,1,83,47.8a2.39,2.39,0,0,0,.77.21,2.3,2.3,0,0,1,.28.06l.57.16a12.06,12.06,0,0,1,1.47.46c1.06.45,2.13.92,3.2,1.39l2.49,1.09c.86.37,1.74.71,2.59,1l.6.23a23.48,23.48,0,0,1,5.26,3.2l.39.28c1.61,1.19,3.2,2.43,4.75,3.63l3,2.32a12.82,12.82,0,0,0,1.09.72c.33.2.64.39.94.6l2.28,1.74,0,0c1.2.92,2.43,1.86,3.68,2.75.65.45,1.27,1,1.88,1.46a18.82,18.82,0,0,0,3.57,2.5,2.5,2.5,0,0,1,.57.39,41.64,41.64,0,0,0,5.93,4.23c1,.6,2,1.22,2.91,1.87L133,79.38A70.81,70.81,0,0,1,141.84,86a21.39,21.39,0,0,0,3.72,2.6l.15.1a24.3,24.3,0,0,1,5.65,4.45A14.1,14.1,0,0,0,154.58,96a3.16,3.16,0,0,1,.66.58,4.73,4.73,0,0,0,.61.57h0a9.47,9.47,0,0,0,.92.64c.36.25.71.48,1,.74a14,14,0,0,1,1.81,1.78c.85,1,1.67,2.16,2.47,3.22l.71,1,.06.09a1.24,1.24,0,0,0-.85.15,1,1,0,0,0-.47.68,1.07,1.07,0,0,0,.09.59l-.47-.32a1.3,1.3,0,0,0-1.21.07.67.67,0,0,0-.3.41,1.28,1.28,0,0,0,.18.93q.39.55.81,1.11l.57.77a3.62,3.62,0,0,0-.83-.53,1.28,1.28,0,0,0-1.28.16,1.17,1.17,0,0,0-.14,1.19,1.55,1.55,0,0,0-1.94-.56.58.58,0,0,0-.33.48,3.62,3.62,0,0,0,.1.89,53.25,53.25,0,0,1-3.18-5.39l-.06-.09a.36.36,0,0,0-.08-.09,5.8,5.8,0,0,1-1.41-3.1c-.05-.2-.09-.4-.14-.59a11.73,11.73,0,0,0-1-2.47l-.19-.37a4.12,4.12,0,0,0-1.83-1.66c-1.39-.75-2.78-1.54-4.12-2.32l-1.89-1.08L140.33,92,138,90.68a2.89,2.89,0,0,1-.34-.22c-2.38-2.13-5.24-3.32-8.47-4.55L128,85.46l-.1,0c-.8-.3-1.63-.61-2.44-.93L124,83.9c-1.77-.71-3.6-1.44-5.36-2.25a27.24,27.24,0,0,1-2.55-1.38l-.94-.57-.8-.47c-1.74-1-3.6-2.16-5.47-3.35-1.28-.81-2.58-1.7-3.88-2.65-2.77-2-5.72-4.18-8.66-6.41C95.2,66,94.09,65,93,64.08l-.86-.73a4.33,4.33,0,0,0-.71-.5l-1.71-1-.28-.15a.67.67,0,0,0-.21-.07l-.2,0-.27-.06a.52.52,0,0,0-.26,0h-.07a.5.5,0,0,0-.28.11l-.21.18a.9.9,0,0,0-.34.6c0,.32.14.46.44.73a6.6,6.6,0,0,1,1.68,1.92l-.43,1a29.36,29.36,0,0,1-1.38,3,12.22,12.22,0,0,1-3.77,4.26,11.46,11.46,0,0,0-3.65,4.11.56.56,0,0,0,.09.64,1.37,1.37,0,0,0,1.08.53,1.29,1.29,0,0,0,.94-.65,8.27,8.27,0,0,1,.9-1l.19-.18a15.75,15.75,0,0,1,2.65-2.33,8.55,8.55,0,0,0,3.18-3.62c.44-1,1-1.92,1.5-2.91l0-.07.38-.69A14.75,14.75,0,0,1,93.15,69l1.19,1.43c1.38,1.66,2.8,3.37,4.32,5a34.89,34.89,0,0,0,3.07,2.77c.5.41,1,.83,1.48,1.26a44.86,44.86,0,0,0,6.93,4.83l.29.18a3.63,3.63,0,0,0,1,.51,17.36,17.36,0,0,1,3.29,1.51l.1.06a9.4,9.4,0,0,1,2,1.55l.27.29a1.21,1.21,0,0,1,0,.52q-.14.75-.3,1.5c-.14.65-.28,1.32-.37,2-.19,1.36-.33,2.77-.46,4l-.18,1.78v.08c-.07.59-.13,1.18-.21,1.76a2.18,2.18,0,0,1-1.42,1.71,3.24,3.24,0,0,0-2,3.18,5.24,5.24,0,0,1-.62,2.24c-.09.19-.17.38-.25.57a2,2,0,0,1-.6.63,5.3,5.3,0,0,0-.43.38,34.1,34.1,0,0,1-4.86,3.68l-1.08.73a11,11,0,0,1-2.84,1.33,23.32,23.32,0,0,0-6.8,3.76,10.72,10.72,0,0,1-1.9,1c-.33.15-.66.31-1,.48-.48.24-.87.43-1.25.59l-.66.28A24.26,24.26,0,0,1,87.36,121.6ZM150,101.92a2.57,2.57,0,0,1-.47-.26l-.26-.16c-1.15-.66-2.28-1.33-3.41-2l-1.71-1-1.35-.78-.08,0c-1-.56-2-1.14-2.94-1.76a11.52,11.52,0,0,1-1.31-1c-.36-.3-.73-.62-1.13-.9-1.11-.77-2.24-1.46-3.21-2-.75-.45-1.51-.88-2.28-1.32-1.08-.63-2.31-1.33-3.46-2A18,18,0,0,0,124,86.72c-1.41-.46-3.67-1.13-5-1.5a37.31,37.31,0,0,1-7.15-2.81l-1-.49A28.68,28.68,0,0,1,107.27,80c-1.07-.71-2.09-1.51-2.86-2.14-.6-.48-1.19-1-1.8-1.55-.24-.22-.48-.44-.73-.65a60.59,60.59,0,0,1-6.37-6.94l-.29-.38.61.44,4,3c2.22,1.65,4.52,3.36,6.83,5,1.15.83,2.37,1.58,3.55,2.31l.06,0,1.42.88,1,.66c1,.62,2,1.27,3,1.86a45,45,0,0,0,6.55,3.09c1,.4,2.13.79,3.19,1.16a48.61,48.61,0,0,1,8,3.4c.9.51,1.79,1.06,2.66,1.6s1.67,1,2.54,1.54c1.42.82,2.89,1.63,4.31,2.42l.22.12L145.25,97l.7.39c.74.41,1.51.83,2.22,1.29a2.48,2.48,0,0,1,.83.91c.35.69.63,1.38.92,2.12Zm-46.32,30.8a1.25,1.25,0,0,1-.4-.06l-.11,0-.09-.08a25.33,25.33,0,0,0-5.9-3.59c-1.07-.53-2.18-1.07-3.21-1.69a16,16,0,0,1-4.33-3.68,1.22,1.22,0,0,1-.18-.29.78.78,0,0,1,.29-.19c.6-.29,1.25-.57,1.85-.82s1.21-.51,1.81-.8l.44-.21a9.37,9.37,0,0,0,2.41-1.45,8,8,0,0,1,3-1.52l.91-.31a13.08,13.08,0,0,0,2.4-1.08c1.69-1.05,3.43-2.19,5.18-3.4.75-.53,1.46-1.12,2.15-1.69l.63-.52c.29-.24.57-.49.85-.74l.43-.39a8.78,8.78,0,0,0,2.41-4.45c.25-.87.51-1.77,1.27-2.14,2.28-1.13,2.72-3.19,3-5.2.12-1,.18-2,.24-2.91h0c.06-.94.11-1.92.24-2.87a22.7,22.7,0,0,1,.79-3.36l.08-.25c.16-.56.36-.66.7-.66a2.6,2.6,0,0,1,.42,0,22.74,22.74,0,0,1,7.39,2.86c1.41.83,2.79,1.65,4.15,2.49.34.22.66.47,1,.73l.42.32a.8.8,0,0,1,.31.91.76.76,0,0,0,0,.15c0,.51.05,1,.07,1.55.07,1.23.13,2.51.15,3.76a14.62,14.62,0,0,1-.15,2l-.05.44c-.07.68-.16,1.37-.25,2a36.73,36.73,0,0,0-.46,7.29,14.45,14.45,0,0,0,.26,1.85l.06.33c.07.37.13.74.19,1.11s.18,1,.29,1.52a10.5,10.5,0,0,1,.34,3c-.11,1.29-2,3-2.25,3.07l-.59.08a21.09,21.09,0,0,1-2.51.23,19.81,19.81,0,0,0-4.39.67c-.49.12-1,.23-1.48.33a11.64,11.64,0,0,0-1.35.37c-.3.09-.6.18-.91.25a29.49,29.49,0,0,0-4.7,1.73l-1.28.55-1.88.78q-1.65.67-3.3,1.38c-.56.24-1.12.5-1.68.76l-.06,0c-.69.32-1.41.65-2.13.95A24,24,0,0,1,103.69,132.72Zm76.67,7.52-2.72,1,0,0c-2.15.82-4.38,1.67-6.59,2.44-2.69.93-5.43,1.79-8.08,2.63l-.21.07-2.44.77c-1,.31-2.51.71-3.45.89l-1.56.31a46.7,46.7,0,0,1-6.52,1,29.89,29.89,0,0,1-14-2.64c-.83-.37-1.69-.7-2.54-1a26.16,26.16,0,0,1-3.6-1.54A81.07,81.07,0,0,0,118,139.7l-1.2-.44a67,67,0,0,1-7.36-3.46l-.18-.09-1.92-1a2.25,2.25,0,0,1-.51-.37c1.51-.7,3-1.38,4.59-2.08L112,132l4.11-1.84a50.59,50.59,0,0,1,11.84-3.58,4.54,4.54,0,0,1,1.22,0,6.77,6.77,0,0,0,2.07-.06h.08l.44,0a6.83,6.83,0,0,0,3.42-1.28.72.72,0,0,1,.82-.1c2,.72,4.11,1.46,6.68,2.35l5.26,1.79.23.08,5.94,2c.6.21,1.18.43,1.75.65s1.26.48,1.92.71l1.31.44c2,.68,4.05,1.38,6.12,2,2.46.72,5,1.4,7.39,2.06l.07,0,4.19,1.15c1.38.39,2.76.79,4.13,1.2l.69.2ZM253.23,161a10.32,10.32,0,0,1-1.06.51c-.1,0-.21,0-.46-.1a1.3,1.3,0,0,0-1.65.24h0a.54.54,0,0,0-.15.38,3.36,3.36,0,0,0,.59,1.74,8,8,0,0,1-1.54-1.16,50,50,0,0,0-6.17-5.22,30,30,0,0,1-4.22-3.58,46.43,46.43,0,0,0-6.24-5.11c-.75-.54-1.52-1.1-2.28-1.67a18.57,18.57,0,0,0-8.34-3.53c-1.88-.32-3.77-.77-5.62-1.21-1-.25-2.05-.49-3.07-.72a9,9,0,0,0-1.87-.25h-.35a27.17,27.17,0,0,1-8.81-.78,40.08,40.08,0,0,0-5.45-.87h-.07l-1.8-.22-2.07-.26c-2.89-.37-5.89-.75-8.81-1.29a43.47,43.47,0,0,1-4.82-1.3c-.73-.22-1.45-.45-2.18-.66l-1.25-.36c-1-.3-2.14-.62-3.22-.89s-1.91-.47-2.84-.69c-1.68-.39-3.42-.79-5.08-1.31-2.91-.93-5.84-2-8.68-3l-4.48-1.55-2.78-.92c-1.37-.44-2.79-.89-4.15-1.39-1.53-.56-3.06-1.18-4.54-1.78l-.13-.05c-.82-.34-1.64-.67-2.47-1-.28-.11-.27-.15-.21-.3a7.19,7.19,0,0,0,.13-3.53l0-.25c-.12-.9-.28-1.81-.43-2.61a26.29,26.29,0,0,1-.57-4.61,40.88,40.88,0,0,1,.61-7.23,22.77,22.77,0,0,0,.07-6.78c0-.1,0-.21,0-.32a2,2,0,0,1,0-.77c.29.13.56.25.81.39l1.07.59c1.49.83,3,1.69,4.52,2.56,1.06.63,2.11,1.29,3.12,1.92l.06,0c.73.46,1.46.92,2.2,1.36.32.2.65.37,1,.54s.61.32.9.49a1.93,1.93,0,0,1,.61.54c.71,1.06,1.54,2.32,2.31,3.6a37,37,0,0,0,4.94,6.92c.39.4.82.77,1.23,1.13.19.16.39.33.57.5a.55.55,0,0,0,.44.13.54.54,0,0,0,.4-.23,1.8,1.8,0,0,0,.44-1.52c.22.24.49.57.87,1.05a12.83,12.83,0,0,0,1.4,1.45l.25.23a2,2,0,0,0,.87.47,1.18,1.18,0,0,0,1.22-.28,1.08,1.08,0,0,0,.16-1.16v0a5.58,5.58,0,0,0,1.34.89.54.54,0,0,0,.57-.09,2.07,2.07,0,0,0,.24-2.87,2.26,2.26,0,0,1-.32-.86,5.24,5.24,0,0,1-.05-.53c.24.12.53.29.69.39a3.77,3.77,0,0,0,.69.37,7.89,7.89,0,0,1,.91.4l.16.08c.78.38,1.56.78,2.35,1.18,1.73.88,3.52,1.8,5.36,2.52,1.08.42,2.14.9,3.18,1.38a39.56,39.56,0,0,0,5.19,2.08,27.86,27.86,0,0,1,5.12,2.25,29.5,29.5,0,0,1,2.86,1.83c.49.34,1,.67,1.46,1a52.68,52.68,0,0,0,10,5.27c.91.35,1.83.76,2.74,1.17.61.27,1.21.55,1.83.8a60.45,60.45,0,0,0,9,3c.85.21,1.7.51,2.52.8.61.22,1.3.46,2,.66,2.79.81,5.56,1.57,8.14,2.26,1.1.3,2.21.58,3.32.87h.06l3.71,1a19.09,19.09,0,0,1,2.44.89,1.75,1.75,0,0,1,.42.38l.09.11a17.36,17.36,0,0,1,3.24,5.06,23.19,23.19,0,0,0,6,8.29,12.34,12.34,0,0,1,1.8,2.34l.45.67Z"/><path class="cls-1" d="M106,107.27h.13a1.36,1.36,0,0,0,.72-.27l.07,0a.57.57,0,0,0,.32-.52,2.82,2.82,0,0,0-1.29-1.87,2,2,0,0,0-1.58-.48,1.14,1.14,0,0,0-.8.7.94.94,0,0,0,.15.88A3.48,3.48,0,0,0,106,107.27Z"/><path class="cls-1" d="M51.32,82.59h.16a2.09,2.09,0,0,1,.25,0,.57.57,0,0,0,.42-.15.55.55,0,0,0,.18-.41,1.88,1.88,0,0,0-.55-1.54,1,1,0,0,0-.83-.16h0A1.31,1.31,0,0,0,50,81.48,1.12,1.12,0,0,0,51.32,82.59Z"/><path class="cls-1" d="M83,70.28a4.33,4.33,0,0,0,.58.43.55.55,0,0,0,.28.07.73.73,0,0,0,.46-.19c.13-.11.52-.45.35-.88a1.58,1.58,0,0,0-.64-.78.87.87,0,0,0-.85.09l-.27.12a.6.6,0,0,0-.35.44.62.62,0,0,0,.21.53Z"/><path class="cls-1" d="M58.89,22.08a.45.45,0,0,0,.44-.45c0-.74-.33-.31-1.17-.53a11.11,11.11,0,0,0-4.09-.16,12.84,12.84,0,0,0-1.88.43l-.22.07c-1.13.32-1.56.22-1.4,1.36a.56.56,0,0,0,.27.41.5.5,0,0,0,.5,0C52.73,22.43,57.47,22.15,58.89,22.08Z"/><path class="cls-1" d="M59,22.64a.4.4,0,0,1,.46.46l-.06.36-.07.41a.58.58,0,0,1-.44.46l-.22.05a10.79,10.79,0,0,1-1.36.18c-.47,0-.06,0-.07.52a2.42,2.42,0,0,1-1.27,1.73,1.57,1.57,0,0,1-.68.15,2.7,2.7,0,0,1-1-.23,1.45,1.45,0,0,1-1-1.22,1.56,1.56,0,0,1,.21-.65l-1,.1a.54.54,0,0,1-.43-.25.52.52,0,0,1-.07-.49C52.08,23.75,57.26,22.91,59,22.64Z"/><path class="cls-1" d="M61.07,34l0,.14a1.59,1.59,0,0,0,.35.78.57.57,0,0,0,.44.17H62a.94.94,0,0,0,.68-.35l.12-.17a4.3,4.3,0,0,0,1.1-3.35L62.48,23A.51.51,0,0,0,62,22.6l-.28,0a.44.44,0,0,0-.35.14.63.63,0,0,0-.16.38,4.32,4.32,0,0,1,0,.5,7.15,7.15,0,0,0,0,1.23c.08.71.18,1.43.27,2.14s.19,1.37.26,2.06c0,.16,0,.32.05.49v.06c.16,1.36.31,2.66-.53,3.74A.77.77,0,0,0,61.07,34Z"/><path class="cls-1" d="M59,32.55v0h-.15a.5.5,0,0,0-.41.15.57.57,0,0,0-.18.39.62.62,0,0,1,0,.12,1,1,0,0,0,.12.75,5,5,0,0,0,.59.64l.31.3a.54.54,0,0,0,.4.17h.1a.55.55,0,0,0,.41-.34c.4-.94.26-1.63-.41-2A1.15,1.15,0,0,0,59,32.55Z"/><path class="cls-1" d="M69.27,21c.67-.44-4.12-1.42-5.64-.59-.34.19-.72.16-.52.65C63.2,21.31,69,21.18,69.27,21Z"/><path class="cls-1" d="M68.77,21.71a1,1,0,0,1,.87.58c.2.44.25.69.11.89a.63.63,0,0,1-.35.26,2.73,2.73,0,0,1-1.59.07,1.37,1.37,0,0,1,.06,1.54,1.35,1.35,0,0,1-1.62.6,1.42,1.42,0,0,1-1.15-1.32c0-.34,0-.5.52-.82,0,0-1,0-1.32-.06s-.92-.37-.94-.84C63.3,21.58,67.24,21.65,68.77,21.71Z"/><path class="cls-1" d="M58,40.25a2.82,2.82,0,0,1-.76-.92c-.08-.16,1.1-1.1,1.56-1.3,1.78-.8,2.16.2,3.23-.3a3.1,3.1,0,0,1,3.7.48,3.76,3.76,0,0,1-3.21,2.6C61.21,41,58.8,40.85,58,40.25Zm7-1.31"/></svg>