<svg id="Layer_1" data-name="Layer 1" xmlns="http://www.w3.org/2000/svg" viewBox="0 0 46 26"><defs><style>.cls-1{fill:#293b5c;}</style></defs><path class="cls-1" d="M9.9,10.71l.94.42c.45.8.86,1.57,1.32,2.31.08.13.42.11.63.13h1a7.05,7.05,0,0,0-1.49-3,6.58,6.58,0,0,1-.6-.92c-.29-.6-.1-.85.39-.85a6.49,6.49,0,0,1,.71.8c.26.41.45.86.68,1.29.41.78.81,1.57,1.26,2.32a.77.77,0,0,0,.6.3c.58-.09,1.14-.27,1.72-.42A12,12,0,0,0,14.2,9.83a2.74,2.74,0,0,1-.57-.66c-.1-.17-.13-.54,0-.61a1,1,0,0,1,.68-.08c.16,0,.3.24.42.39,1,1.19,2,2.39,3,3.57a.62.62,0,0,0,.55.14c.56-.22,1.09-.5,1.62-.75-.59-1.26-1.09-2.46-1.72-3.6A5.23,5.23,0,0,0,17,7.05c-.24-.22-.54-.4-.76-.64-.07-.08,0-.31,0-.47a2.09,2.09,0,0,1,.49.08,2.73,2.73,0,0,1,.45.23l.12-.14,3.37,5.15.21-.07a2,2,0,0,0-.14-.79c-.56-.86-1.18-1.69-1.78-2.53a5.11,5.11,0,0,1-.5-.65,1.86,1.86,0,0,1-.16-.74c0-.06.24-.23.29-.2a1.8,1.8,0,0,1,.54.44,24.68,24.68,0,0,0,2.69,3.75l.72-.48a20,20,0,0,0-2.06-4.76.83.83,0,0,1,0-.62c0-.11.36-.26.41-.22a2,2,0,0,1,.67.73,8.9,8.9,0,0,0,1.17,2.59,3.83,3.83,0,0,1,.42.89c.11.26.21.53.31.8h.24c0-.19.15-.42.09-.58C23.33,7.6,23.08,6.27,22,5.34c-.17-.15-.46-.4-.07-.68a.52.52,0,0,1,.84.18c.44.89.81,1.8,1.24,2.7.18.38.42.74.68,1.17l.86-.5C25.22,7,24.9,5.88,24.48,4.77a7.33,7.33,0,0,0-1-1.59c-.21-.31-.28-.56,0-.84s.55-.08.76.14.32.38.42.5c.21-.14.44-.4.65-.4s.46.26.6.46c.53.73,1,1.48,1.52,2.23a6.3,6.3,0,0,1,.55,1c.31.66.3.66,1.07.31a9.74,9.74,0,0,0-.44-2c-.43-.92-1.06-1.76-1.56-2.66a.93.93,0,0,1,0-.78c.17-.21.4,0,.66.14.53.31.51.77.64,1.24A10.51,10.51,0,0,0,29,4c.17.35.57.59.43,1.1-.06.2.23.48.35.72l.29.62c.78-.08,1.58-.15,2.37-.26a.51.51,0,0,0,.32-.38,4.2,4.2,0,0,0-1.21-3.19.89.89,0,0,1-.29-.43,4,4,0,0,1,0-.69c.19.07.43.09.55.23A7.12,7.12,0,0,1,33.57,5.8a2.3,2.3,0,0,0,.07.3C33.77,6,34,6,34,5.9a3.59,3.59,0,0,0-.31-2.23c-.25-.41-.4-.89-.65-1.3s0-.53.28-.61c.08,0,.3.23.36.39.16.43.25.89.42,1.33,0,.13.24.21.37.31A3.46,3.46,0,0,1,38.6,2.4a7.81,7.81,0,0,1,1.53.86,8.85,8.85,0,0,1,3.3,3.13,1.74,1.74,0,0,1,.42,1.4,3.14,3.14,0,0,1-.48.85c.2.14.56.3.55.42,0,.31-.09.71-.57.73-.13,0-.34,0-.39.06s-.37.51-.3.67a1.69,1.69,0,0,1-.8,2.29,7.48,7.48,0,0,1-3.8.85A2.79,2.79,0,0,1,36,11.92C35.6,11,35.22,10,34.84,9.09c0-.08-.11-.14-.22-.27a2.49,2.49,0,0,0-.15.43,7.9,7.9,0,0,0,0,3.65c.07.25.19.64-.27.69s-.59-.16-.59-.57c0-.11-.11-.22-.18-.36l-.27.42c-.51-.3-.85-.54-.36-1.19.22-.28,0-.87,0-1.32-.06-1.05-.14-2.11-.22-3.23l-.85.07c.54.93.17,1.85.21,2.74s0,1.51.08,2.26c0,.55-.11.68-.63.67-.17,0-.34.28-.62.52-.37,0-.4-.41-.33-.79a7.5,7.5,0,0,0-.4-4c-.34-1.06-.76-1.25-1.8-.81-.45.19-.89.42-1.23.58l.88,5.27-.49.8a.77.77,0,0,1-.46-1,6.35,6.35,0,0,0-.14-3c-.14-.55-.37-1.07-.58-1.65l-.74.41c0,.76.05,1.43.13,2.1.1,1,.29,1.89.37,2.83,0,.28-.25.57-.39.88-.46-.07-.51-.39-.54-.76-.09-1.3-.2-2.59-.32-3.89a1.06,1.06,0,0,0-.23-.54,22,22,0,0,0-.1,5.85l-.52.75c-.38-.09-.47-.39-.4-.81a17.46,17.46,0,0,0,.13-4.68.94.94,0,0,0-.06-.28,1.21,1.21,0,0,0-.14-.2l-.76.4a1.06,1.06,0,0,0-.48.73,4.84,4.84,0,0,0,0,2.27,13.12,13.12,0,0,1,0,2.17,4.09,4.09,0,0,0,.07.6c0,.18.16.43.09.51s-.47.34-.58.28a.94.94,0,0,1-.4-.63c0-.67.11-1.33.11-2,0-1-.08-1.94-.12-2.91l-.21-.05c-.15.23-.4.44-.45.69a10.19,10.19,0,0,0-.08,3A20.53,20.53,0,0,1,20.9,18c0,.27-.34.76-.55.77s-.48-.35-.44-.75c.12-1.3.23-2.59.33-3.89,0-.39,0-.78,0-1.2a5,5,0,0,0-1.44.71,2.29,2.29,0,0,0-.58,1.77c0,.78,0,1.56,0,2.34a3.34,3.34,0,0,0,.32.9,6,6,0,0,0-.36.5c-.17.28-.35.32-.52,0a1.23,1.23,0,0,1-.18-.61c.07-1.23.18-2.45.25-3.68a4.74,4.74,0,0,0-.14-.84l-2,.57c0,.27,0,.57,0,.86,0,.81.06,1.61.11,2.41a.75.75,0,0,0,.15.37c.26.38.3.62-.33.5l.06.52c-.63-.05-.73-.23-.69-.84a12.73,12.73,0,0,0,.06-2.39c-.14-1.3-.41-1.51-2-1.34a1.29,1.29,0,0,1,.36,1.51,2.66,2.66,0,0,0,.45,2.37l-.38.31-.32.29c-.14-.18-.39-.36-.39-.54a8,8,0,0,0-.47-3.73,2.58,2.58,0,0,1-.09-.32l-1.8.44c-.27.56.1,1.35-.64,1.7-.08-.08-.13-.11-.12-.14.23-1.25-.94-1.36-1.58-1.84a9,9,0,0,0-5.14-1.26,1.82,1.82,0,0,0,.23.39,11.54,11.54,0,0,0,3.12,2.48,8.32,8.32,0,0,1,.93.5.44.44,0,0,1,.22.25,6.7,6.7,0,0,1-.49,4.09c-.23.57-.44,1.14-.68,1.78a3.69,3.69,0,0,0,2-1.61,28.81,28.81,0,0,0,1.91-2.59,3.57,3.57,0,0,0,.38-2.25,1.09,1.09,0,0,1,.2-.56,6.65,6.65,0,0,1,.41-.62c.06-.08.16-.21.22-.21s.18.13.27.22.22.24.33.36c-.14.7-.63,1.4-.09,2.19-.81,1.26-1.56,2.58-2.46,3.79A6.39,6.39,0,0,1,6,24.4c-.17,0-.36.16-.51.12a1.49,1.49,0,0,1-.66-.4.69.69,0,0,1,0-.56C5.39,22.1,6,20.67,6.52,19.2c.33-.94,0-1.49-.89-2A7.55,7.55,0,0,1,3.08,15c-.28-.39-.72-.66-1-1-.58-.72-.37-1.18.53-1.32a8,8,0,0,1,6,1.39.86.86,0,0,0,.43.17c.65-.09,1.3-.18,1.94-.33s.62-.32.29-.84-.78-1.06-1.15-1.6a5,5,0,0,1-.3-.56Zm32.15.68-.14-.22c-.21,0-.48.08-.62,0a3.2,3.2,0,0,1-.81-.79c-.08-.11,0-.44.13-.56.57-.56,1.19-1.08,1.77-1.64.22-.21.62-.47.32-.83-.78-.91-1.15-2.16-2.32-2.74-.54-.27-1.09-.53-1.63-.81A2.55,2.55,0,0,0,35.82,4c-1,.77-.51,1.94-.75,2.91a.35.35,0,0,0,0,.2c.5.85.56,1.88,1.2,2.69a3.58,3.58,0,0,1,.43,1.41,2.08,2.08,0,0,0,1.63,1.47A5.63,5.63,0,0,0,41.43,12C41.68,11.89,41.85,11.6,42.05,11.39ZM26.5,7.73c1.17-.55,1.18-.55.61-1.57-.37-.65-.72-1.31-1.15-1.92a7.52,7.52,0,0,0-1.08-1c-.11.29-.24.45-.2.54C25.27,5.1,25.88,6.4,26.5,7.73Zm4.85,4.52c.07-1.22.14-2.4.18-3.58,0-.79-.63-1.31-1.13-1C30.72,9.16,31,10.66,31.35,12.25Zm2.11-5V9.78c.6-.53-.23-1.6.95-1.79l-.19-.77Z"/><path class="cls-1" d="M5.55,24.84l-.16,0a1.7,1.7,0,0,1-.81-.5c-.25-.29-.06-.81,0-.87.21-.54.42-1.07.64-1.61.35-.89.73-1.82,1.05-2.75.25-.73.06-1.15-.75-1.59a7.77,7.77,0,0,1-2.65-2.3,3.42,3.42,0,0,0-.5-.51,4.26,4.26,0,0,1-.52-.52A1.22,1.22,0,0,1,1.46,13a1.24,1.24,0,0,1,1.07-.65,8.41,8.41,0,0,1,6.2,1.44A1.34,1.34,0,0,0,9,13.9c.55-.08,1.25-.17,1.89-.33a.93.93,0,0,0,.27-.09,2.81,2.81,0,0,1-.16-.27c-.21-.32-.44-.62-.67-.93s-.33-.43-.48-.66a2.22,2.22,0,0,1-.23-.43L9.48,11a.3.3,0,0,1,0-.33l.14-.18a.31.31,0,0,1,.37-.09l.94.43a.25.25,0,0,1,.14.13l.34.6c.31.57.61,1.12,1,1.65l.28,0h.74a7.3,7.3,0,0,0-1.36-2.52L12,10.66a5.76,5.76,0,0,1-.57-.88,1,1,0,0,1-.08-1,.85.85,0,0,1,.75-.34.36.36,0,0,1,.23.11l.28.29a3.93,3.93,0,0,1,.47.55c.17.28.31.57.45.86l.24.46.25.48c.32.6.65,1.23,1,1.82,0,.06.22.17.29.15a11.3,11.3,0,0,0,1.19-.28l.11,0a10,10,0,0,0-2-2.23c-.22-.2-.44-.39-.65-.6a3.27,3.27,0,0,1-.63-.73c-.1-.19-.24-.79.06-1a1.23,1.23,0,0,1,.93-.14,1,1,0,0,1,.52.41l1,1.18c.7.83,1.4,1.66,2.11,2.47a.35.35,0,0,0,.2,0c.39-.15.78-.34,1.16-.52l.16-.08c-.13-.27-.25-.53-.37-.8-.4-.88-.77-1.7-1.21-2.5a3.05,3.05,0,0,0-.75-.78c-.12-.1-.25-.21-.36-.32L16.5,7A4.65,4.65,0,0,1,16,6.62.61.61,0,0,1,16,6l0-.13a.3.3,0,0,1,.11-.22.35.35,0,0,1,.24-.06h.14a2.12,2.12,0,0,1,.41.08,1.3,1.3,0,0,1,.29.14.37.37,0,0,1,.21-.06.35.35,0,0,1,.24.14l.42.65V6.5c0-.16.09-.31.3-.44a.46.46,0,0,1,.46,0,2,2,0,0,1,.64.53c.27.39.52.79.78,1.19a14.71,14.71,0,0,0,1.69,2.33l.31-.2a19.26,19.26,0,0,0-2-4.47,1.13,1.13,0,0,1-.07-.88c.09-.28.47-.4.52-.41a.4.4,0,0,1,.39.05,5.41,5.41,0,0,1,.49.44.7.7,0,0,1,.2-.18.9.9,0,0,1,.76-.18.83.83,0,0,1,.54.47c.25.5.48,1,.71,1.52s.35.79.53,1.18.27.49.42.75l.09.13.38-.21c-.09-.27-.17-.53-.25-.8-.25-.83-.49-1.61-.79-2.38a6.07,6.07,0,0,0-.82-1.37l-.11-.16a.87.87,0,0,1,0-1.24.74.74,0,0,1,.52-.24h0a1.05,1.05,0,0,1,.68.38l.24.28a1.06,1.06,0,0,1,.61-.27,1.29,1.29,0,0,1,.85.59c.55.76,1.08,1.56,1.52,2.24a7.16,7.16,0,0,1,.58,1,1.82,1.82,0,0,0,.2.39l.22-.12L28.64,6a4.58,4.58,0,0,0-.31-1.3,15.48,15.48,0,0,0-.89-1.56c-.22-.36-.45-.71-.65-1.08a1.17,1.17,0,0,1,0-1.12c.32-.41.76-.13,1,0l.1.06a1.52,1.52,0,0,1,.72,1.16,2.68,2.68,0,0,0,.07.27,4.18,4.18,0,0,0,.43.95l.25.47a1.4,1.4,0,0,0,.15.24,1.17,1.17,0,0,1,.29,1.09,1.49,1.49,0,0,1,.15.21,2.2,2.2,0,0,1,.18.28c.07.13.13.26.2.41v0l.37,0c.58-.06,1.18-.12,1.77-.2,0,0,0-.08.06-.11a3.91,3.91,0,0,0-1.11-2.91A1.08,1.08,0,0,1,31,2.21a2.13,2.13,0,0,1,0-.56V1.46a.33.33,0,0,1,.14-.26.3.3,0,0,1,.29,0l.16.05a1,1,0,0,1,.52.26,6.55,6.55,0,0,1,.52.66.69.69,0,0,1,0-.25.81.81,0,0,1,.55-.43c.36-.11.68.42.74.58s.15.45.22.68.12.43.2.64h0A3.76,3.76,0,0,1,38.68,2.1a3.71,3.71,0,0,1,1.1.57,5.19,5.19,0,0,0,.5.31A9.16,9.16,0,0,1,43.7,6.22a2,2,0,0,1,.46,1.65,2.12,2.12,0,0,1-.35.67c.23.14.45.29.43.55q-.09,1-.87,1h-.21a1.19,1.19,0,0,0-.2.35,2,2,0,0,1-1,2.63l-.12.05A7.38,7.38,0,0,1,38,14,3.1,3.1,0,0,1,35.66,12c-.28-.76-.58-1.51-.88-2.26l-.06-.15a7,7,0,0,0,0,3.19,1,1,0,0,1,0,.82.68.68,0,0,1-.52.27.8.8,0,0,1-.66-.18.77.77,0,0,1-.23-.38.34.34,0,0,1-.34,0,1.73,1.73,0,0,1-.65-.55.8.8,0,0,1-.18.37,1,1,0,0,1-.75.23,1.51,1.51,0,0,1-.14.17,2.38,2.38,0,0,1-.28.26.27.27,0,0,1-.22.08.65.65,0,0,1-.5-.26,1.08,1.08,0,0,1-.11-.9A7.49,7.49,0,0,0,29.76,9c-.15-.45-.3-.7-.47-.78s-.47,0-.92.16-.62.28-.89.41l-.11.06.84,5a.34.34,0,0,1,0,.22l-.49.79a.31.31,0,0,1-.4.12,1.08,1.08,0,0,1-.64-1.34,6,6,0,0,0-.13-2.82c-.1-.36-.23-.71-.37-1.08l-.08-.2-.25.14,0,.5c0,.48,0,.94.09,1.39s.1.78.16,1.17.17,1.11.21,1.67a1.36,1.36,0,0,1-.27.77c-.05.09-.11.18-.15.27a.3.3,0,0,1-.33.17,1,1,0,0,1-.8-1c-.05-.68-.1-1.35-.16-2a19.8,19.8,0,0,0,.13,3.38.31.31,0,0,1,0,.21l-.52.76a.33.33,0,0,1-.33.12c-.3-.07-.78-.32-.64-1.16a17.2,17.2,0,0,0,.13-4.59s0-.07,0-.11l-.49.26c-.17.1-.23.22-.33.55a4.19,4.19,0,0,0,0,1.93l0,.2a6.93,6.93,0,0,1,0,1.51c0,.24,0,.47,0,.71a1.73,1.73,0,0,0,.05.45v.1c0,.05,0,.1,0,.16s.14.43,0,.61-.64.54-1,.34a1.41,1.41,0,0,1-.42-.45c0,.16,0,.32,0,.48,0,.42-.44,1.06-.85,1.09a.65.65,0,0,1-.53-.19,1.18,1.18,0,0,1-.25-.9c.13-1.29.24-2.59.33-3.88a5.61,5.61,0,0,0,0-.71l-.08,0a2.45,2.45,0,0,0-.84.43,2.12,2.12,0,0,0-.48,1.54c0,.34,0,.68,0,1s0,.88,0,1.31a1.75,1.75,0,0,0,.17.52,1.48,1.48,0,0,1,.12.29.3.3,0,0,1,0,.29l-.11.14a4.15,4.15,0,0,0-.24.34.65.65,0,0,1-.54.38h0a.59.59,0,0,1-.51-.36,1.44,1.44,0,0,1-.22-.78c0-.61.08-1.23.12-1.85s.09-1.22.13-1.83a2,2,0,0,0-.07-.43l-1.49.44a5.8,5.8,0,0,0,0,.59c0,.8.07,1.6.11,2.4a.64.64,0,0,0,.09.21c.11.15.36.51.17.81a.52.52,0,0,1-.4.21l0,.15a.29.29,0,0,1-.09.25.33.33,0,0,1-.25.1c-.88-.08-1-.49-1-1.18v-.1a12.92,12.92,0,0,0,0-2.24c-.06-.58-.15-.86-.3-1a1.17,1.17,0,0,0-.74-.13,1.85,1.85,0,0,1,0,1.33,2.35,2.35,0,0,0,.41,2.1.31.31,0,0,1-.06.43l-.12.1-.26.21-.21.19-.11.09a.3.3,0,0,1-.24.08.31.31,0,0,1-.22-.12.81.81,0,0,0-.12-.14.87.87,0,0,1-.32-.6v-.2a9.41,9.41,0,0,0-.19-2.67v0c0,.18-.1.37-.16.56a1.43,1.43,0,0,0,0,1.39.34.34,0,0,1,0,.35c-.25.38-.49.77-.73,1.15-.55.89-1.11,1.81-1.75,2.66A6.67,6.67,0,0,1,6.08,24.7L6,24.75A1.24,1.24,0,0,1,5.55,24.84Zm-1.64-12A8,8,0,0,0,2.63,13c-.38.06-.55.17-.58.25s0,.2.25.57a3.82,3.82,0,0,0,.45.45,4.13,4.13,0,0,1,.58.6A7.29,7.29,0,0,0,5.78,17a1.74,1.74,0,0,1,1,2.35c-.33.94-.7,1.87-1.06,2.78-.21.53-.43,1.06-.63,1.59a.75.75,0,0,0,0,.29,1.36,1.36,0,0,0,.49.26l.16-.06a1.27,1.27,0,0,1,.18-.06,6.17,6.17,0,0,0,3.16-2.56c.62-.83,1.18-1.73,1.72-2.6l.62-1a2.09,2.09,0,0,1,0-1.77c0-.11.07-.22.1-.33a2.39,2.39,0,0,0-.22-.23l0,0a4.64,4.64,0,0,0-.38.56,1.14,1.14,0,0,0-.16.39A3.85,3.85,0,0,1,10.32,19a29,29,0,0,1-1.93,2.63l-.22.27a3.52,3.52,0,0,1-1.92,1.44.32.32,0,0,1-.31-.1.31.31,0,0,1-.06-.32l.22-.6c.16-.41.3-.8.46-1.19A6.32,6.32,0,0,0,7,17.21L7,17.16a8.28,8.28,0,0,0-.9-.49A10.75,10.75,0,0,1,3,14.28l-.15-.14a1,1,0,0,1-.22-.35l-.06-.12a.31.31,0,0,1,.24-.47,9.49,9.49,0,0,1,5.36,1.32,3.43,3.43,0,0,0,.51.3A1.83,1.83,0,0,1,9.86,16q0-.12,0-.27a1.88,1.88,0,0,1,.15-.79.3.3,0,0,1,.21-.17l1.8-.44a.31.31,0,0,1,.37.22l.05.17s0,.08,0,.1A5.62,5.62,0,0,1,13,16.47l.06-.31c.16-.6.09-.91-.25-1.19a.3.3,0,0,1-.1-.33.31.31,0,0,1,.27-.22,2.41,2.41,0,0,1,1.79.21,2,2,0,0,1,.52,1.4,12.38,12.38,0,0,1-.05,2.36v.1a.9.9,0,0,0,0,.38v-.06a.28.28,0,0,1,.1-.26.3.3,0,0,1,.27-.08h0a1,1,0,0,1-.2-.53c0-.8-.08-1.61-.12-2.41v-.88a.31.31,0,0,1,.23-.3l2.05-.57a.32.32,0,0,1,.39.25l.06.27,0,.14a2.29,2.29,0,0,1,.56-1,3.1,3.1,0,0,1,1.06-.57l.48-.19a.3.3,0,0,1,.29,0,1.5,1.5,0,0,1,.34-.54l.14-.19a.32.32,0,0,1,.33-.13l.21,0a.32.32,0,0,1,.25.3l0,.86c0,.69.07,1.38.07,2.06a8.37,8.37,0,0,1-.05,1,8.42,8.42,0,0,0-.05,1,.55.55,0,0,0,.18.32l.17-.1a.19.19,0,0,1,0-.07,1.61,1.61,0,0,1-.07-.25v-.1a3.43,3.43,0,0,1-.06-.56c0-.24,0-.49,0-.74a7,7,0,0,0,0-1.38l0-.2a4.82,4.82,0,0,1,0-2.2,1.38,1.38,0,0,1,.62-.91l.53-.29.24-.12a.34.34,0,0,1,.41.09,1.07,1.07,0,0,1,.17.27,1.3,1.3,0,0,1,.09.37L24,12c0-.62.11-1.25.2-1.9a.32.32,0,0,1,.24-.26.31.31,0,0,1,.33.12,1.45,1.45,0,0,1,.29.69c.11,1.3.23,2.6.32,3.89a.77.77,0,0,0,.08.4l0-.06a.9.9,0,0,0,.18-.4c0-.54-.12-1.1-.2-1.63s-.12-.79-.16-1.19-.08-.93-.1-1.43q0-.33,0-.69a.31.31,0,0,1,.16-.3l.74-.4a.27.27,0,0,1,.26,0,.3.3,0,0,1,.19.19c.06.18.13.35.19.53s.16.41.23.62l-.24-1.46a.32.32,0,0,1,.18-.34l.32-.15c.28-.14.59-.29.92-.43a1.74,1.74,0,0,1,1.42-.15,1.48,1.48,0,0,1,.72.91L30.1,7.7a.3.3,0,0,1,.15-.34,1,1,0,0,1,1,0,1.22,1.22,0,0,1,.32.28l-.06-.12a.29.29,0,0,1,0-.3.32.32,0,0,1,.25-.17L32.56,7a.36.36,0,0,1,.23.08.27.27,0,0,1,.11.22l.07,1c.06.76.11,1.5.15,2.25,0,.11,0,.23,0,.35A1.59,1.59,0,0,1,33,12.08c-.18.24-.17.35-.17.37s.09.13.18.2l.1-.16a.31.31,0,0,1,.28-.14.34.34,0,0,1,.27.16.6.6,0,0,0,.06.11.69.69,0,0,1,.15.4.4.4,0,0,0,.06.23.32.32,0,0,0,.19,0c.07,0,0-.2,0-.27a8.07,8.07,0,0,1,0-3.82,1.58,1.58,0,0,1,.1-.31l.06-.17a.33.33,0,0,1,.24-.2.32.32,0,0,1,.3.11l.09.1a.76.76,0,0,1,.18.25l.23.57c.3.75.61,1.51.89,2.27a2.46,2.46,0,0,0,1.85,1.53,6.79,6.79,0,0,0,3.52-.77l.12-.05a1.38,1.38,0,0,0,.63-1.88c-.13-.31.11-.67.31-1a.62.62,0,0,1,.57-.21h.09c.13,0,.22,0,.26-.33l-.17-.1-.25-.16a.33.33,0,0,1-.08-.42,2.44,2.44,0,0,1,.16-.23,2,2,0,0,0,.29-.53c.1-.37-.08-.68-.38-1.15a8.65,8.65,0,0,0-3.19-3,6.26,6.26,0,0,1-.55-.34,3.43,3.43,0,0,0-.92-.49A3.17,3.17,0,0,0,34.69,4a.32.32,0,0,1-.21.13A.29.29,0,0,1,34.24,4L34.13,4a4.5,4.5,0,0,1,.14,2c0,.22-.21.31-.35.38l-.12.06a.33.33,0,0,1-.29,0,.33.33,0,0,1-.18-.22l0-.13a.88.88,0,0,1,0-.2,8.46,8.46,0,0,0-.48-2,8.6,8.6,0,0,1,.33,1.91.82.82,0,0,1-.59.72l-1.8.21-.58.06a.33.33,0,0,1-.32-.18l-.1-.22-.19-.4a1.73,1.73,0,0,0-.13-.21,1.44,1.44,0,0,1-.23-.4,5.62,5.62,0,0,1,.09.57c0,.21.06.41.1.61a.32.32,0,0,1-.17.35c-.86.39-1.08.39-1.47-.44a6.73,6.73,0,0,0-.54-1c-.44-.67-1-1.46-1.51-2.22a.89.89,0,0,0-.36-.32.78.78,0,0,0-.2.13l.35.3a4,4,0,0,1,.75.73,17.58,17.58,0,0,1,1,1.7l.13.24c.31.56.49.87.38,1.2s-.45.5-1.13.82a.31.31,0,0,1-.41-.15l-.35-.75-.94-2c.23.64.43,1.3.64,2,.11.34.21.68.32,1a.31.31,0,0,1-.14.37L24.88,9a.31.31,0,0,1-.43-.11c-.08-.14-.15-.27-.23-.39a7.37,7.37,0,0,1-.45-.81c-.06-.11-.11-.22-.16-.33.07.19.13.37.19.55s.19.54.29.81a.91.91,0,0,1,0,.59.94.94,0,0,0,0,.16.32.32,0,0,1-.31.26h-.24a.33.33,0,0,1-.3-.2l-.09-.25c-.07-.18-.13-.36-.21-.54s-.07-.17-.1-.26a2.43,2.43,0,0,0-.27-.56,6.27,6.27,0,0,1-1-2.06l-.21-.61a1.63,1.63,0,0,0-.46-.5l0,0a.5.5,0,0,0,0,.33,20.19,20.19,0,0,1,2.09,4.83.32.32,0,0,1-.13.34l-.71.48a.32.32,0,0,1-.4,0,14.32,14.32,0,0,1-2-2.62c-.25-.4-.5-.79-.76-1.17a1.12,1.12,0,0,0-.25-.23,1.53,1.53,0,0,0,.11.42,2,2,0,0,0,.25.33,2.88,2.88,0,0,1,.22.27l.34.47c.49.67,1,1.36,1.45,2.07a1.3,1.3,0,0,1,.17.68c0,.08,0,.16,0,.23a.31.31,0,0,1-.2.35l-.22.07a.32.32,0,0,1-.36-.13l-1.34-2,.57,1.24.5,1.08a.32.32,0,0,1-.15.41l-.44.21c-.39.19-.79.39-1.21.55a.92.92,0,0,1-.89-.23c-.72-.82-1.42-1.65-2.12-2.48L14.37,9a1.12,1.12,0,0,0-.18-.19.65.65,0,0,0-.34,0A.78.78,0,0,0,13.9,9a2.52,2.52,0,0,0,.47.53c.25.25.47.44.68.64a9.48,9.48,0,0,1,2.31,2.75.32.32,0,0,1,0,.27.27.27,0,0,1-.2.17l-.48.13a10.67,10.67,0,0,1-1.27.3,1,1,0,0,1-.91-.45c-.37-.6-.7-1.24-1-1.85L13.22,11,13,10.56a7.82,7.82,0,0,0-.43-.81,3.37,3.37,0,0,0-.38-.45L12,9.11a.15.15,0,0,0-.08,0s0,.09.1.36a7,7,0,0,0,.51.79l.06.08a7.4,7.4,0,0,1,1.55,3.15.31.31,0,0,1-.31.36H12.66c-.29,0-.61,0-.76-.26l-.23-.36a.64.64,0,0,1,0,.47.9.9,0,0,1-.7.46,18.56,18.56,0,0,1-2,.34,1,1,0,0,1-.64-.22A7.89,7.89,0,0,0,3.91,12.85Zm-.5,1,0,0A10.36,10.36,0,0,0,6.32,16.1a7.68,7.68,0,0,1,1,.52.76.76,0,0,1,.37.46,6.9,6.9,0,0,1-.51,4.27l-.42,1.09a4,4,0,0,0,1-1l.23-.28A29.42,29.42,0,0,0,9.8,18.64a3,3,0,0,0,.34-1.81,1.63,1.63,0,0,1-.32.22A.31.31,0,0,1,9.46,17l-.07-.07a.45.45,0,0,1-.14-.34c.12-.67-.23-.88-.85-1.19A4.59,4.59,0,0,1,7.79,15,8.6,8.6,0,0,0,3.41,13.81Zm14.5,3.37c0,.47-.07.95-.09,1.43a.81.81,0,0,0,.11.4q.13-.21.27-.39l0-.09a2.21,2.21,0,0,1-.23-.74C17.92,17.59,17.91,17.38,17.91,17.18Zm-4.9.6c0,.23,0,.47,0,.7v.2l.1.09.1-.09.16-.13A3.07,3.07,0,0,1,13,17.78Zm7.36-1.41c0,.57-.1,1.13-.15,1.7a.59.59,0,0,0,.07.4.72.72,0,0,0,.3-.44,8.54,8.54,0,0,0-.16-1.3Zm.7-3.64a.34.34,0,0,0-.07.15,8.92,8.92,0,0,0-.07,2.91q0,.42.12.84v0c0-.21,0-.43,0-.64s.06-.62.06-.93c0-.68,0-1.36-.08-2ZM24,14.54c0,.48-.1,1-.18,1.42a.71.71,0,0,0,0,.34l.28-.41C24,15.44,24,15,24,14.54Zm-13.41.79a2,2,0,0,0,0,.26,3.46,3.46,0,0,1,.22-.31Zm1.1-.27.05.06.3.31.09.1h0c0-.15-.11-.31-.18-.47l0-.07Zm15.72-2.38a5.51,5.51,0,0,1-.13,1.09.51.51,0,0,0,.07.48l.25-.41Zm3.5-1.16a5.7,5.7,0,0,1-.12,1.35,1,1,0,0,0,0,.33l.07-.07c.18-.19.35-.37.6-.36a.86.86,0,0,0,.29,0,.85.85,0,0,0,0-.31c0-.2,0-.39,0-.59l0,.43a.32.32,0,0,1-.29.29.31.31,0,0,1-.33-.25Zm-20.59-.29,0,0c.15.22.31.43.47.65s.38.5.56.76c-.15-.26-.3-.52-.44-.79l-.29-.5ZM32.21,7.68a4,4,0,0,1,.1,1.67,4.27,4.27,0,0,0,0,.79l0,1c0,.31,0,.62,0,.93a1.9,1.9,0,0,1,.21-.35c.09-.1,0-.47,0-.71s0-.27,0-.4c0-.74-.09-1.48-.14-2.24l-.05-.67Zm-1.43.21.39,1.92c0-.38,0-.77,0-1.15a.82.82,0,0,0-.34-.73ZM22.2,6A4.92,4.92,0,0,0,23,7.51l.05.06A5.34,5.34,0,0,0,22.2,6ZM25,3.77c.47,1,.94,2.05,1.43,3.08l.21.47A2,2,0,0,0,27.17,7a2.7,2.7,0,0,0-.34-.7l-.13-.24a15.93,15.93,0,0,0-1-1.64,3.46,3.46,0,0,0-.64-.62ZM16.57,6.29l.31.25a3.17,3.17,0,0,1,.34.28l.34.3.17.14-.45-.7a.34.34,0,0,1-.2,0l-.15-.09a2,2,0,0,0-.25-.13ZM22.08,5a.76.76,0,0,1,.16.13,4.18,4.18,0,0,1,.83,1c-.17-.39-.35-.77-.54-1.15,0-.06-.07-.13-.13-.14a.31.31,0,0,0-.25.08.22.22,0,0,0-.07.06Zm5.19-3.62a.75.75,0,0,0,.07.38c.2.36.41.7.63,1.05a13.73,13.73,0,0,1,.93,1.63,3.9,3.9,0,0,1,.24.73.31.31,0,0,1,0-.16c.05-.21,0-.32-.19-.54a2.46,2.46,0,0,1-.22-.34,4,4,0,0,0-.24-.46A5.73,5.73,0,0,1,28,2.58c0-.11-.05-.21-.07-.31-.07-.34-.12-.57-.43-.75l-.11-.07ZM23.79,2.51a.18.18,0,0,0-.07.06c-.1.09-.16.15,0,.43l.11.15c.18.25.36.5.52.76a.57.57,0,0,1,.09-.52,1.12,1.12,0,0,1,.05-.13.19.19,0,0,1-.1-.08l-.1-.13c-.09-.1-.19-.24-.31-.36S23.81,2.51,23.79,2.51Zm7.79-.63a1.23,1.23,0,0,0,0,.2.54.54,0,0,0,.18.26,3.13,3.13,0,0,1,.75.9,5.9,5.9,0,0,0-.92-1.34S31.6,1.89,31.58,1.88Zm1.65.24a.41.41,0,0,1,0,.09,2.85,2.85,0,0,1,.16.3,1.83,1.83,0,0,0-.08-.25l-.1-.15Zm.14-.06Zm5.42,11a4.91,4.91,0,0,1-.53,0,2.38,2.38,0,0,1-1.89-1.71L36.31,11A2.47,2.47,0,0,0,36,10a5.19,5.19,0,0,1-.76-1.62,6.15,6.15,0,0,0-.46-1.11.54.54,0,0,1,0-.43A4,4,0,0,0,34.83,6a2.38,2.38,0,0,1,.8-2.16,2.85,2.85,0,0,1,3.26-.28l1.23.61.4.2a4.52,4.52,0,0,1,1.75,1.86,7.76,7.76,0,0,0,.67,1c.46.54-.06,1-.26,1.18l-.08.08-.81.74c-.32.29-.65.59-1,.89a.56.56,0,0,0-.07.23,4,4,0,0,0,.7.64l.21,0c.2,0,.41,0,.51.13l.14.22a.32.32,0,0,1,0,.39,1.62,1.62,0,0,0-.17.19,1.5,1.5,0,0,1-.55.47l-.21.09A6.45,6.45,0,0,1,38.79,13.07Zm-3.43-6a6.72,6.72,0,0,1,.47,1.16,4.68,4.68,0,0,0,.66,1.43,2.8,2.8,0,0,1,.44,1.24c0,.1,0,.2.06.3a1.75,1.75,0,0,0,1.36,1.22,5.07,5.07,0,0,0,2.75-.62l.2-.09a.85.85,0,0,0,.23-.18.77.77,0,0,1-.42-.1,3.5,3.5,0,0,1-.89-.87.87.87,0,0,1,.17-1c.32-.32.65-.62,1-.92s.53-.47.79-.72l.11-.1a1,1,0,0,0,.23-.25,10.38,10.38,0,0,1-.76-1.09,3.94,3.94,0,0,0-1.5-1.63l-.4-.19-1.23-.62a2.24,2.24,0,0,0-2.6.22c-.55.42-.55,1-.55,1.65A4.34,4.34,0,0,1,35.37,7S35.36,7.05,35.36,7.06Zm0-.07h0ZM33.46,10.1a.31.31,0,0,1-.13,0,.31.31,0,0,1-.18-.29V7.22a.31.31,0,0,1,.31-.31h.76a.32.32,0,0,1,.31.24l.18.77a.32.32,0,0,1,0,.25.32.32,0,0,1-.21.13c-.43.07-.43.21-.43.64A1.34,1.34,0,0,1,33.67,10,.32.32,0,0,1,33.46,10.1Zm.31-2.56v.37A1.26,1.26,0,0,1,34,7.77L34,7.54Z"/><path class="cls-1" d="M29.29,15a2.81,2.81,0,0,1-.38-.66c-.25-1.24-.47-2.49-.69-3.74A15.11,15.11,0,0,1,28,9.09c0-.14.16-.3.26-.45.13.09.35.16.38.28.11.5.14,1,.25,1.53.19.93.4,1.86.64,2.77S29.75,14,29.29,15Z"/><path class="cls-1" d="M29.29,15.3a.31.31,0,0,1-.27-.15,2.5,2.5,0,0,0-.16-.24,1.5,1.5,0,0,1-.26-.52q-.3-1.55-.57-3.09l-.18-1c-.07-.4-.15-.81-.19-1.22a.8.8,0,0,1,.22-.53A.94.94,0,0,0,28,8.47a.32.32,0,0,1,.2-.14.31.31,0,0,1,.25.05l.11.06a.69.69,0,0,1,.39.41c.06.27.1.54.14.82s.06.48.11.72c.16.76.38,1.76.64,2.75l0,.08c.22.83.21.94-.26,1.91a.3.3,0,0,1-.26.17Zm-1-6.25,0,.06c0,.34.12.73.19,1.11l.17,1c.19,1,.37,2.06.58,3.08a.11.11,0,0,0,0,.07c.14-.35.1-.48,0-1l0-.08c-.27-1-.49-2-.65-2.79q-.07-.37-.12-.75c0-.24-.07-.48-.12-.71Z"/><path class="cls-1" d="M39.47,8.25c-1,0-1.47-.46-1.3-1.34a6.49,6.49,0,0,1,.51-1.6A1.07,1.07,0,0,1,40,4.76a1.31,1.31,0,0,1,.87,1.17c.07.45.32.89,0,1.37A2.31,2.31,0,0,1,39.47,8.25Zm-.41-1.18.25.15c.39-.25.86-.44.87-1,0-.16-.19-.32-.32-.52Z"/><path class="cls-1" d="M39.43,8.56a1.64,1.64,0,0,1-1.34-.49,1.4,1.4,0,0,1-.23-1.22,6.68,6.68,0,0,1,.54-1.67,1.36,1.36,0,0,1,1.72-.72,1.58,1.58,0,0,1,1.09,1.42,2.61,2.61,0,0,0,.06.27,1.49,1.49,0,0,1-.14,1.34,2.66,2.66,0,0,1-1.59,1.06Zm0-.31h0ZM39.63,5a.71.71,0,0,0-.67.44A6.46,6.46,0,0,0,38.47,7a.84.84,0,0,0,.1.7,1.14,1.14,0,0,0,.86.26,2,2,0,0,0,1.19-.81c.17-.25.13-.46,0-.82,0-.11,0-.21-.07-.32-.11-.69-.42-.86-.65-.92A.91.91,0,0,0,39.63,5Zm-.32,2.53a.3.3,0,0,1-.16,0l-.25-.15a.3.3,0,0,1-.11-.42l.8-1.4a.3.3,0,0,1,.26-.15.35.35,0,0,1,.28.14.61.61,0,0,0,.12.16.93.93,0,0,1,.24.54,1.38,1.38,0,0,1-.84,1.17l-.17.11A.34.34,0,0,1,39.31,7.54Zm.54-1.21-.14.24A.49.49,0,0,0,39.85,6.33Z"/></svg>