<svg id="Layer_1" data-name="Layer 1" xmlns="http://www.w3.org/2000/svg" viewBox="0 0 19 33"><defs><style>.cls-1{fill:#293b5c;}</style></defs><path class="cls-1" d="M16.54,27.77c0,.44.05.89.11,1.33s-.13.84-.6.9c-.91.12-1.82.26-2.73.36a5,5,0,0,1-1.28.06,9.25,9.25,0,0,0-2.92.3c-1,.14-2,.23-3,.35-1.21.15-3-.56-3.24-1.46a4.52,4.52,0,0,1-.07-2.07,25.89,25.89,0,0,1,.93-3.23,8.72,8.72,0,0,1,2.4-3.45,12.58,12.58,0,0,0,1.55-2,1.84,1.84,0,0,0,.15-1.72,14.35,14.35,0,0,0-.72-1.82A8.22,8.22,0,0,0,6,14c-.65-.75-1.33-1.48-2-2.22a13.45,13.45,0,0,1-1.39-1.63c-.24-.38-.61-.82-.36-1.39.06-.14-.11-.39-.19-.58S1.92,8,1.9,7.82C1.76,6.88,1.63,6,1.52,5a2,2,0,0,1,.94-1.93A11.9,11.9,0,0,1,6.34,1.6,6,6,0,0,1,8,1.62,10.27,10.27,0,0,0,9.5,1.54a9.78,9.78,0,0,1,5.57.82,3,3,0,0,1,1.42,1.88.25.25,0,0,1,0,.17c-.67.69-.12,1.59-.42,2.36-.44,1.1-.68,2.3-1.2,3.36a4.84,4.84,0,0,1-1.94,2.08,4.27,4.27,0,0,0-2,4.27,1.6,1.6,0,0,0,.76,1.08,7.45,7.45,0,0,1,4,4.8c.3,1.2.53,2.42.75,3.64a1.63,1.63,0,0,1-.17,1.48s.08.17.13.26Zm-9.38-14L9.74,18.5a4,4,0,0,0-.59.13,1.18,1.18,0,0,0-.49.33c-.58.7-1.12,1.44-1.69,2.15S5.8,22.49,5.26,23.22a12.29,12.29,0,0,0-1.55,4.37s.07.07.1.11c.19-.25.33-.58.57-.72.57-.34,1.2-.59,1.66-.81a4.27,4.27,0,0,0,1.07.33c.82,0,1.65-.06,2.47,0,1.39.12,2.78.29,4.16.51a9.81,9.81,0,0,1,1.59.52c0-.19.05-.3.05-.41a12.3,12.3,0,0,0-.68-4.28,7.42,7.42,0,0,0-1.85-3.24,25,25,0,0,0-2.65-1.84,1.07,1.07,0,0,1-.45-.52c-.07-.31,0-.65-.49-.63-.08,0-.2-.18-.23-.3s.15-.23.22-.22c.61.07.59-.37.65-.76a6.37,6.37,0,0,1,.17-.87,4.24,4.24,0,0,1,1.22-2.08c1.18-1,2.54-1.82,3.05-3.47a10.23,10.23,0,0,0,.74-3.35A3.08,3.08,0,0,0,13,6a.63.63,0,0,1-.34.06c-.9,0-1.8-.1-2.7-.1a8.41,8.41,0,0,0-3.35.22.25.25,0,0,1-.12,0L4.36,6.08,2.86,6a6.32,6.32,0,0,0,2.9,6.33,6.78,6.78,0,0,1,.57-.46s.16.08.24.12l-.44.77.6.57.65-.53.15.11Zm0-10.57,0,.17a6.67,6.67,0,0,0-1.55,0c-.85.22-1.66.6-2.5.86-.44.13-.61.42-.48.78a.84.84,0,0,0,.63.44c1,.06,2.08.08,3.12.05s1.81-.11,2.71-.2c1.88-.19,3.75-.41,5.63-.59.52-.05.58-.33.45-.73-.08-.23-.17-.54-.36-.65a6.17,6.17,0,0,0-2-.94c-1.33-.18-2.69-.1-4-.19a13.18,13.18,0,0,0-4,.49,1.08,1.08,0,0,0-.83.79C5.06,3.42,6.07,2.63,7.17,3.16ZM3.73,29.55a3.11,3.11,0,0,0,.92.42,9.52,9.52,0,0,0,1.77,0c1.6-.08,3.19-.18,4.78-.3,1.16-.09,2.32-.21,3.47-.36.22,0,.41-.27.61-.4-.15-.14-.29-.29-.45-.42a2.59,2.59,0,0,0-.46-.26,8.57,8.57,0,0,0-3.79-.85c-1.47.09-2.95.05-4.39.27C5.16,27.79,4,28,3.73,29.55Z"/><path class="cls-1" d="M5.74,31.48c-1.32,0-3-.73-3.27-1.76a5,5,0,0,1-.09-2.25,26.6,26.6,0,0,1,.84-3l.1-.31a9.17,9.17,0,0,1,2.51-3.61,12.23,12.23,0,0,0,1.49-1.94,1.46,1.46,0,0,0,.11-1.36l-.18-.51a7.92,7.92,0,0,0-.52-1.26,5.19,5.19,0,0,0-.79-1l-.21-.24c-.38-.44-.77-.87-1.17-1.31L3.75,12l-.39-.42a9.17,9.17,0,0,1-1-1.26l-.08-.13A1.65,1.65,0,0,1,1.9,8.67a1.3,1.3,0,0,0-.08-.17l-.08-.16a.18.18,0,0,0-.05-.08,1,1,0,0,1-.18-.39C1.37,6.94,1.24,6,1.13,5.05A2.35,2.35,0,0,1,2.22,2.77a8.31,8.31,0,0,1,3-1.26l1-.28a3.05,3.05,0,0,1,1.24-.05L8,1.23a13.11,13.11,0,0,0,1.42-.07A10.17,10.17,0,0,1,15.23,2a3.4,3.4,0,0,1,1.63,2.1.58.58,0,0,1-.08.58c-.26.27-.25.58-.22,1.07a2.76,2.76,0,0,1-.11,1.16c-.18.44-.32.91-.47,1.37a14.59,14.59,0,0,1-.74,2,5.3,5.3,0,0,1-2.1,2.23,3.88,3.88,0,0,0-1.77,3.91,1.27,1.27,0,0,0,.56.77,7.83,7.83,0,0,1,4.18,5.05c.3,1.22.54,2.48.76,3.66V26a2.1,2.1,0,0,1-.09,1.45.4.4,0,0,1,.14.27l0,.41c0,.3,0,.6.08.91a1.07,1.07,0,0,1-.94,1.33L15,30.54c-.55.07-1.09.15-1.64.21l-.16,0a4.22,4.22,0,0,1-1.23,0A5.68,5.68,0,0,0,10,31l-.85.15c-.64.09-1.29.16-1.93.24l-1.11.12A2.55,2.55,0,0,1,5.74,31.48ZM6.9,20.57c-.17.19-.34.39-.52.57a8.43,8.43,0,0,0-2.31,3.29L4,24.75a25.42,25.42,0,0,0-.81,2.87,4.09,4.09,0,0,0,.07,1.88C3.41,30.16,5,30.81,6,30.68l1.12-.12c.64-.07,1.28-.14,1.91-.23.27,0,.54-.09.8-.15l.28-.05c-1.23.09-2.46.16-3.7.23H6.29a9.55,9.55,0,0,1-1.69,0A2.14,2.14,0,0,1,3.77,30l-.21-.12a.38.38,0,0,1-.22-.42c.33-1.86,1.87-2.09,2.79-2.23A23.87,23.87,0,0,1,9,27L10.45,27l-.9-.09a11.57,11.57,0,0,0-1.32,0c-.38,0-.76,0-1.14,0a2.49,2.49,0,0,1-.8-.21l-.23-.09-.26.12a12.72,12.72,0,0,0-1.23.61,1.22,1.22,0,0,0-.26.33,2.9,2.9,0,0,1-.19.29.4.4,0,0,1-.29.15.39.39,0,0,1-.3-.12.46.46,0,0,1-.2-.48c.08-.31.15-.61.23-.92A9.18,9.18,0,0,1,5,23c.33-.46.7-.9,1.06-1.33l.65-.79Zm5,9.43.23,0a3.57,3.57,0,0,0,1,0l.16,0q.81-.09,1.62-.21l1.1-.15c.15,0,.31,0,.26-.46s-.06-.63-.08-.95l0-.18a.36.36,0,0,1-.07-.1l0-.07a.5.5,0,0,1,0-.62c.23-.28.19-.59.1-1.07v-.09c-.23-1.22-.45-2.42-.75-3.61a7,7,0,0,0-3.8-4.55,2,2,0,0,1-1-1.41,4.64,4.64,0,0,1,2.15-4.63A4.5,4.5,0,0,0,14.53,10,15,15,0,0,0,15.24,8c.14-.46.29-.95.48-1.42a2,2,0,0,0,0-.82,2.13,2.13,0,0,1,.32-1.51A2.54,2.54,0,0,0,14.9,2.71a8.73,8.73,0,0,0-1.2-.46,8.19,8.19,0,0,1,.92.5L15,3a1.39,1.39,0,0,1,.53.84,1,1,0,0,1,0,.89.94.94,0,0,1-.74.38c-1.06.1-2.11.21-3.16.33l-1.7.18c.61,0,1.23,0,1.84.06l.95,0a.3.3,0,0,0,.14,0,2.67,2.67,0,0,1,1.87-.49h.37a.38.38,0,0,1,.29.1.4.4,0,0,1,.12.28,8.51,8.51,0,0,1-.57,2.91L14.72,9a6.62,6.62,0,0,1-2.57,3.17l-.61.49a3.88,3.88,0,0,0-1.1,1.91,3.41,3.41,0,0,0-.12.62l-.05.3a1.11,1.11,0,0,1-.44.87.93.93,0,0,1,.28.62s0,.1,0,.15a.77.77,0,0,0,.29.29c.3.21.61.41.92.6a11.55,11.55,0,0,1,1.78,1.27,7.76,7.76,0,0,1,2,3.41,12.58,12.58,0,0,1,.7,4.41,1.49,1.49,0,0,1,0,.28l0,.16a.38.38,0,0,1-.18.29.39.39,0,0,1-.33,0c-.19-.06-.36-.13-.54-.2a5.11,5.11,0,0,0-1-.31l-.7-.1c.53.16,1,.36,1.54.56a2.61,2.61,0,0,1,.54.31,3.73,3.73,0,0,1,.36.32l.13.12a.41.41,0,0,1,.12.32.4.4,0,0,1-.17.29l-.16.13a1.2,1.2,0,0,1-.62.33C13.75,29.81,12.8,29.92,11.87,30Zm-7.69-.65a1.39,1.39,0,0,0,.52.23,8.8,8.8,0,0,0,1.54,0H6.4c1.59-.09,3.18-.18,4.77-.3,1.11-.09,2.27-.21,3.45-.36l.06,0-.09-.07a1.36,1.36,0,0,0-.37-.21,8.06,8.06,0,0,0-3.62-.83l-1.54.07a24,24,0,0,0-2.81.2C5.22,28.18,4.45,28.37,4.18,29.35ZM8.9,26.09q.36,0,.72,0c1.32.11,2.69.28,4.18.51A5.76,5.76,0,0,1,15,27h0a12,12,0,0,0-.66-4,7,7,0,0,0-1.74-3.08,11.09,11.09,0,0,0-1.67-1.19c-.32-.2-.64-.4-.95-.62h0l.12.22a.41.41,0,0,1,0,.36.38.38,0,0,1-.28.21l-.22,0a1.48,1.48,0,0,0-.3.07A.88.88,0,0,0,9,19.2L8,20.4c-.25.32-.49.64-.74,1s-.44.54-.67.81-.71.85-1,1.29a8,8,0,0,0-1.21,3.08c.38-.2.76-.38,1.11-.53l.39-.18a.37.37,0,0,1,.29,0,3.91,3.91,0,0,1,.41.15,2.27,2.27,0,0,0,.55.16c.36,0,.73,0,1.09,0ZM5,12.28a.86.86,0,0,1,.13.14c.4.44.8.87,1.18,1.32l.21.23a6.45,6.45,0,0,1,.89,1.17A8.2,8.2,0,0,1,8,16.52c.06.16.11.32.17.49A2.24,2.24,0,0,1,8,19.08c-.21.3-.43.63-.67,1l.09-.12.95-1.21A1.6,1.6,0,0,1,9,18.27l.15-.05-2.32-4.3a.34.34,0,0,1-.05-.19.41.41,0,0,1-.3-.11l-.61-.56a.38.38,0,0,1-.12-.33.44.44,0,0,1-.19-.07C5.36,12.54,5.18,12.41,5,12.28Zm4.24,4ZM7.6,13.71l1.2,2.23a.61.61,0,0,1,.49-.23h.15a1.29,1.29,0,0,0,.05-.29l0-.32a4.49,4.49,0,0,1,.16-.76A4.53,4.53,0,0,1,11,12.09c.2-.18.41-.34.62-.51A5.81,5.81,0,0,0,14,8.8l.18-.57A8.82,8.82,0,0,0,14.68,6a2.11,2.11,0,0,0-1.41.34.9.9,0,0,1-.61.16l-1,0c-.86,0-1.73,0-2.59-.09a5.23,5.23,0,0,0-2.34.23.88.88,0,0,1-.29,0l-.81-.05L4.33,6.47l-1,0h-.1a6,6,0,0,0,2.55,5.42l.37-.29a.5.5,0,0,1,.59.08.49.49,0,0,1,.22.25.5.5,0,0,1,0,.32l-.29.5.13.12.38-.32a.39.39,0,0,1,.49,0l.15.11a.4.4,0,0,1,.12.47ZM2.66,8.88v0c-.13.3,0,.53.24.88l.1.15a5.62,5.62,0,0,0,.48.64A7,7,0,0,1,2.66,8.88ZM2.29,7.76l0,0A1.42,1.42,0,0,1,2.44,8a5.65,5.65,0,0,1,0-2.05.42.42,0,0,1,.24-.29,1,1,0,0,1-.46-.52.93.93,0,0,1,0-.75A1.15,1.15,0,0,1,3,3.83l.59-.2a.37.37,0,0,1,0-.31,2.11,2.11,0,0,1,.31-.57,4.89,4.89,0,0,0-1.18.65A1.59,1.59,0,0,0,1.91,5c.11.94.24,1.87.38,2.8ZM6.17,3.68a2.44,2.44,0,0,0-.48,0A14.23,14.23,0,0,0,4.3,4.2c-.36.13-.72.27-1.09.38C3,4.64,3,4.7,3,4.72a.33.33,0,0,0,0,.14A.59.59,0,0,0,3.27,5c1.05.06,2.09.08,3.09,0S8.17,5,9,4.89l2.46-.26c1.06-.12,2.11-.23,3.17-.33a.5.5,0,0,0,.17,0,1.43,1.43,0,0,1-.05-.17,1.55,1.55,0,0,0-.19-.44l-.39-.23a4.39,4.39,0,0,0-1.48-.66,21.68,21.68,0,0,0-2.42-.14c-.53,0-1.06,0-1.59-.05a9.22,9.22,0,0,0-1.83.08,1.62,1.62,0,0,1,.45.16.4.4,0,0,1,.22.39l0,.17a.39.39,0,0,1-.39.35l-.51,0Zm4.47-1.84c.44,0,.89,0,1.35.06A10.09,10.09,0,0,0,10.64,1.84Z"/><path class="cls-1" d="M9.86,10.14A4.78,4.78,0,0,1,9.31,9c0-.19.25-.64.37-.63a2.88,2.88,0,0,1,.87.38Z"/><path class="cls-1" d="M9.86,10.53a.38.38,0,0,1-.34-.21L9.3,9.93a2.78,2.78,0,0,1-.38-.85,1.26,1.26,0,0,1,.35-.89A.5.5,0,0,1,9.71,8a2,2,0,0,1,.79.3l.22.12a.34.34,0,0,1,.2.22.35.35,0,0,1,0,.3l-.69,1.38a.36.36,0,0,1-.34.22ZM9.78,8.81A.45.45,0,0,0,9.7,9a1.28,1.28,0,0,0,.14.32L10,8.93A1.13,1.13,0,0,0,9.78,8.81Z"/><path class="cls-1" d="M14,6.65a4.24,4.24,0,0,1-.33.59c-.25.32-.54.62-.82.92a1.9,1.9,0,0,1-.42.34s-.25-.14-.24-.19a1.73,1.73,0,0,1,.23-.5,4.18,4.18,0,0,1,.53-.72,8.63,8.63,0,0,1,.81-.66Z"/><path class="cls-1" d="M12.38,8.9A.65.65,0,0,1,12,8.74a.5.5,0,0,1-.24-.53A2.2,2.2,0,0,1,12,7.6l.05-.08a4.37,4.37,0,0,1,.53-.71,6.91,6.91,0,0,1,.6-.5l.24-.18a.39.39,0,0,1,.51,0l.24.22a.38.38,0,0,1,.08.47L14.21,7a2.33,2.33,0,0,1-.28.47c-.26.32-.54.63-.83.93a2.4,2.4,0,0,1-.53.44A.45.45,0,0,1,12.38,8.9Z"/><path class="cls-1" d="M7.16,10.79l-.39.52A3.9,3.9,0,0,1,6.06,11a.45.45,0,0,1-.15-.39c0-.09.26-.19.37-.16A7.07,7.07,0,0,1,7.16,10.79Z"/><path class="cls-1" d="M6.77,11.7a.45.45,0,0,1-.16,0,1,1,0,0,0-.22-.09,2.64,2.64,0,0,1-.55-.29.81.81,0,0,1-.31-.8.54.54,0,0,1,.26-.34A.86.86,0,0,1,6.38,10,4.4,4.4,0,0,1,7,10.3l.28.13a.39.39,0,0,1,.22.25.41.41,0,0,1-.06.34l-.38.52A.39.39,0,0,1,6.77,11.7Zm-.6-.9h0Z"/><path class="cls-1" d="M8.78,13.53l.53.44a1.57,1.57,0,0,1-.48.31c-.1,0-.34-.16-.34-.25S8.64,13.75,8.78,13.53Z"/><path class="cls-1" d="M8.82,14.67a.82.82,0,0,1-.47-.19A.61.61,0,0,1,8.09,14a.93.93,0,0,1,.24-.54,1.36,1.36,0,0,1,.12-.17A.38.38,0,0,1,9,13.23l.53.44a.39.39,0,0,1,0,.62l-.11.09a1.3,1.3,0,0,1-.51.28Z"/><path class="cls-1" d="M4.65,7l-.72.92C3.52,7.33,3.58,7.24,4.65,7Z"/><path class="cls-1" d="M3.93,8.31h0a.38.38,0,0,1-.31-.17,1,1,0,0,1-.27-.91c.14-.35.56-.46,1.22-.61A.39.39,0,0,1,5,6.79a.38.38,0,0,1,0,.45l-.71.92A.39.39,0,0,1,3.93,8.31Z"/><path class="cls-1" d="M10.09,7.86c0-.21,0-.48.07-.61s.38-.06.76-.11l-.66.72Z"/><path class="cls-1" d="M10.27,8.26h-.18a.37.37,0,0,1-.28-.13.36.36,0,0,1-.11-.29V7.67A.91.91,0,0,1,9.86,7a.91.91,0,0,1,.7-.22,1.89,1.89,0,0,0,.32,0,.4.4,0,0,1,.33.66l-.66.72A.37.37,0,0,1,10.27,8.26Z"/><path class="cls-1" d="M8.55,7l-.79.25c0-.13-.07-.35,0-.36a6.14,6.14,0,0,1,.73-.22Z"/><path class="cls-1" d="M7.76,7.65a.36.36,0,0,1-.22-.07.38.38,0,0,1-.17-.28l0-.11c0-.2-.1-.52.22-.65a4.31,4.31,0,0,1,.61-.19l.17,0a.39.39,0,0,1,.48.27l.09.34a.39.39,0,0,1-.26.48l-.79.24Z"/><path class="cls-1" d="M12.15,10.42l.6.65-.84.3Z"/><path class="cls-1" d="M11.91,11.76a.37.37,0,0,1-.26-.1.38.38,0,0,1-.12-.38l.24-.95a.42.42,0,0,1,.29-.29.38.38,0,0,1,.38.12l.6.65a.39.39,0,0,1,.09.36.38.38,0,0,1-.25.27l-.84.3A.27.27,0,0,1,11.91,11.76Z"/></svg>