<svg id="Layer_1" data-name="Layer 1" xmlns="http://www.w3.org/2000/svg" viewBox="0 0 95 19"><defs><style>.cls-1{fill:#293b5c;}</style></defs><path class="cls-1" d="M90.85.84l-.43.58,0,.17a5.31,5.31,0,0,1,3.82,1c-.1.09-.21.14-.25.23-.49.91-.5,1-1.39.53a5.71,5.71,0,0,0-2.83-.3A2.07,2.07,0,0,0,88.33,4a14.77,14.77,0,0,1-1.65,1.61,13.91,13.91,0,0,1-1.16.86c-.8.58-1.61,1.14-2.39,1.75a10.16,10.16,0,0,0-1.44,1.34,7.77,7.77,0,0,1-2.58,2,6.68,6.68,0,0,1-1.4.43c-1.44.32-2.87.67-4.32.92a14.8,14.8,0,0,1-3.88.12A14.77,14.77,0,0,1,65.36,12a29.08,29.08,0,0,0-8.08-1.88,22.52,22.52,0,0,0-4.57,0,9.83,9.83,0,0,0-3.07.92c-1.86.85-3.7,1.73-5.51,2.67-.84.44-1.58,1.08-2.4,1.59-1.82,1.13-3.57,2.43-5.85,2.51l-4.15.16c-.31,0-.62,0-.93.07-.1,0-.2.08-.28.06-1.71-.49-3.45-.91-5.13-1.5s-3.32-1.47-5-2.06A33.32,33.32,0,0,0,14.85,13a6.83,6.83,0,0,0-4.78,1.17c-.59.37-1.25.62-1.85,1s-.89.68-1.36,1-.86.45-1.27.71-.87.64-1.32.93c-.72.46-1.46.89-2.18,1.35-.28.18-.51.46-.8.61a1.93,1.93,0,0,1-.73.05c0-.32-.12-.75,0-.94a40.78,40.78,0,0,1,2.79-3.08,35.09,35.09,0,0,1,3.11-2.6c.91-.69,1.92-1.23,2.85-1.88a9.08,9.08,0,0,1,3.42-1.2c2.26-.53,4.34.16,6.41.86,1.88.63,3.73,1.35,5.59,2.06.79.3,1.56.67,2.33,1a11.47,11.47,0,0,0,5.94.64A18,18,0,0,0,35.81,14a13.83,13.83,0,0,0,5.12-3.13c.87-.76,1.81-1.44,2.72-2.16l.05,0c.51-1,1.69-.9,2.51-1.42A11,11,0,0,1,49,6.07a14.62,14.62,0,0,1,5.55-.4,17.7,17.7,0,0,1,5.1,1c1,.42,2,1,3.09,1.43S64.87,9,65.94,9.4a15.57,15.57,0,0,0,6.51.53c.31,0,.61-.31.93-.43a2.61,2.61,0,0,1,.73-.13,3,3,0,0,0,.73,0,17.08,17.08,0,0,0,6.36-4.1c1.09-1.09,2.42-1.81,3.52-2.84A12.45,12.45,0,0,1,86,1.28,4.36,4.36,0,0,1,89.13.34c.33,0,.68,0,1,0A4,4,0,0,1,91,.7Zm-8,6.08C85,5.72,87,4.57,88.16,2.3c-.71.24-.83-.23-1-.79L83.06,4.8ZM46.4,10.81h.29l3.28-4a1.9,1.9,0,0,0-.35,0A11.35,11.35,0,0,0,45.85,8.3a.69.69,0,0,0-.21.65C45.85,9.58,46.14,10.19,46.4,10.81Zm8.58-4L52.78,9l3.43-.06ZM51.5,9.26,50.35,7.79a11.63,11.63,0,0,0-2.11,2.81ZM43.69,13l2-1.07-1-2.09-.21,0Zm-1.24-.16a1.53,1.53,0,0,0,.23-.41c.24-.85.47-1.72.7-2.6L40.87,12ZM52.2,8.31l1.66-1.59-.09-.2-2.54,0-.09.18Zm-13.4,7,1-2.45-.16-.07-2.33,1.61Zm33.45-3.23,3-.54C73.77,10.24,73.31,10.36,72.25,12.11ZM24.09,15c.89.29,1.72.6,2.57.84a2.3,2.3,0,0,0,.8-.11v-.25l-2.85-1.23ZM59,7.81l-.12-.33-2.57-.69.84,1.63ZM36.34,15.24l-.6,1.69L38,16.35v-.18ZM40,15.13l.18.15L42.1,14l-1.32-.83Zm39-4.7L78.55,10a3.82,3.82,0,0,0-.46-.36c-.54-.33-.82-.22-1,.4-.07.3-.08.61-.14,1.06ZM3.79,17,4,16.86c.82-.55,1.63-1.13,2.48-1.64.45-.27.42-.61.39-1A10.22,10.22,0,0,0,3.79,17Zm76-9.15-.12-.14-1.37.83,1.22.76ZM31.62,17l1.79.08,0-.17-1.39-1ZM16.86,11.46,15.28,11c.07.54.2.93.68,1S16.71,11.88,16.86,11.46Zm16.79,4.06v.17l1.17.75.38-1.22ZM12,12.22c.87.09.82-.74,1.22-1.12L12,11.32Zm57.6-1.17-.73.87,1.71.2ZM80.42,9.18l.13.07,1-1-.92-.5Zm-70,3.61c1-.51,1-.51.79-1.19C10.32,11.87,10.25,12,10.42,12.79Zm65.66-2,.1-1.06-1,.27Zm-14.26-2-1.39-.67-.08.1.67,1Zm-32.66,7.7.13-.16a4.54,4.54,0,0,0-.74-.65c-.07,0-.34.29-.57.5Zm-9.94-4.37c.54,1,.82,1.05,1.29.41ZM82,5.9l-1,.68.91.46ZM30.62,16.58l.52-.78-1.2-.1c.19.22.28.31.36.42S30.46,16.34,30.62,16.58Zm-21.84-3c.83-.29.9-.42.65-1.23Zm-.84-.15-.64,1C8,14.37,8.18,14.14,7.94,13.39Zm5.73-1.59.1.13.91-.06-.37-.77ZM88.86,1.48l0-.14-1.15.06.71.54ZM58.45,9.19l1.15.15,0-.12-.47-.42Z"/></svg>